<svg width="100" height="51" viewBox="0 0 100 51" fill="none" xmlns="http://www.w3.org/2000/svg">
<path d="M16.5196 7.87171C16.9945 7.87171 17.5336 7.9038 18.1369 7.96798C18.7401 8.03216 19.3498 8.11559 19.966 8.21828C20.5821 8.30813 21.1854 8.41081 21.7758 8.52633C22.3791 8.64185 22.8989 8.73812 23.3353 8.81514C23.4765 8.84081 23.5471 8.90499 23.5471 9.00767V14.9763C23.5471 15.1046 23.4765 15.1688 23.3353 15.1688H21.8143C21.7501 15.1688 21.6988 15.156 21.6603 15.1303C21.6218 15.1046 21.6025 15.0661 21.6025 15.0148L20.8131 10.5865C20.8131 10.5095 20.7618 10.4453 20.6591 10.3939C20.428 10.3426 20.1328 10.272 19.7734 10.1821C19.414 10.0923 19.0418 10.0089 18.6567 9.93184C18.2845 9.84199 17.893 9.7714 17.4822 9.72005C17.0843 9.66871 16.6993 9.64304 16.327 9.64304C14.5685 9.64304 13.0026 9.91259 11.6292 10.4517C10.2686 10.9908 9.11978 11.7545 8.18277 12.7429C7.24576 13.7312 6.53338 14.9185 6.04562 16.3048C5.55787 17.6782 5.31399 19.1928 5.31399 20.8486C5.31399 22.5814 5.5707 24.2244 6.08413 25.7775C6.59756 27.3307 7.32919 28.6977 8.27904 29.8785C9.22888 31.0594 10.3713 31.99 11.7062 32.6703C13.0539 33.3506 14.5429 33.6908 16.173 33.6908C16.4554 33.6908 16.802 33.6779 17.2127 33.6522C17.6234 33.6266 18.0278 33.5881 18.4257 33.5367C18.8364 33.4854 19.2407 33.4212 19.6386 33.3442C20.0366 33.2672 20.3767 33.1517 20.6591 32.9976C20.7618 32.9334 20.8131 32.8629 20.8131 32.7858L21.6025 28.3383C21.6025 28.3126 21.6218 28.2805 21.6603 28.242C21.6988 28.2035 21.7501 28.1842 21.8143 28.1842H23.3353C23.4765 28.1842 23.5471 28.2484 23.5471 28.3768V34.3261C23.5471 34.4031 23.4765 34.4673 23.3353 34.5187C22.8989 34.6342 22.4176 34.7497 21.8913 34.8652C21.3651 34.9807 20.7874 35.0899 20.1585 35.1925C19.5424 35.2952 18.8749 35.3787 18.1561 35.4428C17.4373 35.5198 16.6415 35.5584 15.7687 35.5584C14.3311 35.5584 12.9769 35.3979 11.7062 35.077C10.4483 34.769 9.28664 34.3197 8.22128 33.7293C7.15591 33.126 6.20607 32.4136 5.37175 31.5921C4.55026 30.7578 3.85713 29.84 3.29236 28.8389C2.72759 27.8248 2.28476 26.721 1.96386 25.5272C1.65581 24.3207 1.50178 23.0756 1.50178 21.792C1.50178 20.3159 1.68148 18.9489 2.04088 17.691C2.41311 16.4331 2.93296 15.2843 3.60042 14.2446C4.28071 13.205 5.07653 12.2936 5.98786 11.5106C6.91203 10.7148 7.92606 10.0474 9.02993 9.50827C10.1338 8.96917 11.3211 8.56484 12.5918 8.29529C13.8754 8.0129 15.1847 7.87171 16.5196 7.87171ZM38.9692 13.7826C38.9179 13.7055 38.8666 13.667 38.8152 13.667C38.7382 13.667 38.6869 13.7055 38.6612 13.7826L34.9452 23.2168C34.8682 23.3965 34.926 23.4864 35.1185 23.4864H42.2423C42.4477 23.4864 42.5183 23.3965 42.4541 23.2168L38.9692 13.7826ZM42.8007 35C42.6723 35 42.6082 34.9358 42.6082 34.8075V33.787C42.6082 33.6458 42.6723 33.5752 42.8007 33.5752L45.8813 33.2672C45.9583 33.2672 46.0096 33.2415 46.0353 33.1902C46.061 33.1388 46.061 33.0746 46.0353 32.9976L43.1088 25.2577C43.0574 25.1807 43.0061 25.1422 42.9547 25.1422H34.3676C34.3035 25.155 34.2521 25.1935 34.2136 25.2577L31.0945 33.0746C31.0303 33.2415 31.0945 33.3314 31.2871 33.3442L34.2521 33.5752C34.3805 33.5881 34.4446 33.6587 34.4446 33.787V34.8075C34.4446 34.9358 34.3805 35 34.2521 35H25.7228C25.5944 35 25.5302 34.9358 25.5302 34.8075V33.787C25.5302 33.6458 25.5944 33.5752 25.7228 33.5752L28.9574 33.2672C29.0216 33.2543 29.0729 33.2158 29.1114 33.1517L39.1425 7.91022C39.1939 7.8332 39.2452 7.7947 39.2965 7.7947H40.2785C40.3427 7.80753 40.394 7.84604 40.4325 7.91022L49.655 33.1131C49.6806 33.1902 49.7384 33.2287 49.8283 33.2287L52.9666 33.5752C53.0821 33.5752 53.1399 33.6458 53.1399 33.787V34.8075C53.1399 34.9358 53.0693 35 52.9281 35H42.8007ZM76.3212 8.46857C76.4495 8.46857 76.5137 8.53275 76.5137 8.66111V14.8415C76.5137 14.9827 76.4495 15.0533 76.3212 15.0533H74.8579C74.7295 15.0533 74.6654 15.002 74.6654 14.8993L73.876 10.4324C73.876 10.3298 73.8118 10.2784 73.6834 10.2784H67.2912C67.1886 10.2784 67.1372 10.3426 67.1372 10.4709V33.0746C67.1372 33.1902 67.2014 33.2543 67.3298 33.2672L71.0649 33.5752C71.2061 33.5881 71.2767 33.6587 71.2767 33.787V34.8075C71.2767 34.9358 71.2061 35 71.0649 35H59.7631C59.6219 35 59.5513 34.9358 59.5513 34.8075V33.787C59.5513 33.6587 59.6219 33.5881 59.7631 33.5752L63.4983 33.2672C63.6267 33.2543 63.6908 33.1902 63.6908 33.0746V10.4709C63.6908 10.3426 63.6395 10.2784 63.5368 10.2784H57.1446C57.0163 10.2784 56.9521 10.3298 56.9521 10.4324L56.1627 14.8993C56.1627 15.002 56.0985 15.0533 55.9701 15.0533H54.5069C54.3785 15.0533 54.3143 14.9827 54.3143 14.8415V8.66111C54.3143 8.53275 54.3785 8.46857 54.5069 8.46857H76.3212Z" fill="#606062"/>
</svg>
