<svg width="309" height="224" viewBox="0 0 309 224" fill="none" xmlns="http://www.w3.org/2000/svg">
<path fill-rule="evenodd" clip-rule="evenodd" d="M163.623 15.2733C179.274 21.5482 194.152 34.9837 205.87 47.5103C230.275 73.5965 233.917 79.0809 264.021 100.984C281.568 113.747 295.403 124.54 302.217 138.979C321.365 179.534 298.558 223.34 250.771 223.34C248.827 223.34 56.5136 223.34 56.5136 223.34C56.5136 223.34 33.6627 223.896 16.9873 202.218C-39.5287 128.749 54.2079 -28.5989 163.623 15.2733Z" fill="#FFD1CC"/>
<path fill-rule="evenodd" clip-rule="evenodd" d="M134.373 21.9348H281.454C286.726 21.9348 291.035 27.575 291.035 34.4701V141.336C291.035 148.231 286.726 153.874 281.454 153.874H134.373C129.101 153.874 124.787 148.231 124.787 141.336V34.4701C124.787 27.575 129.101 21.9348 134.373 21.9348Z" fill="#BB1300"/>
<path fill-rule="evenodd" clip-rule="evenodd" d="M131.468 21.9348H278.548C283.818 21.9348 288.13 27.575 288.13 34.4701V139.741V141.336C288.13 148.231 283.818 153.874 278.548 153.874H131.468C126.194 153.874 121.882 148.231 121.882 141.336V34.4701C121.882 27.575 126.194 21.9348 131.468 21.9348Z" fill="#FB3E29"/>
<path d="M126.616 28.4722H283.211C283.275 28.4722 283.324 28.5414 283.324 28.6251V138.769H126.498V28.6251C126.498 28.5414 126.55 28.4722 126.616 28.4722Z" fill="#FED3CF"/>
<path fill-rule="evenodd" clip-rule="evenodd" d="M188.004 92.375H192.348V82.8689H188.004V92.375Z" fill="white"/>
<path fill-rule="evenodd" clip-rule="evenodd" d="M205.006 142.635C206.583 142.635 207.862 144.138 207.862 145.99C207.862 147.842 206.583 149.345 205.006 149.345C203.43 149.345 202.15 147.842 202.15 145.99C202.15 144.138 203.43 142.635 205.006 142.635Z" fill="white"/>
<path fill-rule="evenodd" clip-rule="evenodd" d="M135.975 131.112H165.62V54.4746H135.975V131.112Z" fill="white"/>
<path fill-rule="evenodd" clip-rule="evenodd" d="M136.106 45.7129H251.619V34.5393H136.106V45.7129Z" fill="white"/>
<path fill-rule="evenodd" clip-rule="evenodd" d="M136.106 45.7129H146.641V34.5393H136.106V45.7129Z" fill="#FF968B"/>
<path fill-rule="evenodd" clip-rule="evenodd" d="M194.324 92.375H198.668V74.938H194.324V92.375Z" fill="white"/>
<path fill-rule="evenodd" clip-rule="evenodd" d="M200.647 92.3748H204.989V71.2134H200.647V92.3748Z" fill="white"/>
<path fill-rule="evenodd" clip-rule="evenodd" d="M206.968 92.3749H211.312V68.5679H206.968V92.3749Z" fill="white"/>
<path fill-rule="evenodd" clip-rule="evenodd" d="M213.291 92.3748H217.633V71.2134H213.291V92.3748Z" fill="white"/>
<path fill-rule="evenodd" clip-rule="evenodd" d="M219.606 92.3749H223.95V63.9028H219.606V92.3749Z" fill="white"/>
<path fill-rule="evenodd" clip-rule="evenodd" d="M225.929 92.3748H230.27V57.9856H225.929V92.3748Z" fill="white"/>
<path d="M111.055 63.4038H171.726C173.425 63.4038 174.815 65.0367 174.815 67.0331V90.618C174.815 92.6144 173.425 94.2473 171.726 94.2473C159.539 94.2473 130.702 94.2473 111.055 94.2473C109.359 94.2473 107.969 92.6144 107.969 90.618V67.0331C107.969 65.0367 109.359 63.4038 111.055 63.4038Z" fill="#DC3624"/>
<path fill-rule="evenodd" clip-rule="evenodd" d="M137.659 70.8845H168.1C168.743 70.8845 169.269 71.5019 169.269 72.2578C169.269 73.0136 168.743 73.631 168.1 73.631H137.659C137.016 73.631 136.49 73.0136 136.49 72.2578C136.49 71.5019 137.016 70.8845 137.659 70.8845Z" fill="white"/>
<path fill-rule="evenodd" clip-rule="evenodd" d="M137.659 77.4624H168.1C168.743 77.4624 169.269 78.0798 169.269 78.8357C169.269 79.5915 168.743 80.2118 168.1 80.2118H137.659C137.016 80.2118 136.49 79.5915 136.49 78.8357C136.49 78.0798 137.016 77.4624 137.659 77.4624Z" fill="white"/>
<path d="M137.659 84.04H151.091C151.734 84.04 152.259 84.6603 152.259 85.4162C152.259 86.1692 151.734 86.7895 151.091 86.7895H137.659C137.016 86.7895 136.49 86.1692 136.49 85.4162C136.49 84.6603 137.016 84.04 137.659 84.04Z" fill="white"/>
<path fill-rule="evenodd" clip-rule="evenodd" d="M122.808 68.6804C117.885 68.6804 113.895 73.3685 113.895 79.153C113.895 84.9374 117.885 89.6284 122.808 89.6284C127.731 89.6284 131.724 84.9374 131.724 79.153C131.724 73.3685 127.731 68.6804 122.808 68.6804Z" fill="white"/>
<path fill-rule="evenodd" clip-rule="evenodd" d="M116.974 84.8133C118.341 86.8155 120.441 88.0965 122.796 88.0965C125.011 88.0965 127 86.9627 128.367 85.1595C128.159 82.4678 128.259 81.1984 125.58 78.9568C125.001 80.1541 123.908 80.959 122.653 80.959C121.401 80.959 120.311 80.1541 119.731 78.9626C117.096 81.2504 117.246 82.2688 116.974 84.8133Z" fill="#A71302"/>
<path fill-rule="evenodd" clip-rule="evenodd" d="M122.653 74.0205C121.251 74.0205 120.111 75.3591 120.111 77.0093C120.111 78.6567 121.251 79.9953 122.653 79.9953C124.057 79.9953 125.197 78.6567 125.197 77.0093C125.197 75.3591 124.057 74.0205 122.653 74.0205Z" fill="#A71302"/>
<path d="M188.716 90.1736L209.197 76.2795L215.51 83.6997L230.705 73.3772L231.073 74.1359L215.388 84.7931L209.075 77.3758L189.089 90.9324L188.716 90.1736Z" fill="#C80005"/>
<path fill-rule="evenodd" clip-rule="evenodd" d="M209.126 75.1804C209.929 75.1804 210.585 75.9478 210.585 76.8941C210.585 77.8433 209.929 78.6107 209.126 78.6107C208.321 78.6107 207.665 77.8433 207.665 76.8941C207.665 75.9478 208.321 75.1804 209.126 75.1804Z" fill="#C80005"/>
<path fill-rule="evenodd" clip-rule="evenodd" d="M215.476 82.3696C216.284 82.3696 216.935 83.137 216.935 84.0833C216.935 85.0325 216.284 85.7999 215.476 85.7999C214.67 85.7999 214.02 85.0325 214.02 84.0833C214.02 83.137 214.67 82.3696 215.476 82.3696Z" fill="#C80005"/>
<path fill-rule="evenodd" clip-rule="evenodd" d="M230.75 72.1021C231.557 72.1021 232.208 72.8723 232.208 73.8186C232.208 74.7649 231.557 75.5323 230.75 75.5323C229.944 75.5323 229.291 74.7649 229.291 73.8186C229.291 72.8723 229.944 72.1021 230.75 72.1021Z" fill="#C80005"/>
<path fill-rule="evenodd" clip-rule="evenodd" d="M188.713 89.1409C189.519 89.1409 190.172 89.9083 190.172 90.8545C190.172 91.8008 189.519 92.5682 188.713 92.5682C187.906 92.5682 187.255 91.8008 187.255 90.8545C187.255 89.9083 187.906 89.1409 188.713 89.1409Z" fill="#C80005"/>
<path fill-rule="evenodd" clip-rule="evenodd" d="M22.5664 224H288.565V223.339H22.5664V224Z" fill="#A01000"/>
<path fill-rule="evenodd" clip-rule="evenodd" d="M95.8754 128.039C90.6255 136.815 104.04 180.399 106.623 201.079C107.802 210.527 110.338 212.466 117.582 214.393C127.082 216.926 133.523 220.024 140.497 219.745C144.576 219.577 147.866 219.768 149.467 218.357C155.031 213.452 146.388 207.783 146.388 207.783C146.388 207.783 129.032 199.743 125.567 197.654C122.589 195.591 120.885 123.957 101.408 118.885C98.8588 118.219 99.2861 123.969 95.8754 128.039Z" fill="#FF4935"/>
<path fill-rule="evenodd" clip-rule="evenodd" d="M52.7539 223.339C53.5569 214.234 54.7625 206.425 56.2677 199.815C64.6803 199.478 72.3513 197.6 74.2568 196.039C75.0499 193.162 78.6669 183.333 75.2046 181.894C72.5453 180.52 68.0493 180.099 63.4477 179.897C77.9008 154.956 100.315 179.816 99.0476 223.339H52.7539ZM108.202 223.339C111.458 220.922 114.559 219.56 115.61 223.339H108.202Z" fill="#0B3870"/>
<path fill-rule="evenodd" clip-rule="evenodd" d="M99.0232 71.1528C98.4609 75.9794 98.564 80.0242 99.0011 83.6333C99.9907 91.8729 102.564 97.7323 105.435 104.982C105.673 105.588 105.793 106.973 105.616 107.804C105.324 109.163 104.551 110.02 104.528 110.804C104.438 113.888 107.438 115.169 106.485 118.677C105.474 122.413 100.838 126.68 98.014 131.343C98.014 131.343 88.7469 119.358 84.7788 118.513C80.8107 117.665 80.2803 103.003 80.2803 102.253C80.2803 101.5 83.8138 72.2722 83.8138 72.2722L99.0232 71.1528Z" fill="black"/>
<path fill-rule="evenodd" clip-rule="evenodd" d="M66.9273 116.364C58.6645 116.364 51.5803 119.341 46.5784 125.414C46.2838 125.775 46.0407 126.227 45.8418 126.761C47.4403 144.112 53.5717 148.347 49.2108 159.356C50.0309 163.037 54.3305 178.316 55.0352 181.772C55.0991 181.775 57.5006 192.378 55.4281 203.782C54.1512 208.857 53.336 212.971 51.2464 223.339H120.45C117.98 206.869 115.146 193.892 114.974 191.607C113.857 176.891 116.04 127.987 104.18 120.054C94.7924 113.773 78.392 116.364 66.9273 116.364Z" fill="#FF4935"/>
<path fill-rule="evenodd" clip-rule="evenodd" d="M89.6312 115.943C99.4434 122.174 104.588 182.214 102.243 223.34H79.3696C80.1283 157.129 73.8742 131.553 67.9834 116.28C76.3297 115.631 79.2689 114.91 89.6312 115.943Z" fill="white"/>
<path fill-rule="evenodd" clip-rule="evenodd" d="M88.4032 111.335L88.5997 116.479L88.9017 116.935C91.0405 122.679 85.518 126.568 84.0251 127.462C82.5027 127.185 73.7954 123.951 73.2871 115.864L73.3264 115.345L73.6285 103.88C73.211 103.753 72.3049 103.736 71.502 102.132C70.6303 100.389 69.8789 97.0024 70.0115 95.7849C70.2521 93.5865 72.8844 94.9252 72.8844 94.9252H72.8869C70.4044 88.5811 67.3301 83.1573 72.9532 79.2625C78.5763 75.3649 90.2056 75.0244 90.2056 75.0244L97.1424 73.8127C94.0435 80.2174 104.045 105.874 88.4032 111.335Z" fill="#FAA557"/>
<path fill-rule="evenodd" clip-rule="evenodd" d="M77.8672 105.565C80.61 113.147 83.0459 115.888 88.6002 116.479L88.4013 111.231C86.2822 111.101 81.0348 109.264 77.8672 105.565Z" fill="#EC903A"/>
<path fill-rule="evenodd" clip-rule="evenodd" d="M98.37 65.2645C89.0783 57.55 75.1114 59.4079 68.2728 71.7038C62.3869 82.286 62.3108 100.453 53.3236 100.966C50.3819 101.137 46.9835 102.856 46.5145 110.403C44.388 111.208 39.5359 114.232 43.0988 122.258C39.585 125.223 39.2019 130.102 42.3548 132.987C43.9214 129.508 44.5893 128.512 45.8318 126.776L45.8343 126.773C46.0332 126.233 46.2787 125.777 46.5783 125.414C51.5802 119.341 58.6643 116.364 66.9271 116.364C68.8866 116.358 71.4256 116.358 73.3115 116.19C73.5619 112.57 73.999 105.764 74.0113 103.522C74.0113 103.522 71.6319 101.63 71.8234 97.9342C71.8775 95.0059 72.6681 95.4358 76.1869 97.4091C76.651 90.0581 75.8701 85.7537 87.7646 85.7595C91.6075 85.7624 94.9789 85.0267 97.8224 83.665C102.881 81.2416 104.371 70.2469 98.37 65.2645Z" fill="black"/>
<path fill-rule="evenodd" clip-rule="evenodd" d="M57.1378 143.061C54.5743 136.377 58.8714 113.909 46.5791 125.414C45.9161 126.034 42.7657 131.233 42.0487 132.644C36.4943 143.584 24.6932 185.073 27.161 204.838C28.3322 214.231 35.2027 216.104 42.4048 218.019C51.8536 220.535 66.0881 223.619 73.02 223.339C77.0765 223.175 80.3473 223.362 81.9385 221.96C87.4732 217.085 78.8789 211.45 78.8789 211.45C78.8789 211.45 48.4109 197.363 44.9659 195.286C43.3378 194.16 59.1587 148.332 57.1378 143.061Z" fill="#FF4935"/>
<path fill-rule="evenodd" clip-rule="evenodd" d="M142.265 219.159H78.4365V221.251C78.4365 222.399 79.237 223.339 80.2143 223.339H140.485C141.464 223.339 142.265 222.399 142.265 221.251V219.159Z" fill="#E71C00"/>
<path fill-rule="evenodd" clip-rule="evenodd" d="M164.985 175.734H117.346C115.468 175.734 114.282 177.601 113.931 179.793L107.153 222.214H161.147L167.925 179.231C168.224 177.341 166.601 175.734 164.985 175.734Z" fill="#E71C00"/>
<path fill-rule="evenodd" clip-rule="evenodd" d="M166.616 175.734H118.979C117.098 175.734 115.915 177.601 115.564 179.793L109.474 217.766H109.393L109.002 220.553C108.791 222.064 110.073 223.339 111.377 223.339H160.725C162.029 223.339 162.906 222.07 163.097 220.553L163.39 218.265L169.558 179.231C169.857 177.341 168.234 175.734 166.616 175.734Z" fill="#FF4935"/>
<path fill-rule="evenodd" clip-rule="evenodd" d="M141.516 197.103C140.381 196.786 139.2 197.798 138.881 199.368C138.562 200.94 139.225 202.469 140.359 202.79C141.496 203.107 142.675 202.094 142.994 200.525C143.316 198.955 142.653 197.423 141.516 197.103Z" fill="#EDF8FD"/>
<path fill-rule="evenodd" clip-rule="evenodd" d="M76.5778 223.339C84.045 223.296 92.3888 223.412 94.5964 223.302C92.4109 215.645 84.6294 213.124 78.4906 213.539C77.0173 214.725 75.5219 220.881 76.5778 223.339Z" fill="#FAA557"/>
<path fill-rule="evenodd" clip-rule="evenodd" d="M249.706 53.9841H266.555C269.362 53.9841 271.653 56.6816 271.653 59.9734C271.653 63.2681 269.362 65.9626 266.555 65.9626H249.706C246.904 65.9626 244.61 63.2681 244.61 59.9734C244.61 56.6816 246.904 53.9841 249.706 53.9841Z" fill="#C81D0A"/>
<path fill-rule="evenodd" clip-rule="evenodd" d="M249.951 56.0469H266.31C268.149 56.0469 269.655 57.8154 269.655 59.9734C269.655 62.1342 268.149 63.8998 266.31 63.8998H249.951C248.112 63.8998 246.609 62.1342 246.609 59.9734C246.609 57.8154 248.112 56.0469 249.951 56.0469Z" fill="#FF9589"/>
<path fill-rule="evenodd" clip-rule="evenodd" d="M250.042 56.9961C251.44 56.9961 252.574 58.329 252.574 59.9734C252.574 61.6179 251.44 62.9507 250.042 62.9507C248.64 62.9507 247.506 61.6179 247.506 59.9734C247.506 58.329 248.64 56.9961 250.042 56.9961Z" fill="white"/>
<path fill-rule="evenodd" clip-rule="evenodd" d="M249.706 69.1912H266.555C269.362 69.1912 271.653 71.8857 271.653 75.1804C271.653 78.4722 269.362 81.1697 266.555 81.1697H249.706C246.904 81.1697 244.61 78.4722 244.61 75.1804C244.61 71.8857 246.904 69.1912 249.706 69.1912Z" fill="#C81D0A"/>
<path fill-rule="evenodd" clip-rule="evenodd" d="M249.951 71.2539H266.31C268.149 71.2539 269.655 73.0224 269.655 75.1804C269.655 77.3384 268.149 79.1069 266.31 79.1069H249.951C248.112 79.1069 246.609 77.3384 246.609 75.1804C246.609 73.0224 248.112 71.2539 249.951 71.2539Z" fill="#FF9589"/>
<path fill-rule="evenodd" clip-rule="evenodd" d="M250.042 72.2029C251.44 72.2029 252.574 73.5358 252.574 75.1802C252.574 76.8247 251.44 78.1576 250.042 78.1576C248.64 78.1576 247.506 76.8247 247.506 75.1802C247.506 73.5358 248.64 72.2029 250.042 72.2029Z" fill="white"/>
<path fill-rule="evenodd" clip-rule="evenodd" d="M244.9 117.428H304.611V88.9563H244.9V117.428Z" fill="#FF9387"/>
<path fill-rule="evenodd" clip-rule="evenodd" d="M248.727 112.201H250.777V99.2556H248.727V112.201Z" fill="white"/>
<path fill-rule="evenodd" clip-rule="evenodd" d="M251.705 112.2H253.755V96.0618H251.705V112.2Z" fill="white"/>
<path fill-rule="evenodd" clip-rule="evenodd" d="M254.684 112.201H256.732V100.92H254.684V112.201Z" fill="white"/>
<path fill-rule="evenodd" clip-rule="evenodd" d="M257.659 112.2H259.707V102.195H257.659V112.2Z" fill="white"/>
<path fill-rule="evenodd" clip-rule="evenodd" d="M260.638 112.201H262.685V99.2556H260.638V112.201Z" fill="white"/>
<path fill-rule="evenodd" clip-rule="evenodd" d="M263.611 112.201H265.659V97.5332H263.611V112.201Z" fill="white"/>
<path fill-rule="evenodd" clip-rule="evenodd" d="M266.59 112.2H268.638V96.0618H266.59V112.2Z" fill="white"/>
<path fill-rule="evenodd" clip-rule="evenodd" d="M269.563 112.201H271.611V97.5332H269.563V112.201Z" fill="white"/>
<path fill-rule="evenodd" clip-rule="evenodd" d="M272.542 112.201H274.59V99.2556H272.542V112.201Z" fill="white"/>
<path fill-rule="evenodd" clip-rule="evenodd" d="M275.521 112.201H277.568V104.131H275.521V112.201Z" fill="white"/>
<path fill-rule="evenodd" clip-rule="evenodd" d="M278.494 112.201H280.545V103.309H278.494V112.201Z" fill="white"/>
<path fill-rule="evenodd" clip-rule="evenodd" d="M281.473 112.201H283.52V99.2556H281.473V112.201Z" fill="white"/>
<path fill-rule="evenodd" clip-rule="evenodd" d="M284.449 112.201H286.497V97.5332H284.449V112.201Z" fill="white"/>
<path fill-rule="evenodd" clip-rule="evenodd" d="M287.425 112.201H289.475V95.7676H287.425V112.201Z" fill="white"/>
<path fill-rule="evenodd" clip-rule="evenodd" d="M290.401 112.201H292.449V97.5332H290.401V112.201Z" fill="white"/>
<path fill-rule="evenodd" clip-rule="evenodd" d="M293.38 112.2H295.428V102.195H293.38V112.2Z" fill="white"/>
<path fill-rule="evenodd" clip-rule="evenodd" d="M296.358 112.201H298.406V104.867H296.358V112.201Z" fill="white"/>
<path fill-rule="evenodd" clip-rule="evenodd" d="M180.22 223.34H220.24V185.676H180.22V223.34Z" fill="white"/>
<path fill-rule="evenodd" clip-rule="evenodd" d="M202.506 208.346C201.143 209.483 199.262 209.468 197.909 208.311C195.677 206.404 195.697 202.547 197.951 200.672C199.314 199.535 201.195 199.547 202.548 200.704C204.78 202.613 204.76 206.471 202.506 208.346ZM207.309 210.504L206.771 209.863C206.545 209.595 206.496 209.183 206.656 208.857C206.968 208.228 207.201 207.564 207.366 206.877C207.456 206.517 207.741 206.269 208.058 206.272L208.824 206.274C209.222 206.28 209.549 205.905 209.549 205.438L209.561 203.713C209.561 203.248 209.242 202.867 208.844 202.864L208.078 202.859C207.754 202.856 207.476 202.605 207.395 202.241C207.235 201.552 207.005 200.885 206.703 200.251C206.545 199.922 206.599 199.512 206.828 199.247L207.373 198.615C207.655 198.289 207.655 197.752 207.378 197.42L206.349 196.194C206.072 195.863 205.617 195.86 205.33 196.186L204.79 196.817C204.559 197.083 204.208 197.141 203.933 196.953C203.395 196.59 202.83 196.313 202.248 196.119C201.936 196.018 201.728 195.681 201.733 195.306V194.406C201.738 193.938 201.416 193.557 201.021 193.557L199.552 193.543C199.154 193.54 198.833 193.918 198.828 194.385L198.823 195.286C198.823 195.663 198.612 195.995 198.3 196.09C197.713 196.275 197.148 196.546 196.608 196.898C196.328 197.083 195.977 197.019 195.751 196.754L195.213 196.114C194.936 195.782 194.482 195.779 194.199 196.105L193.153 197.317C192.871 197.645 192.866 198.179 193.146 198.511L193.686 199.151C193.912 199.42 193.956 199.832 193.796 200.158C193.49 200.787 193.251 201.451 193.087 202.135C193.001 202.498 192.718 202.746 192.397 202.743L191.631 202.737C191.233 202.735 190.909 203.113 190.909 203.58L190.896 205.299C190.896 205.767 191.216 206.148 191.613 206.15L192.38 206.156C192.699 206.159 192.981 206.41 193.062 206.776C193.224 207.46 193.453 208.13 193.752 208.764C193.912 209.09 193.858 209.503 193.629 209.768L193.084 210.4C192.802 210.726 192.797 211.263 193.079 211.594L194.108 212.821C194.386 213.152 194.842 213.155 195.127 212.826L195.67 212.195C195.898 211.932 196.247 211.874 196.529 212.062C197.062 212.425 197.627 212.702 198.209 212.896C198.521 212.997 198.73 213.331 198.73 213.709L198.722 214.609C198.722 215.074 199.041 215.457 199.439 215.46L200.905 215.469C201.303 215.472 201.625 215.097 201.625 214.629L201.634 213.729C201.634 213.351 201.848 213.023 202.157 212.924C202.744 212.74 203.309 212.471 203.849 212.117C204.129 211.932 204.48 211.993 204.701 212.261L205.244 212.901C205.522 213.233 205.976 213.236 206.258 212.91L207.304 211.698C207.587 211.369 207.592 210.836 207.309 210.504Z" fill="#FF4935"/>
<path fill-rule="evenodd" clip-rule="evenodd" d="M270.988 123.963H236.964C233.846 123.963 231.292 126.992 231.292 130.696V214.295C231.292 217.996 233.846 221.026 236.964 221.026H270.988C274.106 221.026 276.658 217.996 276.658 214.295V130.696C276.658 126.992 274.106 123.963 270.988 123.963Z" fill="#BB1300"/>
<path fill-rule="evenodd" clip-rule="evenodd" d="M273.458 123.963H239.434C236.316 123.963 233.765 126.992 233.765 130.696V214.295C233.765 217.996 236.316 221.026 239.434 221.026H273.458C276.579 221.026 279.128 217.996 279.128 214.295V130.696C279.128 126.992 276.579 123.963 273.458 123.963Z" fill="#FF6D5D"/>
<path fill-rule="evenodd" clip-rule="evenodd" d="M273.725 126.597C275.378 126.597 276.738 128.195 276.738 130.137V214.041C276.738 215.98 275.378 217.581 273.725 217.581H239.166C237.514 217.581 236.153 215.98 236.153 214.041V130.137C236.153 128.195 237.514 126.597 239.166 126.597H246.697C246.697 127.456 247.296 128.163 248.031 128.163H266.626C267.358 128.163 267.96 127.456 267.96 126.597H273.725Z" fill="white"/>
<path fill-rule="evenodd" clip-rule="evenodd" d="M238.97 128.985H241.31C241.414 128.985 241.497 129.083 241.497 129.202C241.497 129.323 241.414 129.421 241.31 129.421H238.97C238.87 129.421 238.786 129.323 238.786 129.202C238.786 129.083 238.87 128.985 238.97 128.985Z" fill="#89CCFB"/>
<path fill-rule="evenodd" clip-rule="evenodd" d="M238.97 130.021H241.31C241.414 130.021 241.497 130.116 241.497 130.238C241.497 130.356 241.414 130.454 241.31 130.454H238.97C238.87 130.454 238.786 130.356 238.786 130.238C238.786 130.116 238.87 130.021 238.97 130.021Z" fill="#89CCFB"/>
<path fill-rule="evenodd" clip-rule="evenodd" d="M238.97 130.982H241.31C241.414 130.982 241.497 131.08 241.497 131.198C241.497 131.32 241.414 131.415 241.31 131.415H238.97C238.87 131.415 238.786 131.32 238.786 131.198C238.786 131.08 238.87 130.982 238.97 130.982Z" fill="#89CCFB"/>
<path fill-rule="evenodd" clip-rule="evenodd" d="M241.622 153.825H248.407C248.795 153.825 249.112 154.197 249.112 154.656C249.112 155.112 248.795 155.484 248.407 155.484H241.622C241.234 155.484 240.915 155.112 240.915 154.656C240.915 154.197 241.234 153.825 241.622 153.825Z" fill="black"/>
<path fill-rule="evenodd" clip-rule="evenodd" d="M241.622 157.342H259.226C259.614 157.342 259.933 157.714 259.933 158.17C259.933 158.629 259.614 159.001 259.226 159.001H241.622C241.234 159.001 240.915 158.629 240.915 158.17C240.915 157.714 241.234 157.342 241.622 157.342Z" fill="#E02F1B"/>
<path fill-rule="evenodd" clip-rule="evenodd" d="M241.622 161.24H255.95C256.341 161.24 256.657 161.612 256.657 162.071C256.657 162.527 256.341 162.902 255.95 162.902H241.622C241.234 162.902 240.915 162.527 240.915 162.071C240.915 161.612 241.234 161.24 241.622 161.24Z" fill="#E02F1B"/>
<path fill-rule="evenodd" clip-rule="evenodd" d="M241.622 168.726H248.407C248.795 168.726 249.112 169.101 249.112 169.557C249.112 170.013 248.795 170.388 248.407 170.388H241.622C241.234 170.388 240.915 170.013 240.915 169.557C240.915 169.101 241.234 168.726 241.622 168.726Z" fill="black"/>
<path fill-rule="evenodd" clip-rule="evenodd" d="M241.622 183.521H248.407C248.795 183.521 249.112 183.893 249.112 184.351C249.112 184.807 248.795 185.182 248.407 185.182H241.622C241.234 185.182 240.915 184.807 240.915 184.351C240.915 183.893 241.234 183.521 241.622 183.521Z" fill="black"/>
<path fill-rule="evenodd" clip-rule="evenodd" d="M241.622 172.243H259.226C259.614 172.243 259.933 172.615 259.933 173.074C259.933 173.53 259.614 173.905 259.226 173.905H241.622C241.234 173.905 240.915 173.53 240.915 173.074C240.915 172.615 241.234 172.243 241.622 172.243Z" fill="#E02F1B"/>
<path fill-rule="evenodd" clip-rule="evenodd" d="M241.622 187.144H259.226C259.614 187.144 259.933 187.519 259.933 187.975C259.933 188.431 259.614 188.806 259.226 188.806H241.622C241.234 188.806 240.915 188.431 240.915 187.975C240.915 187.519 241.234 187.144 241.622 187.144Z" fill="#E02F1B"/>
<path fill-rule="evenodd" clip-rule="evenodd" d="M241.622 176.141H255.95C256.341 176.141 256.657 176.516 256.657 176.972C256.657 177.427 256.341 177.803 255.95 177.803H241.622C241.234 177.803 240.915 177.427 240.915 176.972C240.915 176.516 241.234 176.141 241.622 176.141Z" fill="#E02F1B"/>
<path fill-rule="evenodd" clip-rule="evenodd" d="M241.622 191.045H255.95C256.341 191.045 256.657 191.417 256.657 191.873C256.657 192.331 256.341 192.704 255.95 192.704H241.622C241.234 192.704 240.915 192.331 240.915 191.873C240.915 191.417 241.234 191.045 241.622 191.045Z" fill="#E02F1B"/>
<path d="M267.414 167.056C268.907 167.056 270.26 167.769 271.24 168.92C272.22 170.071 272.824 171.657 272.824 173.414C272.824 175.169 272.22 176.758 271.24 177.909C270.26 179.058 268.907 179.77 267.414 179.77C265.921 179.77 264.568 179.058 263.589 177.909C262.609 176.758 262.005 175.169 262.005 173.414C262.005 171.657 262.609 170.071 263.589 168.92C264.568 167.769 265.921 167.056 267.414 167.056ZM270.494 169.794C269.705 168.868 268.618 168.296 267.414 168.296C266.211 168.296 265.123 168.868 264.335 169.794C263.544 170.72 263.058 172.001 263.058 173.414C263.058 174.828 263.544 176.106 264.335 177.032C265.123 177.958 266.211 178.532 267.414 178.532C268.618 178.532 269.705 177.958 270.494 177.032C271.282 176.106 271.77 174.828 271.77 173.414C271.77 172.001 271.282 170.72 270.494 169.794Z" fill="#E02F1B"/>
<path d="M267.414 181.96C268.907 181.96 270.26 182.669 271.24 183.821C272.22 184.972 272.824 186.561 272.824 188.315C272.824 190.072 272.22 191.659 271.24 192.81C270.26 193.961 268.907 194.671 267.414 194.671C265.921 194.671 264.568 193.961 263.589 192.81C262.609 191.659 262.005 190.072 262.005 188.315C262.005 186.561 262.609 184.972 263.589 183.821C264.568 182.669 265.921 181.96 267.414 181.96ZM270.494 184.698C269.705 183.771 268.618 183.197 267.414 183.197C266.211 183.197 265.123 183.771 264.335 184.698C263.544 185.624 263.058 186.902 263.058 188.315C263.058 189.729 263.544 191.007 264.335 191.936C265.123 192.862 266.211 193.433 267.414 193.433C268.618 193.433 269.705 192.862 270.494 191.936C271.282 191.007 271.77 189.729 271.77 188.315C271.77 186.902 271.282 185.624 270.494 184.698Z" fill="#E02F1B"/>
<path d="M267.414 152.155C268.907 152.155 270.26 152.868 271.24 154.016C272.22 155.167 272.824 156.757 272.824 158.511C272.824 160.268 272.22 161.857 271.24 163.006C270.26 164.157 268.907 164.869 267.414 164.869C265.921 164.869 264.568 164.157 263.589 163.006C262.609 161.857 262.005 160.268 262.005 158.511C262.005 156.757 262.609 155.167 263.589 154.016C264.568 152.868 265.921 152.155 267.414 152.155ZM270.494 154.893C269.705 153.967 268.618 153.396 267.414 153.396C266.211 153.396 265.123 153.967 264.335 154.893C263.544 155.819 263.058 157.1 263.058 158.511C263.058 159.924 263.544 161.205 264.335 162.131C265.123 163.057 266.211 163.629 267.414 163.629C268.618 163.629 269.705 163.057 270.494 162.131C271.282 161.205 271.77 159.924 271.77 158.511C271.77 157.1 271.282 155.819 270.494 154.893Z" fill="#E02F1B"/>
<path fill-rule="evenodd" clip-rule="evenodd" d="M267.172 174.32L271.302 169.797C271.626 169.445 272.132 169.465 272.431 169.843C272.731 170.224 272.711 170.818 272.39 171.17L267.65 176.36L267.638 176.371C267.309 176.709 266.803 176.669 266.514 176.282L264.23 173.212C263.94 172.826 263.975 172.229 264.306 171.888C264.635 171.551 265.141 171.591 265.431 171.978L267.172 174.32Z" fill="#FDEB04"/>
<path d="M267.414 196.748C268.907 196.748 270.26 197.458 271.24 198.609C272.22 199.76 272.824 201.35 272.824 203.104C272.824 204.858 272.22 206.448 271.24 207.599C270.26 208.75 268.907 209.46 267.414 209.46C265.921 209.46 264.568 208.75 263.589 207.599C262.609 206.448 262.005 204.858 262.005 203.104C262.005 201.35 262.609 199.76 263.589 198.609C264.568 197.458 265.921 196.748 267.414 196.748ZM270.494 199.486C269.705 198.557 268.618 197.986 267.414 197.986C266.211 197.986 265.123 198.557 264.335 199.486C263.544 200.409 263.058 201.69 263.058 203.104C263.058 204.518 263.544 205.796 264.335 206.722C265.123 207.648 266.211 208.222 267.414 208.222C268.618 208.222 269.705 207.648 270.494 206.722C271.282 205.796 271.77 204.518 271.77 203.104C271.77 201.69 271.282 200.409 270.494 199.486Z" fill="#E02F1B"/>
<path fill-rule="evenodd" clip-rule="evenodd" d="M241.622 198.309H248.407C248.795 198.309 249.112 198.681 249.112 199.137C249.112 199.596 248.795 199.968 248.407 199.968H241.622C241.234 199.968 240.915 199.596 240.915 199.137C240.915 198.681 241.234 198.309 241.622 198.309Z" fill="black"/>
<path fill-rule="evenodd" clip-rule="evenodd" d="M241.622 201.933H259.226C259.614 201.933 259.933 202.308 259.933 202.763C259.933 203.219 259.614 203.594 259.226 203.594H241.622C241.234 203.594 240.915 203.219 240.915 202.763C240.915 202.308 241.234 201.933 241.622 201.933Z" fill="#E02F1B"/>
<path fill-rule="evenodd" clip-rule="evenodd" d="M241.622 205.83H255.95C256.341 205.83 256.657 206.205 256.657 206.661C256.657 207.117 256.341 207.492 255.95 207.492H241.622C241.234 207.492 240.915 207.117 240.915 206.661C240.915 206.205 241.234 205.83 241.622 205.83Z" fill="#E02F1B"/>
<path fill-rule="evenodd" clip-rule="evenodd" d="M238.413 147.115C228.284 158.842 211.979 158.704 201.995 146.803C192.014 134.906 192.134 115.749 202.263 104.022C212.389 92.2911 228.694 92.4296 238.678 104.33C248.66 116.231 248.54 135.387 238.413 147.115ZM235.081 143.142C226.821 152.709 213.521 152.596 205.377 142.891C197.239 133.183 197.332 117.561 205.593 107.994C213.853 98.4247 227.152 98.5401 235.297 108.245C243.437 117.953 243.341 133.578 235.081 143.142Z" fill="#FEEA00"/>
<path fill-rule="evenodd" clip-rule="evenodd" d="M194.779 137.213L193.497 132.188L149.708 146.272C148.149 146.771 147.194 149.149 147.658 150.96C148.119 152.775 150.064 154.241 151.596 153.655L194.779 137.213Z" fill="#FEEC00"/>
<path fill-rule="evenodd" clip-rule="evenodd" d="M196.922 136.622L195.505 131.074C195.329 130.393 194.712 130.007 194.138 130.209C193.556 130.413 193.227 131.138 193.401 131.816L194.813 137.364C194.99 138.044 195.606 138.434 196.186 138.229C196.763 138.027 197.092 137.303 196.922 136.622Z" fill="#FEEC00"/>
<path fill-rule="evenodd" clip-rule="evenodd" d="M150.909 154.636V154.633H150.892C150.815 154.619 150.737 154.604 150.658 154.587V154.572H150.599C150.536 154.558 150.472 154.541 150.408 154.52V154.515H150.386C150.275 154.48 150.165 154.443 150.059 154.396H150.057C150.025 154.382 149.99 154.368 149.959 154.353V154.339H149.922C149.882 154.321 149.846 154.304 149.809 154.284V154.278H149.796C149.767 154.264 149.738 154.249 149.708 154.232V154.22H149.684C149.659 154.206 149.632 154.192 149.607 154.177V154.163H149.578C149.487 154.108 149.396 154.05 149.308 153.99V153.984H149.298C149.251 153.952 149.202 153.917 149.156 153.883V153.868H149.136C149.092 153.834 149.048 153.799 149.006 153.765V153.75H148.986C148.942 153.713 148.898 153.675 148.856 153.638V153.632H148.851C148.748 153.54 148.65 153.444 148.556 153.34V153.338H148.552C148.537 153.32 148.52 153.303 148.505 153.289V153.28H148.497C148.483 153.263 148.468 153.248 148.456 153.231V153.219H148.446C148.431 153.205 148.419 153.188 148.404 153.173V153.162H148.397C148.382 153.144 148.367 153.127 148.355 153.113V153.101H148.348C148.333 153.084 148.318 153.066 148.306 153.049V153.043H148.299C148.284 153.023 148.269 153.003 148.254 152.986C148.186 152.893 148.119 152.798 148.056 152.703V152.691H148.046C148.016 152.642 147.984 152.593 147.955 152.544V152.513H147.935C147.925 152.495 147.916 152.478 147.903 152.461V152.455H147.901C147.886 152.426 147.869 152.4 147.854 152.371V152.337H147.835C147.807 152.285 147.78 152.233 147.753 152.181V152.161H147.744C147.675 152.022 147.611 151.878 147.555 151.731V151.69H147.537C147.525 151.659 147.515 151.627 147.503 151.598V151.572H147.493C147.481 151.532 147.466 151.494 147.454 151.454V151.396H147.434C147.424 151.361 147.415 151.327 147.402 151.292V151.278H147.4C147.38 151.217 147.363 151.157 147.348 151.096C147.331 151.033 147.316 150.972 147.304 150.908V150.865H147.294C147.28 150.799 147.265 150.73 147.253 150.663V150.571H147.238C147.223 150.493 147.213 150.412 147.203 150.331V150.277H147.196C147.147 149.841 147.149 149.405 147.196 148.981H147.203V148.921C147.213 148.843 147.223 148.765 147.235 148.687H147.253V148.586C147.265 148.523 147.277 148.459 147.292 148.393H147.304V148.338C147.331 148.22 147.361 148.098 147.395 147.983H147.402V147.957C147.42 147.905 147.434 147.856 147.451 147.804H147.454V147.798C147.466 147.761 147.478 147.723 147.491 147.689H147.503V147.654C147.513 147.625 147.523 147.596 147.535 147.571H147.555V147.521C147.626 147.334 147.707 147.155 147.798 146.982H147.805V146.97C147.835 146.916 147.864 146.861 147.896 146.806H147.903V146.792C147.935 146.737 147.967 146.682 148.001 146.627H148.004V146.624C148.068 146.526 148.134 146.428 148.203 146.333H148.205V146.33C148.218 146.313 148.232 146.292 148.245 146.275H148.254V146.264C148.267 146.246 148.279 146.232 148.291 146.217H148.306V146.2L148.338 146.157H148.355V146.137C148.365 146.125 148.375 146.111 148.387 146.099H148.404V146.076L148.436 146.039H148.456V146.018C148.466 146.007 148.478 145.992 148.488 145.981H148.505V145.964C148.517 145.949 148.529 145.935 148.542 145.923H148.556V145.909C148.569 145.891 148.583 145.877 148.598 145.863H148.606V145.854C148.623 145.837 148.637 145.822 148.655 145.805C148.716 145.744 148.777 145.684 148.841 145.629H148.856V145.614C148.898 145.58 148.937 145.545 148.979 145.511H149.006V145.49C149.023 145.476 149.038 145.464 149.052 145.45H149.057C149.082 145.43 149.106 145.413 149.131 145.392H149.156V145.375C149.202 145.34 149.249 145.306 149.298 145.274H149.308V145.268C149.364 145.231 149.426 145.193 149.485 145.156H149.507V145.144C149.534 145.13 149.561 145.112 149.588 145.098H149.607V145.089C149.637 145.072 149.669 145.055 149.701 145.04H149.708V145.035C149.745 145.017 149.784 144.997 149.821 144.98H149.858V144.965C149.89 144.948 149.922 144.937 149.956 144.922H149.959V144.919C150.005 144.899 150.054 144.882 150.103 144.861H150.108C150.135 144.85 150.165 144.841 150.194 144.83L169.593 138.212L180.994 134.323C181.05 134.302 181.107 134.285 181.163 134.271H181.215V134.253C181.269 134.239 181.325 134.225 181.379 134.21H181.465V134.19C181.534 134.175 181.6 134.164 181.669 134.152H181.716V134.144C182.067 134.092 182.401 134.095 182.717 134.147V134.152H182.744C182.803 134.161 182.86 134.175 182.916 134.19V134.21H183C183.056 134.227 183.113 134.245 183.167 134.265V134.271H183.184C183.231 134.285 183.275 134.302 183.319 134.323V134.328H183.334C183.415 134.363 183.491 134.401 183.57 134.441V134.447H183.577C183.609 134.464 183.638 134.481 183.668 134.499V134.504H183.68C183.71 134.525 183.739 134.542 183.768 134.562V134.565H183.773C183.874 134.631 183.975 134.703 184.07 134.787V134.799H184.085C184.149 134.853 184.21 134.911 184.269 134.969V134.975H184.277C184.291 134.989 184.306 135.006 184.321 135.021V135.035H184.333C184.414 135.119 184.495 135.211 184.571 135.306V135.329H184.586C184.598 135.344 184.611 135.358 184.621 135.373V135.387H184.633C184.645 135.404 184.657 135.422 184.67 135.439V135.448H184.677C184.743 135.54 184.807 135.638 184.871 135.739V135.742C184.905 135.797 184.94 135.855 184.972 135.912V135.918H184.974C185.026 136.007 185.075 136.103 185.121 136.201V136.212H185.126C185.141 136.244 185.156 136.276 185.171 136.307V136.331H185.183C185.249 136.478 185.313 136.633 185.372 136.795V136.801H185.374C185.389 136.844 185.406 136.89 185.421 136.936V136.977H185.436C185.448 137.014 185.46 137.052 185.473 137.086V137.095H185.475C185.49 137.147 185.507 137.199 185.522 137.251V137.271H185.529C185.544 137.323 185.559 137.375 185.573 137.427V137.447H185.578C185.586 137.47 185.59 137.496 185.598 137.519C185.605 137.554 185.615 137.586 185.622 137.62V137.623H185.625C185.642 137.695 185.657 137.764 185.671 137.834V137.86H185.679C185.694 137.932 185.708 138.007 185.723 138.079V138.154H185.735C185.75 138.229 185.762 138.304 185.772 138.376V138.39H185.775C185.794 138.532 185.811 138.67 185.824 138.809V139.037H185.838C185.848 139.259 185.848 139.475 185.836 139.683H185.824V139.844C185.811 139.969 185.794 140.093 185.775 140.214H185.772V140.222C185.76 140.3 185.745 140.375 185.728 140.45H185.723V140.473C185.711 140.525 185.698 140.574 185.684 140.626H185.671V140.67C185.659 140.713 185.647 140.759 185.632 140.802H185.622V140.834C185.593 140.923 185.561 141.01 185.527 141.097H185.522V141.108C185.507 141.143 185.492 141.18 185.477 141.215H185.473V141.224C185.446 141.281 185.421 141.336 185.392 141.391H185.372V141.428C185.357 141.457 185.345 141.483 185.33 141.509H185.323V141.521C185.291 141.578 185.259 141.63 185.225 141.685H185.222V141.688C185.058 141.948 184.861 142.181 184.63 142.392H184.621V142.401C184.579 142.438 184.537 142.473 184.495 142.51H184.471V142.528C184.454 142.542 184.436 142.553 184.422 142.568H184.419C184.395 142.588 184.37 142.608 184.343 142.626H184.321V142.643C184.272 142.678 184.225 142.712 184.174 142.744H184.169V142.747C184.11 142.787 184.046 142.825 183.985 142.862H183.97V142.871C183.938 142.888 183.908 142.905 183.876 142.92H183.869V142.926C183.835 142.943 183.8 142.963 183.764 142.98H183.719V143.001C183.692 143.015 183.668 143.027 183.641 143.038H183.619V143.05C183.518 143.096 183.415 143.136 183.309 143.177L152.699 154.451C152.635 154.474 152.574 154.494 152.512 154.515H152.463V154.529C152.409 154.546 152.355 154.561 152.301 154.572H152.213V154.593C152.144 154.61 152.075 154.621 152.009 154.633H151.962V154.639C151.609 154.691 151.255 154.688 150.909 154.636Z" fill="url(#paint0_linear_1114_20)"/>
<path fill-rule="evenodd" clip-rule="evenodd" d="M235.297 108.245C242.484 116.811 243.25 129.99 237.657 139.542L237.61 139.51L237.065 140.494C236.468 141.42 235.803 142.306 235.081 143.142C226.821 152.709 213.522 152.596 205.377 142.891C197.239 133.183 197.332 117.561 205.593 107.994C213.853 98.4247 227.152 98.5401 235.297 108.245Z" fill="white"/>
<path d="M234.401 113.859C233.854 113.129 232.908 113.063 232.287 113.704C231.666 114.347 231.605 115.458 232.152 116.185C234.866 119.811 235.639 125.91 234.18 130.382C233.881 131.29 234.266 132.309 235.037 132.658C235.808 133.007 236.68 132.557 236.975 131.648C237.908 128.792 238.126 125.454 237.667 122.269C237.22 119.159 236.118 116.162 234.401 113.859Z" fill="#FF897C"/>
<path d="M207.827 115.72C206.931 117.269 206.189 119.087 205.843 120.786C205.654 121.735 205.023 122.281 204.215 122.056C203.41 121.833 202.833 120.89 203.024 119.944C203.555 117.336 204.61 114.768 206.175 112.613C207.056 111.618 208.223 112.241 208.613 113.236C209.04 114.318 208.294 114.909 207.827 115.72Z" fill="#FF897C"/>
<path fill-rule="evenodd" clip-rule="evenodd" d="M82.0393 30.2724C80.4726 34.5624 76.6445 37.2772 72.6862 36.9021C66.1497 36.2876 62.1226 28.4404 64.7058 21.3606C66.27 17.0735 70.0957 14.3587 74.0539 14.7309C80.593 15.3483 84.6225 23.1926 82.0393 30.2724ZM94.0443 27.6499L92.2787 27.1364C91.5421 26.9229 91.0068 26.1555 90.9871 25.264C90.9503 23.5359 90.7269 21.8482 90.3364 20.221C90.1326 19.3584 90.4469 18.4439 91.1001 17.9823L92.6569 16.8773C93.4648 16.3061 93.7275 15.0713 93.2388 14.1222L91.439 10.6169C90.9503 9.66772 89.8994 9.36191 89.0915 9.93603L87.5347 11.041C86.8815 11.5026 86.0442 11.4045 85.4917 10.7871C84.4506 9.62445 83.2793 8.60604 82 7.76362C81.337 7.3251 81.0104 6.41633 81.1946 5.54794L81.6292 3.47363C81.8576 2.39464 81.2952 1.30988 80.3818 1.04158L76.9981 0.0606758C76.0846 -0.207629 75.1589 0.450151 74.9306 1.52626L74.4935 3.59768C74.3093 4.46607 73.6611 5.095 72.8998 5.11808C71.4315 5.16424 69.9925 5.42389 68.6101 5.8826C67.8759 6.12494 67.0975 5.75278 66.7021 4.98537L65.7641 3.15339C65.2755 2.20711 64.227 1.90131 63.4191 2.47542L60.4332 4.59012C59.6278 5.16135 59.37 6.39613 59.8562 7.3453L60.7942 9.17727C61.1871 9.9418 61.1036 10.9285 60.5806 11.5718C59.591 12.8008 58.7242 14.1741 58.0023 15.6772C57.6339 16.459 56.858 16.8398 56.1189 16.6263L54.3534 16.1128C53.4375 15.8474 52.5117 16.5052 52.2858 17.5813L51.4485 21.5539C51.2226 22.63 51.7825 23.7177 52.6984 23.9831L54.4614 24.4966C55.2005 24.713 55.7334 25.4746 55.753 26.3719C55.7899 28.0942 56.0158 29.7848 56.4037 31.4091C56.6124 32.2717 56.2932 33.1891 55.645 33.6536L54.0833 34.7557C53.2754 35.3269 53.0176 36.5617 53.5062 37.5108L55.3012 41.0161C55.7923 41.9653 56.8433 42.2682 57.6511 41.697L59.2055 40.592C59.8611 40.1275 60.696 40.2256 61.2485 40.8459C62.292 42.0057 63.4609 43.027 64.7426 43.8694C65.4056 44.305 65.7347 45.2196 65.5505 46.0851L65.1134 48.1594C64.8851 49.2355 65.4449 50.3231 66.3608 50.5914L69.7445 51.5752C70.658 51.8406 71.5862 51.1829 71.8145 50.1067L72.2491 48.0324C72.4308 47.1641 73.0816 46.538 73.8428 46.5149C75.3112 46.4717 76.7476 46.2062 78.1325 45.7504C78.8643 45.5081 79.6451 45.8802 80.038 46.6448L80.9785 48.4738C81.4671 49.4259 82.5156 49.7317 83.3259 49.1605L86.3069 47.0429C87.1148 46.4717 87.3751 45.2369 86.8889 44.2877L85.9484 42.4557C85.5531 41.6883 85.6366 40.7074 86.1621 40.0583C87.1541 38.8351 88.0209 37.4589 88.7379 35.9529C89.1111 35.174 89.8822 34.7903 90.6213 35.0067L92.3892 35.5173C93.3051 35.7856 94.2309 35.1278 94.4568 34.0517L95.2941 30.0791C95.52 29.003 94.9602 27.9153 94.0443 27.6499Z" fill="#FF331D"/>
<defs>
<linearGradient id="paint0_linear_1114_20" x1="166.091" y1="142.914" x2="168.61" y2="150.315" gradientUnits="userSpaceOnUse">
<stop stop-color="#C91400"/>
<stop offset="1" stop-color="#340702"/>
</linearGradient>
</defs>
</svg>
