<svg width="653" height="435" viewBox="0 0 653 435" fill="none" xmlns="http://www.w3.org/2000/svg">
<path d="M64.3292 174.656C91.1516 141.271 125.009 124.989 197.621 121.558C270.208 118.128 287.634 173.314 405.364 161.978C523.069 150.618 584.843 153.974 607.091 185.843C629.339 217.736 639.407 322.614 464.9 308.196C290.393 293.803 234.71 266.956 155.162 281.498C75.6398 296.041 43.1994 291.193 35.3689 267.901C27.5385 244.583 51.6762 190.441 64.3292 174.656Z" fill="#EBECEC"/>
<path d="M55.8027 358.56C55.8027 358.56 174.353 357.292 325.294 358.56C476.26 359.803 583.451 359.877 601.15 369.895C618.849 379.938 611.218 397.836 517.724 393.362C424.231 388.887 371.407 374.594 315.6 382.872C259.792 391.125 212.138 381.554 167.268 381.852C122.399 382.176 57.8908 387.57 37.0593 377.602C16.2527 367.633 38.1034 358.709 55.8027 358.56Z" fill="#EBECEC"/>
<path d="M304.015 77.6333H260.936C256.834 77.6333 253.528 80.9395 253.528 85.0412V114.871C253.528 118.973 256.834 122.279 260.936 122.279H266.131C264.764 126.182 263.173 131.477 264.515 132.074C266.032 132.745 272.967 126.207 276.92 122.279H304.015C308.117 122.279 311.423 118.973 311.423 114.871V85.0412C311.423 80.9395 308.117 77.6333 304.015 77.6333Z" fill="#FFBB06"/>
<path d="M284.377 112.883C284.278 115.493 282.065 117.531 279.405 117.432C276.795 117.308 274.757 115.12 274.856 112.51C274.981 109.85 277.168 107.812 279.778 107.911C282.438 108.01 284.477 110.223 284.377 112.883ZM272.594 90.9326C270.68 89.9134 270.158 87.3778 271.55 85.7123C273.191 83.7485 276.074 81.7349 280.947 81.9338C287.186 82.1824 292.581 86.4581 292.357 92.3247C292.183 96.3766 289.051 98.7631 284.999 100.304C283.557 100.876 283.482 102.02 283.433 103.412C283.358 104.679 282.289 105.674 280.996 105.624L278.809 105.549C277.516 105.5 276.522 104.406 276.572 103.138L276.646 100.926C276.721 99.1111 276.87 97.5947 278.784 96.4761C281.394 94.9597 283.756 94.9348 283.88 91.9767C283.955 89.988 282.513 88.5213 280.648 88.4468C278.958 88.3722 277.715 89.1179 276.87 90.1123C275.801 91.3552 274.036 91.7032 272.594 90.9326Z" fill="#005A82"/>
<path d="M254.298 350.904L257.58 363.905L261.98 364.899L269.686 363.905L266.852 350.904H254.298Z" fill="#F79F8F"/>
<path d="M256.784 363.308C256.784 363.308 257.431 371.934 257.853 373.276C258.301 374.619 259.146 374.469 259.146 374.469C259.146 374.469 263.919 375.911 267.15 376.408C270.382 376.906 274.309 377.751 278.138 377.577C281.966 377.403 283.457 376.906 283.457 375.638C283.457 374.395 283.01 371.959 278.312 369.1C273.613 366.241 270.904 364.402 270.904 364.402C270.904 364.402 270.034 362.885 268.368 362.314C266.728 361.717 262.85 364.079 261.88 364.327C260.886 364.576 257.928 362.388 256.784 363.308Z" fill="#1F3C88"/>
<path d="M209.031 352.519V362.637L215.842 364.576L220.267 362.637V352.519H209.031Z" fill="#F79F8F"/>
<path d="M207.912 362.637C207.912 362.637 204.78 365.645 199.783 368.876C194.787 372.133 194.663 372.878 194.911 374.892C195.16 376.881 207.266 376.259 211.89 375.513C216.513 374.768 218.378 374.37 218.378 374.37L221.51 373.376L220.267 361.891C220.267 361.891 217.383 362.885 216.116 362.985C214.873 363.084 212.014 360.822 210.125 360.375C208.26 359.902 207.863 362.015 207.912 362.637Z" fill="#1F3C88"/>
<path d="M300.461 140.078C299.516 140.252 298.099 142.067 297.353 143.136L296.906 143.061C298.024 141.371 300.56 138.586 298.845 139.009C297.279 139.382 295.787 141.818 295.265 142.812L294.693 142.713C295.762 140.923 298.671 137.642 296.806 138.114C295.066 138.562 293.426 141.545 292.978 142.464L292.655 142.415C293.649 140.625 295.091 138.462 293.674 138.959C292.108 139.506 290.84 142.415 290.467 143.334C289.622 144.18 288.678 145.249 288.056 145.945C287.509 143.782 286.117 141.147 285.421 141.296C284.675 141.495 285.521 144.031 285.67 145.746C285.769 146.914 286.291 148.256 286.639 149.002C284.452 153.377 277.814 163.818 274.334 171.499L264.789 161.531L250.793 169.784C250.793 169.784 266.33 190.143 272.47 189.199C286.117 187.11 292.978 158.026 294.445 150.991L298.77 143.633C298.77 143.633 301.828 139.854 300.461 140.078Z" fill="#F79F8F"/>
<path d="M232.025 144.428L226.83 149.475L217.781 146.119C217.955 144.652 217.955 143.16 217.856 141.818C217.781 140.973 217.707 140.177 217.607 139.506C217.383 137.965 217.135 136.946 217.135 136.946L230.732 136.275C230.633 136.846 230.608 137.443 230.633 138.064C230.658 138.736 230.757 139.432 230.857 140.103C231.254 142.415 232.025 144.428 232.025 144.428Z" fill="#F79F8F"/>
<path d="M230.857 140.103C229.34 141.445 226.606 143.633 224.766 143.732C222.927 143.856 219.695 142.614 217.856 141.818C217.781 140.973 217.706 140.177 217.607 139.506C218.154 139.78 221.087 141.197 224.567 140.625C227.103 140.202 229.39 138.91 230.633 138.064C230.658 138.736 230.757 139.432 230.857 140.103Z" fill="#F58A76"/>
<path d="M205.501 114.474C205.501 114.474 207.49 127.848 208.931 132.422C210.398 136.971 218.502 140.824 224.145 140.898C228.943 140.973 235.754 134.013 236.823 130.085C237.917 126.132 236.425 108.557 236.425 108.557C236.425 108.557 215.469 91.4547 205.501 114.474Z" fill="#F79F8F"/>
<path d="M217.508 122.13C217.632 123.025 217.309 123.82 216.787 123.895C216.29 123.945 215.768 123.274 215.643 122.379C215.544 121.484 215.867 120.688 216.364 120.614C216.886 120.564 217.383 121.235 217.508 122.13Z" fill="#0C6387"/>
<path d="M229.117 120.564C229.191 121.459 228.843 122.23 228.346 122.279C227.824 122.329 227.352 121.633 227.252 120.738C227.178 119.843 227.526 119.073 228.023 119.023C228.545 118.973 229.017 119.669 229.117 120.564Z" fill="#0C6387"/>
<path d="M208.061 122.553C208.061 122.553 204.78 119.445 202.941 120.639C201.076 121.807 202.046 126.406 204.556 128.792C207.092 131.154 209.006 129.961 209.006 129.961L208.061 122.553Z" fill="#F79F8F"/>
<path d="M235.928 118.849C235.928 118.849 238.389 115.07 240.477 115.816C242.54 116.537 242.64 121.235 240.726 124.119C238.811 127.002 236.674 126.281 236.674 126.281L235.928 118.849Z" fill="#F79F8F"/>
<path d="M206.669 121.708L207.937 126.356C207.937 126.356 210.92 125.287 209.777 115.17C209.777 115.17 215.867 114.225 217.731 111.342C217.731 111.342 222.778 112.584 225.786 112.062C228.769 111.565 231.254 109.378 231.254 109.378C231.254 109.378 231.453 116.761 234.66 117.879C234.66 117.879 234.635 122.553 236.35 123.025C236.35 123.025 236.698 116.562 239.333 115.816C239.333 115.816 241.248 109.701 240.651 107.737C240.029 105.773 238.066 105.251 238.066 105.251C238.066 105.251 237.245 94.6863 220.839 96.9981C205.004 99.2354 202.791 107.638 202.319 109.079C201.623 111.143 202.667 113.181 202.866 115.717C203.09 118.252 204.009 120.365 204.009 120.365L206.669 121.708Z" fill="#0C6387"/>
<path d="M270.456 353.414H252.608L231.254 243.639L228.992 243.763L224.592 353.414H206.222L205.7 293.928L205.551 277.819L205.029 216.792H251.663L259.966 277.148L262.203 293.406L270.456 353.414Z" fill="#FDC884"/>
<path d="M211.492 233.322C213.356 233.795 213.928 232.9 213.505 232.378C213.083 231.881 209.429 230.091 208.534 229.072L205.551 225.691C205.576 225.691 207.365 225.84 209.18 225.691C211.02 225.542 212.337 224.423 209.652 224.15C207.713 223.951 204.879 223.528 203.487 223.329L203.015 222.782L194.24 203.815L202.891 178.087L189.045 171.201C189.045 171.201 179.3 197.8 178.306 203.815C177.311 209.806 198.292 231.284 198.292 231.284V231.259C199.038 232.8 200.132 234.938 201.275 236.355C203.239 238.791 204.855 239.065 204.855 239.065C205.302 239.313 205.725 239.512 206.098 239.587C207.987 240.059 208.534 239.164 208.111 238.667C207.887 238.394 206.794 237.772 205.65 237.101L205.849 236.629C206.893 237.424 208.186 238.269 209.155 238.518C211.02 238.99 211.591 238.095 211.169 237.573C210.796 237.126 207.937 235.684 206.644 234.665L206.918 233.944C208.012 234.814 209.553 235.908 210.647 236.181C212.511 236.654 213.083 235.759 212.66 235.237C212.238 234.739 208.658 232.974 207.713 231.955L207.987 231.284C209.056 232.104 210.473 233.074 211.492 233.322Z" fill="#F79F8F"/>
<path d="M217.905 142.614L196.229 152.681L203.015 196.557L205.029 216.792H251.663L252.608 195.065V146.193L231.503 142.887C231.503 142.887 229.564 147.138 225.438 147.685C221.336 148.232 217.905 142.614 217.905 142.614Z" fill="#1F3C88"/>
<path d="M196.229 152.681C196.229 152.681 187.802 166.354 185.539 172.593C185.539 172.593 194.29 177.838 202.891 178.087C202.891 178.087 203.661 159.219 196.229 152.681Z" fill="#1F3C88"/>
<path d="M252.583 146.193C252.583 146.193 263.322 156.062 267.971 160.785C267.971 160.785 261.134 167.895 252.608 173.214C252.608 173.214 248.556 155.242 252.583 146.193Z" fill="#1F3C88"/>
<path d="M212.536 117.805C212.536 117.805 216.041 117.805 217.508 116.288" stroke="#0C6387" stroke-width="4.17624" stroke-miterlimit="10" stroke-linecap="round" stroke-linejoin="round"/>
<path d="M230.981 115.294C230.981 115.294 228.396 114.623 226.879 115.294" stroke="#0C6387" stroke-width="4.17624" stroke-miterlimit="10" stroke-linecap="round" stroke-linejoin="round"/>
<path d="M221.957 120.365C221.957 120.365 222.629 123.92 222.305 124.442C222.305 124.442 221.162 124.715 221.435 126.033C221.684 127.375 222.952 127.425 222.952 127.425" stroke="#D47569" stroke-width="4.17624" stroke-miterlimit="10" stroke-linecap="round" stroke-linejoin="round"/>
<path d="M220.963 131.079C220.963 131.079 224.891 129.811 226.879 131.079C228.868 132.347 222.231 133.217 220.963 133.217C219.695 133.217 219.77 131.75 220.963 131.079Z" fill="#FEFEFE"/>
<path d="M240.129 118.849C240.129 118.849 238.091 120.688 237.643 123.522" stroke="#D47569" stroke-width="4.17624" stroke-miterlimit="10" stroke-linecap="round" stroke-linejoin="round"/>
<path d="M239.731 122.975C239.731 122.975 239.458 121.31 238.712 120.663" stroke="#D47569" stroke-width="4.17624" stroke-miterlimit="10" stroke-linecap="round" stroke-linejoin="round"/>
<path d="M203.736 122.876C203.736 122.876 206.346 124.616 207.117 127.425" stroke="#D47569" stroke-width="4.17624" stroke-miterlimit="10" stroke-linecap="round" stroke-linejoin="round"/>
<path d="M204.83 126.828C204.83 126.828 204.879 125.312 205.426 124.417" stroke="#D47569" stroke-width="4.17624" stroke-miterlimit="10" stroke-linecap="round" stroke-linejoin="round"/>
<path d="M199.336 156.882C199.336 156.882 199.013 170.704 200.107 177.838" stroke="#1C5168" stroke-width="4.17624" stroke-miterlimit="10" stroke-linecap="round" stroke-linejoin="round"/>
<path d="M250.967 153.228C250.967 153.228 253.279 166.702 252.509 172.717" stroke="#1C5168" stroke-width="4.17624" stroke-miterlimit="10" stroke-linecap="round" stroke-linejoin="round"/>
<path d="M217.135 147.237C217.135 147.237 220.366 150.369 225.363 149.997C230.36 149.624 232.025 147.237 232.025 147.237" stroke="#1C5168" stroke-width="4.17624" stroke-miterlimit="10" stroke-linecap="round" stroke-linejoin="round"/>
<path d="M193.395 203.94C193.395 203.94 190.785 203.815 188.398 203.94" stroke="#D47569" stroke-width="4.17624" stroke-miterlimit="10" stroke-linecap="round" stroke-linejoin="round"/>
<path d="M274.334 171.499C274.334 171.499 272.569 175.974 272.072 177.838" stroke="#D47569" stroke-width="4.17624" stroke-miterlimit="10" stroke-linecap="round" stroke-linejoin="round"/>
<path d="M288.056 145.945L289.423 148.107" stroke="#D47569" stroke-width="4.17624" stroke-miterlimit="10" stroke-linecap="round" stroke-linejoin="round"/>
<path d="M291.437 142.614C291.437 142.614 296.011 142.763 297.552 143.757" stroke="#D47569" stroke-width="4.17624" stroke-miterlimit="10" stroke-linecap="round" stroke-linejoin="round"/>
<path d="M206.396 219.601H249.277" stroke="#D47569" stroke-width="4.17624" stroke-miterlimit="10" stroke-linecap="round" stroke-linejoin="round"/>
<path d="M227.178 219.601C227.178 219.601 223.996 236.803 229.614 239.736V223.727" stroke="#D47569" stroke-width="4.17624" stroke-miterlimit="10" stroke-linecap="round" stroke-linejoin="round"/>
<path d="M218.179 236.654C218.179 236.654 223.548 240.009 226.283 241.899" stroke="#D47569" stroke-width="4.17624" stroke-miterlimit="10" stroke-linecap="round" stroke-linejoin="round"/>
<path d="M233.367 241.899C233.367 241.899 239.905 235.336 241.223 233.273" stroke="#D47569" stroke-width="4.17624" stroke-miterlimit="10" stroke-linecap="round" stroke-linejoin="round"/>
<path d="M208.186 348.84C208.186 348.84 215.096 349.586 221.51 348.84" stroke="#D47569" stroke-width="4.17624" stroke-miterlimit="10" stroke-linecap="round" stroke-linejoin="round"/>
<path d="M267.448 348.84C267.448 348.84 259.22 349.437 253.577 349.462" stroke="#D47569" stroke-width="4.17624" stroke-miterlimit="10" stroke-linecap="round" stroke-linejoin="round"/>
<path d="M195.707 373.102C195.707 373.102 198.416 373.947 205.725 373.574C213.033 373.202 220.267 371.238 220.267 371.238" stroke="#1F4D62" stroke-width="4.17624" stroke-miterlimit="10" stroke-linecap="round" stroke-linejoin="round"/>
<path d="M259.021 371.884C259.021 371.884 268.766 374.693 274.185 375.265C279.629 375.812 282.811 374.594 282.811 374.594" stroke="#1F4D62" stroke-width="4.17624" stroke-miterlimit="10" stroke-linecap="round" stroke-linejoin="round"/>
<path d="M203.289 366.44C203.289 366.44 205.476 366.44 207.664 368.255" stroke="#1F4D62" stroke-width="4.17624" stroke-miterlimit="10" stroke-linecap="round" stroke-linejoin="round"/>
<path d="M204.656 365.272C204.656 365.272 206.843 365.272 209.031 367.086" stroke="#1F4D62" stroke-width="4.17624" stroke-miterlimit="10" stroke-linecap="round" stroke-linejoin="round"/>
<path d="M206.023 364.103C206.023 364.103 208.211 364.103 210.398 365.918" stroke="#1F4D62" stroke-width="4.17624" stroke-miterlimit="10" stroke-linecap="round" stroke-linejoin="round"/>
<path d="M274.011 366.962C274.011 366.962 271.824 366.962 269.661 368.777" stroke="#1F4D62" stroke-width="4.17624" stroke-miterlimit="10" stroke-linecap="round" stroke-linejoin="round"/>
<path d="M272.644 365.794C272.644 365.794 270.456 365.794 268.269 367.608" stroke="#1F4D62" stroke-width="4.17624" stroke-miterlimit="10" stroke-linecap="round" stroke-linejoin="round"/>
<path d="M271.277 364.625C271.277 364.625 269.089 364.625 266.902 366.415" stroke="#1F4D62" stroke-width="4.17624" stroke-miterlimit="10" stroke-linecap="round" stroke-linejoin="round"/>
<path d="M236.723 105.897L233.442 107.588" stroke="#1C5168" stroke-width="4.17624" stroke-miterlimit="10" stroke-linecap="round" stroke-linejoin="round"/>
<path d="M232.05 108.334C232.05 108.334 228.644 114.548 217.731 111.342C217.731 111.342 213.033 115.692 207.887 115.145" stroke="#1C5168" stroke-width="4.17624" stroke-miterlimit="10" stroke-linecap="round" stroke-linejoin="round"/>
<path d="M234.66 117.879C234.66 117.879 231.752 116.686 231.254 109.378" stroke="#1C5168" stroke-width="4.17624" stroke-miterlimit="10" stroke-linecap="round" stroke-linejoin="round"/>
<path d="M204.258 108.334C204.258 108.334 203.587 110.024 203.736 111.516" stroke="#1C5168" stroke-width="4.17624" stroke-miterlimit="10" stroke-linecap="round" stroke-linejoin="round"/>
<path d="M206.321 111.764C206.321 111.764 205.998 112.808 205.874 113.628" stroke="#1C5168" stroke-width="4.17624" stroke-miterlimit="10" stroke-linecap="round" stroke-linejoin="round"/>
<path d="M235.928 110.347L236.674 111.764" stroke="#1C5168" stroke-width="4.17624" stroke-miterlimit="10" stroke-linecap="round" stroke-linejoin="round"/>
<path d="M234.039 101.398C234.039 101.398 235.356 102.417 235.48 103.213" stroke="#1C5168" stroke-width="4.17624" stroke-miterlimit="10" stroke-linecap="round" stroke-linejoin="round"/>
<path d="M231.727 103.213C231.727 103.213 232.671 103.834 232.945 104.282" stroke="#1C5168" stroke-width="4.17624" stroke-miterlimit="10" stroke-linecap="round" stroke-linejoin="round"/>
<path d="M218.502 109.378L219.969 107.911" stroke="#1C5168" stroke-width="4.17624" stroke-miterlimit="10" stroke-linecap="round" stroke-linejoin="round"/>
<path d="M216.638 285.849C216.638 290.82 213.207 294.847 209.006 294.847C207.813 294.847 206.694 294.524 205.7 293.928L205.551 277.819C206.595 277.198 207.763 276.85 209.006 276.85C213.207 276.85 216.638 280.877 216.638 285.849Z" fill="#FBB876"/>
<path d="M262.203 293.406C261.01 294.325 259.593 294.847 258.077 294.847C253.876 294.847 250.47 290.82 250.47 285.849C250.47 280.877 253.876 276.85 258.077 276.85C258.748 276.85 259.369 276.949 259.966 277.148L262.203 293.406Z" fill="#FBB876"/>
<path d="M398.751 77.8322C398.702 80.2186 396.738 82.1078 394.327 82.083C391.94 82.0333 390.051 80.0694 390.076 77.7079C390.125 75.2717 392.089 73.3825 394.476 73.4322C396.887 73.4571 398.776 75.4209 398.751 77.8322ZM387.59 58.1442C385.825 57.2493 385.278 54.9623 386.496 53.4211C387.963 51.5815 390.548 49.6923 394.973 49.7668C400.641 49.8663 405.637 53.6448 405.563 58.9894C405.488 62.6933 402.704 64.9057 399.05 66.3972C397.757 66.9441 397.707 67.9882 397.682 69.2311C397.658 70.4243 396.688 71.3441 395.52 71.3192L393.531 71.2944C392.363 71.2695 391.418 70.3 391.443 69.1317L391.468 67.143C391.493 65.4775 391.592 64.1102 393.307 63.0413C395.644 61.5995 397.807 61.5249 397.856 58.8402C397.881 57.0255 396.539 55.7329 394.849 55.708C393.307 55.6832 392.189 56.3792 391.443 57.299C390.498 58.4425 388.907 58.8154 387.59 58.1442Z" fill="#005A82"/>
<path d="M424.331 96.7744C423.287 98.9122 420.702 99.832 418.539 98.7631C416.401 97.7439 415.481 95.1586 416.525 93.0207C417.569 90.8332 420.155 89.9383 422.292 90.9823C424.48 92.0264 425.375 94.6117 424.331 96.7744ZM422.442 74.2028C421.224 72.6616 421.696 70.3497 423.461 69.4797C425.524 68.4108 428.681 67.7893 432.683 69.7034C437.779 72.1644 440.738 77.7079 438.426 82.5056C436.81 85.8366 433.33 86.6818 429.402 86.5078C427.985 86.4581 427.513 87.4027 426.966 88.5213C426.444 89.5903 425.176 90.0129 424.132 89.5157L422.317 88.6456C421.273 88.1236 420.826 86.8807 421.348 85.8118L422.218 84.0219C422.939 82.5056 423.585 81.3124 425.599 81.0638C428.308 80.7406 430.297 81.5858 431.465 79.1745C432.261 77.5339 431.59 75.7689 430.073 75.048C428.681 74.3768 427.364 74.5508 426.32 75.0729C424.977 75.7192 423.361 75.3712 422.442 74.2028Z" fill="#005A82"/>
<path d="M372.028 83.6988C373.445 85.588 373.048 88.2976 371.109 89.7394C369.195 91.1564 366.51 90.7586 365.093 88.8445C363.651 86.9055 364.049 84.196 365.963 82.779C367.902 81.3372 370.587 81.735 372.028 83.6988ZM351.172 74.874C349.233 75.222 347.418 73.7554 347.443 71.7667C347.468 69.43 348.388 66.3724 351.943 63.7125C356.492 60.3317 362.781 60.3069 365.938 64.5825C368.15 67.5407 367.28 71.0209 365.292 74.4265C364.596 75.6446 365.192 76.5147 365.938 77.509C366.634 78.4536 366.46 79.7711 365.515 80.4672L363.9 81.6604C362.955 82.3564 361.638 82.1824 360.942 81.2378L359.748 79.622C358.754 78.2796 358.008 77.161 358.729 75.2469C359.699 72.6864 361.364 71.3192 359.748 69.1814C358.679 67.7147 356.815 67.491 355.448 68.5102C354.205 69.43 353.757 70.648 353.733 71.8413C353.683 73.3328 352.639 74.5757 351.172 74.874Z" fill="#005A82"/>
<path d="M356.02 348.467L355.149 361.319L342.745 371.611L345.131 375.116L368.424 370.964L370.313 349.313L356.02 348.467Z" fill="#F79F8F"/>
<path d="M350.327 364.824C350.327 364.824 354.205 368.901 360.569 369.075C362.607 369.125 368.896 367.186 368.896 367.186C368.896 367.186 369.319 371.76 368.3 374.793C367.803 376.309 345.629 379.491 342.248 379.367C338.842 379.242 337.972 378.869 337.226 377.8C336.481 376.732 335.834 374.917 338.967 372.903C342.124 370.915 350.327 364.824 350.327 364.824Z" fill="#0C6387"/>
<path d="M414.984 347.622L415.854 360.474L428.259 370.741L425.897 374.271L402.58 370.119L400.69 348.467L414.984 347.622Z" fill="#F79F8F"/>
<path d="M420.677 363.979C420.677 363.979 416.799 368.056 410.435 368.23C408.397 368.28 402.107 366.341 402.107 366.341C402.107 366.341 401.71 370.915 402.704 373.947C403.201 375.464 425.375 378.646 428.781 378.521C432.161 378.397 433.031 378.024 433.777 376.955C434.548 375.886 435.169 374.072 432.037 372.058C428.905 370.069 420.677 363.979 420.677 363.979Z" fill="#1F3C88"/>
<path d="M359.897 209.259L352.266 349.313H372.7L385.054 231.732L387.789 232.254L398.503 349.313L418.017 348.443L411.355 209.259H359.897Z" fill="#1F3C88"/>
<path d="M411.355 191.162V137.592C411.355 137.592 399.199 134.062 382.419 133.764C382.419 133.764 366.734 132.944 362.781 133.764L359.525 191.162L355.622 214.529C355.622 214.529 378.019 218.432 383.289 218.059L387.043 212.615L390.25 218.084C390.25 218.084 404.717 217.786 414.487 214.529L411.355 191.162Z" fill="#FFBB06"/>
<path d="M395.197 136.871C395.147 138.512 395.296 139.78 395.296 139.78L389.081 143.31L381.276 137.866C381.798 136.498 382.171 135.057 382.394 133.764C382.469 133.49 382.519 133.192 382.544 132.919C382.643 132.422 382.693 131.924 382.743 131.502C382.892 130.309 382.917 129.439 382.941 129.091C382.941 128.991 382.941 128.917 382.941 128.917L383.861 129.115L396.067 131.676C395.868 132.198 395.669 132.77 395.545 133.341C395.42 134.013 395.321 134.684 395.271 135.355C395.222 135.877 395.197 136.374 395.197 136.871Z" fill="#F79F8F"/>
<path d="M343.615 160.437C343.615 160.437 355.622 134.659 362.781 133.764C372.004 132.62 365.167 155.888 365.167 155.888L353.757 176.123L343.615 160.437Z" fill="#FDC884"/>
<path d="M429.651 163.097C429.651 163.097 417.644 138.338 410.485 137.443C401.262 136.3 408.098 159.567 408.098 159.567L419.508 178.136L429.651 163.097Z" fill="#FDC884"/>
<path d="M354.155 169.859C352.813 167.447 334.243 152.955 329.744 149.45L328.501 147.759C328.501 147.759 326.562 145.05 324.325 144.354C323.206 144.031 318.558 142.539 317.166 142.489C315.798 142.415 317.166 144.229 318.235 144.652C319.303 145.05 321.317 145.721 321.317 145.721L313.089 149.375C313.089 149.375 308.415 151.19 307.993 152.408C307.57 153.626 309.484 152.88 311.224 152.159C312.517 151.637 313.909 151.016 314.555 150.742L314.68 150.867C314.108 151.09 310.031 152.731 309.658 153.85C309.236 155.093 311.15 154.322 312.89 153.626C314.133 153.129 315.475 152.532 316.146 152.209L316.395 152.458C315.5 152.83 311.871 154.347 311.498 155.416C311.075 156.634 312.989 155.888 314.729 155.167C315.923 154.695 317.166 154.148 317.862 153.825L318.085 154.024C316.768 154.595 313.984 155.838 313.661 156.783C313.238 158.001 315.152 157.255 316.892 156.534C317.837 156.162 318.831 155.714 319.552 155.416C319.552 155.416 321.118 154.919 322.983 154.148C323.728 155.316 340.035 180.075 347.742 180.075C355.647 180.075 355.647 172.593 354.155 169.859Z" fill="#F79F8F"/>
<path d="M460.674 152.93C460.251 151.712 455.553 149.922 455.553 149.922L447.35 146.243C447.35 146.243 449.363 145.597 450.407 145.174C451.476 144.751 452.868 142.962 451.476 143.011C450.109 143.086 445.436 144.553 444.342 144.901C442.08 145.597 440.141 148.281 440.141 148.281L439.271 149.475C435.89 153.477 420.378 172.046 419.583 174.731C418.688 177.714 420.254 185.047 427.985 183.382C434.448 181.99 443.273 161.407 445.958 154.794C447.698 155.49 449.115 155.938 449.115 155.938C449.811 156.261 450.805 156.684 451.75 157.081C453.49 157.777 455.429 158.523 455.006 157.305C454.683 156.385 451.899 155.117 450.582 154.571L450.805 154.347C451.476 154.67 452.744 155.217 453.913 155.714C455.653 156.41 457.592 157.156 457.169 155.938C456.796 154.869 453.142 153.352 452.247 153.004L452.52 152.756C453.167 153.054 454.509 153.651 455.752 154.148C457.492 154.869 459.431 155.615 459.009 154.397C458.611 153.253 454.534 151.612 453.962 151.389L454.111 151.264C454.733 151.563 456.125 152.184 457.418 152.706C459.158 153.402 461.097 154.148 460.674 152.93Z" fill="#F79F8F"/>
<path d="M363.179 138.164C363.179 138.164 366.162 147.734 362.88 159.965" stroke="#D47569" stroke-width="4.17624" stroke-miterlimit="10" stroke-linecap="round" stroke-linejoin="round"/>
<path d="M411.355 141.918C411.355 141.918 407.974 154.123 409.664 162.128" stroke="#D47569" stroke-width="4.17624" stroke-miterlimit="10" stroke-linecap="round" stroke-linejoin="round"/>
<path d="M362.035 190.988L364.422 192.306L362.881 194.742" stroke="#D47569" stroke-width="4.17624" stroke-miterlimit="10" stroke-linecap="round" stroke-linejoin="round"/>
<path d="M410.261 192.878L407.8 194.742" stroke="#D47569" stroke-width="4.17624" stroke-miterlimit="10" stroke-linecap="round" stroke-linejoin="round"/>
<path d="M389.081 143.31L387.043 212.615" stroke="#D47569" stroke-width="4.17624" stroke-miterlimit="10" stroke-linecap="round" stroke-linejoin="round"/>
<path d="M396.067 131.676C395.868 132.198 395.669 132.77 395.545 133.341C395.42 134.013 395.321 134.684 395.271 135.355C395.222 135.877 395.197 136.374 395.197 136.871C393.506 137.219 391.344 137.194 388.684 136.125C385.402 134.808 383.563 133.714 382.544 132.919C382.643 132.422 382.693 131.924 382.743 131.502C382.892 130.309 382.917 129.439 382.941 129.091L383.861 129.115L396.067 131.676Z" fill="#F58A76"/>
<path d="M377.398 104.605C377.398 104.605 375.981 117.854 376.23 122.578C376.503 127.276 383.265 132.993 388.634 134.46C393.208 135.703 401.436 130.756 403.45 127.251C405.463 123.771 408.397 106.594 408.397 106.594C408.397 106.594 392.611 85.0909 377.398 104.605Z" fill="#F79F8F"/>
<path d="M377.821 112.932C377.821 112.932 375.484 109.154 373.421 109.825C371.357 110.496 371.134 115.145 372.948 118.028C374.788 120.912 376.901 120.266 376.901 120.266L377.821 112.932Z" fill="#F79F8F"/>
<path d="M405.364 116.313C405.364 116.313 408.67 113.33 410.46 114.548C412.25 115.766 411.181 120.266 408.645 122.553C406.11 124.815 404.22 123.597 404.22 123.597L405.364 116.313Z" fill="#F79F8F"/>
<path d="M386.944 88.8196C380.555 90.1372 380.654 93.8908 377.174 94.736C373.694 95.5812 372.202 97.7439 371.73 100.006C371.258 102.243 372.004 102.243 372.65 102.243C373.321 102.243 373.694 102.243 373.694 102.243C373.694 102.243 373.769 104.456 373.595 107.14C373.421 109.825 374.788 110.248 374.788 110.248C374.788 110.248 377.746 112.212 377.821 115.045C377.821 115.045 379.237 114.747 379.61 113.156C379.983 111.565 380.182 105.351 380.182 105.351C380.182 105.351 384.309 105.177 387.043 103.387C387.043 103.387 388.087 104.331 390.523 104.331C392.959 104.331 400.119 101.97 402.082 103.188C402.082 103.188 402.828 105.549 404.991 107.041C404.991 107.041 404.121 113.43 404.22 115.045C404.345 116.636 405.165 117.581 405.165 117.581C405.165 117.581 406.681 114.499 409.242 114.25C409.242 114.25 411.479 110.72 411.852 107.712C411.852 107.712 413.741 107.613 413.542 105.649C413.368 103.66 412.622 103.014 412.15 101.025C411.678 99.0614 410.062 96.9981 408.943 96.8987C408.943 96.8987 409.987 95.3077 404.916 91.8275C399.82 88.3473 393.332 87.5021 386.944 88.8196Z" fill="#0C6387"/>
<path d="M382.743 131.502C382.743 131.502 382.718 134.634 384.159 137.393C385.477 139.929 389.081 143.31 389.081 143.31C389.081 143.31 386.471 142.166 384.284 142.241C382.096 142.29 380.083 143.31 380.083 143.31L378.591 133.714L382.743 131.502Z" fill="#FFFBD8"/>
<path d="M395.545 133.341C395.545 133.341 394.078 140.625 389.081 143.31C389.081 143.31 392.238 142.837 394.128 143.31C396.017 143.807 397.136 145 397.136 145C397.136 145 399.597 137.443 399.646 135.206L395.545 133.341Z" fill="#FFFBD8"/>
<path d="M373.57 112.087C373.57 112.087 375.484 113.703 376.205 116.984" stroke="#D47569" stroke-width="4.17624" stroke-miterlimit="10" stroke-linecap="round" stroke-linejoin="round"/>
<path d="M374.315 116.612C374.315 116.612 374.44 114.847 375.36 114.523" stroke="#D47569" stroke-width="4.17624" stroke-miterlimit="10" stroke-linecap="round" stroke-linejoin="round"/>
<path d="M409.49 116.612C409.49 116.612 406.607 118.178 405.662 120.987" stroke="#D47569" stroke-width="4.17624" stroke-miterlimit="10" stroke-linecap="round" stroke-linejoin="round"/>
<path d="M407.576 120.614C407.576 120.614 408.098 119.793 407.576 118.799" stroke="#D47569" stroke-width="4.17624" stroke-miterlimit="10" stroke-linecap="round" stroke-linejoin="round"/>
<path d="M386.521 114.126C386.422 114.996 385.9 115.667 385.402 115.617C384.905 115.543 384.582 114.772 384.706 113.877C384.806 113.007 385.303 112.336 385.825 112.386C386.322 112.46 386.645 113.231 386.521 114.126Z" fill="#0C6387"/>
<path d="M382.867 108.756C382.867 108.756 386.198 109.626 387.988 108.533" stroke="#0C6387" stroke-width="4.17624" stroke-miterlimit="10" stroke-linecap="round" stroke-linejoin="round"/>
<path d="M396.34 114.822C396.34 115.717 396.738 116.438 397.235 116.462C397.757 116.462 398.18 115.741 398.18 114.847C398.205 113.952 397.807 113.231 397.31 113.206C396.788 113.206 396.365 113.927 396.34 114.822Z" fill="#0C6387"/>
<path d="M400.74 110.024C400.74 110.024 397.31 110.422 395.694 109.079" stroke="#0C6387" stroke-width="4.17624" stroke-miterlimit="10" stroke-linecap="round" stroke-linejoin="round"/>
<path d="M391.219 113.529C391.219 113.529 390.971 117.109 390.523 117.531C390.523 117.531 389.38 117.482 389.305 118.824C389.231 120.166 390.399 120.539 390.399 120.539" stroke="#D47569" stroke-width="4.17624" stroke-miterlimit="10" stroke-linecap="round" stroke-linejoin="round"/>
<path d="M388.684 124.865C388.684 124.865 390.772 123.497 392.288 123.746C393.805 123.995 394.376 124.865 394.376 124.865" stroke="#D47569" stroke-width="4.17624" stroke-miterlimit="10" stroke-linecap="round" stroke-linejoin="round"/>
<path d="M321.317 145.721L324.151 147.188" stroke="#D47569" stroke-width="4.17624" stroke-miterlimit="10" stroke-linecap="round" stroke-linejoin="round"/>
<path d="M314.158 150.32L318.359 154.073" stroke="#D47569" stroke-width="4.17624" stroke-miterlimit="10" stroke-linecap="round" stroke-linejoin="round"/>
<path d="M322.983 154.148C322.983 154.148 326.388 152.88 326.686 152.83" stroke="#D47569" stroke-width="4.17624" stroke-miterlimit="10" stroke-linecap="round" stroke-linejoin="round"/>
<path d="M445.958 154.794L443.447 153.949" stroke="#D47569" stroke-width="4.17624" stroke-miterlimit="10" stroke-linecap="round" stroke-linejoin="round"/>
<path d="M454.534 150.717L450.209 154.794" stroke="#D47569" stroke-width="4.17624" stroke-miterlimit="10" stroke-linecap="round" stroke-linejoin="round"/>
<path d="M447.35 146.243C447.35 146.243 445.908 147.809 444.69 148.505" stroke="#D47569" stroke-width="4.17624" stroke-miterlimit="10" stroke-linecap="round" stroke-linejoin="round"/>
<path d="M352.788 343.844H373.271" stroke="#1C5168" stroke-width="4.17624" stroke-miterlimit="10" stroke-linecap="round" stroke-linejoin="round"/>
<path d="M397.931 342.924L418.017 341.954" stroke="#1C5168" stroke-width="4.17624" stroke-miterlimit="10" stroke-linecap="round" stroke-linejoin="round"/>
<path d="M367.927 223.205C367.927 223.205 364.148 273.966 363.03 279.286C361.911 284.606 363.03 286.619 363.03 286.619C363.03 286.619 362.408 291.641 362.532 292.635C362.657 293.629 360.171 337.505 360.171 337.505" stroke="#1C5168" stroke-width="4.17624" stroke-miterlimit="10" stroke-linecap="round" stroke-linejoin="round"/>
<path d="M401.784 223.205C401.784 223.205 406.035 283.363 406.532 286.371C407.029 289.379 406.532 291.541 406.532 291.541C406.532 291.541 406.482 293.903 406.756 295.643C407.029 297.408 409.789 337.505 409.789 337.505" stroke="#1C5168" stroke-width="4.17624" stroke-miterlimit="10" stroke-linecap="round" stroke-linejoin="round"/>
<path d="M385.054 231.732L379.337 226.337" stroke="#1C5168" stroke-width="4.17624" stroke-miterlimit="10" stroke-linecap="round" stroke-linejoin="round"/>
<path d="M387.789 232.254L392.363 229.594" stroke="#1C5168" stroke-width="4.17624" stroke-miterlimit="10" stroke-linecap="round" stroke-linejoin="round"/>
<path d="M368.175 156.659L379.958 157.752C379.958 157.752 379.834 170.928 372.948 170.928C366.062 170.928 368.175 156.659 368.175 156.659Z" fill="#FBB876"/>
<path d="M408.397 97.6444L405.662 99.2105" stroke="#1C5168" stroke-width="4.17624" stroke-miterlimit="10" stroke-linecap="round" stroke-linejoin="round"/>
<path d="M377.82 105.127C377.82 105.127 384.234 106.022 387.043 103.387C387.043 103.387 389.355 105.226 393.631 103.859C397.881 102.517 401.461 102.815 402.082 103.188C402.082 103.188 403.524 107.016 406.284 107.389C409.043 107.762 409.49 106.817 409.49 106.817" stroke="#1C5168" stroke-width="4.17624" stroke-miterlimit="10" stroke-linecap="round" stroke-linejoin="round"/>
<path d="M411.802 106.196L411.056 107.091" stroke="#1C5168" stroke-width="4.17624" stroke-miterlimit="10" stroke-linecap="round" stroke-linejoin="round"/>
<path d="M375.359 103.262C375.359 103.262 375.757 101.572 376.652 100.876" stroke="#1C5168" stroke-width="4.17624" stroke-miterlimit="10" stroke-linecap="round" stroke-linejoin="round"/>
<path d="M407.029 95.7303C407.029 95.7303 406.408 94.4874 405.09 93.9902" stroke="#1C5168" stroke-width="4.17624" stroke-miterlimit="10" stroke-linecap="round" stroke-linejoin="round"/>
<path d="M380.331 94.8603C380.331 94.8603 383.339 92.2998 383.538 91.8524" stroke="#1C5168" stroke-width="4.17624" stroke-miterlimit="10" stroke-linecap="round" stroke-linejoin="round"/>
<path d="M387.416 101.498C387.416 101.498 388.435 100.13 389.678 99.6828" stroke="#1C5168" stroke-width="4.17624" stroke-miterlimit="10" stroke-linecap="round" stroke-linejoin="round"/>
<path d="M90.9775 95.9541C91.7481 98.241 90.5301 100.727 88.2182 101.522C85.9312 102.293 83.4454 101.075 82.6748 98.8128C81.8793 96.4761 83.0973 93.9902 85.3595 93.2196C87.6962 92.4241 90.182 93.6422 90.9775 95.9541ZM73.5268 81.0389C71.5381 80.7903 70.2206 78.8016 70.8669 76.8875C71.6127 74.6503 73.4274 71.9655 77.6782 70.4989C83.1222 68.6345 89.1877 70.4989 90.9527 75.6197C92.1707 79.1745 90.2815 82.257 87.2984 84.9417C86.2544 85.9112 86.5775 86.9304 86.9753 88.1236C87.373 89.2422 86.7764 90.4603 85.6578 90.858L83.7188 91.5044C82.6002 91.9021 81.3821 91.3055 81.0092 90.1869L80.338 88.2479C79.7912 86.6569 79.4183 85.3394 80.6861 83.7236C82.4013 81.5609 84.4397 80.7406 83.5448 78.1553C82.9482 76.4152 81.233 75.6446 79.5923 76.1915C78.1256 76.7135 77.3053 77.7576 76.9076 78.9011C76.4104 80.318 75.0183 81.2129 73.5268 81.0389Z" fill="#005A82"/>
<path d="M116.781 353.588C116.259 350.357 114.643 340.612 112.679 329.848C110.268 316.624 103.854 299.894 103.854 299.894L89.7346 311.005L106.738 357.019C106.315 358.386 105.545 360.399 104.575 361.593C102.959 363.482 102.363 364.253 102.363 364.253C102.363 364.253 106.067 365.396 108.677 365.396C111.262 365.396 118.073 359.38 118.372 358.286C118.546 357.665 117.626 355.428 116.781 353.588Z" fill="#F58A76"/>
<path d="M103.755 362.537C103.755 362.537 102.76 363.681 99.7526 366.092C96.7447 368.503 95.6509 370.094 95.6509 371.089C95.6509 372.083 107.359 372.456 109.87 371.785C112.381 371.089 119.689 363.681 120.485 362.09C121.28 360.474 117.502 355.254 117.502 355.254C117.502 355.254 116.085 358.286 115.065 359.778C114.071 361.294 110.367 362.935 108.13 363.681C103.034 365.396 103.755 362.537 103.755 362.537Z" fill="#1F3C88"/>
<path d="M81.0093 217.14C81.0093 217.14 79.8409 233.397 80.0895 255.447C80.363 277.471 87.2239 299.894 87.2239 299.894L104.749 294.524L103.432 217.14H81.0093Z" fill="#1F3C88"/>
<path d="M89.9335 158.374C89.9335 158.374 81.8048 173.712 79.4929 179.603C77.2059 185.519 83.6194 193.027 83.6194 193.027L88.3674 188.527C88.3674 188.527 90.9776 163.47 89.9335 158.374Z" fill="#F58A76"/>
<path d="M89.9335 158.374C89.9335 158.374 103.979 150.618 115.637 148.654C127.321 146.69 131.124 153.502 131.124 153.502L122.971 198.769L127.047 217.14H81.0093L86.5279 191.038C86.5279 191.038 85.8567 168.591 89.9335 158.374Z" fill="#FFBB06"/>
<path d="M87.7957 117.83C87.7957 117.83 87.7957 133.043 88.4917 137.319C89.1877 141.619 94.06 145.249 98.9323 146.765C103.829 148.281 112.331 142.39 113.823 138.984C115.339 135.603 116.408 118.874 116.408 118.874C116.408 118.874 94.234 106.867 87.7957 117.83Z" fill="#F79F8F"/>
<path d="M100.449 145.273C100.449 145.273 101.269 150.568 100.225 155.167L113.847 150.444L114.171 137.99L100.449 145.273Z" fill="#F79F8F"/>
<path d="M113.375 127.773C113.375 127.773 115.811 123.1 118.819 124.691C121.827 126.257 120.336 132.397 118.397 134.46C116.433 136.548 113.524 134.634 113.524 134.634L113.375 127.773Z" fill="#F79F8F"/>
<path d="M100.648 147.014C100.648 147.014 106.738 145.994 110.442 142.812C110.442 142.812 106.141 150.519 100.722 151.463L100.648 147.014Z" fill="#F58A76"/>
<path d="M97.2419 114.946C97.2419 114.946 99.0317 118.774 103.879 122.528C108.727 126.257 112.455 126.605 112.455 126.605C112.455 126.605 110.914 131.203 113.499 132.77C113.499 132.77 114.519 123.895 118.049 124.392C121.554 124.914 120.112 135.305 114.742 135.206C114.742 135.206 113.301 138.412 114.046 142.564C114.046 142.564 124.885 134.684 126.326 123.82C127.793 112.957 120.236 109.726 120.236 109.726C120.236 109.726 117.576 104.406 108.577 102.765C99.6034 101.125 94.9549 106.27 94.9549 106.27C94.9549 106.27 90.4555 104.804 86.5278 109.328C82.625 113.852 84.6883 118.426 84.6883 118.426C84.6883 118.426 81.755 121.633 82.8736 125.436C83.9674 129.24 87.9945 130.11 87.9945 130.11C87.9945 130.11 88.7403 119.445 90.4306 116.537C92.121 113.628 97.2419 114.946 97.2419 114.946Z" fill="#0C6387"/>
<path d="M95.4023 127.301C95.4023 127.301 95.6758 130.383 94.4577 132.272C93.2396 134.187 95.8498 135.057 95.8498 135.057" stroke="#D47569" stroke-width="4.17624" stroke-miterlimit="10" stroke-linecap="round" stroke-linejoin="round"/>
<path d="M89.0883 123.696C89.0883 123.696 90.8781 121.534 92.9413 123.124" stroke="#0C6387" stroke-width="4.17624" stroke-miterlimit="10" stroke-linecap="round" stroke-linejoin="round"/>
<path d="M99.8023 123.721C99.8023 123.721 101.692 124.765 104.302 125.014" stroke="#0C6387" stroke-width="4.17624" stroke-miterlimit="10" stroke-linecap="round" stroke-linejoin="round"/>
<path d="M118.123 127.127C118.123 127.127 115.563 128.295 115.14 131.999" stroke="#D47569" stroke-width="4.17624" stroke-miterlimit="10" stroke-linecap="round" stroke-linejoin="round"/>
<path d="M129.682 154.024C129.682 154.024 133.759 154.571 134.927 162.699C136.121 170.828 128.216 191.684 125.481 196.134C120.882 203.616 80.0895 197.452 80.0895 197.452L82.3267 188.403L115.115 184.326C115.115 184.326 119.316 166.105 121.802 159.418C124.313 152.731 129.682 154.024 129.682 154.024Z" fill="#F79F8F"/>
<path d="M116.93 131.328C116.93 131.328 117.178 130.408 116.11 129.414" stroke="#D47569" stroke-width="4.17624" stroke-miterlimit="10" stroke-linecap="round" stroke-linejoin="round"/>
<path d="M102.512 128.892C102.462 129.762 102.04 130.433 101.542 130.408C101.07 130.383 100.722 129.662 100.747 128.817C100.797 127.972 101.219 127.301 101.716 127.326C102.189 127.326 102.537 128.046 102.512 128.892Z" fill="#0C6387"/>
<path d="M92.6182 128.394C92.5685 129.265 92.1459 129.936 91.6736 129.911C91.1764 129.886 90.8284 129.165 90.8781 128.32C90.903 127.475 91.3504 126.804 91.8228 126.828C92.3199 126.853 92.668 127.549 92.6182 128.394Z" fill="#0C6387"/>
<path d="M95.6261 138.935C95.6261 138.935 97.2419 138.238 99.4543 139.581" stroke="#D47569" stroke-width="4.17624" stroke-miterlimit="10" stroke-linecap="round" stroke-linejoin="round"/>
<path d="M128.613 109.477C128.613 113.206 125.606 116.214 121.877 116.214C118.148 116.214 115.14 113.206 115.14 109.477C115.14 105.748 118.148 102.74 121.877 102.74C125.606 102.74 128.613 105.748 128.613 109.477Z" fill="#0C6387"/>
<path d="M82.625 150.22C82.625 150.22 85.8815 146.094 87.1742 145.696C88.4917 145.298 92.9662 147.61 93.2894 148.306C93.6125 148.977 92.817 150.22 92.817 150.22C92.817 150.22 92.6182 152.582 91.8227 152.98C91.0521 153.377 91.0521 153.377 91.0521 153.377C91.0521 153.377 89.8092 156.907 87.6465 157.504C87.6465 157.504 87.1742 161.63 84.564 162.227L79.4929 157.976C79.4929 157.976 80.164 154.496 82.625 150.22Z" fill="#F79F8F"/>
<path d="M86.2047 146.715C86.2047 146.715 88.1188 144.304 89.6103 143.533C91.077 142.788 95.0792 143.732 95.5018 144.329C95.9244 144.925 95.0792 145.298 93.538 145.174C91.9968 145.05 91.4747 145 91.4747 145L90.3561 147.014L86.2047 146.715Z" fill="#F79F8F"/>
<path d="M79.4929 157.976C79.4929 157.976 69.9472 184.078 70.1212 190.889C70.2952 197.725 74.6703 198.769 77.3053 198.595C79.9155 198.421 83.4951 194.568 84.9866 189.845C86.503 185.122 84.9866 160.984 84.9866 160.984L79.4929 157.976Z" fill="#F79F8F"/>
<path d="M115.612 185.644C115.612 185.644 118.049 188.105 119.267 190.889" stroke="#D47569" stroke-width="4.17624" stroke-miterlimit="10" stroke-linecap="round" stroke-linejoin="round"/>
<path d="M82.277 162.227C82.277 162.227 83.7686 163.147 85.0612 162.053" stroke="#D47569" stroke-width="4.17624" stroke-miterlimit="10" stroke-linecap="round" stroke-linejoin="round"/>
<path d="M87.6465 157.504C87.6465 157.504 86.8759 157.181 87.1245 156.186L87.7956 154.645" stroke="#D47569" stroke-width="4.17624" stroke-miterlimit="10" stroke-linecap="round" stroke-linejoin="round"/>
<path d="M88.3922 151.886C88.3922 151.886 90.6792 152.408 91.0521 153.377" stroke="#D47569" stroke-width="4.17624" stroke-miterlimit="10" stroke-linecap="round" stroke-linejoin="round"/>
<path d="M89.5358 149.176C89.5358 149.176 91.599 149.052 92.8171 150.22" stroke="#D47569" stroke-width="4.17624" stroke-miterlimit="10" stroke-linecap="round" stroke-linejoin="round"/>
<path d="M103.034 316.226L84.738 317.17L78.4488 359.853C76.485 360.772 74.3471 363.283 69.798 365.048C66.2184 366.44 67.1133 367.037 66.3427 368.429C65.5969 369.846 66.3427 371.462 66.3427 371.462H90.3063C91.1515 371.437 91.8227 370.765 91.8227 369.92C91.8476 367.509 91.8724 362.736 91.8476 360.027C92.3199 358.112 94.234 350.531 96.9933 341.283C100.2 330.544 103.034 316.226 103.034 316.226Z" fill="#F79F8F"/>
<path d="M74.5212 362.637C74.5212 362.637 76.1867 365.098 83.2217 364.675C90.2815 364.228 91.9222 362.637 91.9222 362.637C91.9222 362.637 92.8171 370.964 92.4442 371.785C92.0465 372.63 83.6194 372.158 82.4511 372.133C81.2827 372.108 65.7212 372.854 63.7823 372.133C61.8433 371.412 61.2964 369.995 61.9179 369.05C62.5393 368.081 71.8613 363.929 74.5212 362.637Z" fill="#1F3C88"/>
<path d="M95.0046 155.813C95.0046 155.813 94.1346 158.274 102.114 158.374C110.094 158.448 121.28 150.22 121.28 150.22L114.469 149.698L100.225 153.377L95.0046 155.813Z" fill="#F79F8F"/>
<path d="M121.976 131.999C121.976 131.999 122.598 141.395 127.594 144.205C127.594 144.205 132.392 144.453 133.709 149.176C135.027 153.899 129.757 157.131 129.757 157.131C129.757 157.131 129.334 162.824 122.324 163.52C115.339 164.216 112.008 154.943 112.008 149.872C112.008 144.801 118.148 133.714 121.976 131.999Z" fill="#0C6387"/>
<path d="M127.047 217.14C127.047 217.14 128.464 230.687 122.25 251.892C116.035 273.096 104.451 317.17 104.451 317.17H82.6748L94.2589 230.141L92.842 217.14H127.047Z" fill="#1F3C88"/>
<path d="M103.233 223.478L94.2589 230.141" stroke="#1C5168" stroke-width="4.17624" stroke-miterlimit="10" stroke-linecap="round" stroke-linejoin="round"/>
<path d="M123.343 218.432C123.343 218.432 122.598 236.728 118.844 251.32C115.09 265.937 101.617 313.342 101.617 313.342" stroke="#1C5168" stroke-width="4.17624" stroke-miterlimit="10" stroke-linecap="round" stroke-linejoin="round"/>
<path d="M83.1968 313.342C83.1968 313.342 100.772 313.79 105.445 313.342" stroke="#1C5168" stroke-width="4.17624" stroke-miterlimit="10" stroke-linecap="round" stroke-linejoin="round"/>
<path d="M94.1346 157.976C94.1346 157.976 94.234 159.791 100.225 160.164C106.216 160.537 112.008 158.374 112.008 158.374" stroke="#D47569" stroke-width="4.17624" stroke-miterlimit="10" stroke-linecap="round" stroke-linejoin="round"/>
<path d="M96.4962 112.137C96.4962 112.137 99.5786 123.821 112.455 126.605" stroke="#1C5168" stroke-width="4.17624" stroke-miterlimit="10" stroke-linecap="round" stroke-linejoin="round"/>
<path d="M94.9549 106.27L96.869 107.588" stroke="#1C5168" stroke-width="4.17624" stroke-miterlimit="10" stroke-linecap="round" stroke-linejoin="round"/>
<path d="M84.6883 118.426C84.6883 118.426 86.0058 119.495 86.8261 119.818" stroke="#1C5168" stroke-width="4.17624" stroke-miterlimit="10" stroke-linecap="round" stroke-linejoin="round"/>
<path d="M116.632 106.27C116.632 106.27 122.424 109.925 124.537 114.275" stroke="#1C5168" stroke-width="4.17624" stroke-miterlimit="10" stroke-linecap="round" stroke-linejoin="round"/>
<path d="M115.14 114.971C115.14 114.971 116.209 115.642 116.408 116.885" stroke="#1C5168" stroke-width="4.17624" stroke-miterlimit="10" stroke-linecap="round" stroke-linejoin="round"/>
<path d="M113.375 108.682L114.842 109.8" stroke="#1C5168" stroke-width="4.17624" stroke-miterlimit="10" stroke-linecap="round" stroke-linejoin="round"/>
<path d="M121.28 134.162C121.28 134.162 121.976 139.829 123.592 142.564" stroke="#1C5168" stroke-width="4.17624" stroke-miterlimit="10" stroke-linecap="round" stroke-linejoin="round"/>
<path d="M114.046 142.564L115.463 141.321" stroke="#1C5168" stroke-width="4.17624" stroke-miterlimit="10" stroke-linecap="round" stroke-linejoin="round"/>
<path d="M119.813 137.02V138.76" stroke="#1C5168" stroke-width="4.17624" stroke-miterlimit="10" stroke-linecap="round" stroke-linejoin="round"/>
<path d="M127.271 151.886C127.271 151.886 129.533 153.875 129.757 157.131" stroke="#1C5168" stroke-width="4.17624" stroke-miterlimit="10" stroke-linecap="round" stroke-linejoin="round"/>
<path d="M124.338 157.976C124.338 157.976 124.586 158.971 124.338 159.841" stroke="#1C5168" stroke-width="4.17624" stroke-miterlimit="10" stroke-linecap="round" stroke-linejoin="round"/>
<path d="M116.11 150.22C116.11 150.22 116.259 152.731 117.203 154.521" stroke="#1C5168" stroke-width="4.17624" stroke-miterlimit="10" stroke-linecap="round" stroke-linejoin="round"/>
<path d="M122.1 146.591C122.1 146.591 123.294 147.635 123.592 148.306" stroke="#1C5168" stroke-width="4.17624" stroke-miterlimit="10" stroke-linecap="round" stroke-linejoin="round"/>
<path d="M102.114 110.745C102.114 110.745 102.562 112.982 103.68 113.728" stroke="#1C5168" stroke-width="4.17624" stroke-miterlimit="10" stroke-linecap="round" stroke-linejoin="round"/>
<path d="M109.472 120.44C109.472 120.44 110.392 121.459 111.237 121.882" stroke="#1C5168" stroke-width="4.17624" stroke-miterlimit="10" stroke-linecap="round" stroke-linejoin="round"/>
<path d="M82.6748 215.275C82.6748 215.275 102.537 215.399 107.583 215.275C112.605 215.151 124.039 215.474 124.039 215.474" stroke="#D47569" stroke-width="4.17624" stroke-miterlimit="10" stroke-linecap="round" stroke-linejoin="round"/>
<path d="M142.435 131.154C141.714 134.211 138.656 136.125 135.524 135.38C132.466 134.659 130.552 131.601 131.273 128.519C132.019 125.411 135.077 123.497 138.134 124.218C141.266 124.964 143.156 128.022 142.435 131.154ZM133.511 102.517C131.497 100.876 131.422 97.7439 133.461 96.0784C135.847 94.1394 139.725 92.3993 145.443 93.7416C152.751 95.4569 158.17 101.771 156.554 108.657C155.436 113.43 151.185 115.518 146.039 116.413C144.225 116.761 143.852 118.103 143.479 119.719C143.106 121.235 141.614 122.155 140.098 121.807L137.513 121.21C136.021 120.837 135.077 119.346 135.425 117.83L136.046 115.244C136.543 113.106 137.04 111.366 139.576 110.471C142.982 109.278 145.816 109.775 146.611 106.32C147.158 103.983 145.791 101.895 143.603 101.398C141.614 100.926 139.999 101.547 138.756 102.517C137.214 103.735 135.052 103.76 133.511 102.517Z" fill="#005A82"/>
<path d="M497.44 111.491C497.44 111.491 494.283 126.456 496.122 134.883C497.962 143.31 504.027 142.241 504.947 141.992C505.867 141.719 506.662 139.258 506.662 139.258C506.662 139.258 507.831 141.47 510.466 141.321C513.101 141.197 515.86 139.506 515.86 139.506C515.86 139.506 524.163 141.47 529.035 140.401C533.883 139.357 534.579 137.244 534.579 137.244C534.579 137.244 537.462 138.562 540.744 135.678C544.025 132.77 539.426 121.111 537.636 116.487C535.871 111.864 497.44 111.491 497.44 111.491Z" fill="#0C6387"/>
<path d="M513.499 356.397L514.543 368.503L524.287 367.062V356L513.499 356.397Z" fill="#F79F8F"/>
<path d="M553.098 356L555.858 366.937H564.682L563.638 356H553.098Z" fill="#F79F8F"/>
<path d="M524.287 365.62C524.287 365.62 532.043 375.489 535.747 377.726C539.426 379.963 537.711 382.051 536.269 382.598C534.802 383.12 530.626 382.772 522.721 382.598C522 382.573 516.656 382.051 513.847 381.654C512.927 381.504 512.305 380.659 512.454 379.739L514.443 367.36L522.87 365.868L524.287 365.62Z" fill="#1F3C88"/>
<path d="M555.211 364.327L553.993 379.367C553.943 379.988 554.391 380.535 554.987 380.585C558.368 380.908 568.436 381.852 569.704 381.852C571.27 381.852 579.225 381.852 580.94 380.883C582.655 379.889 582.158 378.124 580.94 376.93C579.722 375.737 572.985 371.984 572.985 371.984L564.384 363.954L555.211 364.327Z" fill="#1F3C88"/>
<path d="M541.067 150.742C541.067 150.742 534.579 143.682 519.042 143.682C507.209 143.682 497.042 152.06 497.042 152.06L505.519 191.734L501.442 210.105H547.48L543.08 189.298C543.08 189.298 547.803 161.804 541.067 150.742Z" fill="#FFBB06"/>
<path d="M534.802 107.464C534.802 107.464 537.537 122.428 537.636 126.779C537.736 131.104 533.584 135.554 529.06 137.94C524.536 140.327 515.114 136.051 513.001 132.993C510.913 129.936 506.836 113.653 506.836 113.653C506.836 113.653 526.5 97.8682 534.802 107.464Z" fill="#F79F8F"/>
<path d="M527.32 136.772C527.32 136.772 527.469 142.092 529.309 146.442L515.065 144.254L512.504 132.074L527.32 136.772Z" fill="#F79F8F"/>
<path d="M511.435 121.882C511.435 121.882 508.204 117.705 505.544 119.818C502.859 121.906 505.42 127.674 507.707 129.364C510.018 131.054 512.529 128.643 512.529 128.643L511.435 121.882Z" fill="#F79F8F"/>
<path d="M527.444 138.487C527.444 138.487 521.254 138.586 517.053 136.125C517.053 136.125 522.671 142.937 528.165 142.887L527.444 138.487Z" fill="#F58A76"/>
<path d="M528.637 105.748C528.637 105.748 529.383 111.043 521.95 114.523C516.432 117.158 515.015 119.967 515.015 119.967C515.015 119.967 516.457 125.287 512.231 126.804C512.231 126.804 509.621 118.252 506.24 119.396C502.859 120.539 506.19 130.507 511.435 129.439C511.435 129.439 513.449 132.322 513.449 136.548C513.449 136.548 501.368 130.731 497.987 120.315C494.581 109.9 501.417 105.351 501.417 105.351C501.417 105.351 503.083 99.658 511.634 96.4015C520.185 93.1699 529.831 95.1337 534.504 98.8874C539.177 102.616 537.984 107.488 537.984 107.488C537.984 107.488 541.415 110.123 541.017 114.076C540.619 118.004 536.816 119.595 536.816 119.595C536.816 119.595 534.181 109.229 531.968 106.693C529.781 104.133 528.637 105.748 528.637 105.748Z" fill="#0C6387"/>
<path d="M529.035 118.153C529.035 118.153 529.309 121.235 530.85 122.901C532.391 124.541 529.98 125.884 529.98 125.884" stroke="#D47569" stroke-width="4.17624" stroke-miterlimit="10" stroke-linecap="round" stroke-linejoin="round"/>
<path d="M534.579 113.479C534.579 113.479 532.441 111.665 530.701 113.604" stroke="#0C6387" stroke-width="4.17624" stroke-miterlimit="10" stroke-linecap="round" stroke-linejoin="round"/>
<path d="M524.063 115.443C524.063 115.443 522.398 116.81 519.862 117.506" stroke="#0C6387" stroke-width="4.17624" stroke-miterlimit="10" stroke-linecap="round" stroke-linejoin="round"/>
<path d="M506.662 122.08C506.662 122.08 509.397 122.776 510.466 126.356" stroke="#D47569" stroke-width="4.17624" stroke-miterlimit="10" stroke-linecap="round" stroke-linejoin="round"/>
<path d="M508.601 126.008C508.601 126.008 508.154 125.138 509.049 123.97" stroke="#D47569" stroke-width="4.17624" stroke-miterlimit="10" stroke-linecap="round" stroke-linejoin="round"/>
<path d="M522.323 121.011C522.522 121.857 523.069 122.428 523.541 122.329C524.014 122.205 524.237 121.434 524.039 120.614C523.84 119.793 523.293 119.197 522.845 119.321C522.373 119.421 522.149 120.191 522.323 121.011Z" fill="#0C6387"/>
<path d="M531.968 118.749C532.167 119.57 532.689 120.166 533.162 120.042C533.634 119.943 533.858 119.172 533.659 118.352C533.485 117.506 532.938 116.935 532.466 117.034C531.993 117.158 531.77 117.904 531.968 118.749Z" fill="#0C6387"/>
<path d="M530.924 129.637C530.924 129.637 529.184 129.24 527.27 130.98" stroke="#D47569" stroke-width="4.17624" stroke-miterlimit="10" stroke-linecap="round" stroke-linejoin="round"/>
<path d="M570.947 145.795C568.908 139.283 556.007 114.971 556.007 114.971C556.007 114.971 554.764 111.665 551.607 107.886C551.607 107.886 548.002 104.679 546.511 104.282C545.69 103.635 544.497 102.79 543.577 102.517C541.986 102.02 538.208 103.66 537.885 104.307C537.562 104.953 538.481 105.201 539.973 104.804C541.464 104.406 541.986 104.257 541.986 104.257L543.13 105.699C541.937 106.519 540.868 107.464 540.768 107.836C540.569 108.557 541.564 109.651 541.564 109.651C541.564 109.651 542.16 111.938 543.006 112.212C543.851 112.46 543.851 112.46 543.851 112.46C543.851 112.46 545.69 115.717 547.928 115.94C547.928 115.94 548.947 119.396 551.259 119.967C551.756 124.268 553.72 140.302 555.584 145.994L547.48 147.635C547.952 150.891 551.731 163.296 551.731 163.296C555.485 162.774 573.805 154.968 570.947 145.795Z" fill="#F79F8F"/>
<path d="M561.103 304.294C561.103 304.294 558.691 237.499 547.48 210.105H501.442C501.442 210.105 496.719 222.981 497.738 249.829C498.559 271.406 503.928 295.245 506.016 303.797C505.792 312.224 505.842 335.789 512.181 356.969H525.605L524.809 307.053L528.687 244.708L540.42 300.59L540.371 300.565C540.371 300.565 542.185 334.944 552.85 356.969H564.682L561.103 304.294Z" fill="#1F3C88"/>
<path d="M554.018 119.644C554.018 119.644 552.701 120.813 551.259 119.967" stroke="#D47569" stroke-width="4.17624" stroke-miterlimit="10" stroke-linecap="round" stroke-linejoin="round"/>
<path d="M506.016 211.472C506.016 211.472 500.473 233.82 502.312 255.67C504.152 277.521 508.751 298.825 508.751 298.825" stroke="#1C5168" stroke-width="4.17624" stroke-miterlimit="10" stroke-linecap="round" stroke-linejoin="round"/>
<path d="M547.928 115.94C547.928 115.94 548.624 115.468 548.176 114.523L547.256 113.131" stroke="#D47569" stroke-width="4.17624" stroke-miterlimit="10" stroke-linecap="round" stroke-linejoin="round"/>
<path d="M546.188 110.521C546.188 110.521 544.05 111.441 543.851 112.46" stroke="#D47569" stroke-width="4.17624" stroke-miterlimit="10" stroke-linecap="round" stroke-linejoin="round"/>
<path d="M544.597 108.06C544.597 108.06 542.558 108.284 541.564 109.651" stroke="#D47569" stroke-width="4.17624" stroke-miterlimit="10" stroke-linecap="round" stroke-linejoin="round"/>
<path d="M532.814 145.92L548.574 146.442L552.626 163.296C552.626 163.296 546.188 167.074 540.744 166.95C532.615 166.751 532.814 145.92 532.814 145.92Z" fill="#FDC884"/>
<path d="M515.96 215.996C515.96 215.996 517.103 216.419 518.097 216.667C519.092 216.941 520.235 216.99 519.763 215.897C519.291 214.803 516.656 213.46 513.946 213.858C511.261 214.281 510.366 214.529 510.366 214.529L505.544 215.051L491.176 194.817L496.197 181.642L483.271 172.419C483.271 172.419 478.498 182.984 475.813 193.773C473.103 204.586 499.329 221.465 499.329 221.465C499.329 221.465 501.119 223.404 504.301 224.1C506.687 224.597 509.546 224.349 510.814 224.199C510.839 224.175 510.864 224.199 510.864 224.199L511.112 224.15C511.361 224.125 511.51 224.1 511.51 224.1V224.075L514.642 223.578C514.642 223.578 515.786 223.976 516.78 224.249C517.749 224.498 518.893 224.547 518.421 223.454C518.023 222.509 515.984 221.366 513.673 221.366L515.313 221.092C515.313 221.092 516.457 221.515 517.426 221.763C518.421 222.037 519.564 222.086 519.092 220.993C518.644 219.924 516.059 218.606 513.424 218.954L515.761 218.581C515.761 218.581 516.904 218.979 517.899 219.253C518.868 219.501 520.011 219.551 519.564 218.457C519.092 217.388 516.432 216.021 513.747 216.444C512.778 216.593 512.057 216.717 511.51 216.816V216.742L515.96 215.996Z" fill="#F79F8F"/>
<path d="M497.042 152.06C497.042 152.06 486.428 159.94 482.276 173.165L497.738 183.034C497.738 183.034 504.475 173.388 506.662 166.204C508.825 159.045 501.641 150.419 497.042 152.06Z" fill="#FDC884"/>
<path d="M505.792 146.815C505.792 146.815 511.485 150.419 520.906 150.146C530.353 149.872 532.814 145.92 532.814 145.92L528.563 144.354L514.816 143.011L505.792 146.815Z" fill="#F79F8F"/>
<path d="M502.287 175.75C502.287 175.75 505.32 169.212 505.792 162.128" stroke="#D47569" stroke-width="4.17624" stroke-miterlimit="10" stroke-linecap="round" stroke-linejoin="round"/>
<path d="M540.744 152.756C540.744 152.756 545.367 162.575 545.019 166.403" stroke="#D47569" stroke-width="4.17624" stroke-miterlimit="10" stroke-linecap="round" stroke-linejoin="round"/>
<path d="M539.426 187.782L529.035 190.143" stroke="#D47569" stroke-width="4.17624" stroke-miterlimit="10" stroke-linecap="round" stroke-linejoin="round"/>
<path d="M508.452 191.734L510.466 192.878L508.452 193.822" stroke="#D47569" stroke-width="4.17624" stroke-miterlimit="10" stroke-linecap="round" stroke-linejoin="round"/>
<path d="M507.06 150.171C507.06 150.171 517.849 153.85 525.406 151.861C532.963 149.872 534.579 147.362 534.579 147.362" stroke="#D47569" stroke-width="4.17624" stroke-miterlimit="10" stroke-linecap="round" stroke-linejoin="round"/>
<path d="M491.176 194.817C491.176 194.817 488.118 197.054 484.364 197.253" stroke="#D47569" stroke-width="4.17624" stroke-miterlimit="10" stroke-linecap="round" stroke-linejoin="round"/>
<path d="M555.584 145.994C555.584 145.994 557.971 147.113 563.29 148.505" stroke="#D47569" stroke-width="4.17624" stroke-miterlimit="10" stroke-linecap="round" stroke-linejoin="round"/>
<path d="M516.134 304.219C516.134 304.219 519.564 306.456 523.765 304.219" stroke="#1C5168" stroke-width="4.17624" stroke-miterlimit="10" stroke-linecap="round" stroke-linejoin="round"/>
<path d="M559.412 302.902C559.412 302.902 554.416 303.573 551.93 301.336" stroke="#1C5168" stroke-width="4.17624" stroke-miterlimit="10" stroke-linecap="round" stroke-linejoin="round"/>
<path d="M540.42 300.59L544.82 302.156" stroke="#1C5168" stroke-width="4.17624" stroke-miterlimit="10" stroke-linecap="round" stroke-linejoin="round"/>
<path d="M506.016 303.797L508.751 306.332" stroke="#1C5168" stroke-width="4.17624" stroke-miterlimit="10" stroke-linecap="round" stroke-linejoin="round"/>
<path d="M528.687 244.708C528.687 244.708 529.681 234.615 532.59 230.936C535.474 227.257 539.426 226.188 539.426 226.188" stroke="#1C5168" stroke-width="4.17624" stroke-miterlimit="10" stroke-linecap="round" stroke-linejoin="round"/>
<path d="M512.628 378.695C512.628 378.695 518.048 379.416 525.53 379.864C533.037 380.336 536.866 379.864 536.866 379.864" stroke="#1C5168" stroke-width="4.17624" stroke-miterlimit="10" stroke-linecap="round" stroke-linejoin="round"/>
<path d="M554.416 378.372C554.416 378.372 567.243 379.491 572.115 379.391C576.987 379.292 580.791 378.372 580.791 378.372" stroke="#1C5168" stroke-width="4.17624" stroke-miterlimit="10" stroke-linecap="round" stroke-linejoin="round"/>
<path d="M516.134 356.969C516.134 356.969 506.787 324.081 508.751 310.409" stroke="#1C5168" stroke-width="4.17624" stroke-miterlimit="10" stroke-linecap="round" stroke-linejoin="round"/>
<path d="M531.148 235.46C531.148 235.46 542.384 293.033 542.608 298.825" stroke="#1C5168" stroke-width="4.17624" stroke-miterlimit="10" stroke-linecap="round" stroke-linejoin="round"/>
<path d="M544.82 305.213C544.82 305.213 546.138 341.681 555.659 356.969" stroke="#1C5168" stroke-width="4.17624" stroke-miterlimit="10" stroke-linecap="round" stroke-linejoin="round"/>
<path d="M501.417 105.351C501.417 105.351 505.221 105.052 507.98 105.351" stroke="#1C5168" stroke-width="4.17624" stroke-miterlimit="10" stroke-linecap="round" stroke-linejoin="round"/>
<path d="M528.115 103.76C528.115 103.76 529.806 107.712 526.649 111.491C523.492 115.269 516.78 114.971 515.015 119.967C515.015 119.967 516.084 126.381 512.231 126.804" stroke="#1C5168" stroke-width="4.17624" stroke-miterlimit="10" stroke-linecap="round" stroke-linejoin="round"/>
<path d="M513.374 118.55C513.374 118.55 513.424 115.468 514.294 113.977" stroke="#1C5168" stroke-width="4.17624" stroke-miterlimit="10" stroke-linecap="round" stroke-linejoin="round"/>
<path d="M535.946 106.594L537.984 107.488" stroke="#1C5168" stroke-width="4.17624" stroke-miterlimit="10" stroke-linecap="round" stroke-linejoin="round"/>
<path d="M499.031 122.876C499.031 122.876 498.683 125.933 499.031 128.171" stroke="#1C5168" stroke-width="4.17624" stroke-miterlimit="10" stroke-linecap="round" stroke-linejoin="round"/>
<path d="M502.635 132.869C502.635 132.869 502.436 135.255 502.635 136.125" stroke="#1C5168" stroke-width="4.17624" stroke-miterlimit="10" stroke-linecap="round" stroke-linejoin="round"/>
<path d="M509.049 133.888V135.802" stroke="#1C5168" stroke-width="4.17624" stroke-miterlimit="10" stroke-linecap="round" stroke-linejoin="round"/>
<path d="M529.035 98.1665C529.035 98.1665 532.118 99.1608 533.51 100.752" stroke="#1C5168" stroke-width="4.17624" stroke-miterlimit="10" stroke-linecap="round" stroke-linejoin="round"/>
<path d="M537.636 131.85L537.835 133.888" stroke="#1C5168" stroke-width="4.17624" stroke-miterlimit="10" stroke-linecap="round" stroke-linejoin="round"/>
<path d="M502.635 110.521C502.635 110.521 501.865 112.709 502.188 114.548" stroke="#1C5168" stroke-width="4.17624" stroke-miterlimit="10" stroke-linecap="round" stroke-linejoin="round"/>
<path d="M519.862 103.163C519.862 103.163 519.788 104.754 519.042 105.873" stroke="#1C5168" stroke-width="4.17624" stroke-miterlimit="10" stroke-linecap="round" stroke-linejoin="round"/>
<path d="M507.383 101.075C507.383 101.075 509.645 98.8874 512.529 98.1665" stroke="#1C5168" stroke-width="4.17624" stroke-miterlimit="10" stroke-linecap="round" stroke-linejoin="round"/>
<path d="M580.07 55.3352H545.144C541.092 55.3352 537.835 58.6165 537.835 62.6684V89.4908C537.835 93.5179 541.092 96.7992 545.144 96.7992H556.653L555.46 101.87C555.137 103.312 556.728 104.431 557.971 103.61L568.411 96.7992H580.07C584.097 96.7992 587.378 93.5179 587.378 89.4908V62.6684C587.378 58.6165 584.097 55.3352 580.07 55.3352Z" fill="#FFBB06"/>
<path d="M566.273 87.7259C566.248 90.1372 564.26 92.0761 561.824 92.0513C559.412 92.0264 557.473 90.0626 557.498 87.6513C557.523 85.1903 559.487 83.2513 561.898 83.2762C564.359 83.3011 566.298 85.2649 566.273 87.7259ZM554.813 67.839C553.024 66.9441 552.452 64.6323 553.67 63.0413C555.137 61.1769 557.747 59.238 562.246 59.2877C567.989 59.3374 573.085 63.1656 573.035 68.5599C573.01 72.3136 570.176 74.5757 566.497 76.1169C565.18 76.6887 565.13 77.7576 565.13 79.0254C565.105 80.1937 564.135 81.1632 562.967 81.1384L560.929 81.1135C559.735 81.1135 558.791 80.144 558.791 78.9508L558.816 76.9124C558.841 75.2469 558.915 73.8548 560.655 72.761C563.017 71.2944 565.204 71.1949 565.229 68.4853C565.254 66.6458 563.887 65.3283 562.147 65.3035C560.581 65.3035 559.462 66.0244 558.716 66.9441C557.772 68.1125 556.156 68.5102 554.813 67.839Z" fill="#005A82"/>
</svg>
