<svg width="135" height="61" viewBox="0 0 135 61" fill="none" xmlns="http://www.w3.org/2000/svg">
<path d="M27.6328 17.3828C27.6328 17.8359 27.6094 18.2266 27.5625 18.5547C27.5312 18.8828 27.4766 19.1484 27.3984 19.3516C27.3359 19.5391 27.25 19.6719 27.1406 19.75C27.0469 19.8281 26.9297 19.8672 26.7891 19.8672C26.5859 19.8672 26.2578 19.7266 25.8047 19.4453C25.3516 19.1641 24.75 18.8594 24 18.5312C23.25 18.2031 22.3516 17.8984 21.3047 17.6172C20.2734 17.3359 19.0703 17.1953 17.6953 17.1953C16.2266 17.1953 14.8984 17.4531 13.7109 17.9688C12.5234 18.4688 11.5078 19.1875 10.6641 20.125C9.82031 21.0469 9.17188 22.1641 8.71875 23.4766C8.26562 24.7734 8.03906 26.2109 8.03906 27.7891C8.03906 29.5234 8.26562 31.0547 8.71875 32.3828C9.1875 33.6953 9.83594 34.7969 10.6641 35.6875C11.4922 36.5781 12.4844 37.25 13.6406 37.7031C14.8125 38.1562 16.1016 38.3828 17.5078 38.3828C18.1953 38.3828 18.875 38.3047 19.5469 38.1484C20.2188 37.9922 20.8438 37.7578 21.4219 37.4453V30.4141H15.6797C15.3984 30.4141 15.1797 30.2422 15.0234 29.8984C14.8672 29.5391 14.7891 28.9375 14.7891 28.0938C14.7891 27.6562 14.8047 27.2891 14.8359 26.9922C14.8828 26.6953 14.9453 26.4609 15.0234 26.2891C15.1016 26.1016 15.1953 25.9688 15.3047 25.8906C15.4141 25.7969 15.5391 25.75 15.6797 25.75H25.9219C26.1719 25.75 26.3906 25.7969 26.5781 25.8906C26.7812 25.9688 26.9531 26.0938 27.0938 26.2656C27.25 26.4375 27.3672 26.6484 27.4453 26.8984C27.5234 27.1328 27.5625 27.4062 27.5625 27.7188V39.7891C27.5625 40.2578 27.4766 40.6719 27.3047 41.0312C27.1484 41.375 26.8125 41.6484 26.2969 41.8516C25.7969 42.0547 25.1719 42.2656 24.4219 42.4844C23.6719 42.7031 22.8906 42.8906 22.0781 43.0469C21.2812 43.2031 20.4688 43.3203 19.6406 43.3984C18.8281 43.4766 18.0078 43.5156 17.1797 43.5156C14.7578 43.5156 12.5859 43.1719 10.6641 42.4844C8.75781 41.7812 7.14062 40.7734 5.8125 39.4609C4.48438 38.1328 3.46875 36.5234 2.76562 34.6328C2.0625 32.7266 1.71094 30.5703 1.71094 28.1641C1.71094 25.6797 2.08594 23.4531 2.83594 21.4844C3.58594 19.5 4.64844 17.8203 6.02344 16.4453C7.39844 15.0547 9.05469 13.9922 10.9922 13.2578C12.9453 12.5234 15.1172 12.1562 17.5078 12.1562C18.8203 12.1562 20.0156 12.25 21.0938 12.4375C22.1719 12.6094 23.1094 12.8281 23.9062 13.0938C24.7188 13.3438 25.3906 13.6172 25.9219 13.9141C26.4531 14.2109 26.8203 14.4688 27.0234 14.6875C27.2422 14.9062 27.3984 15.2188 27.4922 15.625C27.5859 16.0156 27.6328 16.6016 27.6328 17.3828Z" fill="#606062"/>
<path d="M68.1484 39.7031C68.3359 40.2656 68.4531 40.7109 68.5 41.0391C68.5469 41.3672 68.4844 41.6172 68.3125 41.7891C68.1406 41.9453 67.8359 42.0391 67.3984 42.0703C66.9609 42.1172 66.3594 42.1406 65.5938 42.1406C64.7969 42.1406 64.1719 42.125 63.7188 42.0938C63.2812 42.0781 62.9453 42.0391 62.7109 41.9766C62.4766 41.8984 62.3125 41.7969 62.2188 41.6719C62.125 41.5469 62.0469 41.3828 61.9844 41.1797L59.9453 35.0859H48.5547L46.6328 41.0156C46.5703 41.2344 46.4844 41.4219 46.375 41.5781C46.2812 41.7188 46.1172 41.8359 45.8828 41.9297C45.6641 42.0078 45.3438 42.0625 44.9219 42.0938C44.5156 42.125 43.9766 42.1406 43.3047 42.1406C42.5859 42.1406 42.0234 42.1172 41.6172 42.0703C41.2109 42.0234 40.9297 41.9141 40.7734 41.7422C40.6172 41.5547 40.5625 41.2969 40.6094 40.9688C40.6562 40.6406 40.7734 40.2031 40.9609 39.6562L50.3125 12.75C50.4062 12.4844 50.5156 12.2734 50.6406 12.1172C50.7656 11.9453 50.9609 11.8203 51.2266 11.7422C51.5078 11.6484 51.8906 11.5938 52.375 11.5781C52.8594 11.5469 53.5 11.5312 54.2969 11.5312C55.2188 11.5312 55.9531 11.5469 56.5 11.5781C57.0469 11.5938 57.4688 11.6484 57.7656 11.7422C58.0781 11.8203 58.2969 11.9453 58.4219 12.1172C58.5625 12.2891 58.6797 12.5234 58.7734 12.8203L68.1484 39.7031ZM54.2266 17.4609H54.2031L49.9141 30.3516H58.5156L54.2266 17.4609Z" fill="#606062"/>
<path d="M99.0371 15.3628C99.0371 15.8159 99.0137 16.2065 98.9668 16.5347C98.9355 16.8472 98.8809 17.105 98.8027 17.3081C98.7246 17.4956 98.623 17.6362 98.498 17.73C98.3887 17.8237 98.2637 17.8706 98.123 17.8706H90.5293V42.3159C90.5293 42.4722 90.4746 42.6128 90.3652 42.7378C90.2715 42.8628 90.1074 42.9644 89.873 43.0425C89.6387 43.1206 89.3184 43.1831 88.9121 43.23C88.5215 43.2769 88.0293 43.3003 87.4355 43.3003C86.8418 43.3003 86.3418 43.2769 85.9355 43.23C85.5449 43.1831 85.2324 43.1206 84.998 43.0425C84.7637 42.9644 84.5918 42.8628 84.4824 42.7378C84.3887 42.6128 84.3418 42.4722 84.3418 42.3159V17.8706H76.748C76.5918 17.8706 76.459 17.8237 76.3496 17.73C76.2402 17.6362 76.1465 17.4956 76.0684 17.3081C75.9902 17.105 75.9277 16.8472 75.8809 16.5347C75.8496 16.2065 75.834 15.8159 75.834 15.3628C75.834 14.894 75.8496 14.4956 75.8809 14.1675C75.9277 13.8394 75.9902 13.5815 76.0684 13.394C76.1465 13.1909 76.2402 13.0503 76.3496 12.9722C76.459 12.8784 76.5918 12.8315 76.748 12.8315H98.123C98.2637 12.8315 98.3887 12.8784 98.498 12.9722C98.623 13.0503 98.7246 13.1909 98.8027 13.394C98.8809 13.5815 98.9355 13.8394 98.9668 14.1675C99.0137 14.4956 99.0371 14.894 99.0371 15.3628Z" fill="#606062"/>
<path d="M122.876 40.2383C122.876 40.6914 122.852 41.0742 122.805 41.3867C122.774 41.6836 122.719 41.9258 122.641 42.1133C122.563 42.3008 122.462 42.4414 122.337 42.5352C122.227 42.6133 122.102 42.6523 121.962 42.6523H106.727C106.212 42.6523 105.774 42.5039 105.415 42.207C105.071 41.8945 104.899 41.3945 104.899 40.707V14.2695C104.899 13.582 105.071 13.0898 105.415 12.793C105.774 12.4805 106.212 12.3242 106.727 12.3242H121.868C122.009 12.3242 122.134 12.3633 122.243 12.4414C122.352 12.5195 122.446 12.6602 122.524 12.8633C122.602 13.0508 122.657 13.3008 122.688 13.6133C122.735 13.9102 122.759 14.293 122.759 14.7617C122.759 15.1992 122.735 15.5742 122.688 15.8867C122.657 16.1836 122.602 16.4258 122.524 16.6133C122.446 16.8008 122.352 16.9414 122.243 17.0352C122.134 17.1133 122.009 17.1523 121.868 17.1523H111.04V24.5586H120.204C120.344 24.5586 120.469 24.6055 120.579 24.6992C120.704 24.7773 120.805 24.9102 120.884 25.0977C120.962 25.2695 121.016 25.5117 121.048 25.8242C121.094 26.1211 121.118 26.4883 121.118 26.9258C121.118 27.3789 121.094 27.7539 121.048 28.0508C121.016 28.3477 120.962 28.5898 120.884 28.7773C120.805 28.9492 120.704 29.0742 120.579 29.1523C120.469 29.2305 120.344 29.2695 120.204 29.2695H111.04V37.8242H121.962C122.102 37.8242 122.227 37.8711 122.337 37.9648C122.462 38.043 122.563 38.1758 122.641 38.3633C122.719 38.5508 122.774 38.8008 122.805 39.1133C122.852 39.4102 122.876 39.7852 122.876 40.2383Z" fill="#606062"/>
<path d="M34 43C36.2091 43 38 41.2091 38 39C38 36.7909 36.2091 35 34 35C31.7909 35 30 36.7909 30 39C30 41.2091 31.7909 43 34 43Z" fill="#606062"/>
<path d="M74 43C76.2091 43 78 41.2091 78 39C78 36.7909 76.2091 35 74 35C71.7909 35 70 36.7909 70 39C70 41.2091 71.7909 43 74 43Z" fill="#606062"/>
<path d="M96 43C98.2091 43 100 41.2091 100 39C100 36.7909 98.2091 35 96 35C93.7909 35 92 36.7909 92 39C92 41.2091 93.7909 43 96 43Z" fill="#606062"/>
<path d="M130 43C132.209 43 134 41.2091 134 39C134 36.7909 132.209 35 130 35C127.791 35 126 36.7909 126 39C126 41.2091 127.791 43 130 43Z" fill="#606062"/>
<path d="M10.0979 47.1396C10.0979 47.2057 10.0945 47.2627 10.0877 47.3105C10.0831 47.3584 10.0752 47.3971 10.0638 47.4268C10.0547 47.4541 10.0421 47.4735 10.0262 47.4849C10.0125 47.4963 9.99541 47.502 9.9749 47.502C9.94528 47.502 9.89743 47.4814 9.83135 47.4404C9.76527 47.3994 9.67754 47.355 9.56816 47.3071C9.45879 47.2593 9.32777 47.2148 9.1751 47.1738C9.02471 47.1328 8.84925 47.1123 8.64873 47.1123C8.43454 47.1123 8.24085 47.1499 8.06768 47.2251C7.8945 47.298 7.74639 47.4028 7.62334 47.5396C7.50029 47.674 7.40573 47.8369 7.33965 48.0283C7.27357 48.2174 7.24053 48.4271 7.24053 48.6572C7.24053 48.9102 7.27357 49.1335 7.33965 49.3271C7.40801 49.5186 7.50257 49.6792 7.62334 49.8091C7.74411 49.939 7.8888 50.0369 8.05742 50.103C8.22832 50.1691 8.41631 50.2021 8.62139 50.2021C8.72165 50.2021 8.82077 50.1908 8.91875 50.168C9.01673 50.1452 9.10788 50.111 9.19219 50.0654V49.04H8.35479C8.31377 49.04 8.28187 49.015 8.25908 48.9648C8.2363 48.9124 8.2249 48.8247 8.2249 48.7017C8.2249 48.6379 8.22718 48.5843 8.23174 48.541C8.23857 48.4977 8.24769 48.4635 8.25908 48.4385C8.27048 48.4111 8.28415 48.3918 8.3001 48.3804C8.31605 48.3667 8.33428 48.3599 8.35479 48.3599H9.84844C9.8849 48.3599 9.9168 48.3667 9.94414 48.3804C9.97376 48.3918 9.99883 48.41 10.0193 48.4351C10.0421 48.4601 10.0592 48.4909 10.0706 48.5273C10.082 48.5615 10.0877 48.6014 10.0877 48.647V50.4072C10.0877 50.4756 10.0752 50.536 10.0501 50.5884C10.0273 50.6385 9.97832 50.6784 9.90313 50.708C9.83021 50.7376 9.73906 50.7684 9.62969 50.8003C9.52031 50.8322 9.40638 50.8595 9.28789 50.8823C9.17168 50.9051 9.05319 50.9222 8.93242 50.9336C8.81393 50.945 8.6943 50.9507 8.57354 50.9507C8.22035 50.9507 7.90361 50.9006 7.62334 50.8003C7.34535 50.6978 7.10951 50.5508 6.91582 50.3594C6.72214 50.1657 6.57402 49.931 6.47149 49.6553C6.36895 49.3773 6.31768 49.0628 6.31768 48.7119C6.31768 48.3496 6.37236 48.0249 6.48174 47.7378C6.59111 47.4484 6.74606 47.2035 6.94658 47.0029C7.1471 46.8001 7.38864 46.6452 7.67119 46.5381C7.95602 46.431 8.27275 46.3774 8.62139 46.3774C8.81279 46.3774 8.98711 46.3911 9.14434 46.4185C9.30156 46.4435 9.43828 46.4754 9.55449 46.5142C9.67298 46.5506 9.77096 46.5905 9.84844 46.6338C9.92591 46.6771 9.97946 46.7147 10.0091 46.7466C10.041 46.7785 10.0638 46.8241 10.0774 46.8833C10.0911 46.9403 10.0979 47.0257 10.0979 47.1396ZM13.2712 47.9941C13.2712 48.0762 13.2689 48.1434 13.2644 48.1958C13.2598 48.2482 13.253 48.2892 13.2438 48.3188C13.2347 48.3485 13.2222 48.369 13.2063 48.3804C13.1926 48.3918 13.1744 48.3975 13.1516 48.3975C13.1333 48.3975 13.1128 48.394 13.09 48.3872C13.0673 48.3781 13.041 48.369 13.0114 48.3599C12.9841 48.3507 12.9533 48.3428 12.9191 48.3359C12.885 48.3268 12.8474 48.3223 12.8063 48.3223C12.7585 48.3223 12.7106 48.3325 12.6628 48.353C12.6149 48.3713 12.5648 48.4009 12.5124 48.4419C12.4623 48.4829 12.4087 48.5376 12.3518 48.606C12.2971 48.6743 12.2378 48.7586 12.174 48.8589V50.7593C12.174 50.7821 12.1672 50.8026 12.1535 50.8208C12.1398 50.8368 12.1159 50.8504 12.0817 50.8618C12.0498 50.8732 12.0065 50.8812 11.9519 50.8857C11.8972 50.8926 11.8277 50.896 11.7434 50.896C11.6591 50.896 11.5896 50.8926 11.5349 50.8857C11.4802 50.8812 11.4357 50.8732 11.4016 50.8618C11.3697 50.8504 11.3469 50.8368 11.3332 50.8208C11.3195 50.8026 11.3127 50.7821 11.3127 50.7593V47.7104C11.3127 47.6877 11.3184 47.6683 11.3298 47.6523C11.3412 47.6341 11.3617 47.6193 11.3913 47.6079C11.4209 47.5965 11.4585 47.5885 11.5041 47.584C11.552 47.5771 11.6112 47.5737 11.6818 47.5737C11.7548 47.5737 11.8151 47.5771 11.863 47.584C11.9108 47.5885 11.9473 47.5965 11.9724 47.6079C11.9997 47.6193 12.0191 47.6341 12.0305 47.6523C12.0419 47.6683 12.0476 47.6877 12.0476 47.7104V48.0898C12.1273 47.9759 12.2025 47.8825 12.2731 47.8096C12.3438 47.7344 12.411 47.6751 12.4748 47.6318C12.5386 47.5885 12.6024 47.5589 12.6662 47.543C12.73 47.5247 12.7938 47.5156 12.8576 47.5156C12.8872 47.5156 12.9191 47.5179 12.9533 47.5225C12.9875 47.5247 13.0228 47.5304 13.0593 47.5396C13.0957 47.5464 13.1276 47.5555 13.155 47.5669C13.1823 47.576 13.2017 47.5863 13.2131 47.5977C13.2268 47.609 13.2359 47.6216 13.2404 47.6353C13.2473 47.6489 13.253 47.6683 13.2575 47.6934C13.2621 47.7161 13.2655 47.7515 13.2678 47.7993C13.2701 47.8472 13.2712 47.9121 13.2712 47.9941ZM16.5914 50.7695C16.5914 50.8014 16.58 50.8265 16.5572 50.8447C16.5344 50.863 16.498 50.8755 16.4479 50.8823C16.4 50.8914 16.3282 50.896 16.2325 50.896C16.13 50.896 16.0548 50.8914 16.0069 50.8823C15.9614 50.8755 15.9283 50.863 15.9078 50.8447C15.8896 50.8265 15.8805 50.8014 15.8805 50.7695V50.5269C15.7551 50.6613 15.6116 50.7661 15.4498 50.8413C15.2903 50.9165 15.1126 50.9541 14.9166 50.9541C14.7548 50.9541 14.6056 50.9325 14.4688 50.8892C14.3344 50.8481 14.2171 50.7866 14.1168 50.7046C14.0188 50.6203 13.9425 50.5166 13.8878 50.3936C13.8331 50.2705 13.8058 50.127 13.8058 49.9629C13.8058 49.7852 13.8399 49.6313 13.9083 49.5015C13.9789 49.3693 14.0826 49.2611 14.2193 49.1768C14.3583 49.0902 14.5304 49.0264 14.7354 48.9854C14.9405 48.9443 15.1786 48.9238 15.4498 48.9238H15.7472V48.7393C15.7472 48.6436 15.7369 48.5604 15.7164 48.4897C15.6982 48.4168 15.6663 48.3564 15.6207 48.3086C15.5774 48.2607 15.5182 48.2254 15.443 48.2026C15.3701 48.1799 15.2789 48.1685 15.1695 48.1685C15.026 48.1685 14.8972 48.1844 14.7833 48.2163C14.6716 48.2482 14.5725 48.2835 14.4859 48.3223C14.3993 48.361 14.3264 48.3963 14.2672 48.4282C14.2102 48.4601 14.1635 48.4761 14.1271 48.4761C14.102 48.4761 14.0792 48.4681 14.0587 48.4521C14.0405 48.4362 14.0245 48.4134 14.0108 48.3838C13.9994 48.3542 13.9903 48.3177 13.9835 48.2744C13.9767 48.2311 13.9732 48.1833 13.9732 48.1309C13.9732 48.0602 13.9789 48.0044 13.9903 47.9634C14.0017 47.9224 14.0234 47.8859 14.0553 47.854C14.0872 47.8198 14.143 47.7834 14.2228 47.7446C14.3025 47.7036 14.3959 47.666 14.503 47.6318C14.6101 47.5977 14.7263 47.5703 14.8517 47.5498C14.9793 47.527 15.1103 47.5156 15.2447 47.5156C15.484 47.5156 15.6879 47.5396 15.8565 47.5874C16.0274 47.633 16.1676 47.7048 16.277 47.8027C16.3863 47.8984 16.4661 48.0226 16.5162 48.1753C16.5663 48.328 16.5914 48.5091 16.5914 48.7188V50.7695ZM15.7472 49.4639H15.419C15.28 49.4639 15.1616 49.4741 15.0636 49.4946C14.9656 49.5151 14.8858 49.5459 14.8243 49.5869C14.7628 49.6279 14.7172 49.6781 14.6876 49.7373C14.6603 49.7943 14.6466 49.8604 14.6466 49.9355C14.6466 50.0632 14.6865 50.1634 14.7662 50.2363C14.8482 50.3092 14.961 50.3457 15.1046 50.3457C15.2254 50.3457 15.3359 50.3149 15.4361 50.2534C15.5387 50.1919 15.6424 50.1019 15.7472 49.9834V49.4639ZM20.6943 50.7593C20.6943 50.7843 20.6886 50.806 20.6772 50.8242C20.6659 50.8402 20.6465 50.8538 20.6191 50.8652C20.5918 50.8766 20.5542 50.8846 20.5063 50.8892C20.4608 50.8937 20.4038 50.896 20.3354 50.896C20.2625 50.896 20.2033 50.8937 20.1577 50.8892C20.1121 50.8846 20.0745 50.8766 20.0449 50.8652C20.0176 50.8538 19.9971 50.8402 19.9834 50.8242C19.972 50.806 19.9663 50.7843 19.9663 50.7593V50.4209C19.8091 50.5895 19.6439 50.7205 19.4707 50.814C19.2998 50.9074 19.1095 50.9541 18.8999 50.9541C18.6675 50.9541 18.4704 50.9097 18.3086 50.8208C18.1491 50.7297 18.0181 50.6077 17.9155 50.4551C17.8153 50.3024 17.7424 50.1247 17.6968 49.9219C17.6512 49.7168 17.6284 49.5015 17.6284 49.2759C17.6284 49.0047 17.6569 48.7609 17.7139 48.5444C17.7731 48.328 17.8586 48.1434 17.9702 47.9907C18.0819 47.8381 18.2209 47.7207 18.3872 47.6387C18.5535 47.5566 18.745 47.5156 18.9614 47.5156C19.1323 47.5156 19.2873 47.5509 19.4263 47.6216C19.5653 47.6899 19.7031 47.7913 19.8398 47.9258V46.2749C19.8398 46.2521 19.8455 46.2316 19.8569 46.2134C19.8706 46.1951 19.8934 46.1803 19.9253 46.1689C19.9595 46.1553 20.0039 46.145 20.0586 46.1382C20.1133 46.1313 20.1828 46.1279 20.2671 46.1279C20.3514 46.1279 20.4209 46.1313 20.4756 46.1382C20.5303 46.145 20.5736 46.1553 20.6055 46.1689C20.6374 46.1803 20.6602 46.1951 20.6738 46.2134C20.6875 46.2316 20.6943 46.2521 20.6943 46.2749V50.7593ZM19.8398 48.7222C19.7168 48.5672 19.5983 48.4487 19.4844 48.3667C19.3727 48.2847 19.2554 48.2437 19.1323 48.2437C19.0207 48.2437 18.9238 48.2721 18.8418 48.3291C18.762 48.3838 18.6971 48.4578 18.647 48.5513C18.5991 48.6447 18.5627 48.7495 18.5376 48.8657C18.5148 48.9797 18.5034 49.097 18.5034 49.2178C18.5034 49.3454 18.5137 49.4696 18.5342 49.5903C18.5547 49.7111 18.5877 49.8193 18.6333 49.915C18.6812 50.0085 18.7438 50.0837 18.8213 50.1406C18.8988 50.1976 18.9967 50.2261 19.1152 50.2261C19.1745 50.2261 19.2314 50.2181 19.2861 50.2021C19.3431 50.1839 19.4001 50.1554 19.457 50.1167C19.5163 50.078 19.5767 50.0278 19.6382 49.9663C19.6997 49.9025 19.7669 49.825 19.8398 49.7339V48.7222ZM24.8041 50.7593C24.8041 50.7821 24.7984 50.8026 24.787 50.8208C24.7756 50.8368 24.7551 50.8504 24.7255 50.8618C24.6981 50.8732 24.6605 50.8812 24.6127 50.8857C24.5671 50.8926 24.509 50.896 24.4384 50.896C24.3632 50.896 24.3017 50.8926 24.2538 50.8857C24.2082 50.8812 24.1718 50.8732 24.1444 50.8618C24.1171 50.8504 24.0977 50.8368 24.0863 50.8208C24.0749 50.8026 24.0692 50.7821 24.0692 50.7593V50.4072C23.9006 50.5895 23.7286 50.7262 23.5531 50.8174C23.3799 50.9085 23.1999 50.9541 23.0131 50.9541C22.8035 50.9541 22.6269 50.9199 22.4833 50.8516C22.342 50.7832 22.227 50.6898 22.1381 50.5713C22.0515 50.4528 21.9888 50.3161 21.9501 50.1611C21.9136 50.0039 21.8954 49.8091 21.8954 49.5767V47.7104C21.8954 47.6877 21.9011 47.6683 21.9125 47.6523C21.9262 47.6341 21.949 47.6193 21.9809 47.6079C22.015 47.5965 22.0595 47.5885 22.1142 47.584C22.1711 47.5771 22.2406 47.5737 22.3227 47.5737C22.407 47.5737 22.4765 47.5771 22.5312 47.584C22.5858 47.5885 22.6291 47.5965 22.661 47.6079C22.6952 47.6193 22.7191 47.6341 22.7328 47.6523C22.7465 47.6683 22.7533 47.6877 22.7533 47.7104V49.4331C22.7533 49.5926 22.7636 49.7145 22.7841 49.7988C22.8046 49.8831 22.8354 49.9561 22.8764 50.0176C22.9197 50.0768 22.9732 50.1235 23.037 50.1577C23.1031 50.1896 23.1794 50.2056 23.266 50.2056C23.3754 50.2056 23.4848 50.1657 23.5941 50.0859C23.7058 50.0062 23.8243 49.89 23.9496 49.7373V47.7104C23.9496 47.6877 23.9553 47.6683 23.9667 47.6523C23.9804 47.6341 24.0032 47.6193 24.0351 47.6079C24.0692 47.5965 24.1137 47.5885 24.1684 47.584C24.223 47.5771 24.2925 47.5737 24.3769 47.5737C24.4612 47.5737 24.5307 47.5771 24.5854 47.584C24.64 47.5885 24.6833 47.5965 24.7152 47.6079C24.7471 47.6193 24.7699 47.6341 24.7836 47.6523C24.7973 47.6683 24.8041 47.6877 24.8041 47.7104V50.7593ZM28.6199 50.7695C28.6199 50.8014 28.6085 50.8265 28.5857 50.8447C28.563 50.863 28.5265 50.8755 28.4764 50.8823C28.4285 50.8914 28.3567 50.896 28.261 50.896C28.1585 50.896 28.0833 50.8914 28.0354 50.8823C27.9899 50.8755 27.9568 50.863 27.9363 50.8447C27.9181 50.8265 27.909 50.8014 27.909 50.7695V50.5269C27.7837 50.6613 27.6401 50.7661 27.4783 50.8413C27.3188 50.9165 27.1411 50.9541 26.9451 50.9541C26.7833 50.9541 26.6341 50.9325 26.4974 50.8892C26.3629 50.8481 26.2456 50.7866 26.1453 50.7046C26.0473 50.6203 25.971 50.5166 25.9163 50.3936C25.8616 50.2705 25.8343 50.127 25.8343 49.9629C25.8343 49.7852 25.8685 49.6313 25.9368 49.5015C26.0075 49.3693 26.1111 49.2611 26.2479 49.1768C26.3868 49.0902 26.5589 49.0264 26.764 48.9854C26.969 48.9443 27.2072 48.9238 27.4783 48.9238H27.7757V48.7393C27.7757 48.6436 27.7654 48.5604 27.7449 48.4897C27.7267 48.4168 27.6948 48.3564 27.6492 48.3086C27.6059 48.2607 27.5467 48.2254 27.4715 48.2026C27.3986 48.1799 27.3074 48.1685 27.198 48.1685C27.0545 48.1685 26.9257 48.1844 26.8118 48.2163C26.7002 48.2482 26.601 48.2835 26.5145 48.3223C26.4279 48.361 26.3549 48.3963 26.2957 48.4282C26.2387 48.4601 26.192 48.4761 26.1556 48.4761C26.1305 48.4761 26.1077 48.4681 26.0872 48.4521C26.069 48.4362 26.053 48.4134 26.0394 48.3838C26.028 48.3542 26.0188 48.3177 26.012 48.2744C26.0052 48.2311 26.0018 48.1833 26.0018 48.1309C26.0018 48.0602 26.0075 48.0044 26.0188 47.9634C26.0302 47.9224 26.0519 47.8859 26.0838 47.854C26.1157 47.8198 26.1715 47.7834 26.2513 47.7446C26.331 47.7036 26.4244 47.666 26.5315 47.6318C26.6386 47.5977 26.7549 47.5703 26.8802 47.5498C27.0078 47.527 27.1388 47.5156 27.2732 47.5156C27.5125 47.5156 27.7164 47.5396 27.8851 47.5874C28.056 47.633 28.1961 47.7048 28.3055 47.8027C28.4148 47.8984 28.4946 48.0226 28.5447 48.1753C28.5949 48.328 28.6199 48.5091 28.6199 48.7188V50.7695ZM27.7757 49.4639H27.4476C27.3086 49.4639 27.1901 49.4741 27.0921 49.4946C26.9941 49.5151 26.9144 49.5459 26.8528 49.5869C26.7913 49.6279 26.7457 49.6781 26.7161 49.7373C26.6888 49.7943 26.6751 49.8604 26.6751 49.9355C26.6751 50.0632 26.715 50.1634 26.7947 50.2363C26.8768 50.3092 26.9896 50.3457 27.1331 50.3457C27.2539 50.3457 27.3644 50.3149 27.4646 50.2534C27.5672 50.1919 27.6709 50.1019 27.7757 49.9834V49.4639ZM31.5676 50.4585C31.5676 50.5588 31.5607 50.6362 31.5471 50.6909C31.5357 50.7433 31.5197 50.7809 31.4992 50.8037C31.4787 50.8242 31.448 50.8436 31.4069 50.8618C31.3682 50.8778 31.3215 50.8914 31.2668 50.9028C31.2144 50.9165 31.1563 50.9268 31.0925 50.9336C31.031 50.9404 30.9683 50.9438 30.9045 50.9438C30.7336 50.9438 30.5855 50.9222 30.4602 50.8789C30.3348 50.8356 30.2312 50.7695 30.1491 50.6807C30.0671 50.5895 30.0067 50.4756 29.968 50.3389C29.9292 50.2021 29.9099 50.0404 29.9099 49.8535V48.2915H29.5441C29.5008 48.2915 29.4678 48.2653 29.445 48.2129C29.4222 48.1582 29.4108 48.0682 29.4108 47.9429C29.4108 47.8768 29.4131 47.821 29.4177 47.7754C29.4245 47.7298 29.4336 47.6945 29.445 47.6694C29.4564 47.6421 29.4701 47.6227 29.486 47.6113C29.5043 47.5999 29.5248 47.5942 29.5476 47.5942H29.9099V46.9141C29.9099 46.8913 29.9156 46.8708 29.927 46.8525C29.9406 46.8343 29.9634 46.8195 29.9953 46.8081C30.0295 46.7944 30.0739 46.7853 30.1286 46.7808C30.1856 46.7739 30.2551 46.7705 30.3371 46.7705C30.4214 46.7705 30.4909 46.7739 30.5456 46.7808C30.6026 46.7853 30.647 46.7944 30.6789 46.8081C30.7108 46.8195 30.7336 46.8343 30.7473 46.8525C30.7609 46.8708 30.7678 46.8913 30.7678 46.9141V47.5942H31.4309C31.4536 47.5942 31.473 47.5999 31.489 47.6113C31.5072 47.6227 31.522 47.6421 31.5334 47.6694C31.5448 47.6945 31.5528 47.7298 31.5573 47.7754C31.5642 47.821 31.5676 47.8768 31.5676 47.9429C31.5676 48.0682 31.5562 48.1582 31.5334 48.2129C31.5106 48.2653 31.4776 48.2915 31.4343 48.2915H30.7678V49.7236C30.7678 49.89 30.794 50.0153 30.8464 50.0996C30.8988 50.1816 30.9922 50.2227 31.1267 50.2227C31.1722 50.2227 31.2132 50.2192 31.2497 50.2124C31.2862 50.2033 31.3181 50.1942 31.3454 50.1851C31.375 50.1737 31.399 50.1646 31.4172 50.1577C31.4377 50.1486 31.4559 50.144 31.4719 50.144C31.4855 50.144 31.4981 50.1486 31.5095 50.1577C31.5231 50.1646 31.5334 50.1805 31.5402 50.2056C31.5471 50.2284 31.5528 50.2603 31.5573 50.3013C31.5642 50.3423 31.5676 50.3947 31.5676 50.4585ZM35.2672 49.146C35.2672 49.2508 35.2433 49.3283 35.1954 49.3784C35.1498 49.4285 35.086 49.4536 35.004 49.4536H33.148C33.148 49.5835 33.1629 49.702 33.1925 49.8091C33.2244 49.9139 33.2734 50.0039 33.3395 50.0791C33.4078 50.152 33.4944 50.2078 33.5992 50.2466C33.7063 50.2853 33.8339 50.3047 33.982 50.3047C34.1324 50.3047 34.2646 50.2944 34.3785 50.2739C34.4924 50.2511 34.5904 50.2272 34.6725 50.2021C34.7568 50.1748 34.8263 50.1509 34.881 50.1304C34.9356 50.1076 34.9801 50.0962 35.0143 50.0962C35.0348 50.0962 35.0519 50.1007 35.0655 50.1099C35.0792 50.1167 35.0906 50.1304 35.0997 50.1509C35.1088 50.1714 35.1145 50.201 35.1168 50.2397C35.1214 50.2762 35.1236 50.3229 35.1236 50.3799C35.1236 50.43 35.1225 50.4733 35.1202 50.5098C35.1179 50.5439 35.1145 50.5736 35.11 50.5986C35.1054 50.6237 35.0986 50.6453 35.0895 50.6636C35.0803 50.6795 35.0678 50.6955 35.0519 50.7114C35.0382 50.7274 34.9983 50.749 34.9322 50.7764C34.8661 50.8037 34.7818 50.8311 34.6793 50.8584C34.5768 50.8835 34.4594 50.9051 34.3272 50.9233C34.1951 50.9438 34.0538 50.9541 33.9034 50.9541C33.6323 50.9541 33.3941 50.9199 33.1891 50.8516C32.9863 50.7832 32.8165 50.6795 32.6798 50.5405C32.5431 50.4015 32.4405 50.2261 32.3722 50.0142C32.3061 49.8022 32.273 49.5539 32.273 49.269C32.273 48.9979 32.3084 48.7541 32.379 48.5376C32.4496 48.3188 32.5522 48.1343 32.6866 47.9839C32.8211 47.8312 32.984 47.715 33.1754 47.6353C33.3691 47.5555 33.5867 47.5156 33.8282 47.5156C34.0834 47.5156 34.301 47.5532 34.4811 47.6284C34.6633 47.7036 34.8126 47.8084 34.9288 47.9429C35.045 48.075 35.1305 48.2323 35.1852 48.4146C35.2398 48.5968 35.2672 48.7951 35.2672 49.0093V49.146ZM34.4332 48.8999C34.44 48.6584 34.391 48.4692 34.2862 48.3325C34.1837 48.1935 34.0242 48.124 33.8077 48.124C33.6983 48.124 33.6026 48.1445 33.5206 48.1855C33.4409 48.2266 33.3736 48.2824 33.3189 48.353C33.2665 48.4214 33.2255 48.5034 33.1959 48.5991C33.1686 48.6925 33.1526 48.7928 33.148 48.8999H34.4332ZM41.9384 50.5405C41.9657 50.6226 41.9828 50.6875 41.9896 50.7354C41.9965 50.7832 41.9874 50.8197 41.9623 50.8447C41.9372 50.8675 41.8928 50.8812 41.829 50.8857C41.7652 50.8926 41.6775 50.896 41.5658 50.896C41.4496 50.896 41.3585 50.8937 41.2924 50.8892C41.2286 50.8869 41.1796 50.8812 41.1454 50.8721C41.1112 50.8607 41.0873 50.8459 41.0736 50.8276C41.06 50.8094 41.0486 50.7855 41.0395 50.7559L40.7421 49.8672H39.081L38.8007 50.7319C38.7916 50.7638 38.779 50.7912 38.7631 50.814C38.7494 50.8345 38.7255 50.8516 38.6913 50.8652C38.6594 50.8766 38.6127 50.8846 38.5512 50.8892C38.4919 50.8937 38.4133 50.896 38.3153 50.896C38.2105 50.896 38.1285 50.8926 38.0692 50.8857C38.01 50.8789 37.969 50.863 37.9462 50.8379C37.9234 50.8105 37.9154 50.7729 37.9223 50.7251C37.9291 50.6772 37.9462 50.6134 37.9735 50.5337L39.3373 46.6099C39.351 46.5711 39.3669 46.5404 39.3852 46.5176C39.4034 46.4925 39.4319 46.4743 39.4706 46.4629C39.5116 46.4492 39.5674 46.4412 39.6381 46.439C39.7087 46.4344 39.8021 46.4321 39.9184 46.4321C40.0528 46.4321 40.1599 46.4344 40.2396 46.439C40.3194 46.4412 40.3809 46.4492 40.4242 46.4629C40.4698 46.4743 40.5017 46.4925 40.5199 46.5176C40.5404 46.5426 40.5575 46.5768 40.5712 46.6201L41.9384 50.5405ZM39.9081 47.2969H39.9047L39.2792 49.1768H40.5336L39.9081 47.2969ZM45.9285 49.1904C45.9285 49.4616 45.8989 49.7065 45.8396 49.9253C45.7827 50.1418 45.6984 50.3263 45.5867 50.479C45.4751 50.6317 45.3361 50.749 45.1697 50.8311C45.0034 50.9131 44.8131 50.9541 44.5989 50.9541C44.5101 50.9541 44.428 50.945 44.3528 50.9268C44.2799 50.9108 44.2081 50.8857 44.1375 50.8516C44.0691 50.8151 44.0008 50.7707 43.9324 50.7183C43.8641 50.6659 43.7934 50.6043 43.7205 50.5337V51.9692C43.7205 51.992 43.7137 52.0125 43.7 52.0308C43.6863 52.049 43.6624 52.0638 43.6282 52.0752C43.5963 52.0889 43.553 52.0991 43.4983 52.106C43.4437 52.1128 43.3742 52.1162 43.2898 52.1162C43.2055 52.1162 43.136 52.1128 43.0813 52.106C43.0267 52.0991 42.9822 52.0889 42.948 52.0752C42.9161 52.0638 42.8934 52.049 42.8797 52.0308C42.866 52.0125 42.8592 51.992 42.8592 51.9692V47.7104C42.8592 47.6877 42.8649 47.6683 42.8763 47.6523C42.8877 47.6341 42.907 47.6193 42.9344 47.6079C42.964 47.5965 43.0016 47.5885 43.0472 47.584C43.095 47.5771 43.1543 47.5737 43.2249 47.5737C43.2933 47.5737 43.3502 47.5771 43.3958 47.584C43.4437 47.5885 43.4813 47.5965 43.5086 47.6079C43.5382 47.6193 43.5587 47.6341 43.5701 47.6523C43.5815 47.6683 43.5872 47.6877 43.5872 47.7104V48.0693C43.6761 47.9782 43.7627 47.8984 43.847 47.8301C43.9336 47.7594 44.0213 47.7013 44.1102 47.6558C44.199 47.6079 44.2902 47.5726 44.3836 47.5498C44.4793 47.527 44.5807 47.5156 44.6878 47.5156C44.9111 47.5156 45.1014 47.5601 45.2586 47.6489C45.4158 47.7355 45.5434 47.8551 45.6414 48.0078C45.7417 48.1605 45.8146 48.3382 45.8602 48.541C45.9057 48.7438 45.9285 48.9603 45.9285 49.1904ZM45.033 49.252C45.033 49.1221 45.0228 48.9979 45.0022 48.8794C44.984 48.7586 44.951 48.6515 44.9031 48.5581C44.8576 48.4647 44.796 48.3906 44.7186 48.3359C44.6434 48.279 44.5488 48.2505 44.4349 48.2505C44.3779 48.2505 44.3209 48.2596 44.264 48.2778C44.2093 48.2938 44.1523 48.3211 44.0931 48.3599C44.0361 48.3986 43.9769 48.4487 43.9153 48.5103C43.8538 48.5718 43.7889 48.6481 43.7205 48.7393V49.7441C43.8413 49.8968 43.9563 50.0153 44.0657 50.0996C44.1751 50.1816 44.289 50.2227 44.4075 50.2227C44.5192 50.2227 44.6137 50.1942 44.6912 50.1372C44.771 50.0802 44.8359 50.0062 44.886 49.915C44.9362 49.8216 44.9726 49.7168 44.9954 49.6006C45.0205 49.4844 45.033 49.3682 45.033 49.252ZM49.9187 47.5942C50.0144 47.5942 50.0804 47.6147 50.1169 47.6558C50.1556 47.6968 50.175 47.756 50.175 47.8335V50.7593C50.175 50.7821 50.1682 50.8026 50.1545 50.8208C50.1408 50.8368 50.118 50.8504 50.0861 50.8618C50.0542 50.8732 50.0098 50.8812 49.9528 50.8857C49.8981 50.8926 49.8298 50.896 49.7478 50.896C49.6634 50.896 49.5928 50.8926 49.5358 50.8857C49.4812 50.8812 49.4379 50.8732 49.406 50.8618C49.3741 50.8504 49.3513 50.8368 49.3376 50.8208C49.3239 50.8026 49.3171 50.7821 49.3171 50.7593V48.2915H47.9465V49.7236C47.9465 49.89 47.9727 50.0153 48.0251 50.0996C48.0775 50.1816 48.1709 50.2227 48.3054 50.2227C48.3509 50.2227 48.392 50.2192 48.4284 50.2124C48.4649 50.2033 48.4968 50.1942 48.5241 50.1851C48.5537 50.1737 48.5777 50.1646 48.5959 50.1577C48.6164 50.1486 48.6346 50.144 48.6506 50.144C48.6643 50.144 48.6768 50.1486 48.6882 50.1577C48.7019 50.1646 48.7121 50.1805 48.7189 50.2056C48.7258 50.2284 48.7315 50.2603 48.736 50.3013C48.7429 50.3423 48.7463 50.3947 48.7463 50.4585C48.7463 50.5588 48.7406 50.6351 48.7292 50.6875C48.7178 50.7376 48.7019 50.7752 48.6813 50.8003C48.6608 50.8231 48.6301 50.8436 48.5891 50.8618C48.548 50.8778 48.5002 50.8914 48.4455 50.9028C48.3931 50.9165 48.335 50.9268 48.2712 50.9336C48.2097 50.9404 48.147 50.9438 48.0832 50.9438C47.9123 50.9438 47.7642 50.9222 47.6389 50.8789C47.5135 50.8356 47.4099 50.7695 47.3278 50.6807C47.2458 50.5895 47.1854 50.4756 47.1467 50.3389C47.1079 50.2021 47.0886 50.0404 47.0886 49.8535V48.2915H46.7229C46.6796 48.2915 46.6465 48.2653 46.6237 48.2129C46.6009 48.1582 46.5896 48.0682 46.5896 47.9429C46.5896 47.8768 46.5918 47.821 46.5964 47.7754C46.6032 47.7298 46.6123 47.6945 46.6237 47.6694C46.6351 47.6421 46.6488 47.6227 46.6647 47.6113C46.683 47.5999 46.7035 47.5942 46.7263 47.5942H47.0886V46.9141C47.0886 46.8913 47.0943 46.8708 47.1057 46.8525C47.1193 46.8343 47.1421 46.8195 47.174 46.8081C47.2082 46.7944 47.2526 46.7853 47.3073 46.7808C47.3643 46.7739 47.4338 46.7705 47.5158 46.7705C47.6001 46.7705 47.6696 46.7739 47.7243 46.7808C47.7813 46.7853 47.8257 46.7944 47.8576 46.8081C47.8895 46.8195 47.9123 46.8343 47.926 46.8525C47.9396 46.8708 47.9465 46.8913 47.9465 46.9141V47.5942H49.9187ZM50.2434 46.6782C50.2434 46.8514 50.208 46.971 50.1374 47.0371C50.0668 47.1032 49.9357 47.1362 49.7443 47.1362C49.5507 47.1362 49.4196 47.1043 49.3513 47.0405C49.2852 46.9767 49.2521 46.8617 49.2521 46.6953C49.2521 46.5221 49.2863 46.4025 49.3547 46.3364C49.4253 46.2681 49.5575 46.2339 49.7512 46.2339C49.9426 46.2339 50.0725 46.2669 50.1408 46.333C50.2092 46.3968 50.2434 46.5119 50.2434 46.6782ZM53.1979 50.4585C53.1979 50.5588 53.191 50.6362 53.1773 50.6909C53.166 50.7433 53.15 50.7809 53.1295 50.8037C53.109 50.8242 53.0782 50.8436 53.0372 50.8618C52.9985 50.8778 52.9518 50.8914 52.8971 50.9028C52.8447 50.9165 52.7866 50.9268 52.7228 50.9336C52.6612 50.9404 52.5986 50.9438 52.5348 50.9438C52.3639 50.9438 52.2158 50.9222 52.0904 50.8789C51.9651 50.8356 51.8614 50.7695 51.7794 50.6807C51.6974 50.5895 51.637 50.4756 51.5982 50.3389C51.5595 50.2021 51.5401 50.0404 51.5401 49.8535V48.2915H51.1744C51.1311 48.2915 51.0981 48.2653 51.0753 48.2129C51.0525 48.1582 51.0411 48.0682 51.0411 47.9429C51.0411 47.8768 51.0434 47.821 51.048 47.7754C51.0548 47.7298 51.0639 47.6945 51.0753 47.6694C51.0867 47.6421 51.1004 47.6227 51.1163 47.6113C51.1345 47.5999 51.155 47.5942 51.1778 47.5942H51.5401V46.9141C51.5401 46.8913 51.5458 46.8708 51.5572 46.8525C51.5709 46.8343 51.5937 46.8195 51.6256 46.8081C51.6598 46.7944 51.7042 46.7853 51.7589 46.7808C51.8159 46.7739 51.8854 46.7705 51.9674 46.7705C52.0517 46.7705 52.1212 46.7739 52.1759 46.7808C52.2328 46.7853 52.2773 46.7944 52.3092 46.8081C52.3411 46.8195 52.3639 46.8343 52.3775 46.8525C52.3912 46.8708 52.398 46.8913 52.398 46.9141V47.5942H53.0611C53.0839 47.5942 53.1033 47.5999 53.1192 47.6113C53.1375 47.6227 53.1523 47.6421 53.1637 47.6694C53.1751 47.6945 53.183 47.7298 53.1876 47.7754C53.1944 47.821 53.1979 47.8768 53.1979 47.9429C53.1979 48.0682 53.1865 48.1582 53.1637 48.2129C53.1409 48.2653 53.1078 48.2915 53.0646 48.2915H52.398V49.7236C52.398 49.89 52.4243 50.0153 52.4767 50.0996C52.5291 50.1816 52.6225 50.2227 52.7569 50.2227C52.8025 50.2227 52.8435 50.2192 52.88 50.2124C52.9164 50.2033 52.9483 50.1942 52.9757 50.1851C53.0053 50.1737 53.0292 50.1646 53.0475 50.1577C53.068 50.1486 53.0862 50.144 53.1021 50.144C53.1158 50.144 53.1284 50.1486 53.1397 50.1577C53.1534 50.1646 53.1637 50.1805 53.1705 50.2056C53.1773 50.2284 53.183 50.2603 53.1876 50.3013C53.1944 50.3423 53.1979 50.3947 53.1979 50.4585ZM57.0615 50.7593C57.0615 50.7821 57.0558 50.8026 57.0444 50.8208C57.033 50.8368 57.0125 50.8504 56.9829 50.8618C56.9556 50.8732 56.918 50.8812 56.8701 50.8857C56.8245 50.8926 56.7664 50.896 56.6958 50.896C56.6206 50.896 56.5591 50.8926 56.5112 50.8857C56.4657 50.8812 56.4292 50.8732 56.4019 50.8618C56.3745 50.8504 56.3551 50.8368 56.3438 50.8208C56.3324 50.8026 56.3267 50.7821 56.3267 50.7593V50.4072C56.158 50.5895 55.986 50.7262 55.8105 50.8174C55.6374 50.9085 55.4574 50.9541 55.2705 50.9541C55.0609 50.9541 54.8843 50.9199 54.7407 50.8516C54.5994 50.7832 54.4844 50.6898 54.3955 50.5713C54.3089 50.4528 54.2463 50.3161 54.2075 50.1611C54.1711 50.0039 54.1528 49.8091 54.1528 49.5767V47.7104C54.1528 47.6877 54.1585 47.6683 54.1699 47.6523C54.1836 47.6341 54.2064 47.6193 54.2383 47.6079C54.2725 47.5965 54.3169 47.5885 54.3716 47.584C54.4285 47.5771 54.498 47.5737 54.5801 47.5737C54.6644 47.5737 54.7339 47.5771 54.7886 47.584C54.8433 47.5885 54.8866 47.5965 54.9185 47.6079C54.9526 47.6193 54.9766 47.6341 54.9902 47.6523C55.0039 47.6683 55.0107 47.6877 55.0107 47.7104V49.4331C55.0107 49.5926 55.021 49.7145 55.0415 49.7988C55.062 49.8831 55.0928 49.9561 55.1338 50.0176C55.1771 50.0768 55.2306 50.1235 55.2944 50.1577C55.3605 50.1896 55.4368 50.2056 55.5234 50.2056C55.6328 50.2056 55.7422 50.1657 55.8516 50.0859C55.9632 50.0062 56.0817 49.89 56.207 49.7373V47.7104C56.207 47.6877 56.2127 47.6683 56.2241 47.6523C56.2378 47.6341 56.2606 47.6193 56.2925 47.6079C56.3267 47.5965 56.3711 47.5885 56.4258 47.584C56.4805 47.5771 56.55 47.5737 56.6343 47.5737C56.7186 47.5737 56.7881 47.5771 56.8428 47.584C56.8975 47.5885 56.9408 47.5965 56.9727 47.6079C57.0046 47.6193 57.0273 47.6341 57.041 47.6523C57.0547 47.6683 57.0615 47.6877 57.0615 47.7104V50.7593ZM61.1713 50.7593C61.1713 50.7843 61.1656 50.806 61.1542 50.8242C61.1428 50.8402 61.1234 50.8538 61.0961 50.8652C61.0688 50.8766 61.0312 50.8846 60.9833 50.8892C60.9377 50.8937 60.8808 50.896 60.8124 50.896C60.7395 50.896 60.6802 50.8937 60.6347 50.8892C60.5891 50.8846 60.5515 50.8766 60.5219 50.8652C60.4945 50.8538 60.474 50.8402 60.4604 50.8242C60.449 50.806 60.4433 50.7843 60.4433 50.7593V50.4209C60.286 50.5895 60.1208 50.7205 59.9477 50.814C59.7768 50.9074 59.5865 50.9541 59.3769 50.9541C59.1444 50.9541 58.9473 50.9097 58.7855 50.8208C58.626 50.7297 58.495 50.6077 58.3925 50.4551C58.2922 50.3024 58.2193 50.1247 58.1737 49.9219C58.1282 49.7168 58.1054 49.5015 58.1054 49.2759C58.1054 49.0047 58.1339 48.7609 58.1908 48.5444C58.2501 48.328 58.3355 48.1434 58.4472 47.9907C58.5588 47.8381 58.6978 47.7207 58.8642 47.6387C59.0305 47.5566 59.2219 47.5156 59.4384 47.5156C59.6093 47.5156 59.7642 47.5509 59.9032 47.6216C60.0422 47.6899 60.1801 47.7913 60.3168 47.9258V46.2749C60.3168 46.2521 60.3225 46.2316 60.3339 46.2134C60.3476 46.1951 60.3703 46.1803 60.4022 46.1689C60.4364 46.1553 60.4809 46.145 60.5355 46.1382C60.5902 46.1313 60.6597 46.1279 60.744 46.1279C60.8284 46.1279 60.8979 46.1313 60.9525 46.1382C61.0072 46.145 61.0505 46.1553 61.0824 46.1689C61.1143 46.1803 61.1371 46.1951 61.1508 46.2134C61.1645 46.2316 61.1713 46.2521 61.1713 46.2749V50.7593ZM60.3168 48.7222C60.1938 48.5672 60.0753 48.4487 59.9613 48.3667C59.8497 48.2847 59.7323 48.2437 59.6093 48.2437C59.4976 48.2437 59.4008 48.2721 59.3188 48.3291C59.239 48.3838 59.1741 48.4578 59.1239 48.5513C59.0761 48.6447 59.0396 48.7495 59.0146 48.8657C58.9918 48.9797 58.9804 49.097 58.9804 49.2178C58.9804 49.3454 58.9906 49.4696 59.0111 49.5903C59.0316 49.7111 59.0647 49.8193 59.1103 49.915C59.1581 50.0085 59.2208 50.0837 59.2982 50.1406C59.3757 50.1976 59.4737 50.2261 59.5922 50.2261C59.6514 50.2261 59.7084 50.2181 59.7631 50.2021C59.8201 50.1839 59.877 50.1554 59.934 50.1167C59.9932 50.078 60.0536 50.0278 60.1151 49.9663C60.1767 49.9025 60.2439 49.825 60.3168 49.7339V48.7222ZM65.2059 49.146C65.2059 49.2508 65.1819 49.3283 65.1341 49.3784C65.0885 49.4285 65.0247 49.4536 64.9427 49.4536H63.0867C63.0867 49.5835 63.1015 49.702 63.1312 49.8091C63.1631 49.9139 63.212 50.0039 63.2781 50.0791C63.3465 50.152 63.4331 50.2078 63.5379 50.2466C63.645 50.2853 63.7726 50.3047 63.9207 50.3047C64.0711 50.3047 64.2033 50.2944 64.3172 50.2739C64.4311 50.2511 64.5291 50.2272 64.6111 50.2021C64.6954 50.1748 64.7649 50.1509 64.8196 50.1304C64.8743 50.1076 64.9188 50.0962 64.9529 50.0962C64.9734 50.0962 64.9905 50.1007 65.0042 50.1099C65.0179 50.1167 65.0293 50.1304 65.0384 50.1509C65.0475 50.1714 65.0532 50.201 65.0555 50.2397C65.06 50.2762 65.0623 50.3229 65.0623 50.3799C65.0623 50.43 65.0612 50.4733 65.0589 50.5098C65.0566 50.5439 65.0532 50.5736 65.0486 50.5986C65.0441 50.6237 65.0372 50.6453 65.0281 50.6636C65.019 50.6795 65.0065 50.6955 64.9905 50.7114C64.9769 50.7274 64.937 50.749 64.8709 50.7764C64.8048 50.8037 64.7205 50.8311 64.618 50.8584C64.5154 50.8835 64.3981 50.9051 64.2659 50.9233C64.1338 50.9438 63.9925 50.9541 63.8421 50.9541C63.5709 50.9541 63.3328 50.9199 63.1277 50.8516C62.9249 50.7832 62.7552 50.6795 62.6185 50.5405C62.4817 50.4015 62.3792 50.2261 62.3108 50.0142C62.2448 49.8022 62.2117 49.5539 62.2117 49.269C62.2117 48.9979 62.247 48.7541 62.3177 48.5376C62.3883 48.3188 62.4909 48.1343 62.6253 47.9839C62.7597 47.8312 62.9227 47.715 63.1141 47.6353C63.3077 47.5555 63.5254 47.5156 63.7669 47.5156C64.0221 47.5156 64.2397 47.5532 64.4197 47.6284C64.602 47.7036 64.7513 47.8084 64.8675 47.9429C64.9837 48.075 65.0691 48.2323 65.1238 48.4146C65.1785 48.5968 65.2059 48.7951 65.2059 49.0093V49.146ZM64.3719 48.8999C64.3787 48.6584 64.3297 48.4692 64.2249 48.3325C64.1224 48.1935 63.9629 48.124 63.7464 48.124C63.637 48.124 63.5413 48.1445 63.4593 48.1855C63.3795 48.2266 63.3123 48.2824 63.2576 48.353C63.2052 48.4214 63.1642 48.5034 63.1346 48.5991C63.1072 48.6925 63.0913 48.7928 63.0867 48.8999H64.3719ZM71.1969 46.8218C71.1969 46.8879 71.1935 46.9448 71.1866 46.9927C71.1821 47.0382 71.1741 47.0758 71.1627 47.1055C71.1513 47.1328 71.1365 47.1533 71.1183 47.167C71.1023 47.1807 71.0841 47.1875 71.0636 47.1875H69.9562V50.7524C69.9562 50.7752 69.9482 50.7957 69.9322 50.814C69.9186 50.8322 69.8946 50.847 69.8605 50.8584C69.8263 50.8698 69.7796 50.8789 69.7203 50.8857C69.6633 50.8926 69.5916 50.896 69.505 50.896C69.4184 50.896 69.3455 50.8926 69.2862 50.8857C69.2293 50.8789 69.1837 50.8698 69.1495 50.8584C69.1153 50.847 69.0903 50.8322 69.0743 50.814C69.0606 50.7957 69.0538 50.7752 69.0538 50.7524V47.1875H67.9464C67.9236 47.1875 67.9042 47.1807 67.8883 47.167C67.8723 47.1533 67.8587 47.1328 67.8473 47.1055C67.8359 47.0758 67.8268 47.0382 67.8199 46.9927C67.8154 46.9448 67.8131 46.8879 67.8131 46.8218C67.8131 46.7534 67.8154 46.6953 67.8199 46.6475C67.8268 46.5996 67.8359 46.562 67.8473 46.5347C67.8587 46.505 67.8723 46.4845 67.8883 46.4731C67.9042 46.4595 67.9236 46.4526 67.9464 46.4526H71.0636C71.0841 46.4526 71.1023 46.4595 71.1183 46.4731C71.1365 46.4845 71.1513 46.505 71.1627 46.5347C71.1741 46.562 71.1821 46.5996 71.1866 46.6475C71.1935 46.6953 71.1969 46.7534 71.1969 46.8218ZM74.2266 49.146C74.2266 49.2508 74.2026 49.3283 74.1548 49.3784C74.1092 49.4285 74.0454 49.4536 73.9634 49.4536H72.1074C72.1074 49.5835 72.1222 49.702 72.1519 49.8091C72.1838 49.9139 72.2327 50.0039 72.2988 50.0791C72.3672 50.152 72.4538 50.2078 72.5586 50.2466C72.6657 50.2853 72.7933 50.3047 72.9414 50.3047C73.0918 50.3047 73.224 50.2944 73.3379 50.2739C73.4518 50.2511 73.5498 50.2272 73.6318 50.2021C73.7161 50.1748 73.7856 50.1509 73.8403 50.1304C73.895 50.1076 73.9395 50.0962 73.9736 50.0962C73.9941 50.0962 74.0112 50.1007 74.0249 50.1099C74.0386 50.1167 74.05 50.1304 74.0591 50.1509C74.0682 50.1714 74.0739 50.201 74.0762 50.2397C74.0807 50.2762 74.083 50.3229 74.083 50.3799C74.083 50.43 74.0819 50.4733 74.0796 50.5098C74.0773 50.5439 74.0739 50.5736 74.0693 50.5986C74.0648 50.6237 74.0579 50.6453 74.0488 50.6636C74.0397 50.6795 74.0272 50.6955 74.0112 50.7114C73.9976 50.7274 73.9577 50.749 73.8916 50.7764C73.8255 50.8037 73.7412 50.8311 73.6387 50.8584C73.5361 50.8835 73.4188 50.9051 73.2866 50.9233C73.1545 50.9438 73.0132 50.9541 72.8628 50.9541C72.5916 50.9541 72.3535 50.9199 72.1484 50.8516C71.9456 50.7832 71.7759 50.6795 71.6392 50.5405C71.5024 50.4015 71.3999 50.2261 71.3315 50.0142C71.2655 49.8022 71.2324 49.5539 71.2324 49.269C71.2324 48.9979 71.2677 48.7541 71.3384 48.5376C71.409 48.3188 71.5116 48.1343 71.646 47.9839C71.7804 47.8312 71.9434 47.715 72.1348 47.6353C72.3285 47.5555 72.5461 47.5156 72.7876 47.5156C73.0428 47.5156 73.2604 47.5532 73.4404 47.6284C73.6227 47.7036 73.772 47.8084 73.8882 47.9429C74.0044 48.075 74.0898 48.2323 74.1445 48.4146C74.1992 48.5968 74.2266 48.7951 74.2266 49.0093V49.146ZM73.3926 48.8999C73.3994 48.6584 73.3504 48.4692 73.2456 48.3325C73.1431 48.1935 72.9836 48.124 72.7671 48.124C72.6577 48.124 72.562 48.1445 72.48 48.1855C72.4002 48.2266 72.333 48.2824 72.2783 48.353C72.2259 48.4214 72.1849 48.5034 72.1553 48.5991C72.1279 48.6925 72.112 48.7928 72.1074 48.8999H73.3926ZM77.434 49.8979C77.434 50.0711 77.401 50.2238 77.3349 50.356C77.2711 50.4881 77.1799 50.5986 77.0614 50.6875C76.9429 50.7764 76.8028 50.8424 76.641 50.8857C76.4792 50.9313 76.3038 50.9541 76.1147 50.9541C76.0007 50.9541 75.8913 50.945 75.7865 50.9268C75.684 50.9108 75.5917 50.8903 75.5097 50.8652C75.4276 50.8379 75.3593 50.8105 75.3046 50.7832C75.2499 50.7559 75.21 50.7308 75.185 50.708C75.1599 50.6829 75.1405 50.6453 75.1269 50.5952C75.1132 50.5428 75.1064 50.4665 75.1064 50.3662C75.1064 50.3001 75.1086 50.2477 75.1132 50.209C75.1177 50.168 75.1246 50.1361 75.1337 50.1133C75.1428 50.0882 75.1542 50.0723 75.1679 50.0654C75.1815 50.0563 75.1986 50.0518 75.2191 50.0518C75.2442 50.0518 75.2807 50.0666 75.3285 50.0962C75.3787 50.1235 75.4402 50.1543 75.5131 50.1885C75.586 50.2227 75.6703 50.2546 75.766 50.2842C75.864 50.3138 75.9745 50.3286 76.0976 50.3286C76.175 50.3286 76.2434 50.3206 76.3026 50.3047C76.3642 50.2887 76.4166 50.266 76.4599 50.2363C76.5054 50.2067 76.5396 50.1691 76.5624 50.1235C76.5852 50.078 76.5966 50.0256 76.5966 49.9663C76.5966 49.8979 76.5749 49.8398 76.5316 49.792C76.4906 49.7419 76.4348 49.6986 76.3642 49.6621C76.2958 49.6257 76.2172 49.5915 76.1283 49.5596C76.0417 49.5277 75.9517 49.4924 75.8583 49.4536C75.7672 49.4149 75.6772 49.3704 75.5883 49.3203C75.5017 49.2702 75.4231 49.2087 75.3524 49.1357C75.2841 49.0628 75.2283 48.9751 75.185 48.8726C75.144 48.77 75.1234 48.647 75.1234 48.5034C75.1234 48.3576 75.1519 48.2243 75.2089 48.1035C75.2659 47.9805 75.3479 47.8757 75.455 47.7891C75.5621 47.7025 75.692 47.6353 75.8446 47.5874C75.9996 47.5396 76.1728 47.5156 76.3642 47.5156C76.4599 47.5156 76.5522 47.5225 76.641 47.5361C76.7322 47.5498 76.8142 47.5669 76.8871 47.5874C76.96 47.6079 77.0216 47.6307 77.0717 47.6558C77.1218 47.6785 77.1571 47.6991 77.1776 47.7173C77.2004 47.7332 77.2164 47.7503 77.2255 47.7686C77.2346 47.7845 77.2414 47.805 77.246 47.8301C77.2506 47.8529 77.254 47.8825 77.2563 47.9189C77.2608 47.9531 77.2631 47.9964 77.2631 48.0488C77.2631 48.1104 77.2608 48.1605 77.2563 48.1992C77.254 48.238 77.2483 48.2687 77.2392 48.2915C77.2323 48.3143 77.2221 48.3302 77.2084 48.3394C77.1947 48.3462 77.1788 48.3496 77.1606 48.3496C77.14 48.3496 77.1081 48.3382 77.0648 48.3154C77.0216 48.2904 76.9669 48.2642 76.9008 48.2368C76.837 48.2095 76.7618 48.1844 76.6752 48.1616C76.5909 48.1366 76.494 48.124 76.3847 48.124C76.3072 48.124 76.24 48.132 76.183 48.1479C76.126 48.1639 76.0793 48.1867 76.0429 48.2163C76.0064 48.2459 75.9791 48.2812 75.9608 48.3223C75.9426 48.361 75.9335 48.4032 75.9335 48.4487C75.9335 48.5194 75.9551 48.5786 75.9984 48.6265C76.0417 48.6743 76.0987 48.7165 76.1693 48.7529C76.24 48.7894 76.3197 48.8236 76.4086 48.8555C76.4997 48.8874 76.5909 48.9227 76.682 48.9614C76.7755 48.9979 76.8666 49.0412 76.9555 49.0913C77.0466 49.1414 77.1275 49.203 77.1982 49.2759C77.2688 49.3488 77.3258 49.4365 77.369 49.5391C77.4123 49.6393 77.434 49.759 77.434 49.8979ZM80.1561 50.4585C80.1561 50.5588 80.1492 50.6362 80.1355 50.6909C80.1242 50.7433 80.1082 50.7809 80.0877 50.8037C80.0672 50.8242 80.0364 50.8436 79.9954 50.8618C79.9567 50.8778 79.91 50.8914 79.8553 50.9028C79.8029 50.9165 79.7448 50.9268 79.681 50.9336C79.6194 50.9404 79.5568 50.9438 79.493 50.9438C79.3221 50.9438 79.174 50.9222 79.0486 50.8789C78.9233 50.8356 78.8196 50.7695 78.7376 50.6807C78.6556 50.5895 78.5952 50.4756 78.5564 50.3389C78.5177 50.2021 78.4983 50.0404 78.4983 49.8535V48.2915H78.1326C78.0893 48.2915 78.0563 48.2653 78.0335 48.2129C78.0107 48.1582 77.9993 48.0682 77.9993 47.9429C77.9993 47.8768 78.0016 47.821 78.0061 47.7754C78.013 47.7298 78.0221 47.6945 78.0335 47.6694C78.0449 47.6421 78.0586 47.6227 78.0745 47.6113C78.0927 47.5999 78.1132 47.5942 78.136 47.5942H78.4983V46.9141C78.4983 46.8913 78.504 46.8708 78.5154 46.8525C78.5291 46.8343 78.5519 46.8195 78.5838 46.8081C78.618 46.7944 78.6624 46.7853 78.7171 46.7808C78.7741 46.7739 78.8436 46.7705 78.9256 46.7705C79.0099 46.7705 79.0794 46.7739 79.1341 46.7808C79.191 46.7853 79.2355 46.7944 79.2674 46.8081C79.2993 46.8195 79.3221 46.8343 79.3357 46.8525C79.3494 46.8708 79.3562 46.8913 79.3562 46.9141V47.5942H80.0193C80.0421 47.5942 80.0615 47.5999 80.0774 47.6113C80.0957 47.6227 80.1105 47.6421 80.1219 47.6694C80.1333 47.6945 80.1412 47.7298 80.1458 47.7754C80.1526 47.821 80.1561 47.8768 80.1561 47.9429C80.1561 48.0682 80.1447 48.1582 80.1219 48.2129C80.0991 48.2653 80.066 48.2915 80.0228 48.2915H79.3562V49.7236C79.3562 49.89 79.3825 50.0153 79.4349 50.0996C79.4873 50.1816 79.5807 50.2227 79.7151 50.2227C79.7607 50.2227 79.8017 50.2192 79.8382 50.2124C79.8746 50.2033 79.9065 50.1942 79.9339 50.1851C79.9635 50.1737 79.9874 50.1646 80.0057 50.1577C80.0262 50.1486 80.0444 50.144 80.0603 50.144C80.074 50.144 80.0866 50.1486 80.0979 50.1577C80.1116 50.1646 80.1219 50.1805 80.1287 50.2056C80.1355 50.2284 80.1412 50.2603 80.1458 50.3013C80.1526 50.3423 80.1561 50.3947 80.1561 50.4585ZM83.9254 50.7593C83.9254 50.7821 83.9185 50.8026 83.9049 50.8208C83.8912 50.8368 83.8673 50.8504 83.8331 50.8618C83.8012 50.8732 83.7579 50.8812 83.7032 50.8857C83.6485 50.8926 83.579 50.896 83.4947 50.896C83.4104 50.896 83.3409 50.8926 83.2862 50.8857C83.2315 50.8812 83.1871 50.8732 83.1529 50.8618C83.121 50.8504 83.0982 50.8368 83.0846 50.8208C83.0709 50.8026 83.0641 50.7821 83.0641 50.7593V47.7173C83.0641 47.6945 83.0709 47.6751 83.0846 47.6592C83.0982 47.641 83.121 47.6261 83.1529 47.6147C83.1871 47.6011 83.2315 47.5908 83.2862 47.584C83.3409 47.5771 83.4104 47.5737 83.4947 47.5737C83.579 47.5737 83.6485 47.5771 83.7032 47.584C83.7579 47.5908 83.8012 47.6011 83.8331 47.6147C83.8673 47.6261 83.8912 47.641 83.9049 47.6592C83.9185 47.6751 83.9254 47.6945 83.9254 47.7173V50.7593ZM83.9903 46.6782C83.9903 46.8514 83.955 46.971 83.8844 47.0371C83.8137 47.1032 83.6827 47.1362 83.4913 47.1362C83.2976 47.1362 83.1666 47.1043 83.0982 47.0405C83.0322 46.9767 82.9991 46.8617 82.9991 46.6953C82.9991 46.5221 83.0333 46.4025 83.1017 46.3364C83.1723 46.2681 83.3045 46.2339 83.4981 46.2339C83.6895 46.2339 83.8194 46.2669 83.8878 46.333C83.9561 46.3968 83.9903 46.5119 83.9903 46.6782ZM88.0488 50.7593C88.0488 50.7821 88.042 50.8026 88.0283 50.8208C88.0146 50.8368 87.9919 50.8504 87.96 50.8618C87.9281 50.8732 87.8836 50.8812 87.8267 50.8857C87.772 50.8926 87.7036 50.896 87.6216 50.896C87.5373 50.896 87.4666 50.8926 87.4097 50.8857C87.355 50.8812 87.3117 50.8732 87.2798 50.8618C87.2479 50.8504 87.2251 50.8368 87.2114 50.8208C87.1978 50.8026 87.1909 50.7821 87.1909 50.7593V49.0195C87.1909 48.8714 87.1795 48.7552 87.1567 48.6709C87.1362 48.5866 87.1055 48.5148 87.0645 48.4556C87.0234 48.394 86.9699 48.3473 86.9038 48.3154C86.84 48.2812 86.7648 48.2642 86.6782 48.2642C86.5688 48.2642 86.4583 48.304 86.3467 48.3838C86.235 48.4635 86.1188 48.5798 85.998 48.7324V50.7593C85.998 50.7821 85.9912 50.8026 85.9775 50.8208C85.9639 50.8368 85.9399 50.8504 85.9058 50.8618C85.8739 50.8732 85.8306 50.8812 85.7759 50.8857C85.7212 50.8926 85.6517 50.896 85.5674 50.896C85.4831 50.896 85.4136 50.8926 85.3589 50.8857C85.3042 50.8812 85.2598 50.8732 85.2256 50.8618C85.1937 50.8504 85.1709 50.8368 85.1572 50.8208C85.1436 50.8026 85.1367 50.7821 85.1367 50.7593V47.7104C85.1367 47.6877 85.1424 47.6683 85.1538 47.6523C85.1652 47.6341 85.1857 47.6193 85.2153 47.6079C85.245 47.5965 85.2826 47.5885 85.3281 47.584C85.376 47.5771 85.4352 47.5737 85.5059 47.5737C85.5788 47.5737 85.6392 47.5771 85.687 47.584C85.7349 47.5885 85.7713 47.5965 85.7964 47.6079C85.8237 47.6193 85.8431 47.6341 85.8545 47.6523C85.8659 47.6683 85.8716 47.6877 85.8716 47.7104V48.0625C86.0402 47.8802 86.2111 47.7435 86.3843 47.6523C86.5597 47.5612 86.742 47.5156 86.9312 47.5156C87.1385 47.5156 87.3128 47.5498 87.4541 47.6182C87.5977 47.6865 87.7127 47.7799 87.7993 47.8984C87.8882 48.0146 87.952 48.1514 87.9907 48.3086C88.0295 48.4658 88.0488 48.6549 88.0488 48.876V50.7593ZM93.8553 50.5234C93.8553 50.5895 93.8519 50.6453 93.845 50.6909C93.8405 50.7342 93.8325 50.7695 93.8211 50.7969C93.8097 50.8242 93.7949 50.8447 93.7767 50.8584C93.7607 50.8698 93.7425 50.8755 93.722 50.8755H91.5003C91.4251 50.8755 91.3613 50.8538 91.3089 50.8105C91.2588 50.765 91.2337 50.6921 91.2337 50.5918V46.7363C91.2337 46.6361 91.2588 46.5643 91.3089 46.521C91.3613 46.4754 91.4251 46.4526 91.5003 46.4526H93.7083C93.7288 46.4526 93.747 46.4583 93.763 46.4697C93.7789 46.4811 93.7926 46.5016 93.804 46.5312C93.8154 46.5586 93.8234 46.5951 93.8279 46.6406C93.8348 46.6839 93.8382 46.7397 93.8382 46.8081C93.8382 46.8719 93.8348 46.9266 93.8279 46.9722C93.8234 47.0155 93.8154 47.0508 93.804 47.0781C93.7926 47.1055 93.7789 47.126 93.763 47.1396C93.747 47.151 93.7288 47.1567 93.7083 47.1567H92.1292V48.2368H93.4656C93.4861 48.2368 93.5044 48.2437 93.5203 48.2573C93.5385 48.2687 93.5533 48.2881 93.5647 48.3154C93.5761 48.3405 93.5841 48.3758 93.5887 48.4214C93.5955 48.4647 93.5989 48.5182 93.5989 48.582C93.5989 48.6481 93.5955 48.7028 93.5887 48.7461C93.5841 48.7894 93.5761 48.8247 93.5647 48.8521C93.5533 48.8771 93.5385 48.8953 93.5203 48.9067C93.5044 48.9181 93.4861 48.9238 93.4656 48.9238H92.1292V50.1714H93.722C93.7425 50.1714 93.7607 50.1782 93.7767 50.1919C93.7949 50.2033 93.8097 50.2227 93.8211 50.25C93.8325 50.2773 93.8405 50.3138 93.845 50.3594C93.8519 50.4027 93.8553 50.4574 93.8553 50.5234ZM97.8625 50.7593C97.8625 50.7821 97.8557 50.8026 97.842 50.8208C97.8283 50.8368 97.8055 50.8504 97.7736 50.8618C97.7417 50.8732 97.6973 50.8812 97.6403 50.8857C97.5856 50.8926 97.5173 50.896 97.4353 50.896C97.3509 50.896 97.2803 50.8926 97.2233 50.8857C97.1687 50.8812 97.1254 50.8732 97.0935 50.8618C97.0616 50.8504 97.0388 50.8368 97.0251 50.8208C97.0114 50.8026 97.0046 50.7821 97.0046 50.7593V49.0195C97.0046 48.8714 96.9932 48.7552 96.9704 48.6709C96.9499 48.5866 96.9191 48.5148 96.8781 48.4556C96.8371 48.394 96.7836 48.3473 96.7175 48.3154C96.6537 48.2812 96.5785 48.2642 96.4919 48.2642C96.3825 48.2642 96.272 48.304 96.1604 48.3838C96.0487 48.4635 95.9325 48.5798 95.8117 48.7324V50.7593C95.8117 50.7821 95.8049 50.8026 95.7912 50.8208C95.7775 50.8368 95.7536 50.8504 95.7194 50.8618C95.6875 50.8732 95.6442 50.8812 95.5896 50.8857C95.5349 50.8926 95.4654 50.896 95.3811 50.896C95.2967 50.896 95.2272 50.8926 95.1726 50.8857C95.1179 50.8812 95.0734 50.8732 95.0393 50.8618C95.0074 50.8504 94.9846 50.8368 94.9709 50.8208C94.9572 50.8026 94.9504 50.7821 94.9504 50.7593V47.7104C94.9504 47.6877 94.9561 47.6683 94.9675 47.6523C94.9789 47.6341 94.9994 47.6193 95.029 47.6079C95.0586 47.5965 95.0962 47.5885 95.1418 47.584C95.1897 47.5771 95.2489 47.5737 95.3195 47.5737C95.3925 47.5737 95.4528 47.5771 95.5007 47.584C95.5485 47.5885 95.585 47.5965 95.6101 47.6079C95.6374 47.6193 95.6568 47.6341 95.6682 47.6523C95.6796 47.6683 95.6853 47.6877 95.6853 47.7104V48.0625C95.8539 47.8802 96.0248 47.7435 96.198 47.6523C96.3734 47.5612 96.5557 47.5156 96.7448 47.5156C96.9522 47.5156 97.1265 47.5498 97.2678 47.6182C97.4113 47.6865 97.5264 47.7799 97.613 47.8984C97.7019 48.0146 97.7657 48.1514 97.8044 48.3086C97.8431 48.4658 97.8625 48.6549 97.8625 48.876V50.7593ZM101.808 47.9224C101.808 48.0317 101.796 48.1126 101.771 48.165C101.746 48.2174 101.715 48.2437 101.678 48.2437H101.319C101.37 48.2983 101.405 48.361 101.425 48.4316C101.448 48.5 101.46 48.5718 101.46 48.647C101.46 48.8247 101.43 48.9831 101.371 49.1221C101.311 49.2588 101.226 49.375 101.114 49.4707C101.005 49.5641 100.872 49.6359 100.714 49.686C100.559 49.7339 100.386 49.7578 100.195 49.7578C100.097 49.7578 100.004 49.7464 99.9146 49.7236C99.8258 49.6986 99.7574 49.6701 99.7096 49.6382C99.6822 49.6678 99.6572 49.7031 99.6344 49.7441C99.6139 49.7852 99.6036 49.8307 99.6036 49.8809C99.6036 49.9469 99.6321 50.0016 99.6891 50.0449C99.7483 50.0859 99.8303 50.1087 99.9352 50.1133L100.677 50.1406C100.85 50.1475 101.004 50.1725 101.138 50.2158C101.275 50.2568 101.389 50.3161 101.48 50.3936C101.573 50.4688 101.644 50.5599 101.692 50.667C101.742 50.7741 101.767 50.896 101.767 51.0327C101.767 51.1831 101.734 51.3244 101.668 51.4565C101.602 51.591 101.503 51.7072 101.371 51.8052C101.239 51.9032 101.072 51.9806 100.872 52.0376C100.673 52.0946 100.441 52.123 100.174 52.123C99.9146 52.123 99.6925 52.1025 99.5079 52.0615C99.3256 52.0205 99.1752 51.9635 99.0567 51.8906C98.9405 51.8177 98.8551 51.73 98.8004 51.6274C98.748 51.5272 98.7218 51.4167 98.7218 51.2959C98.7218 51.2207 98.7309 51.1489 98.7491 51.0806C98.7696 51.0122 98.7981 50.9461 98.8346 50.8823C98.8733 50.8208 98.92 50.7616 98.9747 50.7046C99.0294 50.6476 99.0921 50.5929 99.1627 50.5405C99.0647 50.4881 98.9884 50.4175 98.9337 50.3286C98.8813 50.2375 98.8551 50.1383 98.8551 50.0312C98.8551 49.8968 98.8858 49.7749 98.9474 49.6655C99.0089 49.5539 99.0886 49.4536 99.1866 49.3647C99.1069 49.285 99.0431 49.1893 98.9952 49.0776C98.9474 48.966 98.9234 48.827 98.9234 48.6606C98.9234 48.4829 98.9542 48.3245 99.0157 48.1855C99.0795 48.0443 99.1672 47.9258 99.2789 47.8301C99.3906 47.7321 99.5239 47.658 99.6788 47.6079C99.8338 47.5555 100.005 47.5293 100.191 47.5293C100.287 47.5293 100.378 47.535 100.465 47.5464C100.554 47.5578 100.636 47.5737 100.711 47.5942H101.678C101.717 47.5942 101.748 47.6193 101.771 47.6694C101.796 47.7196 101.808 47.8039 101.808 47.9224ZM100.704 48.6436C100.704 48.4795 100.659 48.3519 100.567 48.2607C100.476 48.1696 100.348 48.124 100.181 48.124C100.097 48.124 100.023 48.1388 99.9591 48.1685C99.8953 48.1958 99.8417 48.2345 99.7984 48.2847C99.7574 48.3325 99.7267 48.3895 99.7061 48.4556C99.6856 48.5194 99.6754 48.5866 99.6754 48.6572C99.6754 48.8122 99.721 48.9352 99.8121 49.0264C99.9032 49.1152 100.03 49.1597 100.191 49.1597C100.278 49.1597 100.353 49.146 100.417 49.1187C100.481 49.0913 100.533 49.0537 100.574 49.0059C100.618 48.958 100.65 48.9033 100.67 48.8418C100.693 48.778 100.704 48.7119 100.704 48.6436ZM100.906 51.0771C100.906 50.9746 100.865 50.896 100.783 50.8413C100.701 50.7866 100.588 50.757 100.444 50.7524L99.8326 50.7354C99.7734 50.7786 99.7255 50.8208 99.6891 50.8618C99.6549 50.9006 99.6264 50.9382 99.6036 50.9746C99.5831 51.0111 99.5694 51.0464 99.5626 51.0806C99.5558 51.1147 99.5523 51.1501 99.5523 51.1865C99.5523 51.3005 99.6093 51.387 99.7232 51.4463C99.8394 51.5055 100.002 51.5352 100.212 51.5352C100.342 51.5352 100.451 51.5215 100.54 51.4941C100.629 51.4691 100.701 51.4349 100.755 51.3916C100.81 51.3483 100.849 51.2993 100.872 51.2446C100.894 51.1922 100.906 51.1364 100.906 51.0771ZM103.594 50.7593C103.594 50.7821 103.587 50.8026 103.573 50.8208C103.56 50.8368 103.536 50.8504 103.501 50.8618C103.47 50.8732 103.426 50.8812 103.372 50.8857C103.317 50.8926 103.247 50.896 103.163 50.896C103.079 50.896 103.009 50.8926 102.955 50.8857C102.9 50.8812 102.855 50.8732 102.821 50.8618C102.789 50.8504 102.767 50.8368 102.753 50.8208C102.739 50.8026 102.732 50.7821 102.732 50.7593V47.7173C102.732 47.6945 102.739 47.6751 102.753 47.6592C102.767 47.641 102.789 47.6261 102.821 47.6147C102.855 47.6011 102.9 47.5908 102.955 47.584C103.009 47.5771 103.079 47.5737 103.163 47.5737C103.247 47.5737 103.317 47.5771 103.372 47.584C103.426 47.5908 103.47 47.6011 103.501 47.6147C103.536 47.6261 103.56 47.641 103.573 47.6592C103.587 47.6751 103.594 47.6945 103.594 47.7173V50.7593ZM103.659 46.6782C103.659 46.8514 103.623 46.971 103.553 47.0371C103.482 47.1032 103.351 47.1362 103.16 47.1362C102.966 47.1362 102.835 47.1043 102.767 47.0405C102.701 46.9767 102.667 46.8617 102.667 46.6953C102.667 46.5221 102.702 46.4025 102.77 46.3364C102.841 46.2681 102.973 46.2339 103.167 46.2339C103.358 46.2339 103.488 46.2669 103.556 46.333C103.625 46.3968 103.659 46.5119 103.659 46.6782ZM107.717 50.7593C107.717 50.7821 107.71 50.8026 107.697 50.8208C107.683 50.8368 107.66 50.8504 107.628 50.8618C107.596 50.8732 107.552 50.8812 107.495 50.8857C107.44 50.8926 107.372 50.896 107.29 50.896C107.206 50.896 107.135 50.8926 107.078 50.8857C107.023 50.8812 106.98 50.8732 106.948 50.8618C106.916 50.8504 106.893 50.8368 106.88 50.8208C106.866 50.8026 106.859 50.7821 106.859 50.7593V49.0195C106.859 48.8714 106.848 48.7552 106.825 48.6709C106.805 48.5866 106.774 48.5148 106.733 48.4556C106.692 48.394 106.638 48.3473 106.572 48.3154C106.508 48.2812 106.433 48.2642 106.347 48.2642C106.237 48.2642 106.127 48.304 106.015 48.3838C105.903 48.4635 105.787 48.5798 105.666 48.7324V50.7593C105.666 50.7821 105.66 50.8026 105.646 50.8208C105.632 50.8368 105.608 50.8504 105.574 50.8618C105.542 50.8732 105.499 50.8812 105.444 50.8857C105.39 50.8926 105.32 50.896 105.236 50.896C105.151 50.896 105.082 50.8926 105.027 50.8857C104.973 50.8812 104.928 50.8732 104.894 50.8618C104.862 50.8504 104.839 50.8368 104.826 50.8208C104.812 50.8026 104.805 50.7821 104.805 50.7593V47.7104C104.805 47.6877 104.811 47.6683 104.822 47.6523C104.834 47.6341 104.854 47.6193 104.884 47.6079C104.913 47.5965 104.951 47.5885 104.996 47.584C105.044 47.5771 105.104 47.5737 105.174 47.5737C105.247 47.5737 105.308 47.5771 105.355 47.584C105.403 47.5885 105.44 47.5965 105.465 47.6079C105.492 47.6193 105.511 47.6341 105.523 47.6523C105.534 47.6683 105.54 47.6877 105.54 47.7104V48.0625C105.709 47.8802 105.879 47.7435 106.053 47.6523C106.228 47.5612 106.41 47.5156 106.6 47.5156C106.807 47.5156 106.981 47.5498 107.122 47.6182C107.266 47.6865 107.381 47.7799 107.468 47.8984C107.557 48.0146 107.62 48.1514 107.659 48.3086C107.698 48.4658 107.717 48.6549 107.717 48.876V50.7593ZM111.731 49.146C111.731 49.2508 111.707 49.3283 111.659 49.3784C111.614 49.4285 111.55 49.4536 111.468 49.4536H109.612C109.612 49.5835 109.627 49.702 109.657 49.8091C109.688 49.9139 109.737 50.0039 109.804 50.0791C109.872 50.152 109.958 50.2078 110.063 50.2466C110.17 50.2853 110.298 50.3047 110.446 50.3047C110.596 50.3047 110.729 50.2944 110.843 50.2739C110.957 50.2511 111.054 50.2272 111.137 50.2021C111.221 50.1748 111.29 50.1509 111.345 50.1304C111.4 50.1076 111.444 50.0962 111.478 50.0962C111.499 50.0962 111.516 50.1007 111.53 50.1099C111.543 50.1167 111.555 50.1304 111.564 50.1509C111.573 50.1714 111.579 50.201 111.581 50.2397C111.585 50.2762 111.588 50.3229 111.588 50.3799C111.588 50.43 111.587 50.4733 111.584 50.5098C111.582 50.5439 111.579 50.5736 111.574 50.5986C111.569 50.6237 111.563 50.6453 111.554 50.6636C111.544 50.6795 111.532 50.6955 111.516 50.7114C111.502 50.7274 111.462 50.749 111.396 50.7764C111.33 50.8037 111.246 50.8311 111.143 50.8584C111.041 50.8835 110.923 50.9051 110.791 50.9233C110.659 50.9438 110.518 50.9541 110.367 50.9541C110.096 50.9541 109.858 50.9199 109.653 50.8516C109.45 50.7832 109.281 50.6795 109.144 50.5405C109.007 50.4015 108.905 50.2261 108.836 50.0142C108.77 49.8022 108.737 49.5539 108.737 49.269C108.737 48.9979 108.772 48.7541 108.843 48.5376C108.914 48.3188 109.016 48.1343 109.151 47.9839C109.285 47.8312 109.448 47.715 109.639 47.6353C109.833 47.5555 110.051 47.5156 110.292 47.5156C110.547 47.5156 110.765 47.5532 110.945 47.6284C111.127 47.7036 111.277 47.8084 111.393 47.9429C111.509 48.075 111.595 48.2323 111.649 48.4146C111.704 48.5968 111.731 48.7951 111.731 49.0093V49.146ZM110.897 48.8999C110.904 48.6584 110.855 48.4692 110.75 48.3325C110.648 48.1935 110.488 48.124 110.272 48.124C110.162 48.124 110.067 48.1445 109.985 48.1855C109.905 48.2266 109.838 48.2824 109.783 48.353C109.731 48.4214 109.69 48.5034 109.66 48.5991C109.633 48.6925 109.617 48.7928 109.612 48.8999H110.897ZM115.609 49.146C115.609 49.2508 115.585 49.3283 115.537 49.3784C115.491 49.4285 115.427 49.4536 115.345 49.4536H113.489C113.489 49.5835 113.504 49.702 113.534 49.8091C113.566 49.9139 113.615 50.0039 113.681 50.0791C113.749 50.152 113.836 50.2078 113.941 50.2466C114.048 50.2853 114.175 50.3047 114.323 50.3047C114.474 50.3047 114.606 50.2944 114.72 50.2739C114.834 50.2511 114.932 50.2272 115.014 50.2021C115.098 50.1748 115.168 50.1509 115.222 50.1304C115.277 50.1076 115.321 50.0962 115.356 50.0962C115.376 50.0962 115.393 50.1007 115.407 50.1099C115.421 50.1167 115.432 50.1304 115.441 50.1509C115.45 50.1714 115.456 50.201 115.458 50.2397C115.463 50.2762 115.465 50.3229 115.465 50.3799C115.465 50.43 115.464 50.4733 115.462 50.5098C115.459 50.5439 115.456 50.5736 115.451 50.5986C115.447 50.6237 115.44 50.6453 115.431 50.6636C115.422 50.6795 115.409 50.6955 115.393 50.7114C115.38 50.7274 115.34 50.749 115.274 50.7764C115.208 50.8037 115.123 50.8311 115.021 50.8584C114.918 50.8835 114.801 50.9051 114.669 50.9233C114.536 50.9438 114.395 50.9541 114.245 50.9541C113.974 50.9541 113.736 50.9199 113.53 50.8516C113.328 50.7832 113.158 50.6795 113.021 50.5405C112.884 50.4015 112.782 50.2261 112.714 50.0142C112.647 49.8022 112.614 49.5539 112.614 49.269C112.614 48.9979 112.65 48.7541 112.72 48.5376C112.791 48.3188 112.894 48.1343 113.028 47.9839C113.162 47.8312 113.325 47.715 113.517 47.6353C113.71 47.5555 113.928 47.5156 114.17 47.5156C114.425 47.5156 114.642 47.5532 114.822 47.6284C115.005 47.7036 115.154 47.8084 115.27 47.9429C115.386 48.075 115.472 48.2323 115.527 48.4146C115.581 48.5968 115.609 48.7951 115.609 49.0093V49.146ZM114.775 48.8999C114.781 48.6584 114.732 48.4692 114.628 48.3325C114.525 48.1935 114.366 48.124 114.149 48.124C114.04 48.124 113.944 48.1445 113.862 48.1855C113.782 48.2266 113.715 48.2824 113.66 48.353C113.608 48.4214 113.567 48.5034 113.537 48.5991C113.51 48.6925 113.494 48.7928 113.489 48.8999H114.775ZM118.628 47.9941C118.628 48.0762 118.626 48.1434 118.621 48.1958C118.617 48.2482 118.61 48.2892 118.601 48.3188C118.592 48.3485 118.579 48.369 118.563 48.3804C118.549 48.3918 118.531 48.3975 118.508 48.3975C118.49 48.3975 118.47 48.394 118.447 48.3872C118.424 48.3781 118.398 48.369 118.368 48.3599C118.341 48.3507 118.31 48.3428 118.276 48.3359C118.242 48.3268 118.204 48.3223 118.163 48.3223C118.115 48.3223 118.067 48.3325 118.02 48.353C117.972 48.3713 117.922 48.4009 117.869 48.4419C117.819 48.4829 117.766 48.5376 117.709 48.606C117.654 48.6743 117.595 48.7586 117.531 48.8589V50.7593C117.531 50.7821 117.524 50.8026 117.51 50.8208C117.497 50.8368 117.473 50.8504 117.439 50.8618C117.407 50.8732 117.363 50.8812 117.309 50.8857C117.254 50.8926 117.184 50.896 117.1 50.896C117.016 50.896 116.946 50.8926 116.892 50.8857C116.837 50.8812 116.793 50.8732 116.758 50.8618C116.726 50.8504 116.704 50.8368 116.69 50.8208C116.676 50.8026 116.67 50.7821 116.67 50.7593V47.7104C116.67 47.6877 116.675 47.6683 116.687 47.6523C116.698 47.6341 116.719 47.6193 116.748 47.6079C116.778 47.5965 116.815 47.5885 116.861 47.584C116.909 47.5771 116.968 47.5737 117.039 47.5737C117.112 47.5737 117.172 47.5771 117.22 47.584C117.268 47.5885 117.304 47.5965 117.329 47.6079C117.357 47.6193 117.376 47.6341 117.387 47.6523C117.399 47.6683 117.404 47.6877 117.404 47.7104V48.0898C117.484 47.9759 117.559 47.8825 117.63 47.8096C117.701 47.7344 117.768 47.6751 117.832 47.6318C117.895 47.5885 117.959 47.5589 118.023 47.543C118.087 47.5247 118.151 47.5156 118.214 47.5156C118.244 47.5156 118.276 47.5179 118.31 47.5225C118.344 47.5247 118.38 47.5304 118.416 47.5396C118.453 47.5464 118.484 47.5555 118.512 47.5669C118.539 47.576 118.559 47.5863 118.57 47.5977C118.584 47.609 118.593 47.6216 118.597 47.6353C118.604 47.6489 118.61 47.6683 118.614 47.6934C118.619 47.7161 118.622 47.7515 118.625 47.7993C118.627 47.8472 118.628 47.9121 118.628 47.9941ZM120.369 50.7593C120.369 50.7821 120.362 50.8026 120.349 50.8208C120.335 50.8368 120.311 50.8504 120.277 50.8618C120.245 50.8732 120.202 50.8812 120.147 50.8857C120.092 50.8926 120.023 50.896 119.938 50.896C119.854 50.896 119.785 50.8926 119.73 50.8857C119.675 50.8812 119.631 50.8732 119.597 50.8618C119.565 50.8504 119.542 50.8368 119.528 50.8208C119.515 50.8026 119.508 50.7821 119.508 50.7593V47.7173C119.508 47.6945 119.515 47.6751 119.528 47.6592C119.542 47.641 119.565 47.6261 119.597 47.6147C119.631 47.6011 119.675 47.5908 119.73 47.584C119.785 47.5771 119.854 47.5737 119.938 47.5737C120.023 47.5737 120.092 47.5771 120.147 47.584C120.202 47.5908 120.245 47.6011 120.277 47.6147C120.311 47.6261 120.335 47.641 120.349 47.6592C120.362 47.6751 120.369 47.6945 120.369 47.7173V50.7593ZM120.434 46.6782C120.434 46.8514 120.399 46.971 120.328 47.0371C120.257 47.1032 120.126 47.1362 119.935 47.1362C119.741 47.1362 119.61 47.1043 119.542 47.0405C119.476 46.9767 119.443 46.8617 119.443 46.6953C119.443 46.5221 119.477 46.4025 119.545 46.3364C119.616 46.2681 119.748 46.2339 119.942 46.2339C120.133 46.2339 120.263 46.2669 120.332 46.333C120.4 46.3968 120.434 46.5119 120.434 46.6782ZM124.493 50.7593C124.493 50.7821 124.486 50.8026 124.472 50.8208C124.458 50.8368 124.436 50.8504 124.404 50.8618C124.372 50.8732 124.327 50.8812 124.27 50.8857C124.216 50.8926 124.147 50.896 124.065 50.896C123.981 50.896 123.91 50.8926 123.853 50.8857C123.799 50.8812 123.755 50.8732 123.724 50.8618C123.692 50.8504 123.669 50.8368 123.655 50.8208C123.642 50.8026 123.635 50.7821 123.635 50.7593V49.0195C123.635 48.8714 123.623 48.7552 123.6 48.6709C123.58 48.5866 123.549 48.5148 123.508 48.4556C123.467 48.394 123.414 48.3473 123.348 48.3154C123.284 48.2812 123.209 48.2642 123.122 48.2642C123.013 48.2642 122.902 48.304 122.79 48.3838C122.679 48.4635 122.563 48.5798 122.442 48.7324V50.7593C122.442 50.7821 122.435 50.8026 122.421 50.8208C122.408 50.8368 122.384 50.8504 122.35 50.8618C122.318 50.8732 122.274 50.8812 122.22 50.8857C122.165 50.8926 122.095 50.896 122.011 50.896C121.927 50.896 121.857 50.8926 121.803 50.8857C121.748 50.8812 121.704 50.8732 121.669 50.8618C121.637 50.8504 121.615 50.8368 121.601 50.8208C121.587 50.8026 121.58 50.7821 121.58 50.7593V47.7104C121.58 47.6877 121.586 47.6683 121.598 47.6523C121.609 47.6341 121.629 47.6193 121.659 47.6079C121.689 47.5965 121.726 47.5885 121.772 47.584C121.82 47.5771 121.879 47.5737 121.95 47.5737C122.023 47.5737 122.083 47.5771 122.131 47.584C122.179 47.5885 122.215 47.5965 122.24 47.6079C122.267 47.6193 122.287 47.6341 122.298 47.6523C122.31 47.6683 122.315 47.6877 122.315 47.7104V48.0625C122.484 47.8802 122.655 47.7435 122.828 47.6523C123.003 47.5612 123.186 47.5156 123.375 47.5156C123.582 47.5156 123.757 47.5498 123.898 47.6182C124.041 47.6865 124.156 47.7799 124.243 47.8984C124.332 48.0146 124.396 48.1514 124.434 48.3086C124.473 48.4658 124.493 48.6549 124.493 48.876V50.7593ZM128.438 47.9224C128.438 48.0317 128.426 48.1126 128.401 48.165C128.376 48.2174 128.345 48.2437 128.308 48.2437H127.95C128 48.2983 128.035 48.361 128.055 48.4316C128.078 48.5 128.09 48.5718 128.09 48.647C128.09 48.8247 128.06 48.9831 128.001 49.1221C127.942 49.2588 127.856 49.375 127.744 49.4707C127.635 49.5641 127.502 49.6359 127.345 49.686C127.19 49.7339 127.016 49.7578 126.825 49.7578C126.727 49.7578 126.634 49.7464 126.545 49.7236C126.456 49.6986 126.387 49.6701 126.34 49.6382C126.312 49.6678 126.287 49.7031 126.264 49.7441C126.244 49.7852 126.234 49.8307 126.234 49.8809C126.234 49.9469 126.262 50.0016 126.319 50.0449C126.378 50.0859 126.46 50.1087 126.565 50.1133L127.307 50.1406C127.48 50.1475 127.634 50.1725 127.768 50.2158C127.905 50.2568 128.019 50.3161 128.11 50.3936C128.204 50.4688 128.274 50.5599 128.322 50.667C128.372 50.7741 128.397 50.896 128.397 51.0327C128.397 51.1831 128.364 51.3244 128.298 51.4565C128.232 51.591 128.133 51.7072 128.001 51.8052C127.869 51.9032 127.702 51.9806 127.502 52.0376C127.304 52.0946 127.071 52.123 126.804 52.123C126.545 52.123 126.323 52.1025 126.138 52.0615C125.956 52.0205 125.805 51.9635 125.687 51.8906C125.571 51.8177 125.485 51.73 125.43 51.6274C125.378 51.5272 125.352 51.4167 125.352 51.2959C125.352 51.2207 125.361 51.1489 125.379 51.0806C125.4 51.0122 125.428 50.9461 125.465 50.8823C125.503 50.8208 125.55 50.7616 125.605 50.7046C125.659 50.6476 125.722 50.5929 125.793 50.5405C125.695 50.4881 125.618 50.4175 125.564 50.3286C125.511 50.2375 125.485 50.1383 125.485 50.0312C125.485 49.8968 125.516 49.7749 125.577 49.6655C125.639 49.5539 125.719 49.4536 125.817 49.3647C125.737 49.285 125.673 49.1893 125.625 49.0776C125.577 48.966 125.554 48.827 125.554 48.6606C125.554 48.4829 125.584 48.3245 125.646 48.1855C125.71 48.0443 125.797 47.9258 125.909 47.8301C126.021 47.7321 126.154 47.658 126.309 47.6079C126.464 47.5555 126.635 47.5293 126.822 47.5293C126.917 47.5293 127.008 47.535 127.095 47.5464C127.184 47.5578 127.266 47.5737 127.341 47.5942H128.308C128.347 47.5942 128.378 47.6193 128.401 47.6694C128.426 47.7196 128.438 47.8039 128.438 47.9224ZM127.334 48.6436C127.334 48.4795 127.289 48.3519 127.198 48.2607C127.106 48.1696 126.978 48.124 126.811 48.124C126.727 48.124 126.653 48.1388 126.589 48.1685C126.525 48.1958 126.472 48.2345 126.429 48.2847C126.387 48.3325 126.357 48.3895 126.336 48.4556C126.316 48.5194 126.305 48.5866 126.305 48.6572C126.305 48.8122 126.351 48.9352 126.442 49.0264C126.533 49.1152 126.66 49.1597 126.822 49.1597C126.908 49.1597 126.983 49.146 127.047 49.1187C127.111 49.0913 127.163 49.0537 127.204 49.0059C127.248 48.958 127.28 48.9033 127.3 48.8418C127.323 48.778 127.334 48.7119 127.334 48.6436ZM127.536 51.0771C127.536 50.9746 127.495 50.896 127.413 50.8413C127.331 50.7866 127.218 50.757 127.075 50.7524L126.463 50.7354C126.403 50.7786 126.356 50.8208 126.319 50.8618C126.285 50.9006 126.256 50.9382 126.234 50.9746C126.213 51.0111 126.2 51.0464 126.193 51.0806C126.186 51.1147 126.182 51.1501 126.182 51.1865C126.182 51.3005 126.239 51.387 126.353 51.4463C126.47 51.5055 126.632 51.5352 126.842 51.5352C126.972 51.5352 127.081 51.5215 127.17 51.4941C127.259 51.4691 127.331 51.4349 127.386 51.3916C127.44 51.3483 127.479 51.2993 127.502 51.2446C127.525 51.1922 127.536 51.1364 127.536 51.0771Z" fill="#606062"/>
</svg>
