<svg width="316" height="77" viewBox="0 0 316 77" fill="none" xmlns="http://www.w3.org/2000/svg">
<path d="M73.31 21.79V18.01H95.85V21.79L90.6 22.35C90.5533 25.1967 90.5067 28.0667 90.46 30.96C90.46 33.8533 90.46 36.77 90.46 39.71V42.23C90.46 45.1233 90.46 48.04 90.46 50.98C90.5067 53.8733 90.5533 56.7667 90.6 59.66L95.85 60.22V64H73.31V60.22L78.56 59.66C78.6533 56.8133 78.7 53.9433 78.7 51.05C78.7 48.1567 78.7 45.24 78.7 42.3V39.71C78.7 36.8167 78.7 33.9233 78.7 31.03C78.7 28.09 78.6533 25.1967 78.56 22.35L73.31 21.79ZM100.449 21.79V18.01H122.989V21.79L117.739 22.35C117.692 25.1967 117.645 28.0667 117.599 30.96C117.599 33.8533 117.599 36.77 117.599 39.71V42.23C117.599 45.1233 117.599 48.04 117.599 50.98C117.645 53.8733 117.692 56.7667 117.739 59.66L122.989 60.22V64H100.449V60.22L105.699 59.66C105.792 56.8133 105.839 53.9433 105.839 51.05C105.839 48.1567 105.839 45.24 105.839 42.3V39.71C105.839 36.8167 105.839 33.9233 105.839 31.03C105.839 28.09 105.792 25.1967 105.699 22.35L100.449 21.79ZM126.677 31.03L126.957 18.01H168.047L168.257 31.03H162.447L161.187 21.93H153.487C153.441 24.8233 153.394 27.7633 153.347 30.75C153.347 33.69 153.347 36.6767 153.347 39.71V42.23C153.347 45.1233 153.347 48.0167 153.347 50.91C153.394 53.8033 153.441 56.6967 153.487 59.59L159.507 60.22V64H135.497V60.22L141.447 59.59C141.541 56.7433 141.587 53.8733 141.587 50.98C141.587 48.0867 141.587 45.1933 141.587 42.3V39.71C141.587 36.77 141.587 33.83 141.587 30.89C141.587 27.9033 141.541 24.9167 141.447 21.93H133.817L132.487 31.03H126.677ZM167.111 49.37V43.07H185.241V49.37H167.111ZM189.114 21.79V18.01H212.424V21.79L207.034 22.35C206.987 25.0567 206.964 27.81 206.964 30.61C206.964 33.41 206.964 36.2333 206.964 39.08V46.36C206.964 52.7067 206.544 57.84 205.704 61.76C204.911 65.68 203.324 68.83 200.944 71.21C197.631 74.4767 193.687 76.11 189.114 76.11C187.201 76.11 185.521 75.7367 184.074 74.99C182.627 74.29 181.507 73.1933 180.714 71.7C180.761 70.0667 181.321 68.7833 182.394 67.85C183.421 66.9633 184.704 66.52 186.244 66.52C187.457 66.52 188.554 66.8233 189.534 67.43C190.514 68.0833 191.541 69.0633 192.614 70.37L194.084 72.12C194.644 71.0467 195.041 69.6233 195.274 67.85C195.507 66.1233 195.624 63.9767 195.624 61.41C195.624 59.2167 195.601 56.44 195.554 53.08C195.507 49.6733 195.437 45.4733 195.344 40.48C195.251 35.44 195.157 29.42 195.064 22.42L189.114 21.79ZM216.113 21.79V18.01H251.813L252.303 30.05H246.493L245.093 21.93H233.403C233.356 24.59 233.309 27.2733 233.263 29.98C233.263 32.6867 233.263 35.4167 233.263 38.17H240.823L241.663 32.71H245.723V47.76H241.663L240.823 42.3H233.263C233.263 45.52 233.263 48.5767 233.263 51.47C233.309 54.3633 233.356 57.2333 233.403 60.08H246.493L247.893 51.96H253.703L253.213 64H216.113V60.22L221.363 59.66C221.456 56.8133 221.503 53.9433 221.503 51.05C221.503 48.1567 221.503 45.24 221.503 42.3V39.71C221.503 36.8167 221.503 33.9233 221.503 31.03C221.503 28.09 221.456 25.1967 221.363 22.35L216.113 21.79ZM257.744 21.79V18.01H293.444L293.934 30.05H288.124L286.724 21.93H275.034C274.987 24.59 274.94 27.2733 274.894 29.98C274.894 32.6867 274.894 35.4167 274.894 38.17H282.454L283.294 32.71H287.354V47.76H283.294L282.454 42.3H274.894C274.894 45.52 274.894 48.5767 274.894 51.47C274.94 54.3633 274.987 57.2333 275.034 60.08H288.124L289.524 51.96H295.334L294.844 64H257.744V60.22L262.994 59.66C263.087 56.8133 263.134 53.9433 263.134 51.05C263.134 48.1567 263.134 45.24 263.134 42.3V39.71C263.134 36.8167 263.134 33.9233 263.134 31.03C263.134 28.09 263.087 25.1967 262.994 22.35L257.744 21.79Z" fill="#606062"/>
<path d="M34.4456 49.0642C29.7638 49.0642 25.9531 45.2213 25.9531 40.5C25.9531 35.7787 29.7638 31.9358 34.4456 31.9358C39.2362 31.9358 43.0469 35.7787 43.0469 40.5C43.0469 45.2213 39.2362 49.0642 34.4456 49.0642ZM61.4472 43.9037L67 43.4645L66.129 32.7044L60.6851 33.0338C59.9229 30.0693 58.5075 27.2145 56.8744 24.6892L60.5762 20.7365L52.8459 13.2703L49.1441 17.223C46.3132 15.4662 43.1558 14.1486 39.8894 13.4899V8H29.1106V13.4899C24.8643 14.3682 21.0536 16.125 17.7873 18.7601L13.6499 15.1368L6.68174 23.3716L10.8191 26.8851C9.07705 29.9595 7.8794 33.473 7.55276 37.0963L2 37.5355L2.76214 48.2956L8.31491 47.9662C9.18593 50.9307 10.6013 53.6757 12.2345 56.0912L8.42379 60.2635L16.1541 67.7297L20.0737 63.5574C22.7956 65.3142 25.8442 66.522 29.1106 67.1807V73H39.8894V67.1807C44.0268 66.4122 47.8375 64.6554 50.995 62.1301L55.2412 65.8632L62.3183 57.7382L58.072 54.0051C59.8141 50.9307 61.0117 47.527 61.4472 43.9037Z" fill="#FEFEFE" stroke="#4B4B4D" stroke-width="2" stroke-miterlimit="2.61313"/>
<path d="M34.4456 49.0642C29.7638 49.0642 25.9531 45.2213 25.9531 40.5C25.9531 35.7787 29.7638 31.9358 34.4456 31.9358C39.2362 31.9358 43.0469 35.7787 43.0469 40.5C43.0469 45.2213 39.2362 49.0642 34.4456 49.0642ZM61.4472 43.9037L67 43.4645L66.129 32.7044L60.6851 33.0338C59.9229 30.0693 58.5075 27.2145 56.8744 24.6892L60.5762 20.7365L52.8459 13.2703L49.1441 17.223C46.3132 15.4662 43.1558 14.1486 39.8894 13.4899V8H29.1106V13.4899C24.8643 14.3682 21.0536 16.125 17.7873 18.7601L13.6499 15.1368L6.68174 23.3716L10.8191 26.8851C9.07705 29.9595 7.8794 33.473 7.55276 37.0963L2 37.5355L2.76214 48.2956L8.31491 47.9662C9.18593 50.9307 10.6013 53.6757 12.2345 56.0912L8.42379 60.2635L16.1541 67.7297L20.0737 63.5574C22.7956 65.3142 25.8442 66.522 29.1106 67.1807V73H39.8894V67.1807C44.0268 66.4122 47.8375 64.6554 50.995 62.1301L55.2412 65.8632L62.3183 57.7382L58.072 54.0051C59.8141 50.9307 61.0117 47.527 61.4472 43.9037Z" stroke="#606062" stroke-width="2" stroke-miterlimit="10"/>
<path d="M51.5392 40.4994C51.5392 50.0518 43.9177 57.7376 34.4454 57.7376C25.0819 57.7376 17.4604 50.0518 17.4604 40.4994C17.4604 30.947 25.0819 23.2612 34.4454 23.2612C43.9177 23.2612 51.5392 30.947 51.5392 40.4994Z" fill="#64CDF5" stroke="#4B4B4D" stroke-width="2" stroke-miterlimit="2.61313"/>
<path d="M51.5392 40.4994C51.5392 50.0518 43.9177 57.7376 34.4454 57.7376C25.0819 57.7376 17.4604 50.0518 17.4604 40.4994C17.4604 30.947 25.0819 23.2612 34.4454 23.2612C43.9177 23.2612 51.5392 30.947 51.5392 40.4994Z" fill="#606062" stroke="#606062" stroke-width="2" stroke-miterlimit="10"/>
<path d="M43.0469 40.4997C43.0469 45.221 39.2362 49.0639 34.4456 49.0639C29.7638 49.0639 25.9531 45.221 25.9531 40.4997C25.9531 35.7785 29.7638 31.9355 34.4456 31.9355C39.2362 31.9355 43.0469 35.7785 43.0469 40.4997Z" fill="#FEFEFE" stroke="#4B4B4D" stroke-width="2" stroke-miterlimit="2.61313"/>
<path d="M43.0469 40.4997C43.0469 45.221 39.2362 49.0639 34.4456 49.0639C29.7638 49.0639 25.9531 45.221 25.9531 40.4997C25.9531 35.7785 29.7638 31.9355 34.4456 31.9355C39.2362 31.9355 43.0469 35.7785 43.0469 40.4997Z" stroke="#606062" stroke-width="2" stroke-miterlimit="10"/>
<path d="M34.4456 17.9917C46.3132 17.9917 56.8744 27.5441 56.8744 40.5001" stroke="#606062" stroke-width="2" stroke-miterlimit="10"/>
</svg>
