<svg width="275" height="245" viewBox="0 0 275 245" fill="none" xmlns="http://www.w3.org/2000/svg">
<path d="M263.986 198.972C264.924 200.96 265.741 202.985 266.196 205.118C268.589 216.328 259.938 224.271 251.729 230.497C242.17 237.75 230.894 240.246 219.066 241.008C206.841 241.795 194.888 244.84 182.343 244.979C140.886 245.438 99.7896 238.215 58.9911 231.015C49.7655 229.389 40.3638 227.701 32.1191 223.35C13.5525 213.562 0.582597 195.664 0.0147279 174.935C-0.185697 167.629 1.64242 160.005 6.54674 154.479C12.2102 148.102 21.3508 145.105 26.1458 138.083C30.2181 132.121 30.3335 124.477 30.3061 117.313C30.2727 107.891 30.2393 98.4733 30.2059 89.0521C30.1634 77.2498 30.1513 65.2312 33.7376 53.959C37.321 42.6839 45.1345 32.0662 56.4737 27.9406C64.9796 24.8486 74.4329 25.6779 83.3093 23.809C102.377 19.7959 118.76 3.4711 138.107 5.92338C144.7 6.75858 150.664 9.78246 155.945 13.609C160.995 17.2637 165.286 23.5395 170.719 26.4212C175.511 28.9683 183.67 28.5477 189.018 29.3592C197.275 30.615 205.532 31.8678 213.789 33.1235C225.544 34.9094 238.122 36.7664 247.645 44.2684C255.197 50.2184 260.858 58.7333 263.397 67.8671C266.357 78.5144 263.776 86.8397 258.829 96.3438C255.173 103.366 254.988 109.657 259.388 116.421C263.846 123.266 268.055 128.62 269.212 136.886C270.421 145.532 269.115 154.399 265.668 162.437C262.461 169.921 257.545 177.373 258.568 185.423C259.182 190.256 261.887 194.521 263.986 198.972Z" fill="#CADEF4"/>
<path d="M228.569 206.368H100.021C98.5873 206.368 97.4272 205.236 97.4272 203.838V19.7722C97.4272 18.3773 98.5873 17.2459 100.021 17.2459H228.569C229.999 17.2459 231.159 18.3773 231.159 19.7722V203.838C231.159 205.236 229.999 206.368 228.569 206.368Z" fill="black"/>
<path d="M226.282 206.368H97.734C96.3007 206.368 95.1406 205.236 95.1406 203.838V19.7722C95.1406 18.3773 96.3007 17.2459 97.734 17.2459H226.282C227.715 17.2459 228.875 18.3773 228.875 19.7722V203.838C228.875 205.236 227.715 206.368 226.282 206.368Z" fill="#0781B1"/>
<path d="M106.455 198.179H222.13V25.432H106.455V198.179Z" fill="#CAD2E6"/>
<path d="M104.168 198.179H219.847V25.432H104.168V198.179Z" fill="white"/>
<path d="M190.093 29.3296H133.922V15.9132C133.922 14.1687 135.374 12.753 137.166 12.753H186.853C188.641 12.753 190.093 14.1687 190.093 15.9132V29.3296Z" fill="black"/>
<path d="M162.009 19.1296C158.396 19.1296 155.471 16.2745 155.471 12.753C155.471 9.23159 158.396 6.37652 162.009 6.37652C165.62 6.37652 168.544 9.23159 168.544 12.753C168.544 16.2745 165.62 19.1296 162.009 19.1296ZM162.009 0C154.785 0 148.933 5.71014 148.933 12.753C148.933 19.7959 154.785 25.5061 162.009 25.5061C169.231 25.5061 175.082 19.7959 175.082 12.753C175.082 5.71014 169.231 0 162.009 0Z" fill="black"/>
<path d="M201.927 74.0541V73.7372H190.451C189.914 73.7343 189.479 73.3107 189.479 72.7895V61.5972C189.479 61.073 189.914 60.6495 190.451 60.6495H201.927C202.465 60.6495 202.899 61.073 202.899 61.5972V72.7895C202.899 73.3107 202.465 73.7343 201.927 73.7372V74.3681C202.823 74.3681 203.546 73.6602 203.546 72.7895V61.5972C203.546 60.7235 202.823 60.0157 201.927 60.0157H190.451C189.555 60.0157 188.83 60.7235 188.83 61.5972V72.7895C188.83 73.6602 189.555 74.3681 190.451 74.3681H201.927V74.0541Z" fill="#ACACAC"/>
<path d="M185.195 65.2905C187.518 67.5532 189.838 69.8159 192.158 72.0816C192.778 72.6858 193.831 72.6858 194.451 72.0816C199.89 66.7772 205.325 61.4729 210.764 56.1714C212.24 54.7291 209.95 52.496 208.474 53.9354C203.036 59.2397 197.597 64.5412 192.158 69.8456C192.923 69.8456 193.686 69.8456 194.451 69.8456C192.131 67.5828 189.808 65.3171 187.488 63.0544C186.012 61.615 183.719 63.8481 185.195 65.2905Z" fill="#71D7FF"/>
<path d="M201.927 100.671V100.354H190.451C189.914 100.354 189.479 99.9304 189.479 99.4062V88.214C189.479 87.6897 189.914 87.2662 190.451 87.2662H201.927C202.465 87.2662 202.899 87.6897 202.899 88.214V99.4062C202.899 99.9304 202.465 100.354 201.927 100.354V100.988C202.823 100.985 203.546 100.28 203.546 99.4062V88.214C203.546 87.3403 202.823 86.6354 201.927 86.6354H190.451C189.555 86.6354 188.83 87.3403 188.83 88.214V99.4062C188.83 100.28 189.555 100.988 190.451 100.988H201.927V100.671Z" fill="#ACACAC"/>
<path d="M185.195 91.9072C187.518 94.1699 189.838 96.4356 192.158 98.6984C192.778 99.3025 193.831 99.3025 194.451 98.6984C199.89 93.394 205.325 88.0925 210.764 82.7881C212.24 81.3458 209.95 79.1127 208.474 80.5521C203.036 85.8565 197.597 91.1608 192.158 96.4652C192.923 96.4652 193.686 96.4652 194.451 96.4652C192.131 94.1995 189.808 91.9368 187.488 89.6711C186.012 88.2317 183.719 90.4678 185.195 91.9072Z" fill="#71D7FF"/>
<path d="M201.927 126.053V125.739H190.451C189.914 125.736 189.479 125.312 189.479 124.788V113.596C189.479 113.074 189.914 112.651 190.451 112.648H201.927C202.465 112.651 202.899 113.074 202.899 113.596V124.788C202.899 125.312 202.465 125.736 201.927 125.739V126.369C202.823 126.369 203.546 125.662 203.546 124.788V113.596C203.546 112.725 202.823 112.017 201.927 112.017H190.451C189.555 112.017 188.83 112.725 188.83 113.596V124.788C188.83 125.662 189.555 126.369 190.451 126.369H201.927V126.053Z" fill="#ACACAC"/>
<path d="M185.195 117.292C187.518 119.555 189.838 121.817 192.158 124.08C192.778 124.684 193.831 124.687 194.451 124.08C199.89 118.779 205.325 113.474 210.764 108.17C212.24 106.73 209.95 104.494 208.474 105.937C203.036 111.238 197.597 116.543 192.158 121.847C192.923 121.847 193.686 121.847 194.451 121.847C192.131 119.584 189.808 117.319 187.488 115.056C186.012 113.616 183.719 115.85 185.195 117.292Z" fill="#71D7FF"/>
<path d="M201.927 151.849V151.532H190.451C189.914 151.532 189.479 151.108 189.479 150.584V139.392C189.479 138.868 189.914 138.444 190.451 138.444H201.927C202.465 138.444 202.899 138.868 202.899 139.392V150.584C202.899 151.108 202.465 151.532 201.927 151.532V152.163C202.823 152.163 203.546 151.458 203.546 150.584V139.392C203.546 138.518 202.823 137.81 201.927 137.81H190.451C189.555 137.81 188.83 138.518 188.83 139.392V150.584C188.83 151.455 189.555 152.163 190.451 152.163H201.927V151.849Z" fill="#ACACAC"/>
<path d="M185.195 143.085C187.518 145.348 189.838 147.614 192.158 149.876C192.778 150.481 193.831 150.481 194.451 149.876C199.89 144.572 205.325 139.268 210.764 133.963C212.24 132.524 209.95 130.288 208.474 131.73C203.036 137.034 197.597 142.339 192.158 147.64C192.923 147.64 193.686 147.64 194.451 147.64C192.131 145.378 189.808 143.112 187.488 140.849C186.012 139.41 183.719 141.643 185.195 143.085Z" fill="#71D7FF"/>
<path d="M178.377 61.9793H120.306C119.948 61.9793 119.659 61.695 119.659 61.3455V60.3474C119.659 59.9979 119.948 59.7136 120.306 59.7136H178.377C178.736 59.7136 179.027 59.9979 179.027 60.3474V61.3455C179.027 61.695 178.736 61.9793 178.377 61.9793Z" fill="#ACACAC"/>
<path d="M178.377 67.8109H120.306C119.948 67.8109 119.659 67.5266 119.659 67.1771V66.179C119.659 65.8295 119.948 65.5481 120.306 65.5481H178.377C178.736 65.5481 179.027 65.8295 179.027 66.179V67.1771C179.027 67.5266 178.736 67.8109 178.377 67.8109Z" fill="#ACACAC"/>
<path d="M164.381 73.6424H120.306C119.948 73.6424 119.659 73.3581 119.659 73.0086V72.0106C119.659 71.6611 119.948 71.3797 120.306 71.3797H164.381C164.739 71.3797 165.028 71.6611 165.028 72.0106V73.0086C165.028 73.3581 164.739 73.6424 164.381 73.6424Z" fill="#ACACAC"/>
<path d="M178.377 88.596H120.306C119.948 88.596 119.659 88.3117 119.659 87.9622V86.9641C119.659 86.6147 119.948 86.3333 120.306 86.3333H178.377C178.736 86.3333 179.027 86.6147 179.027 86.9641V87.9622C179.027 88.3117 178.736 88.596 178.377 88.596Z" fill="#ACACAC"/>
<path d="M178.377 94.4276H120.306C119.948 94.4276 119.659 94.1433 119.659 93.7968V92.7957C119.659 92.4492 119.948 92.1649 120.306 92.1649H178.377C178.736 92.1649 179.027 92.4492 179.027 92.7957V93.7968C179.027 94.1433 178.736 94.4276 178.377 94.4276Z" fill="#ACACAC"/>
<path d="M164.381 100.259H120.306C119.948 100.259 119.659 99.9748 119.659 99.6254V98.6273C119.659 98.2778 119.948 97.9964 120.306 97.9964H164.381C164.739 97.9964 165.028 98.2778 165.028 98.6273V99.6254C165.028 99.9748 164.739 100.259 164.381 100.259Z" fill="#ACACAC"/>
<path d="M178.377 113.978H120.306C119.948 113.978 119.659 113.696 119.659 113.347V112.349C119.659 111.999 119.948 111.715 120.306 111.715H178.377C178.736 111.715 179.027 111.999 179.027 112.349V113.347C179.027 113.696 178.736 113.978 178.377 113.978Z" fill="#ACACAC"/>
<path d="M178.377 119.809H120.306C119.948 119.809 119.659 119.528 119.659 119.178V118.18C119.659 117.831 119.948 117.547 120.306 117.547H178.377C178.736 117.547 179.027 117.831 179.027 118.18V119.178C179.027 119.528 178.736 119.809 178.377 119.809Z" fill="#ACACAC"/>
<path d="M164.381 125.641H120.306C119.948 125.641 119.659 125.359 119.659 125.01V124.012C119.659 123.662 119.948 123.378 120.306 123.378H164.381C164.739 123.378 165.028 123.662 165.028 124.012V125.01C165.028 125.359 164.739 125.641 164.381 125.641Z" fill="#ACACAC"/>
<path d="M178.377 139.774H120.306C119.948 139.774 119.659 139.49 119.659 139.14V138.142C119.659 137.793 119.948 137.511 120.306 137.511H178.377C178.736 137.511 179.027 137.793 179.027 138.142V139.14C179.027 139.49 178.736 139.774 178.377 139.774Z" fill="#ACACAC"/>
<path d="M178.377 145.606H120.306C119.948 145.606 119.659 145.321 119.659 144.972V143.974C119.659 143.624 119.948 143.343 120.306 143.343H178.377C178.736 143.343 179.027 143.624 179.027 143.974V144.972C179.027 145.321 178.736 145.606 178.377 145.606Z" fill="#ACACAC"/>
<path d="M164.381 151.437H120.306C119.948 151.437 119.659 151.153 119.659 150.803V149.805C119.659 149.456 119.948 149.171 120.306 149.171H164.381C164.739 149.171 165.028 149.456 165.028 149.805V150.803C165.028 151.153 164.739 151.437 164.381 151.437Z" fill="#ACACAC"/>
<path d="M102.116 68.3825C105.052 68.6105 110.29 70.5949 109.249 74.4066C109.203 74.5754 109.136 74.7472 109.003 74.8627C108.821 75.0196 108.556 75.0374 108.314 75.0433C107.005 75.0789 105.584 74.99 104.581 74.1667C103.95 73.6484 103.555 72.8902 102.887 72.4222C102.501 72.1527 102.046 71.9957 101.599 71.8417C100.822 71.5752 100.048 71.3116 99.2702 71.045C98.8602 70.9058 98.3956 70.7104 98.2711 70.3046C98.1344 69.8604 98.4897 69.4132 98.8723 69.1377C99.7894 68.4861 100.983 68.2936 102.116 68.3825Z" fill="#423B5C"/>
<path d="M33.905 206.412L33.9506 206.421C35.1744 206.661 36.4255 206.616 37.6675 206.628C39.9299 206.646 42.1831 206.667 44.4425 206.566C45.8303 206.507 46.3951 205.832 46.6532 204.579C46.9235 203.27 47.0237 201.928 46.9538 200.595C46.9478 200.465 46.9387 200.329 46.8658 200.219C46.7777 200.077 46.6107 200.009 46.4497 199.95C45.9001 199.754 45.3262 199.624 44.7431 199.559C44.3453 199.517 43.6104 199.375 43.2733 199.624C42.9362 199.87 42.6751 200.453 42.4382 200.791C42.1376 201.223 41.8278 201.65 41.4422 202.017C40.6951 202.731 39.7143 203.172 38.7091 203.468C37.707 203.761 36.6684 203.921 35.6481 204.155C34.8889 204.327 34.1206 204.549 33.492 204.996C33.2309 205.183 32.9788 205.455 33.0213 205.769C33.076 206.148 33.5163 206.329 33.905 206.412Z" fill="#423B5C"/>
<path d="M89.1911 206.412L89.1486 206.421C87.9218 206.661 86.6707 206.616 85.4286 206.628C83.1693 206.646 80.9161 206.667 78.6567 206.566C77.2659 206.507 76.7011 205.832 76.4429 204.579C76.1757 203.27 76.0725 201.928 76.1423 200.595C76.1514 200.465 76.1605 200.329 76.2304 200.219C76.3184 200.077 76.4885 200.009 76.6464 199.95C77.1961 199.754 77.77 199.624 78.353 199.559C78.7539 199.517 79.4857 199.375 79.8259 199.624C80.1599 199.87 80.4211 200.453 80.6579 200.791C80.9586 201.223 81.2713 201.65 81.654 202.017C82.404 202.731 83.3849 203.172 84.387 203.468C85.3922 203.761 86.4308 203.921 87.4511 204.155C88.2103 204.327 88.9755 204.549 89.6072 204.996C89.8653 205.183 90.1204 205.455 90.0748 205.769C90.0232 206.148 89.5829 206.329 89.1911 206.412Z" fill="#423B5C"/>
<path d="M61.7847 59.9624C61.7635 60.2911 61.727 60.6199 61.6481 60.9397C61.2928 62.3851 60.1965 63.4572 59.3918 64.6744C58.7024 65.711 58.5536 67.0171 58.7419 68.2196C59.1428 70.7963 60.737 73.2219 62.4984 75.1262C62.8779 75.5379 63.3092 76.0562 63.795 76.3435C64.3568 76.6782 65.1221 76.8559 65.7446 77.0573C67.515 77.6318 69.3462 78.0169 71.2016 78.2034C72.1126 78.2953 73.0267 78.3338 73.9438 78.3486C74.7819 78.3604 75.5927 77.8925 76.3398 77.5341C77.2053 77.1195 78.0343 76.6189 78.7418 75.9822C79.501 75.304 80.1114 74.4865 80.7066 73.6691C81.1682 73.0323 81.6298 72.3719 81.7998 71.6107C81.9972 70.7044 81.7603 69.7212 82.1065 68.8593C82.3252 68.3114 82.7564 67.8731 83.0844 67.3785C84.1685 65.7377 82.6289 63.7474 83.5095 62.0415C84.0592 60.9783 85.1676 60.3237 85.6413 59.222C86.0877 58.1795 86.0755 56.9385 85.6352 55.896C84.9034 54.1664 83.2423 52.958 81.484 52.2087C79.4707 51.3528 76.9259 51.0655 75.2405 52.4367C74.8821 52.727 74.5815 53.0794 74.2414 53.3904C72.641 54.8594 70.7613 54.7735 68.8482 54.6906C67.509 54.6343 66.1515 54.5751 64.864 55.046C63.5642 55.5228 62.4103 56.515 62.0216 57.8152C61.8181 58.5082 61.8363 59.2427 61.7847 59.9624Z" fill="#423B5C"/>
<path d="M153.828 71.6048L129.495 68.0804L131.554 81.5117L153.828 71.6048Z" fill="#EFEEF3"/>
<path d="M144.448 74.7116C144.533 75.0315 144.636 75.3425 144.761 75.6386L153.828 71.6048L144.651 70.275C144.147 71.667 144.08 73.287 144.448 74.7116Z" fill="black"/>
<path d="M128.86 68.0508L20.6068 81.3784L19.2949 96.0802L131.062 81.6509L128.86 68.0508Z" fill="#048FC6"/>
<path d="M18.2412 86.2208L20.6068 81.3784L20.1969 85.9838L18.2412 86.2208Z" fill="#FEFEFE"/>
<path d="M20.1973 85.9838L20.6072 81.3784L128.861 68.0508L129.614 72.7066L20.1973 85.9838Z" fill="#0298D2"/>
<path d="M19.2953 96.0802L18.8125 91.5577L19.7083 91.4481L19.2953 96.0802L30.2245 94.6675L19.2953 96.0802Z" fill="#DADAE0"/>
<path d="M19.2949 96.0802L19.7079 91.4481L130.412 77.6378L131.062 81.6509L104.169 85.122L95.1404 86.2859L30.2241 94.6675L19.2949 96.0802Z" fill="#007CAC"/>
<path d="M20.6068 81.3784L22.523 95.6537L7.41224 97.644C6.03964 97.8247 4.77636 96.8858 4.58808 95.5471L3.22155 85.6965C3.03024 84.3282 4.03843 83.0784 5.44444 82.9333L20.6068 81.3784Z" fill="#779AAA"/>
<path d="M9.44989 82.5216L11.445 97.1109L7.41224 97.644C6.03964 97.8246 4.77636 96.8858 4.58808 95.5471L3.22155 85.6965C3.03024 84.3282 4.03843 83.0784 5.44444 82.9333L9.44989 82.5216Z" fill="#A8E7FF"/>
<path d="M12.5469 82.2047L14.5329 96.7051L15.1767 96.6222L13.1907 82.1395L12.5469 82.2047ZM18.9422 96.1246L16.8712 81.7634L16.2244 81.8286L18.2984 96.2105L18.9422 96.1246Z" fill="#608895"/>
<path d="M130.849 77.694C129.528 78.0672 128.122 77.2379 127.712 75.843C127.302 74.448 128.04 73.0205 129.361 72.6473C130.685 72.2771 132.091 73.1064 132.501 74.4984C132.911 75.8933 132.173 77.3238 130.849 77.694Z" fill="#EFEEF3"/>
<path d="M131.332 81.5739C130.13 81.9115 128.891 81.2925 128.566 80.1937C128.241 79.092 128.954 77.9251 130.157 77.5904C131.36 77.2528 132.596 77.8717 132.92 78.9705C133.245 80.0723 132.535 81.2362 131.332 81.5739Z" fill="#EFEEF3"/>
<path d="M129.914 72.7125C128.711 73.0501 127.436 72.2978 127.063 71.0332C126.689 69.7686 127.363 68.4713 128.566 68.1337C129.765 67.7961 131.044 68.5483 131.417 69.813C131.791 71.0776 131.117 72.3748 129.914 72.7125Z" fill="#EFEEF3"/>
<path d="M48.8123 177.764C51.1962 168.171 53.4069 158.533 54.6824 148.745C55.0893 145.612 55.484 142.472 55.9304 139.342C56.4163 135.95 56.972 132.728 57.6614 127.921C57.9104 126.183 61.597 126.215 63.3492 125.819C67.7282 124.829 72.2377 125.354 76.6774 125.425C77.0904 125.431 77.5398 125.392 77.9984 125.354C79.3558 125.244 80.7983 125.131 81.603 126.174C82.7539 127.667 82.7266 130.291 82.8298 132.062C83.7469 147.779 81.8125 163.471 81.36 179.17C81.1718 185.763 81.2872 192.306 81.6242 198.892C81.6911 200.195 81.354 201.487 79.8326 201.676C79.1341 201.765 77.7099 201.703 77.0722 201.345C75.6328 200.536 74.7309 197.868 74.2359 196.449C73.5283 194.411 73.1457 192.279 72.7722 190.164C72.0828 186.246 71.7397 182.277 71.4664 178.315C70.5796 165.399 69.8903 157.061 70.8742 143.02C69.5289 150.575 69.5563 155.509 67.1815 162.819C64.9283 169.752 61.6425 176.306 58.2414 182.76C56.3586 186.338 54.5639 189.966 52.5172 193.464C51.4968 195.208 50.4127 196.92 49.2253 198.564C48.1868 200.009 47.3638 201.469 45.4112 201.694C44.57 201.789 43.7197 201.691 42.8816 201.593C42.6478 201.567 42.3775 201.516 42.2682 201.315C42.2014 201.188 42.2166 201.031 42.2378 200.889C42.8148 197.047 44.7674 193.301 45.8242 189.545C46.9205 185.642 47.8345 181.694 48.8123 177.764Z" fill="#1B50A3"/>
<path d="M56.0332 128.292C56.2792 128.12 56.5677 127.989 56.8501 127.874C57.4089 127.652 57.9919 127.474 58.5841 127.347C59.9628 127.054 59.8474 127.856 60.1207 128.786C60.4547 129.915 61.1471 131.022 61.5874 132.121C62.0763 133.329 62.96 134.381 61.5358 135.169C60.81 135.568 59.9962 135.82 59.1672 135.9C59.0032 135.915 58.8331 135.924 58.6843 135.862C58.5416 135.802 58.4353 135.687 58.3381 135.571C57.7004 134.819 57.0809 133.99 56.5009 133.193C55.6719 132.05 54.9977 131.073 55.2437 129.595C55.2862 129.325 55.3652 129.053 55.5109 128.819C55.6445 128.608 55.8237 128.437 56.0332 128.292Z" fill="#F4C7AE"/>
<path d="M56.7739 136.439C58.5474 136.546 60.2297 136.51 61.7694 135.548C63.227 134.638 64.2291 133.261 64.9215 131.736C65.0915 131.369 64.5328 131.046 64.3627 131.416C63.7159 132.841 62.8079 134.147 61.4414 135.003C60.0111 135.903 58.4138 135.906 56.7739 135.808C56.3579 135.785 56.3579 136.415 56.7739 136.439Z" fill="#4696D0"/>
<path d="M82.5567 138.806C78.9217 139.339 78.2232 133.614 77.8102 131.173C77.7434 130.773 77.1179 130.942 77.1847 131.342C77.5552 133.525 78.0198 135.879 79.2041 137.81C80.0453 139.185 81.0899 139.656 82.7297 139.413C83.1397 139.353 82.9666 138.743 82.5567 138.806Z" fill="#4696D0"/>
<path d="M76.1426 200.592C75.6871 200.041 75.3014 199.319 74.9795 198.593C74.9825 198.543 74.9825 198.495 74.9856 198.448C75.3044 199.186 75.6901 199.935 76.1486 200.515C76.1456 200.542 76.1456 200.566 76.1426 200.592Z" fill="#C5D2DE"/>
<path d="M79.1004 201.712C78.3807 201.712 77.4727 201.608 77.002 201.345C76.6892 201.17 76.4037 200.909 76.1426 200.592C76.1456 200.566 76.1456 200.542 76.1487 200.515C76.428 200.865 76.7347 201.155 77.0718 201.345C77.5364 201.605 78.4201 201.709 79.1368 201.712C79.1246 201.712 79.1125 201.712 79.1004 201.712Z" fill="#423C58"/>
<path d="M57.6943 127.578C58.3533 126.186 61.6512 126.186 63.2789 125.819C65.3439 125.354 67.4331 125.223 69.5346 125.223C69.5467 125.223 69.5558 125.223 69.5649 125.223C67.4787 125.223 65.3985 125.354 63.3487 125.819C61.7302 126.183 58.4626 126.186 57.7763 127.554C57.749 127.56 57.7217 127.569 57.6943 127.578ZM76.7741 125.425C76.7407 125.425 76.7104 125.425 76.677 125.425C76.6709 125.425 76.6618 125.425 76.6557 125.422H76.7681C76.7711 125.422 76.7711 125.425 76.7741 125.425Z" fill="#C5D2DE"/>
<path d="M79.1367 201.712C78.4201 201.709 77.5364 201.605 77.0718 201.345C76.7347 201.155 76.428 200.865 76.1486 200.515C75.6901 199.935 75.3044 199.186 74.9855 198.448C75.1526 194.654 76.5555 190.763 77.3815 187.152C78.4413 182.52 79.1246 177.814 79.5467 173.09C80.3727 163.82 80.1935 154.384 80.0265 145.167C79.9901 143.204 79.9384 141.169 79.073 139.395C77.2236 135.613 72.3527 136.208 68.7845 135.613C66.8987 135.302 65.022 134.911 63.1848 134.387C63.9166 133.617 64.4815 132.707 64.9218 131.736C65.0372 131.484 64.8125 131.253 64.6029 131.253C64.5088 131.253 64.4177 131.301 64.363 131.416C63.8984 132.438 63.2971 133.4 62.4924 134.179C62.4317 134.162 62.3709 134.141 62.3102 134.123C62.3254 133.531 61.8851 132.856 61.5875 132.121C61.1471 131.022 60.4548 129.915 60.1207 128.786C59.8869 127.989 59.9385 127.285 59.0882 127.285C58.9485 127.285 58.7815 127.305 58.5841 127.347C58.3108 127.406 58.0436 127.474 57.7764 127.554C58.4627 126.186 61.7302 126.183 63.3488 125.819C65.3986 125.354 67.4787 125.223 69.565 125.223C71.9124 125.223 74.2719 125.386 76.6071 125.425L76.6557 125.422C76.6618 125.425 76.6709 125.425 76.677 125.425C76.7104 125.425 76.7408 125.425 76.7742 125.425C79.0669 126.23 81.1774 127.587 82.5925 129.461C82.6958 130.38 82.714 131.301 82.7596 132.062C83.6767 147.779 81.7392 163.471 81.2898 179.17C81.1015 185.763 81.2169 192.306 81.554 198.892C81.6208 200.196 81.2837 201.487 79.7623 201.676C79.5923 201.7 79.3736 201.712 79.1367 201.712ZM77.5425 130.945C77.3542 130.945 77.1447 131.102 77.1841 131.342C77.5546 133.525 78.0192 135.879 79.2036 137.81C79.905 138.957 80.7493 139.475 81.9609 139.475C82.2038 139.475 82.4559 139.454 82.7292 139.413C83.1209 139.356 82.9782 138.8 82.6108 138.8C82.5925 138.8 82.5743 138.803 82.5561 138.806C82.3952 138.829 82.2403 138.838 82.0915 138.838C78.8604 138.838 78.2045 133.507 77.8097 131.173C77.7824 131.013 77.667 130.945 77.5425 130.945Z" fill="#1B50A3"/>
<path d="M62.3103 134.123C61.4144 133.845 60.5308 133.531 59.6653 133.175C58.8757 132.853 57.822 132.382 57.0264 131.733C57.2025 130.566 57.3908 129.31 57.5912 127.921C57.6094 127.797 57.6428 127.684 57.6944 127.578C57.7218 127.569 57.7491 127.56 57.7764 127.554C58.0437 127.474 58.3109 127.406 58.5842 127.347C58.7816 127.305 58.9486 127.285 59.0883 127.285C59.9386 127.285 59.887 127.989 60.1208 128.786C60.4548 129.915 61.1472 131.022 61.5875 132.121C61.8851 132.856 62.3255 133.531 62.3103 134.123Z" fill="#D8AE9A"/>
<path d="M63.1846 134.387C62.9538 134.319 62.723 134.25 62.4922 134.179C63.2969 133.4 63.8982 132.438 64.3628 131.416C64.4175 131.301 64.5086 131.253 64.6027 131.253C64.8123 131.253 65.037 131.484 64.9216 131.736C64.4812 132.707 63.9164 133.617 63.1846 134.387Z" fill="#4186BA"/>
<path d="M81.9613 139.475C80.7496 139.475 79.9054 138.957 79.204 137.81C78.0196 135.879 77.555 133.525 77.1845 131.342C77.145 131.102 77.3546 130.945 77.5429 130.945C77.6674 130.945 77.7828 131.013 77.8101 131.173C78.2049 133.507 78.8608 138.838 82.0919 138.838C82.2407 138.838 82.3956 138.829 82.5565 138.806C82.5747 138.803 82.5929 138.8 82.6112 138.8C82.9786 138.8 83.1213 139.356 82.7296 139.413C82.4563 139.454 82.2042 139.475 81.9613 139.475Z" fill="#4186BA"/>
<path d="M84.3566 87.5209C83.9345 87.7519 83.5458 88.0185 83.2117 88.3591C81.827 89.7748 82.2643 92.4581 84.1622 93.2636C86.4337 94.2292 89.191 93.5717 91.4686 92.9616C96.8983 91.5074 102.006 89.1676 106.935 86.5406C107.642 86.1645 108.72 85.7291 109.525 85.1279C109.911 84.8376 110.226 84.5059 110.412 84.1298L84.3566 87.5209Z" fill="#F4C7AE"/>
<path d="M84.9491 97.0783C84.5422 95.1029 83.9713 93.163 83.1787 91.2823C82.2859 89.1617 80.8161 86.6147 78.7359 85.3885C76.7864 84.2394 72.9419 85.3382 70.7797 85.8268C68.7421 86.2889 65.681 86.9108 64.029 88.2436C62.5016 89.4697 62.6747 92.538 62.8569 94.3151C63.0694 96.3586 63.5796 98.3637 63.7648 100.41C64.105 104.145 63.3488 107.888 62.4408 111.534C61.3567 115.9 60.0479 120.221 58.3261 124.385C58.071 125.001 57.8007 125.647 57.8706 126.307C57.992 127.439 59.0397 128.238 60.0449 128.816C66.6528 132.63 74.7426 132.044 82.1674 131.689C82.7809 131.659 83.4307 131.612 83.9348 131.265C84.5604 130.833 84.8033 130.048 84.9704 129.313C85.8874 125.348 85.9209 121.243 85.9026 117.173C85.8723 110.581 86.2974 103.621 84.9491 97.0783Z" fill="#D8D8D8"/>
<path d="M73.6134 87.3492C72.1315 86.9079 70.6648 86.4192 69.2163 85.8802C69.0675 85.8239 68.9126 85.7646 68.8002 85.6521C68.4966 85.35 68.5512 84.6777 68.5269 84.2808C68.4966 83.7625 68.5148 83.2413 68.5543 82.723C68.6211 81.7753 68.785 80.8245 68.7759 79.8709C68.7699 79.1068 68.7729 78.3071 69.1312 77.6289C69.5594 76.8115 70.4431 76.2961 71.3572 76.0858C72.2712 75.8726 73.2278 75.92 74.1661 75.9674C74.4364 75.9822 74.731 76.0029 74.9375 76.1747C75.6329 76.7552 75.4719 77.9014 75.56 78.6951C75.6875 79.8531 75.9548 80.9963 76.2129 82.1307C76.3344 82.6608 76.5014 83.1761 76.635 83.7033C76.7382 84.1179 76.9539 84.6688 76.7899 85.0746C76.4224 85.9779 75.6086 86.8042 74.819 87.3669C74.7127 87.441 74.5974 87.515 74.4668 87.5357C74.3301 87.5594 74.1935 87.5209 74.0629 87.4824C73.9141 87.441 73.7622 87.3936 73.6134 87.3492Z" fill="#F4C7AE"/>
<path d="M69.8657 82.2758C71.715 83.4308 74.3023 84.1179 76.4979 83.5108C76.4098 83.0547 76.3157 82.5956 76.2094 82.1307C75.9513 80.9963 75.684 79.8531 75.5565 78.6951C75.4684 77.9014 75.6294 76.7552 74.934 76.1747C74.7275 76.0029 74.4329 75.9822 74.1626 75.9674C73.2212 75.92 72.2677 75.8726 71.3537 76.0858C70.4396 76.2961 69.5559 76.8115 69.1277 77.6289C68.7694 78.3071 68.7664 79.1068 68.7724 79.8709C68.7755 80.3684 68.7512 80.8986 68.7178 81.4435C69.0822 81.7456 69.4618 82.024 69.8657 82.2758Z" fill="#EAAE99"/>
<path d="M64.6119 72.4193C65.0917 75.7186 66.9562 78.8787 69.8684 80.6972C72.0974 82.0892 75.4074 82.8089 77.8004 81.3843C81.0102 79.474 81.657 74.833 81.575 71.5011C81.4779 67.5621 79.8897 63.1492 75.9723 61.3959C73.221 60.1638 68.9058 60.0394 66.938 62.6102C64.9003 65.2697 64.1138 68.9778 64.6119 72.4193Z" fill="#F6AE84"/>
<path d="M102.507 69.6353C104.056 71.0302 105.146 72.8013 103.552 73.7194C103.033 74.0186 102.398 73.5477 102.07 73.0531C101.742 72.5585 101.438 71.9484 100.852 71.818C100.397 71.7144 99.9413 71.9513 99.5343 72.1764C98.0129 73.0235 96.4946 73.8705 94.9732 74.7205C94.7302 74.8538 94.4843 74.993 94.2109 75.0611C93.3637 75.2684 92.4466 74.7027 92.1004 73.9208C91.7512 73.136 91.8878 72.2119 92.2583 71.436C93.5793 68.6875 95.5532 68.4091 98.347 68.3114C100.005 68.2551 101.274 68.5246 102.507 69.6353Z" fill="#F4C7AE"/>
<path d="M77.0235 61.2211C76.1884 61.3188 75.3746 61.6091 74.6761 62.0711C73.2731 62.9952 72.4107 64.5145 71.1474 65.6163C69.9601 66.6499 68.466 67.2778 67.0266 67.9412C66.7533 68.0656 66.4739 68.2018 66.2917 68.4299C66.0548 68.7231 66.0123 69.1259 66.0366 69.499C66.1672 71.6107 67.6187 73.4825 66.5012 75.5942C66.3858 75.8134 66.2431 76.0236 66.0396 76.1717C64.8006 77.0721 63.6892 74.8064 63.2519 73.9801C62.596 72.7451 62.1921 71.3856 62.0554 70.0025C61.7821 67.2304 62.3348 63.5757 64.6093 61.7128C66.814 59.9091 69.5987 58.7096 72.5048 58.6948C73.4796 58.6889 74.503 58.8221 75.4383 59.0887C75.9971 59.2457 76.3827 59.4619 76.817 59.8173C77.0782 60.0305 77.3363 60.1786 77.5367 60.46C77.5792 60.5192 77.889 61.1915 77.8647 61.1885C77.5853 61.1767 77.3029 61.1885 77.0235 61.2211Z" fill="#423B5C"/>
<path d="M73.1597 76.761C74.146 76.5716 75.1086 76.4435 76.0763 76.1762C77.0488 75.9082 77.9815 75.5709 78.841 75.1748C78.8386 75.1752 78.8316 75.787 78.8091 75.8552C78.7192 76.1141 78.5547 76.3738 78.3226 76.6135C77.5675 77.3905 75.6668 77.8538 74.3994 77.5929C74.0608 77.524 73.7648 77.4039 73.5432 77.2476C73.5016 77.2182 73.0483 76.7827 73.1597 76.761Z" fill="white"/>
<path d="M76.9412 66.9164C77.9343 66.4663 79.2218 66.3567 80.0175 67.2126C80.2999 67.5147 80.7554 67.0645 80.476 66.7654C79.4739 65.6903 77.8644 65.8029 76.6163 66.3715C76.2367 66.5403 76.5677 67.0853 76.9412 66.9164Z" fill="#423B5C"/>
<path d="M44.6761 201.733H44.6731H44.6761ZM44.6792 201.733C44.91 201.733 45.1408 201.724 45.3716 201.697C45.1408 201.724 44.91 201.733 44.6792 201.733ZM45.3807 201.697C45.3928 201.697 45.4019 201.694 45.411 201.694C45.4201 201.694 45.4262 201.691 45.4353 201.691C45.4262 201.691 45.4201 201.694 45.411 201.694C45.4019 201.694 45.3928 201.697 45.3807 201.697ZM43.0788 201.617C43.0727 201.617 43.0667 201.617 43.0636 201.617C43.0667 201.617 43.0727 201.617 43.0788 201.617ZM43.0272 201.611C43.0151 201.611 43.0059 201.608 42.9938 201.608C43.0059 201.608 43.0151 201.611 43.0272 201.611ZM42.9908 201.608C42.9786 201.605 42.9634 201.605 42.9482 201.602C42.9634 201.605 42.9786 201.605 42.9908 201.608Z" fill="#423C58"/>
<path d="M45.8477 189.456C45.8477 189.453 45.8507 189.453 45.8507 189.45C45.8507 189.453 45.8477 189.453 45.8477 189.456ZM45.875 189.362V189.359V189.362ZM45.9205 189.193C45.9236 189.184 45.9266 189.175 45.9296 189.166C45.9266 189.175 45.9236 189.184 45.9205 189.193ZM45.9448 189.11C46.5613 186.892 47.117 184.661 47.6667 182.428C47.6667 182.428 47.6667 182.428 47.6697 182.425C47.12 184.661 46.5613 186.892 45.9448 189.11Z" fill="#C5D2DE"/>
<path d="M44.6764 201.733H44.6734C44.142 201.733 43.6075 201.679 43.0791 201.617C43.073 201.617 43.067 201.617 43.0639 201.617C43.0518 201.614 43.0396 201.614 43.0275 201.611C43.0154 201.611 43.0062 201.608 42.9941 201.608H42.9911C42.9789 201.605 42.9637 201.605 42.9485 201.602C42.9334 201.599 42.9151 201.599 42.8969 201.596C42.8908 201.596 42.8878 201.596 42.8817 201.593C42.6479 201.567 42.3776 201.516 42.2683 201.315C42.2349 201.25 42.2197 201.176 42.2197 201.102C42.2197 201.099 42.2197 201.093 42.2197 201.09C42.2197 201.022 42.2288 200.954 42.2379 200.889C42.8149 197.047 44.7675 193.301 45.8243 189.545C45.8334 189.516 45.8425 189.486 45.8486 189.456C45.8486 189.453 45.8517 189.453 45.8517 189.45C45.8577 189.421 45.8668 189.391 45.876 189.362V189.359C45.8911 189.302 45.9063 189.249 45.9215 189.193C45.9245 189.184 45.9276 189.175 45.9306 189.166C45.9367 189.145 45.9397 189.128 45.9458 189.11C46.5623 186.892 47.121 184.661 47.6707 182.425C48.9825 180.648 50.3976 178.936 51.8371 177.29C55.9184 172.616 60.2276 168.348 63.2825 162.917C66.0763 157.956 68.038 152.489 69.5594 147.11C69.8935 145.928 70.1668 144.711 70.5373 143.55C70.5616 143.476 70.7954 143.02 70.8743 143.02C69.5291 150.575 69.5564 155.51 67.1817 162.819C67.0602 163.186 66.9387 163.551 66.8142 163.915C64.5792 170.442 61.4635 176.647 58.2415 182.76C56.4893 186.086 54.8161 189.456 52.9455 192.723C52.8058 192.969 52.6631 193.218 52.5173 193.464C51.4969 195.208 50.4128 196.92 49.2255 198.564C48.1899 200.003 47.37 201.457 45.4356 201.691C45.4265 201.691 45.4204 201.694 45.4113 201.694C45.4022 201.694 45.3931 201.697 45.381 201.697C45.3779 201.697 45.3749 201.697 45.3719 201.697C45.1411 201.724 44.9103 201.733 44.6795 201.733C44.6764 201.733 44.6764 201.733 44.6764 201.733Z" fill="#1B50A3"/>
<path d="M70.8682 143.127C70.8712 143.091 70.8742 143.056 70.8742 143.02C70.8742 143.056 70.8712 143.091 70.8682 143.127Z" fill="#C5D2DE"/>
<path d="M70.8555 143.301C70.8615 143.242 70.8646 143.183 70.8676 143.127C70.8707 143.091 70.8737 143.056 70.8737 143.02C70.9162 143.02 70.8858 143.162 70.8555 143.301Z" fill="#4575AA"/>
<path d="M70.2909 97.9046C70.3061 98.8997 70.3213 99.8978 70.3395 100.893C70.3486 101.524 70.3577 102.161 70.1968 102.771C70.0328 103.381 69.6805 103.967 69.1218 104.278C67.9466 104.933 66.0942 103.946 65.4321 102.945C64.424 101.42 64.0656 99.7024 64.0049 97.8957C66.1002 97.8898 68.1956 97.8869 70.2909 97.8809V97.9046Z" fill="#7CBF9E"/>
<path d="M66.2764 74.8094C67.0447 76.1066 67.0022 77.5341 66.1822 77.9961C65.3623 78.4582 64.0747 77.7799 63.3064 76.4827C62.5382 75.1855 62.5807 73.7609 63.4006 73.2989C64.2205 72.8369 65.5081 73.5121 66.2764 74.8094Z" fill="#F4C7AE"/>
<path d="M72.0069 71.1724C72.1952 72.0194 71.9735 72.7836 71.5149 72.8783C71.0533 72.9761 70.531 72.3689 70.3428 71.5219C70.1575 70.6778 70.3792 69.9137 70.8377 69.8189C71.2963 69.7212 71.8216 70.3283 72.0069 71.1724Z" fill="#423B5C"/>
<path d="M79.3613 69.7419C79.4311 70.6038 79.1062 71.3323 78.6385 71.3679C78.1709 71.4064 77.7336 70.737 77.6637 69.8752C77.5939 69.0133 77.9188 68.2847 78.3865 68.2492C78.8541 68.2107 79.2914 68.88 79.3613 69.7419Z" fill="#423B5C"/>
<path d="M71.4995 67.4377C69.9325 67.2689 68.5721 68.341 68.0194 69.6945C67.8615 70.0736 68.4901 70.2365 68.6419 69.8633C69.0974 68.7586 70.2392 67.9323 71.4995 68.0685C71.9125 68.113 71.9094 67.4821 71.4995 67.4377Z" fill="#423B5C"/>
<path d="M76.7802 84.3845L74.5664 87.4587L77.8673 90.1805V84.9413L76.7802 84.3845Z" fill="#FEFEFE"/>
<path d="M65.5654 86.9049L68.59 84.8643L74.5663 87.4587L73.0236 91.2497L65.5654 86.9049Z" fill="#FEFEFE"/>
<path d="M59.2067 129.073C57.5 129.147 56.3855 127.741 56.3278 126.026C56.3066 125.422 56.3157 124.818 56.3491 124.213C56.6163 119.454 58.6084 115.065 60.3211 110.672C61.8122 106.843 62.7262 102.765 62.6139 98.651C62.5197 95.3605 61.8729 92.0582 60.6036 88.9988C60.5793 88.9337 60.5519 88.8655 60.5641 88.7974C60.5762 88.7411 60.6157 88.6908 60.6521 88.6434C61.4296 87.7253 62.4803 87.1389 63.5097 86.5376C64.6272 85.889 65.7053 85.2937 66.9564 84.9087C67.1811 84.8436 68.0132 84.497 68.1802 84.5385C69.1732 84.7725 70.2634 87.8201 70.6582 88.6671C74.7699 97.5492 73.1088 108.152 68.9333 116.711C66.8957 120.887 64.5574 125.016 61.1411 128.226C60.8647 128.487 60.5702 128.745 60.2088 128.872C59.8565 128.993 59.5225 129.059 59.2067 129.073Z" fill="#0781B1"/>
<path d="M49.7198 104.601C48.5537 106.523 47.172 108.605 46.7893 110.773C46.3035 113.542 47.0809 116.152 47.9676 118.788C49.6378 123.748 52.1431 128.357 55.0827 132.675C55.2041 132.85 55.3651 133.048 55.5837 133.033C55.69 133.027 55.7841 132.968 55.8722 132.912C57.2995 131.994 58.7267 131.073 60.154 130.154C60.3787 130.009 60.6156 129.852 60.7279 129.612C60.895 129.26 60.7492 128.851 60.6034 128.49C59.3098 125.303 58.0161 122.113 56.7195 118.924C56.1516 117.517 55.5746 116.089 55.4288 114.585C55.2072 112.343 55.9724 110.086 57.1901 108.17C58.4079 106.254 60.0599 104.64 61.7574 103.108C62.3587 102.566 62.9873 102.01 63.3274 101.281C64.4176 98.9442 64.2354 96.2283 63.9955 93.7405C63.8679 92.4196 64.0683 88.0392 61.9244 88.0836C61.5266 88.0896 61.1743 88.3206 60.8585 88.5575C58.4048 90.4086 56.7923 93.0445 55.2466 95.6152C53.5734 98.3903 51.7726 101.08 50.1449 103.884C50.0083 104.121 49.8655 104.358 49.7198 104.601Z" fill="#0781B1"/>
<path d="M49.7198 104.601L50.0969 104.83L50.098 104.828L49.7198 104.601ZM46.7893 110.773L46.355 110.697L46.3549 110.697L46.7893 110.773ZM47.9676 118.788L47.5495 118.928L47.5496 118.928L47.9676 118.788ZM55.0827 132.675L54.718 132.923L54.7205 132.927L55.0827 132.675ZM55.5837 133.033L55.5592 132.593L55.5539 132.593L55.5837 133.033ZM55.8722 132.912L56.1097 133.283L56.1108 133.283L55.8722 132.912ZM60.154 130.154L60.3926 130.525L60.3933 130.525L60.154 130.154ZM60.7279 129.612L60.3294 129.424L60.3285 129.425L60.7279 129.612ZM60.6034 128.49L61.0125 128.325L61.0121 128.324L60.6034 128.49ZM56.7195 118.924L56.3104 119.089L56.3109 119.09L56.7195 118.924ZM55.4288 114.585L55.8678 114.542L55.8678 114.541L55.4288 114.585ZM61.7574 103.108L61.4621 102.781L61.462 102.781L61.7574 103.108ZM63.3274 101.281L63.727 101.468L63.7271 101.467L63.3274 101.281ZM63.9955 93.7405L64.4345 93.6981L64.4345 93.6981L63.9955 93.7405ZM61.9244 88.0836L61.931 88.5247L61.9335 88.5246L61.9244 88.0836ZM60.8585 88.5575L60.5938 88.2047L60.5929 88.2054L60.8585 88.5575ZM55.2466 95.6152L55.6244 95.843L55.6246 95.8425L55.2466 95.6152ZM50.1449 103.884L49.7634 103.663L49.7629 103.664L50.1449 103.884ZM49.3427 104.372C48.198 106.259 46.7556 108.427 46.355 110.697L47.2237 110.85C47.5883 108.784 48.9093 106.787 50.0969 104.83L49.3427 104.372ZM46.3549 110.697C45.8475 113.589 46.6643 116.297 47.5495 118.928L48.3856 118.647C47.4975 116.007 46.7594 113.496 47.2238 110.849L46.3549 110.697ZM47.5496 118.928C49.2359 123.937 51.7624 128.581 54.718 132.923L55.4473 132.427C52.5238 128.132 50.0397 123.56 48.3856 118.647L47.5496 118.928ZM54.7205 132.927C54.7845 133.019 54.8826 133.153 55.0128 133.263C55.1475 133.376 55.3512 133.491 55.6135 133.473L55.5539 132.593C55.5976 132.59 55.6115 132.614 55.5806 132.588C55.5653 132.575 55.5455 132.555 55.5211 132.525C55.4968 132.496 55.4719 132.462 55.4448 132.423L54.7205 132.927ZM55.6083 133.474C55.8491 133.46 56.0399 133.328 56.1097 133.283L55.6347 132.54C55.6124 132.554 55.5957 132.565 55.58 132.574C55.5647 132.583 55.5541 132.589 55.5465 132.593C55.5308 132.6 55.5376 132.594 55.5592 132.593L55.6083 133.474ZM56.1108 133.283C56.8246 132.824 57.5384 132.364 58.252 131.904C58.9656 131.444 59.6791 130.984 60.3926 130.525L59.9154 129.784C59.2016 130.243 58.4878 130.703 57.7742 131.162C57.0606 131.622 56.3471 132.082 55.6336 132.541L56.1108 133.283ZM60.3933 130.525C60.5971 130.393 60.9523 130.173 61.1274 129.8L60.3285 129.425C60.2789 129.531 60.1604 129.625 59.9147 129.784L60.3933 130.525ZM61.1265 129.801C61.2621 129.515 61.2608 129.224 61.2173 128.978C61.1747 128.736 61.0855 128.506 61.0125 128.325L60.1944 128.655C60.2672 128.835 60.3237 128.99 60.3486 129.131C60.3727 129.268 60.3608 129.357 60.3294 129.424L61.1265 129.801ZM61.0121 128.324C59.7185 125.137 58.4248 121.948 57.128 118.758L56.3109 119.09C57.6075 122.279 58.901 125.469 60.1948 128.656L61.0121 128.324ZM57.1285 118.759C56.5561 117.341 56.0064 115.973 55.8678 114.542L54.9898 114.627C55.1428 116.206 55.7471 117.693 56.3105 119.089L57.1285 118.759ZM55.8678 114.541C55.6586 112.426 56.3798 110.267 57.5624 108.406L56.8179 107.933C55.565 109.905 54.7557 112.26 54.9899 114.628L55.8678 114.541ZM57.5624 108.406C58.7461 106.544 60.3597 104.963 62.0528 103.436L61.462 102.781C59.76 104.316 58.0697 105.963 56.8179 107.933L57.5624 108.406ZM62.0527 103.436C62.637 102.909 63.3419 102.293 63.727 101.468L62.9277 101.094C62.6327 101.726 62.0803 102.223 61.4621 102.781L62.0527 103.436ZM63.7271 101.467C64.875 99.0068 64.6732 96.1733 64.4345 93.6981L63.5564 93.7828C63.7976 96.2833 63.9601 98.8815 62.9277 101.094L63.7271 101.467ZM64.4345 93.6981C64.4036 93.3785 64.394 92.8906 64.36 92.269C64.327 91.6674 64.2719 90.9749 64.1497 90.3193C64.0289 89.6714 63.8354 89.0169 63.501 88.5176C63.1536 87.9989 62.6357 87.6277 61.9153 87.6427L61.9335 88.5246C62.2851 88.5173 62.5461 88.6771 62.7681 89.0085C63.0031 89.3593 63.1694 89.8741 63.2825 90.4809C63.3941 91.0799 63.4468 91.7274 63.4791 92.3172C63.5104 92.887 63.5235 93.442 63.5564 93.7829L64.4345 93.6981ZM61.9178 87.6426C61.362 87.6509 60.9059 87.9706 60.5938 88.2047L61.1232 88.9103C61.4428 88.6706 61.6912 88.5282 61.931 88.5247L61.9178 87.6426ZM60.5929 88.2054C58.0605 90.1159 56.4082 92.8275 54.8686 95.388L55.6246 95.8425C57.1765 93.2615 58.7492 90.7013 61.1241 88.9096L60.5929 88.2054ZM54.8689 95.3875C53.217 98.1272 51.3869 100.865 49.7634 103.663L50.5264 104.106C52.1583 101.294 53.9298 98.6534 55.6244 95.843L54.8689 95.3875ZM49.7629 103.664C49.6286 103.897 49.4881 104.13 49.3416 104.374L50.098 104.828C50.243 104.586 50.388 104.346 50.527 104.105L49.7629 103.664Z" fill="#0781B1"/>
<path d="M86.7891 121.258C86.8863 114.754 86.9865 108.241 86.6099 101.743C86.5158 100.099 86.3852 98.4585 86.2273 96.8177C86.1241 95.7544 85.9904 95.8018 86.7861 95.2569C87.3691 94.86 88.3743 94.6941 89.0484 94.4542C93.145 93.0001 97.2446 91.537 101.314 90.0087C104.94 88.6464 108.505 86.9167 111.074 83.9906C107.317 84.7814 103.482 85.1279 99.6527 85.4744C94.4994 85.9394 89.3309 86.4073 84.1563 86.277C82.0488 86.2207 79.7469 85.8772 77.8672 84.9413C78.5778 86.816 79.4888 88.8981 79.5526 90.8854C79.6255 93.2488 79.7894 95.6093 79.8745 97.9727C80.0385 102.608 80.1174 107.246 80.1083 111.884C80.0901 119.066 79.5678 126.014 78.8693 133.143C80.4666 133.27 82.0882 133.128 83.637 132.728C83.9103 132.66 84.1927 132.574 84.4053 132.394C84.6209 132.207 84.7424 131.937 84.8517 131.677C85.6777 129.719 86.2941 127.673 86.5614 125.573C86.7466 124.145 86.7679 122.7 86.7891 121.258Z" fill="#0781B1"/>
<path d="M68.9335 116.711C73.109 108.152 74.7701 97.5492 70.6584 88.6671C70.2636 87.8201 69.1734 84.7725 68.1804 84.5385C68.0134 84.497 67.1813 84.8436 66.9566 84.9087C66.8868 84.9324 66.82 84.962 66.7471 84.9857C66.8351 85.3944 67.075 85.6995 67.2906 86.1586C67.6976 87.0352 67.9132 87.9889 68.1257 88.9248C69.0671 93.0771 69.1916 97.4041 68.4689 101.598C69.0884 101.53 69.72 101.604 70.3092 101.805C70.215 102.46 69.7048 102.972 69.4012 103.564C68.7999 104.731 69.0277 106.12 69.1795 107.418C69.5773 110.779 69.3556 114.206 68.5418 117.493C68.6724 117.233 68.806 116.972 68.9335 116.711Z" fill="#8DDCFB"/>
<path d="M83.6613 102.415C83.1997 99.421 82.7715 96.4179 82.2917 93.4236C81.8757 90.5804 80.8948 88.0985 79.6437 85.6225C79.0272 85.4418 78.4259 85.2197 77.8672 84.9413C78.5778 86.816 79.4888 88.8981 79.5526 90.8854C79.6255 93.2488 79.7894 95.6093 79.8745 97.9727C80.0385 102.608 80.1174 107.246 80.1083 111.884C80.1053 113.172 80.081 114.452 80.0476 115.725C80.9555 112.965 82.3433 110.311 82.7169 107.435C82.9385 105.718 82.7897 103.979 82.6379 102.255C82.9537 102.4 83.312 102.457 83.6613 102.415Z" fill="#8DDCFB"/>
<path d="M75.2075 89.2891C77.4547 95.7544 76.9202 103.088 76.5922 109.814C76.2552 116.691 74.4939 123.2 73.2154 129.938C73.1395 130.335 73.762 130.504 73.8379 130.104C75.1316 123.304 76.8989 116.753 77.2391 109.814C77.5701 103.037 78.1015 95.6508 75.83 89.1202C75.6994 88.7382 75.0708 88.9011 75.2075 89.2891Z" fill="#FEFEFE"/>
<path d="M259.761 153.312L251.231 150.365L246.743 158.175L247.013 158.27C245.331 158.16 243.661 158.249 242.033 158.522L242.294 158.403L236.989 151.091L228.823 154.891L231.31 163.509L231.571 163.388C230.329 164.451 229.206 165.662 228.234 167.004L228.328 166.737L219.282 165.227L216.26 173.543L224.268 177.924L224.362 177.66C224.253 179.301 224.344 180.93 224.623 182.517L224.499 182.262L217.004 187.434L220.9 195.398L229.737 192.975L229.613 192.72C230.703 193.932 231.942 195.027 233.321 195.975L233.047 195.88L231.499 204.706L240.026 207.653L244.517 199.843L244.247 199.751C245.929 199.858 247.599 199.769 249.227 199.497L248.966 199.615L254.268 206.927L262.434 203.128L259.947 194.509L259.689 194.63C260.931 193.567 262.051 192.359 263.026 191.014L262.929 191.281L271.978 192.791L275 184.475L266.992 180.095L266.895 180.358C267.007 178.717 266.916 177.088 266.634 175.501L266.758 175.756L274.253 170.585L270.36 162.621L261.523 165.043L261.644 165.298C260.557 164.087 259.315 162.994 257.939 162.043L258.21 162.138L259.761 153.312Z" fill="#929292"/>
<path d="M251.8 162.019C261.423 165.342 266.461 175.643 263.054 185.029C259.643 194.411 249.082 199.325 239.458 196.002C229.838 192.676 224.8 182.375 228.207 172.989C231.614 163.607 242.179 158.693 251.8 162.019Z" fill="#F4F8FF"/>
<path d="M250.266 166.246C257.493 168.742 261.277 176.481 258.717 183.53C256.157 190.579 248.222 194.269 240.995 191.772C233.767 189.276 229.984 181.537 232.544 174.488C235.104 167.439 243.039 163.749 250.266 166.246Z" fill="#929292"/>
<path d="M248.854 170.128C253.883 171.867 256.515 177.251 254.736 182.156C252.953 187.057 247.433 189.625 242.404 187.89C237.375 186.151 234.745 180.77 236.525 175.865C238.307 170.961 243.825 168.393 248.854 170.128Z" fill="#FEFEFE"/>
<path d="M247.323 113.924L241.866 111.348L238.283 116.226L238.459 116.309C237.345 116.116 236.227 116.054 235.122 116.119L235.304 116.057L232.325 110.806L226.601 112.749L227.603 118.669L227.788 118.607C226.88 119.223 226.039 119.948 225.292 120.775L225.374 120.606L219.461 118.947L216.822 124.27L221.824 127.761L221.909 127.593C221.711 128.677 221.648 129.769 221.714 130.845L221.651 130.667L216.267 133.572L218.259 139.158L224.329 138.178L224.265 138C224.897 138.886 225.641 139.703 226.488 140.435L226.312 140.352L224.615 146.118L230.072 148.695L233.652 143.817L233.479 143.734C234.59 143.926 235.711 143.989 236.813 143.923L236.631 143.983L239.61 149.234L245.337 147.291L244.332 141.373L244.15 141.436C245.058 140.817 245.896 140.091 246.646 139.268L246.561 139.436L252.474 141.095L255.116 135.773L250.111 132.281L250.029 132.45C250.226 131.363 250.29 130.273 250.223 129.195L250.284 129.373L255.668 126.467L253.676 120.884L247.609 121.862L247.672 122.042C247.038 121.157 246.294 120.339 245.45 119.608L245.623 119.688L247.323 113.924Z" fill="#929292"/>
<path d="M241.362 119.149C247.521 122.054 250.096 129.278 247.117 135.281C244.135 141.287 236.731 143.799 230.573 140.894C224.417 137.988 221.842 130.765 224.821 124.758C227.8 118.755 235.207 116.243 241.362 119.149Z" fill="#F4F8FF"/>
<path d="M240.02 121.853C244.645 124.036 246.579 129.461 244.341 133.972C242.103 138.483 236.54 140.369 231.915 138.187C227.293 136.004 225.356 130.578 227.594 126.067C229.832 121.56 235.395 119.67 240.02 121.853Z" fill="#929292"/>
<path d="M238.787 124.338C242.006 125.857 243.351 129.633 241.793 132.77C240.238 135.909 236.367 137.221 233.148 135.702C229.932 134.185 228.586 130.409 230.141 127.273C231.699 124.133 235.571 122.821 238.787 124.338Z" fill="#FEFEFE"/>
</svg>
