<svg width="275" height="245" viewBox="0 0 275 245" fill="none" xmlns="http://www.w3.org/2000/svg">
<g clip-path="url(#clip0_966_2)">
<path fill-rule="evenodd" clip-rule="evenodd" d="M141.226 9.38424C107.718 9.38424 93.6036 34.2155 69.4145 53.5218C37.4008 79.0702 5.39171 62.439 0.263326 148.77C-4.29574 225.604 52.6311 157.088 132.895 184.609C213.164 212.134 294.913 223.217 270.651 134.168C246.398 45.1142 219.076 9.38424 141.226 9.38424Z" fill="#CADEF4"/>
<path d="M65.1436 153.243H6.59607C7.15167 151.889 8.44298 150.955 9.93261 150.955C10.0092 150.955 10.0922 150.959 10.1904 150.963L10.5491 150.981L10.6804 150.647C11.5535 148.423 13.6553 146.873 16.0903 146.873C17.1567 146.873 18.1571 147.172 19.0217 147.689L19.5763 148.021L19.7583 147.401C20.8438 143.701 24.158 141.018 28.0596 141.018C28.8534 141.018 29.6232 141.134 30.3567 141.339L30.7755 141.457L30.9498 141.058C32.8803 136.645 37.1635 133.587 42.1239 133.587C48.0047 133.587 52.9371 137.89 54.118 143.652L54.1999 144.052H54.6078C54.666 144.052 54.7222 144.051 54.772 144.05L54.7742 144.05C54.8263 144.048 54.8719 144.047 54.9176 144.047C58.5788 144.047 61.623 146.885 62.0728 150.586L62.1167 150.947L62.4738 151.016C63.6695 151.248 64.6704 152.098 65.1436 153.243Z" fill="white" stroke="#8DDFFF"/>
<path d="M251.062 186.369C252.478 186.643 253.651 187.662 254.178 189.034H220.802H187.425C188.045 187.419 189.562 186.293 191.316 186.293C191.406 186.293 191.501 186.297 191.59 186.305L191.963 186.339L192.1 185.99C193.105 183.44 195.518 181.655 198.316 181.655C199.546 181.655 200.692 182 201.684 182.598L202.24 182.932L202.422 182.31C203.662 178.068 207.458 175.003 211.925 175.003C212.836 175.003 213.718 175.128 214.551 175.37L214.972 175.492L215.148 175.09C217.352 170.045 222.245 166.553 227.912 166.553C234.635 166.553 240.264 171.469 241.614 178.052L241.699 178.468L242.123 178.451C242.243 178.446 242.352 178.442 242.459 178.442C246.657 178.442 250.144 181.699 250.662 185.938L250.706 186.299L251.062 186.369Z" fill="white" stroke="#8DDFFF"/>
<path d="M165.573 48.7614H93.6366C94.2989 46.9876 95.9539 45.7416 97.8801 45.7416C97.9802 45.7416 98.0803 45.7457 98.1804 45.754L98.5507 45.7847L98.6869 45.4391C99.7742 42.6809 102.387 40.7499 105.413 40.7499C106.739 40.7499 107.98 41.1236 109.055 41.7685L109.61 42.1017L109.792 41.4803C111.132 36.9026 115.225 33.5926 120.052 33.5926C121.033 33.5926 121.985 33.732 122.894 33.9889L123.314 34.1074L123.488 33.708C125.865 28.271 131.141 24.5008 137.259 24.5008C144.506 24.5008 150.581 29.8041 152.035 36.9013L152.12 37.3163L152.544 37.3006L152.553 37.3003C152.679 37.2956 152.789 37.2915 152.903 37.2915C157.443 37.2915 161.212 40.8131 161.766 45.3914L161.81 45.7525L162.167 45.822C163.724 46.1251 165.011 47.2523 165.573 48.7614Z" fill="white" stroke="#8DDFFF"/>
<path fill-rule="evenodd" clip-rule="evenodd" d="M128.013 245C185.591 245 232.553 240.867 232.553 235.8C232.553 230.733 185.591 226.599 128.013 226.599C70.4391 226.599 23.4775 230.733 23.4775 235.8C23.4775 240.867 70.4391 245 128.013 245Z" fill="#CADEF4"/>
<path fill-rule="evenodd" clip-rule="evenodd" d="M50.8276 221.636L47.4846 230.096C47.3571 231.02 46.806 233.332 46.8242 234.172C46.897 237.324 60.9568 231.138 57.7414 229.812C57.4544 229.695 56.5207 228.708 56.4069 227.623C56.2201 225.972 57.5136 223.858 57.5136 223.858L50.8276 221.636Z" fill="#F7B57C"/>
<path fill-rule="evenodd" clip-rule="evenodd" d="M46.0405 235.234C46.0405 235.234 46.2591 230.482 47.4388 229.897C48.5501 229.35 50.6224 231.412 52.1982 231.129C53.7741 230.841 57.3084 229.454 57.3084 229.454C63.6711 231.544 68.3986 232.856 67.4968 234.696L46.0405 235.234Z" fill="black"/>
<path fill-rule="evenodd" clip-rule="evenodd" d="M72.6255 223.604L70.7035 229.52C70.5669 230.44 70.0203 232.752 70.0385 233.592C70.1114 236.748 84.1712 230.563 80.9557 229.232C80.6642 229.119 79.7397 228.128 79.6212 227.043C79.4345 225.396 80.728 223.278 80.728 223.278L72.6255 223.604Z" fill="#F7B57C"/>
<path fill-rule="evenodd" clip-rule="evenodd" d="M89.6409 112.229L95.0881 125.284C95.0881 125.284 99.1735 156.659 97.6523 175.541C97.0192 183.443 80.3224 226.043 80.3224 226.043L71.5139 225.024L79.4752 175.408L77.3437 155.81L70.3389 118.211L89.6409 112.229Z" fill="#1B50A3"/>
<path fill-rule="evenodd" clip-rule="evenodd" d="M83.5154 113.932L86.9814 127.629C86.9814 127.629 86.4121 159.277 82.14 177.749C80.35 185.486 57.5683 225.278 57.5683 225.278L49.0059 223.028L64.1769 175.026L61.5718 128.19L63.5484 117.126L83.5154 113.932Z" fill="#1B50A3"/>
<path fill-rule="evenodd" clip-rule="evenodd" d="M69.2549 234.653C69.2549 234.653 69.4826 229.945 70.7442 229.364C71.942 228.779 74.2056 230.822 75.9136 230.539C77.6079 230.247 80.919 229.199 80.919 229.199C87.7872 231.285 93.3938 232.228 92.4191 234.078L69.2549 234.653Z" fill="black"/>
<path fill-rule="evenodd" clip-rule="evenodd" d="M85.4325 46.1239C89.8185 43.963 89.5271 47.4827 90.7203 50.8986C89.1399 52.0639 88.3019 53.0217 87.8282 54.6777C86.4436 53.8285 85.5054 54.2059 84.4943 52.932C82.8547 51.2854 80.6685 47.9875 82.4812 47.5393C83.2099 49.016 83.9478 49.2755 84.8723 49.804C84.722 49.0444 84.4898 48.2989 84.1846 47.5723C83.8157 46.6193 83.1325 45.6473 82.1351 44.666C80.3861 44.4018 79.6437 43.9441 79.9125 43.293C81.9802 42.6702 83.8202 43.6139 85.4325 46.1239Z" fill="#F6AE84"/>
<path fill-rule="evenodd" clip-rule="evenodd" d="M90.625 77.2914C93.8633 94.6398 92.547 100.83 95.0885 125.284C88.5573 133.403 77.3942 125.704 73.4636 127.194C71.7602 127.369 69.1186 127.61 67.5701 130.313C65.5524 127.652 63.7716 125.18 62.2139 122.868C57.2814 115.541 54.5669 109.823 53.3964 104.944C46.1866 76.1497 52.0118 65.8643 68.9364 63.5383C70.3301 66.2936 76.6335 67.5062 78.3961 67.1381C79.5758 66.2559 79.9629 64.1233 80.7782 62.0804C86.0341 62.5144 91.4949 64.8829 94.5738 67.0202C91.6862 63.1844 89.2587 59.3297 87.2911 55.4656C87.6236 53.5926 88.9034 51.9837 91.126 50.6438C110.779 64.7083 118.157 74.036 113.256 78.6361C107.85 81.5943 100.308 81.1461 90.625 77.2914Z" fill="#00BBD4"/>
<path fill-rule="evenodd" clip-rule="evenodd" d="M99.1647 72.6819C95.011 68.412 91.0395 65.3406 87.2456 63.4628C90.1559 64.4394 92.7702 65.7699 94.5738 67.0202C95.9902 68.9121 97.5205 70.7994 99.1647 72.6819ZM73.4636 127.195C71.4869 121.269 66.7639 107.832 63.5256 103.217C64.0995 97.9094 63.4209 91.3702 62.3369 85.2131C64.1587 89.6575 65.8667 95.9892 66.2811 102.868C69.0776 107.657 72.0153 119.697 73.8507 127.062C73.3361 127.095 73.9874 127.171 73.4636 127.195Z" fill="#1B50A3"/>
<path fill-rule="evenodd" clip-rule="evenodd" d="M78.3959 67.1381C76.6334 67.5062 70.3299 66.2936 68.9362 63.5383C69.9245 61.5284 70.3891 59.3297 70.3937 58.1455C70.0384 57.6359 69.624 56.9801 69.1594 56.1733C64.8326 54.7626 63.8033 53.05 66.0578 51.0212C66.6726 51.1628 67.5972 51.9035 68.836 53.234C69.4509 53.017 69.8289 52.5404 69.9655 51.8044C68.4534 49.3746 67.3421 47.3647 66.6362 45.7747C67.6154 42.5004 71.6416 40.8207 77.3347 39.8488C78.027 41.2831 78.7011 42.8165 79.3524 44.4537C80.5912 45.0764 81.4611 48.5442 81.7162 52.7716C82.8138 54.8806 81.8301 56.5225 78.7649 57.702C79.0063 58.7588 80.0082 61.316 80.778 62.0804C79.9627 64.1233 79.5756 66.2559 78.3959 67.1381Z" fill="#F6AE84"/>
<path fill-rule="evenodd" clip-rule="evenodd" d="M77.335 39.8488C71.6418 40.8207 67.6156 42.5004 66.6364 45.7747C67.3424 47.3647 68.4537 49.3746 69.9658 51.8044C69.8291 52.5404 69.4511 53.017 68.8363 53.234C67.5974 51.9035 66.6729 51.1628 66.058 51.0212C63.8035 53.05 64.8328 54.7627 69.1596 56.1734C69.6242 56.9801 70.0386 57.636 70.3939 58.1455C66.9461 58.4003 63.3754 56.2488 62.6193 55.074C56.6165 48.5537 59.873 43.996 61.7813 42.1088C60.5607 34.1824 73.1995 37.5889 77.4807 32.248C80.4912 34.6259 78.97 39.2638 77.335 39.8488Z" fill="black"/>
<path fill-rule="evenodd" clip-rule="evenodd" d="M74.3608 57.9851C75.4266 58.07 77.3668 58.0464 78.7651 57.702C78.8971 58.2776 79.2524 59.2967 79.676 60.2309C78.1183 60.3253 75.249 58.9146 74.3608 57.9851Z" fill="#EA7A53"/>
<path fill-rule="evenodd" clip-rule="evenodd" d="M73.0672 127.237C74.1102 129.785 74.9072 132.29 75.4583 134.753C74.5793 138.386 73.222 140.518 71.3866 141.155C69.2141 141.24 68.5992 139.589 67.9479 138.447C69.1048 137.253 69.706 135.932 69.7561 134.484C68.4762 133.677 68.0618 132.715 68.5081 131.601C68.2075 131.04 67.9297 130.535 67.6792 130.087C68.8953 128.096 70.1705 127.534 71.4685 127.345C72.0014 127.284 72.5343 127.27 73.0672 127.237Z" fill="#F7B57C"/>
<path fill-rule="evenodd" clip-rule="evenodd" d="M66.1624 101.255C77.2663 99.641 85.8698 97.3857 91.9637 94.4888C92.0047 93.4603 92.0366 92.4648 92.0502 91.4504C85.9654 94.1114 77.2207 96.3808 65.8071 98.2538C65.9529 99.2352 66.0713 100.24 66.1624 101.255Z" fill="#1B50A3"/>
<path fill-rule="evenodd" clip-rule="evenodd" d="M78.3958 67.1381C76.6332 67.5062 70.3298 66.2936 68.9361 63.5383C68.5307 63.5949 68.1299 63.6562 67.7383 63.7223C69.0818 66.7135 72.73 68.2988 78.6736 68.4639C80.2313 66.7796 81.2333 64.68 81.6796 62.1747C81.379 62.137 81.0784 62.104 80.7778 62.0804C79.9626 64.1233 79.5754 66.2559 78.3958 67.1381ZM65.0147 93.9038C77.7491 92.4412 86.726 90.2331 91.95 87.2843C91.8954 86.369 91.8134 85.4065 91.6995 84.3591C85.7969 87.5815 76.6423 89.7283 64.2358 90.7993C64.5137 91.7948 64.7778 92.8328 65.0147 93.9038Z" fill="#1B50A3"/>
<path fill-rule="evenodd" clip-rule="evenodd" d="M76.2372 53.5501C77.8586 52.5263 78.7968 52.0215 80.4638 51.1769C81.1288 50.8372 78.765 49.8181 76.0914 53.5076C76.0277 53.5973 76.1097 53.6303 76.2372 53.5501Z" fill="#E87659"/>
<path fill-rule="evenodd" clip-rule="evenodd" d="M71.8877 43.1468C72.8032 43.0005 72.917 43.7554 72.2931 44.0904C65.6116 47.6242 69.6196 43.5053 71.8877 43.1468Z" fill="black"/>
<path fill-rule="evenodd" clip-rule="evenodd" d="M75.6494 41.5851C74.8796 42.1229 75.2941 42.7552 75.9727 42.5617C83.1871 40.448 77.544 40.2499 75.6494 41.5851Z" fill="black"/>
<path fill-rule="evenodd" clip-rule="evenodd" d="M77.2347 49.8842L77.2802 49.87C78.0226 49.502 78.4143 49.2944 78.4962 48.95C78.5691 48.6386 78.3642 48.3555 77.9861 47.8412C77.5717 47.2704 76.9432 46.4069 76.2281 44.9019C76.178 44.7934 76.0459 44.7509 75.9412 44.8028C75.8364 44.8547 75.7909 44.9868 75.8455 45.1C76.5743 46.6381 77.221 47.5251 77.6491 48.1102C77.8951 48.4452 78.1091 48.7377 78.0818 48.8462C78.0454 49.0019 77.517 49.2614 77.0935 49.469C76.9887 49.5209 76.9432 49.653 76.9978 49.7662C77.0388 49.8606 77.139 49.9078 77.2347 49.8842Z" fill="#E87659"/>
<path fill-rule="evenodd" clip-rule="evenodd" d="M78.9244 45.6568C79.4208 45.4775 79.1567 43.3685 77.9452 43.8026C77.2984 44.0338 78.1046 45.9493 78.9244 45.6568Z" fill="black"/>
<path fill-rule="evenodd" clip-rule="evenodd" d="M72.7075 48.0158C73.2085 47.8365 72.9398 45.7275 71.7328 46.1616C71.0815 46.3928 71.8922 48.3083 72.7075 48.0158Z" fill="black"/>
<path fill-rule="evenodd" clip-rule="evenodd" d="M172.984 -7.62939e-06H178.094C178.614 -7.62939e-06 179.042 0.599188 179.042 1.32577V200.117H172.032V1.32577C172.032 0.599188 172.46 -7.62939e-06 172.984 -7.62939e-06Z" fill="#1B50A3"/>
<g filter="url(#filter0_i_966_2)">
<path fill-rule="evenodd" clip-rule="evenodd" d="M166.89 200.117H184.184C184.716 200.117 185.081 200.636 185.149 201.24L188.857 234.111C188.925 234.719 188.419 235.234 187.896 235.234H163.178C162.654 235.234 162.149 234.724 162.217 234.111L165.929 201.24C165.997 200.627 166.362 200.117 166.89 200.117Z" fill="#2BC3FF"/>
</g>
<g filter="url(#filter1_i_966_2)">
<path fill-rule="evenodd" clip-rule="evenodd" d="M158.264 9.18136L230.572 5.38803C230.604 5.38803 242.117 11.932 245.369 13.5125C246.526 14.074 246.175 14.843 245.592 15.3337C242.468 17.9428 231.61 26.0437 231.583 26.0437L159.275 29.8371C158.087 29.8984 157.075 29.2049 157.03 28.2943L156.183 10.9506C156.137 10.04 157.075 9.24269 158.264 9.18136Z" fill="#2BC3FF"/>
</g>
<g filter="url(#filter2_i_966_2)">
<path fill-rule="evenodd" clip-rule="evenodd" d="M137.705 101.439L220.037 98.5416C220.069 98.5416 232.202 90.0161 235.663 87.9118C236.893 87.1616 236.397 86.3313 235.668 85.8406C231.783 83.2032 218.384 75.1494 218.356 75.1494L136.029 78.051C134.672 78.0982 133.624 78.9805 133.697 80.009L135.109 99.6504C135.182 100.684 136.352 101.486 137.705 101.439Z" fill="#2BC3FF"/>
</g>
<g filter="url(#filter3_i_966_2)">
<path fill-rule="evenodd" clip-rule="evenodd" d="M149.242 159.938L220.506 157.428C220.538 157.428 231.041 150.049 234.033 148.228C235.099 147.581 234.671 146.859 234.038 146.435C230.676 144.151 219.081 137.183 219.053 137.183L147.789 139.693C146.618 139.73 145.712 140.495 145.776 141.386L146.996 158.39C147.06 159.282 148.071 159.976 149.242 159.938Z" fill="#2BC3FF"/>
</g>
<g filter="url(#filter4_i_966_2)">
<path fill-rule="evenodd" clip-rule="evenodd" d="M214.79 41.2784L132.691 36.9755C132.654 36.9755 119.578 44.4065 115.889 46.1993C114.577 46.841 114.974 47.7091 115.638 48.2659C119.182 51.2288 131.516 60.429 131.543 60.429L213.647 64.7319C215 64.8027 216.148 64.0148 216.198 62.9815L217.159 43.2883C217.209 42.255 216.148 41.3492 214.79 41.2784Z" fill="#2BC3FF"/>
</g>
<g filter="url(#filter5_i_966_2)">
<path fill-rule="evenodd" clip-rule="evenodd" d="M200.279 110.29L124.834 107.596C124.802 107.596 111.94 114.555 108.342 116.244C107.067 116.843 107.34 117.631 107.896 118.126C110.861 120.768 121.304 128.954 121.331 128.954L196.777 131.644C198.016 131.691 199.159 130.955 199.314 130.011L202.256 112.082C202.411 111.139 201.523 110.332 200.279 110.29Z" fill="#2BC3FF"/>
</g>
<path fill-rule="evenodd" clip-rule="evenodd" d="M69.8062 30.0069C69.2095 29.8277 68.7404 29.4738 68.4034 28.9407C68.0663 28.4075 68.0026 27.7753 68.1984 27.0534C68.376 26.4118 68.7404 25.94 69.296 25.6286C69.8471 25.3172 70.4347 25.2558 71.0632 25.4398C71.6826 25.6238 72.1472 25.9966 72.4478 26.558C72.7529 27.1242 72.8167 27.7234 72.6391 28.365C72.4432 29.0775 72.0652 29.5729 71.5095 29.8512C70.9539 30.1249 70.3937 30.1768 69.8062 30.0069ZM67.2237 11.1535C67.4879 10.1863 68.0618 9.29932 68.9317 8.47837C69.8062 7.66686 70.9038 7.1007 72.2337 6.7893C73.5636 6.47791 74.9937 6.54868 76.5241 7.00162C77.9496 7.42152 79.1338 8.06318 80.0766 8.93603C81.0103 9.79943 81.6524 10.7855 81.9849 11.899C82.322 13.0077 82.3356 14.1165 82.035 15.2111C81.7982 16.0792 81.4202 16.7869 80.901 17.3389C80.3817 17.8909 79.8261 18.3344 79.2294 18.6647C78.6374 19.0044 77.5807 19.5564 76.0641 20.3207C75.6405 20.533 75.2989 20.7312 75.0302 20.9105C74.766 21.0898 74.552 21.2643 74.4062 21.4342C74.2468 21.6041 74.1193 21.7786 74.01 21.9579C73.9052 22.1419 73.723 22.4675 73.4771 22.9345C72.9989 23.9395 72.2747 24.2934 71.2864 24.0008C70.7763 23.8499 70.3937 23.5526 70.1432 23.1044C69.8836 22.6515 69.8563 22.09 70.043 21.4059C70.2798 20.5519 70.6077 19.8489 71.0359 19.3016C71.464 18.7496 71.9513 18.3014 72.507 17.9523C73.0581 17.6031 73.7868 17.2115 74.6795 16.768C75.4674 16.3859 76.0413 16.0886 76.3965 15.8857C76.7609 15.6782 77.0843 15.4234 77.3758 15.1261C77.6627 14.8289 77.8676 14.4656 77.9815 14.0504C78.2047 13.2342 78.1045 12.4604 77.6718 11.7291C77.2391 10.9978 76.5651 10.4977 75.6405 10.2241C74.5565 9.90323 73.6866 9.95041 73.0171 10.3656C72.3521 10.7808 71.6917 11.4838 71.0359 12.4793C70.3846 13.5267 69.5921 13.9136 68.6584 13.6399C68.1073 13.4748 67.6974 13.1398 67.4333 12.6256C67.1645 12.1113 67.0962 11.6206 67.2237 11.1535Z" fill="#1B50A3"/>
<path fill-rule="evenodd" clip-rule="evenodd" d="M59.7632 34.2909C59.1803 34.5174 58.5973 34.5221 58.0189 34.3004C57.445 34.0833 57.026 33.6163 56.7709 32.9133C56.5432 32.2905 56.5614 31.6866 56.8256 31.0968C57.0943 30.5023 57.5315 30.0919 58.1418 29.8512C58.743 29.6153 59.3306 29.6295 59.8953 29.8937C60.4646 30.1579 60.8609 30.6014 61.0886 31.2242C61.3391 31.9178 61.3254 32.55 61.0385 33.1114C60.7516 33.6776 60.328 34.0692 59.7632 34.2909ZM46.8284 20.7548C46.4868 19.8206 46.4322 18.7496 46.6599 17.5559C46.8922 16.3623 47.4524 15.2299 48.336 14.1589C49.2241 13.0832 50.4128 12.2623 51.9067 11.6772C53.2913 11.1346 54.6075 10.9176 55.8646 11.0356C57.1171 11.1488 58.1965 11.5498 59.1074 12.234C60.0137 12.9181 60.665 13.7956 61.0567 14.8619C61.3619 15.7017 61.4666 16.5085 61.371 17.2681C61.2753 18.0325 61.0795 18.7355 60.7926 19.3677C60.5102 20.0046 59.9819 21.0992 59.203 22.6467C58.989 23.0808 58.825 23.4535 58.7157 23.7602C58.6064 24.0716 58.5381 24.3405 58.5153 24.5717C58.488 24.8029 58.4834 25.0246 58.5016 25.237C58.5199 25.4493 58.5608 25.822 58.6337 26.3457C58.8296 27.4497 58.4515 28.181 57.4905 28.5585C56.9941 28.7519 56.5159 28.7472 56.0559 28.549C55.5867 28.3415 55.2406 27.9121 54.9992 27.2469C54.6941 26.4118 54.5529 25.6474 54.5802 24.9397C54.6075 24.2367 54.7442 23.5715 54.9856 22.9487C55.2269 22.3306 55.5867 21.5616 56.0513 20.6557C56.4612 19.8631 56.7527 19.2686 56.9167 18.8864C57.0897 18.4948 57.2036 18.0891 57.2674 17.6739C57.3266 17.254 57.281 16.8388 57.1307 16.433C56.8438 15.6404 56.3155 15.0837 55.5503 14.7628C54.7806 14.4467 53.9471 14.4562 53.0499 14.81C51.9978 15.2205 51.3237 15.7961 51.0277 16.5463C50.7316 17.287 50.6087 18.2637 50.6542 19.4668C50.7316 20.7123 50.3217 21.5097 49.4154 21.8635C48.8779 22.0759 48.3587 22.0617 47.8441 21.8069C47.334 21.5616 46.9969 21.2124 46.8284 20.7548Z" fill="#1B50A3"/>
</g>
<defs>
<filter id="filter0_i_966_2" x="162.211" y="200.117" width="26.6519" height="39.1166" filterUnits="userSpaceOnUse" color-interpolation-filters="sRGB">
<feFlood flood-opacity="0" result="BackgroundImageFix"/>
<feBlend mode="normal" in="SourceGraphic" in2="BackgroundImageFix" result="shape"/>
<feColorMatrix in="SourceAlpha" type="matrix" values="0 0 0 0 0 0 0 0 0 0 0 0 0 0 0 0 0 0 127 0" result="hardAlpha"/>
<feOffset dy="4"/>
<feGaussianBlur stdDeviation="2"/>
<feComposite in2="hardAlpha" operator="arithmetic" k2="-1" k3="1"/>
<feColorMatrix type="matrix" values="0 0 0 0 0 0 0 0 0 0 0 0 0 0 0 0 0 0 0.25 0"/>
<feBlend mode="normal" in2="shape" result="effect1_innerShadow_966_2"/>
</filter>
<filter id="filter1_i_966_2" x="156.181" y="5.38803" width="89.9531" height="28.4528" filterUnits="userSpaceOnUse" color-interpolation-filters="sRGB">
<feFlood flood-opacity="0" result="BackgroundImageFix"/>
<feBlend mode="normal" in="SourceGraphic" in2="BackgroundImageFix" result="shape"/>
<feColorMatrix in="SourceAlpha" type="matrix" values="0 0 0 0 0 0 0 0 0 0 0 0 0 0 0 0 0 0 127 0" result="hardAlpha"/>
<feOffset dy="4"/>
<feGaussianBlur stdDeviation="2"/>
<feComposite in2="hardAlpha" operator="arithmetic" k2="-1" k3="1"/>
<feColorMatrix type="matrix" values="0 0 0 0 0 0 0 0 0 0 0 0 0 0 0 0 0 0 0.25 0"/>
<feBlend mode="normal" in2="shape" result="effect1_innerShadow_966_2"/>
</filter>
<filter id="filter2_i_966_2" x="133.693" y="75.1494" width="102.718" height="30.2911" filterUnits="userSpaceOnUse" color-interpolation-filters="sRGB">
<feFlood flood-opacity="0" result="BackgroundImageFix"/>
<feBlend mode="normal" in="SourceGraphic" in2="BackgroundImageFix" result="shape"/>
<feColorMatrix in="SourceAlpha" type="matrix" values="0 0 0 0 0 0 0 0 0 0 0 0 0 0 0 0 0 0 127 0" result="hardAlpha"/>
<feOffset dy="4"/>
<feGaussianBlur stdDeviation="2"/>
<feComposite in2="hardAlpha" operator="arithmetic" k2="-1" k3="1"/>
<feColorMatrix type="matrix" values="0 0 0 0 0 0 0 0 0 0 0 0 0 0 0 0 0 0 0.25 0"/>
<feBlend mode="normal" in2="shape" result="effect1_innerShadow_966_2"/>
</filter>
<filter id="filter3_i_966_2" x="145.772" y="137.183" width="88.9097" height="26.7568" filterUnits="userSpaceOnUse" color-interpolation-filters="sRGB">
<feFlood flood-opacity="0" result="BackgroundImageFix"/>
<feBlend mode="normal" in="SourceGraphic" in2="BackgroundImageFix" result="shape"/>
<feColorMatrix in="SourceAlpha" type="matrix" values="0 0 0 0 0 0 0 0 0 0 0 0 0 0 0 0 0 0 127 0" result="hardAlpha"/>
<feOffset dy="4"/>
<feGaussianBlur stdDeviation="2"/>
<feComposite in2="hardAlpha" operator="arithmetic" k2="-1" k3="1"/>
<feColorMatrix type="matrix" values="0 0 0 0 0 0 0 0 0 0 0 0 0 0 0 0 0 0 0.25 0"/>
<feBlend mode="normal" in2="shape" result="effect1_innerShadow_966_2"/>
</filter>
<filter id="filter4_i_966_2" x="115.021" y="36.9755" width="102.139" height="31.7608" filterUnits="userSpaceOnUse" color-interpolation-filters="sRGB">
<feFlood flood-opacity="0" result="BackgroundImageFix"/>
<feBlend mode="normal" in="SourceGraphic" in2="BackgroundImageFix" result="shape"/>
<feColorMatrix in="SourceAlpha" type="matrix" values="0 0 0 0 0 0 0 0 0 0 0 0 0 0 0 0 0 0 127 0" result="hardAlpha"/>
<feOffset dy="4"/>
<feGaussianBlur stdDeviation="2"/>
<feComposite in2="hardAlpha" operator="arithmetic" k2="-1" k3="1"/>
<feColorMatrix type="matrix" values="0 0 0 0 0 0 0 0 0 0 0 0 0 0 0 0 0 0 0.25 0"/>
<feBlend mode="normal" in2="shape" result="effect1_innerShadow_966_2"/>
</filter>
<filter id="filter5_i_966_2" x="107.431" y="107.596" width="94.8428" height="28.0502" filterUnits="userSpaceOnUse" color-interpolation-filters="sRGB">
<feFlood flood-opacity="0" result="BackgroundImageFix"/>
<feBlend mode="normal" in="SourceGraphic" in2="BackgroundImageFix" result="shape"/>
<feColorMatrix in="SourceAlpha" type="matrix" values="0 0 0 0 0 0 0 0 0 0 0 0 0 0 0 0 0 0 127 0" result="hardAlpha"/>
<feOffset dy="4"/>
<feGaussianBlur stdDeviation="2"/>
<feComposite in2="hardAlpha" operator="arithmetic" k2="-1" k3="1"/>
<feColorMatrix type="matrix" values="0 0 0 0 0 0 0 0 0 0 0 0 0 0 0 0 0 0 0.25 0"/>
<feBlend mode="normal" in2="shape" result="effect1_innerShadow_966_2"/>
</filter>
<clipPath id="clip0_966_2">
<rect width="275" height="245" fill="white"/>
</clipPath>
</defs>
</svg>
