<svg width="450" height="450" viewBox="0 0 450 450" fill="none" xmlns="http://www.w3.org/2000/svg">
<path d="M436.97 325.485C429.613 306.745 415.476 291.103 398.5 283.405C380.815 275.388 360.512 278.3 341.881 275.621C325.702 273.282 314.036 265.198 304.375 250.822C295.119 237.046 286.821 221.791 271.685 215.42C259.732 210.388 246.137 211.781 234.25 217.026C212.351 226.696 195.81 247.25 181.881 267.73C169.161 286.424 158.792 306.898 135.268 307.564C124.619 307.871 114.202 304.958 103.798 302.053C91.1905 298.527 78.5952 295.002 65.6131 297.188C34.2917 302.453 8.20237 331.65 2.73809 366.406C-2.38691 398.983 10.4702 430.579 32.5536 449.147H412.185C440.012 416.084 454.619 370.425 436.97 325.485Z" fill="#E3F7FF"/>
<path d="M93.7917 449.147H94.8393C102.089 440.216 107.774 429.387 111.381 417.364C117.226 397.91 116.982 377.489 110.691 359.868C107.512 350.964 102.917 342.66 98.4762 334.636C93.9703 326.498 89.3155 318.081 86.1548 309.057C84.8453 305.332 83.881 301.32 83.2977 297.234C83.0417 297.201 82.7739 297.168 82.512 297.134C83.0953 301.366 84.0893 305.512 85.4405 309.37C88.631 318.461 93.3036 326.912 97.8274 335.082C102.25 343.08 106.827 351.351 109.982 360.181C116.208 377.616 116.446 397.83 110.661 417.097C107.006 429.267 101.202 440.196 93.7917 449.147Z" fill="white"/>
<path d="M410.345 412.072C418.173 413.938 425.708 415.617 432.994 416.67C433.125 416.397 433.244 416.124 433.369 415.857C426.018 414.811 418.411 413.125 410.506 411.239C398.476 408.366 385.458 405.261 372.542 405.261C364.542 405.261 356.589 406.454 348.935 409.626C346.036 410.832 343.244 412.358 340.583 414.178C333.673 410.879 326.726 407.273 319.845 403.328C324.839 399.116 329.881 394.991 334.982 391.005C372.839 361.401 407.78 344.626 441.536 339.861C441.464 339.588 441.393 339.308 441.327 339.028C407.482 343.833 372.464 360.655 334.548 390.299C329.339 394.371 324.185 398.589 319.089 402.888C311.351 398.416 303.708 393.498 296.304 388.066C282.887 378.216 266.917 364.16 252.976 345.493C307.006 338.701 362.018 330.151 406.941 296.535C408.649 295.255 410.536 293.749 412.494 292.043C412.28 291.869 412.06 291.703 411.839 291.529C409.97 293.156 408.155 294.595 406.518 295.821C361.607 329.431 306.494 337.915 252.393 344.706C242.536 331.357 233.732 315.682 227.613 297.541C218.089 269.276 218.589 241.538 229 221.445C229.452 220.571 229.929 219.712 230.417 218.859C229.982 219.085 229.554 219.318 229.125 219.545C228.857 220.032 228.589 220.518 228.333 221.011C217.816 241.332 217.292 269.336 226.899 297.841C232.988 315.888 241.708 331.497 251.482 344.813C248.351 345.206 245.22 345.593 242.095 345.979C230.827 347.372 219.179 348.812 207.869 350.444C203.738 351.038 199.542 351.731 195.363 352.604C186.405 331.43 176.566 310.79 163.845 293.076C163.667 293.282 163.482 293.475 163.298 293.675C175.905 311.25 185.685 331.75 194.583 352.764C176.363 356.656 158.667 363.974 149.22 381.002C140.393 396.897 140.399 418.883 149.244 446.328C149.548 447.281 149.863 448.214 150.179 449.147H151C150.649 448.127 150.304 447.101 149.958 446.035C141.202 418.85 141.173 397.117 149.863 381.448C159.202 364.627 176.798 357.409 194.923 353.563C198.083 361.054 201.137 368.599 204.179 376.103L204.506 376.923C215.048 402.981 225.952 428.127 240.232 449.147H241.185C226.774 428.094 215.81 402.788 205.202 376.57L204.869 375.757C201.863 368.312 198.833 360.828 195.696 353.403C199.798 352.55 203.917 351.871 207.964 351.291C219.268 349.658 230.917 348.218 242.179 346.832C245.47 346.426 248.768 346.012 252.066 345.599C266.143 364.573 282.31 378.822 295.887 388.779C303.208 394.151 310.768 399.023 318.417 403.461C305.429 414.458 292.798 426.028 280.464 437.331C276.197 441.243 271.875 445.195 267.518 449.147H268.732C272.839 445.408 276.917 441.683 280.947 437.991C293.369 426.614 306.089 414.958 319.167 403.901C326.012 407.84 332.917 411.432 339.792 414.724C330.387 421.422 322.726 431.792 318.095 444.382C317.512 445.955 317.006 447.548 316.536 449.147H317.339C317.786 447.654 318.256 446.175 318.798 444.702C323.446 432.079 331.167 421.722 340.643 415.131C359.863 424.275 378.738 431.053 394.97 436.431L395.577 436.631C402.417 438.897 409.405 441.216 415.589 444.942C415.768 444.722 415.935 444.502 416.107 444.282C409.827 440.463 402.726 438.11 395.792 435.811L395.179 435.611C379.125 430.286 360.458 423.588 341.446 414.584C343.923 412.938 346.518 411.545 349.202 410.426C369.006 402.215 390.97 407.453 410.345 412.072Z" fill="white"/>
<path d="M34.4703 356.709C37.8393 372.158 36.3334 388.846 30.3393 402.495C26.4167 411.432 20.7441 419.523 13.756 426.474C13.8988 426.714 14.0417 426.954 14.1786 427.194C21.2798 420.156 27.0417 411.945 31.0238 402.875C37.1012 389.052 38.625 372.151 35.2084 356.502C32.5417 344.28 27.1786 333.929 19.7738 326.438C19.6072 326.652 19.4405 326.872 19.2798 327.092C26.5655 334.469 31.8393 344.666 34.4703 356.709Z" fill="white"/>
<path d="M207.244 160.95C213.899 168.561 216.875 181.377 213.208 193.2C209.661 204.643 201.875 214.12 192.524 220.218C185 225.117 175.191 227.823 167.786 222.684C162.262 218.852 159.393 211.321 159.232 204.043C159.071 196.759 161.262 189.668 163.964 183.043C167.774 173.7 172.899 164.649 180.542 158.964C191.071 151.14 200.851 153.639 207.244 160.95Z" fill="#FEFFFF"/>
<path d="M65.1665 26.2652H117.946V1.28627H65.1665V26.2652ZM119.095 27.5448H64.0237V0H119.095V27.5448Z" fill="white"/>
<path d="M29.3452 52.6037H82.125V27.6248H29.3452V52.6037ZM83.2678 53.89H28.1964V26.3452H83.2678V53.89Z" fill="white"/>
<path d="M432.423 83.2405C428.857 69.9646 422.583 57.7751 413.607 46.6319C404.607 35.4887 392.339 26.2848 376.798 19.0138C361.256 11.736 341.506 8.09717 317.554 8.09717C298.446 8.09717 278.97 10.9829 259.131 16.7545C239.274 22.546 222.048 30.7835 207.44 41.4868L226.458 99.942L216.262 109.186L231.048 114.051C245.637 105.5 258.934 99.2955 270.929 95.4234C282.905 91.5779 295.631 89.6585 309.125 89.6585C322.601 89.6585 332.804 93.2907 339.732 100.568C346.661 107.866 350.119 116.623 350.119 126.914C350.119 139.33 346.554 150.346 339.458 159.983C332.327 169.62 324.464 179.364 315.851 189.208C309.869 196.045 304.059 203.117 298.446 210.388C292.833 217.685 287.857 225.483 283.559 233.847C279.244 242.184 275.792 251.175 273.173 260.812C270.542 270.456 269.244 281.259 269.244 293.242C269.244 297.107 269.315 301.706 269.518 307.058C269.554 308.044 269.595 309.01 269.649 309.957H255.679L270.929 321.506H345.071C344.69 318.934 344.506 315.941 344.506 312.516C344.506 309.09 344.506 306.518 344.506 304.798C344.506 297.527 345.821 290.356 348.44 283.285C351.054 276.221 354.339 269.489 358.274 263.051C362.202 256.633 366.595 250.529 371.476 244.757C376.339 238.965 381.024 233.514 385.518 228.369C391.494 221.531 397.679 214.253 404.042 206.542C410.405 198.825 416.036 190.714 420.899 182.143C425.768 173.572 429.786 164.269 432.97 154.192C436.149 144.135 437.762 133.118 437.762 121.122C437.762 109.139 435.964 96.5097 432.423 83.2405Z" fill="#1B50A3"/>
<path d="M293.423 85.5802C280.089 85.5802 267.512 87.4396 255.678 91.1651C243.821 94.9039 230.684 100.915 216.262 109.186L192.934 38.9613C207.375 28.5979 224.399 20.627 244.024 15.0288C263.625 9.44383 282.875 6.65137 301.756 6.65137C325.428 6.65137 344.946 10.1703 360.309 17.2148C375.661 24.2526 387.792 33.1565 396.684 43.9398C405.554 54.7231 411.756 66.5194 415.274 79.3621C418.78 92.2114 420.553 104.434 420.553 116.031C420.553 127.64 418.958 138.304 415.821 148.034C412.673 157.791 408.696 166.795 403.893 175.086C399.083 183.383 393.518 191.234 387.232 198.698C380.94 206.163 374.833 213.207 368.923 219.825C364.476 224.797 359.851 230.082 355.048 235.687C350.226 241.272 345.887 247.177 342 253.388C338.113 259.619 334.863 266.137 332.28 272.975C329.69 279.813 328.393 286.751 328.393 293.789C328.393 295.455 328.393 297.941 328.393 301.26C328.393 304.579 328.571 307.471 328.952 309.957H255.678C254.917 305.812 254.464 301.16 254.286 295.981C254.083 290.796 254.012 286.351 254.012 282.606C254.012 271.009 255.298 260.552 257.899 251.222C260.482 241.892 263.899 233.194 268.161 225.123C272.411 217.026 277.321 209.482 282.875 202.424C288.423 195.379 294.167 188.542 300.077 181.924C308.589 172.4 316.357 162.969 323.405 153.639C330.417 144.315 333.94 133.652 333.94 121.629C333.94 111.679 330.524 103.201 323.678 96.1369C316.827 89.0991 306.744 85.5802 293.423 85.5802Z" fill="#0089C9"/>
<path d="M350.143 402.088C350.143 417.057 345.822 428.607 337.167 436.751C328.506 444.915 318.726 448.98 307.804 448.98C296.869 448.98 287.083 444.915 278.435 436.751C269.792 428.607 265.464 417.057 265.464 402.088C265.464 387.14 269.792 375.59 278.435 367.426C291.756 354.836 311.464 352.031 327.066 360.861C340.905 368.705 350.143 384.627 350.143 402.088Z" fill="#1B50A3"/>
<path d="M335.643 402.088C335.643 417.057 331.315 428.607 322.661 436.751C314.006 444.915 304.22 448.98 293.298 448.98C282.363 448.98 272.583 444.915 263.928 436.751C255.286 428.607 250.958 417.057 250.958 402.088C250.958 387.14 255.286 375.59 263.928 367.426C272.583 359.275 282.363 355.196 293.298 355.196C304.22 355.196 314.006 359.275 322.661 367.426C331.315 375.59 335.643 387.14 335.643 402.088Z" fill="#0089C9"/>
<path d="M114.875 183.203C117.369 187.282 116.434 192.84 112.798 195.632C109.155 198.418 104.19 197.379 101.696 193.3C99.2083 189.228 100.137 183.663 103.78 180.877C107.417 178.085 112.387 179.131 114.875 183.203Z" fill="#B2E9FF"/>
<path d="M119.952 206.696C119.494 209.422 117.131 211.221 114.679 210.701C112.22 210.188 110.601 207.556 111.06 204.83C111.518 202.097 113.875 200.304 116.333 200.818C118.786 201.331 120.405 203.963 119.952 206.696Z" fill="#B2E9FF"/>
<path d="M119.482 149.72C116.286 168.834 99.8573 181.417 82.7918 177.838C65.7263 174.253 54.4823 155.858 57.6787 136.751C60.8811 117.644 77.3097 105.054 94.3751 108.64C111.441 112.219 122.685 130.613 119.482 149.72Z" fill="#B2E9FF"/>
<path d="M80.4702 143.236C80.4702 145.688 78.6964 147.674 76.5119 147.674C74.3214 147.674 72.5476 145.688 72.5476 143.236C72.5476 140.79 74.3214 138.804 76.5119 138.804C78.6964 138.804 80.4702 140.79 80.4702 143.236Z" fill="white"/>
<path d="M92.5416 143.236C92.5416 145.688 90.7678 147.674 88.5833 147.674C86.3928 147.674 84.619 145.688 84.619 143.236C84.619 140.79 86.3928 138.804 88.5833 138.804C90.7678 138.804 92.5416 140.79 92.5416 143.236Z" fill="white"/>
<path d="M104.619 143.236C104.619 145.688 102.845 147.674 100.655 147.674C98.4701 147.674 96.6963 145.688 96.6963 143.236C96.6963 140.79 98.4701 138.804 100.655 138.804C102.845 138.804 104.619 140.79 104.619 143.236Z" fill="white"/>
<path d="M66.0594 431.359L68.9999 444.042C69.7618 447.348 72.619 449.58 75.7797 449.34C85.4106 448.607 105.423 445.968 116.911 436.491L113.643 418.217C97.8511 417.21 83.0832 418.197 70.2916 423.015C67.0892 424.221 65.238 427.82 66.0594 431.359Z" fill="#102048"/>
<path d="M84.4644 441.45C84.2977 441.45 84.1489 441.33 84.1013 441.143L80.1548 425.328C80.1013 425.101 80.2144 424.862 80.4227 424.802C80.6251 424.735 80.8334 424.868 80.8929 425.101L84.8334 440.91C84.8929 441.137 84.7739 441.376 84.5715 441.436C84.5358 441.45 84.5001 441.45 84.4644 441.45Z" fill="white"/>
<path d="M92.9941 439.317C92.8274 439.317 92.6726 439.19 92.625 439.004L88.6786 423.195C88.625 422.962 88.7441 422.729 88.9465 422.662C89.1488 422.602 89.3572 422.735 89.4167 422.962L93.3572 438.777C93.4167 439.004 93.2976 439.237 93.0953 439.304C93.0595 439.31 93.0238 439.317 92.9941 439.317Z" fill="white"/>
<path d="M102.893 362.814L66.1844 375.017L93.4463 416.83L132.577 420.316L186.559 394.764L166.048 360.201L102.893 362.814Z" fill="#434242"/>
<path d="M148.143 368.625C228.75 341.907 241.708 421.675 115.934 436.191C111.494 430.599 106.303 420.882 104.244 412.765L170.661 378.402L148.143 368.625Z" fill="#434242"/>
<path d="M151.566 425.788C147.798 424.442 144.185 421.769 144.185 421.769L131.232 426.321L134.196 442.096L147.655 445.162C151.756 436.764 151.994 429.867 151.566 425.788Z" fill="#F9B384"/>
<path d="M104.53 413.318L103.952 412.212C117.81 403.195 153.304 381.535 183.536 375.15L183.75 376.41C153.685 382.761 118.333 404.341 104.53 413.318Z" fill="#3A72B7"/>
<path d="M102.893 362.814C27.8631 346.845 8.42854 427.58 134.196 442.096C138.643 436.504 142.125 429.886 144.184 421.769C124.863 407.3 103.268 393.538 79.5893 380.435L102.893 362.814Z" fill="#434242"/>
<path d="M143.875 422.309C140.31 419.763 136.589 417.077 132.649 414.231C112.887 399.942 90.4822 383.754 71.4524 374.517L71.9107 373.337C91.0298 382.614 113.47 398.836 133.274 413.151C137.208 416.004 140.929 418.69 144.494 421.229L143.875 422.309Z" fill="#3A72B7"/>
<path d="M47.8453 402.848L46.8394 402.228C49.6548 396.517 54.1667 392.665 60.2501 390.785L60.5536 392.018C54.7025 393.831 50.5417 397.376 47.8453 402.848Z" fill="#3A72B7"/>
<path d="M204.441 397.99C201.744 392.518 197.583 388.972 191.732 387.153L192.036 385.92C198.119 387.806 202.625 391.658 205.441 397.37L204.441 397.99Z" fill="#3A72B7"/>
<path d="M127.173 441.39L126.333 440.517C132.339 433.319 136.024 425.721 137.607 417.291L138.726 417.55C137.101 426.214 133.321 434.019 127.173 441.39Z" fill="#3A72B7"/>
<path d="M188.988 421.096C179.375 414.444 160.738 425.934 156.06 426.514C154.696 426.681 153.119 426.347 151.565 425.788C151.994 429.866 151.756 436.764 147.655 445.162L149.94 445.681C149.94 445.681 165.744 452.166 182.512 448.387C197.982 444.908 196.542 426.321 188.988 421.096Z" fill="#102048"/>
<path d="M175.881 442.843C175.845 442.843 175.81 442.836 175.768 442.823C175.566 442.749 175.458 442.509 175.518 442.289C176.661 438.237 177.161 430.273 173.851 424.921C173.732 424.728 173.774 424.462 173.947 424.328C174.119 424.195 174.357 424.242 174.482 424.435C177.947 430.04 177.435 438.337 176.25 442.543C176.197 442.723 176.048 442.843 175.881 442.843Z" fill="white"/>
<path d="M168.345 444.442C168.309 444.442 168.268 444.435 168.232 444.422C168.03 444.355 167.917 444.109 167.982 443.889C169.125 439.837 169.619 431.873 166.315 426.528C166.196 426.328 166.238 426.061 166.411 425.928C166.583 425.794 166.821 425.848 166.94 426.041C170.405 431.639 169.899 439.937 168.708 444.149C168.661 444.329 168.506 444.442 168.345 444.442Z" fill="white"/>
<path d="M89.6191 258.72C89.6191 258.72 108.512 240.732 107.815 237.313C107.315 234.867 101.964 238.453 101.964 238.453C101.964 238.453 109.47 228.483 109.083 227.27C108.405 225.11 103.214 229.142 103.214 229.142C103.214 229.142 106.72 223.484 105.042 222.564C103.369 221.638 99.7084 225.13 99.7084 225.13C99.7084 225.13 101.845 221.985 100.839 221.165C99.8393 220.339 95.506 223.724 95.506 223.724C95.506 223.724 97.0595 219.765 93.756 221.272C90.4584 222.771 67.3036 246.557 67.3036 246.557L89.6191 258.72Z" fill="#F9B384"/>
<path d="M97.3512 237.386C97.2559 237.386 97.1667 237.346 97.0893 237.273C93.8512 233.954 92.4167 233.148 88.8393 231.915C88.6369 231.848 88.5238 231.608 88.5893 231.382C88.6488 231.155 88.8631 231.028 89.0655 231.102C92.7738 232.375 94.25 233.214 97.6071 236.64C97.7619 236.8 97.7738 237.073 97.6309 237.246C97.5536 237.34 97.4524 237.386 97.3512 237.386Z" fill="#E28B6D"/>
<path d="M91.6547 247.143L91.6011 247.137C91.3928 247.103 91.2499 246.89 91.2797 246.657C91.6487 243.684 92.488 241.825 93.8332 240.972C94.988 240.245 96.488 240.319 98.2975 241.192C98.488 241.292 98.5773 241.538 98.494 241.758C98.4106 241.972 98.1844 242.072 97.994 241.978C96.4166 241.219 95.1428 241.132 94.2082 241.718C93.0952 242.418 92.363 244.118 92.0356 246.777C92.0059 246.99 91.8452 247.143 91.6547 247.143Z" fill="#E28B6D"/>
<path d="M90.7618 229.156C90.6606 229.156 90.5594 229.109 90.488 229.022C90.3451 228.849 90.3511 228.582 90.5058 228.423L95.2439 223.417C95.3987 223.257 95.6368 223.264 95.7856 223.431C95.9285 223.604 95.9225 223.877 95.7678 224.037L91.0237 229.042C90.9523 229.116 90.857 229.156 90.7618 229.156Z" fill="#E28B6D"/>
<path d="M95.1547 230.868C95.0595 230.868 94.9642 230.828 94.8868 230.748C94.738 230.588 94.7321 230.315 94.8809 230.142L99.4345 224.83C99.5773 224.657 99.8214 224.65 99.9761 224.817C100.125 224.983 100.131 225.25 99.9821 225.423L95.4285 230.735C95.3571 230.822 95.2559 230.868 95.1547 230.868Z" fill="#E28B6D"/>
<path d="M99.6371 233.861C99.5478 233.861 99.4525 233.821 99.3811 233.748C99.2263 233.581 99.2144 233.314 99.3632 233.141L102.935 228.849C103.078 228.676 103.322 228.669 103.47 228.829C103.625 228.989 103.637 229.256 103.494 229.429L99.9168 233.721C99.8454 233.814 99.7442 233.861 99.6371 233.861Z" fill="#E28B6D"/>
<path d="M161 379.056L91.9107 382.048L84.2738 311.53C84.2738 311.53 107.405 286.964 116.304 277.921L131.327 277.061C177.935 300.78 170.304 330.404 161 379.056Z" fill="#3A72B7"/>
<path d="M131.327 277.061C131.327 277.061 184.649 282.166 201.458 323.073C217.905 363.094 150.31 377.35 150.31 377.35L131.327 277.061Z" fill="#3A72B7"/>
<path d="M70.375 285.825L92.4107 255.801L71.8035 241.818C63.2083 248.516 46.5892 263.672 32.5 280.833C29.3928 284.618 26.9642 289.044 25.744 293.916C24.6964 298.074 24.5059 302.18 25.0952 306.205C26.625 316.682 33.9881 324.773 43.8154 326.066C52.2083 327.165 84.2738 324.353 110.232 315.809L117.863 282.819C113.94 280.326 84.7857 279.887 70.375 285.825Z" fill="#3A72B7"/>
<path d="M160.744 296.135C157.238 296.135 152.161 295.255 150.304 290.523C149.083 287.404 149.946 283.965 151.286 281.512C151.476 281.572 151.667 281.639 151.857 281.699C150.548 284.012 149.667 287.304 150.827 290.263C152.554 294.668 157.369 295.495 160.726 295.495C161.905 295.495 162.911 295.388 163.53 295.308C167.506 294.768 171.536 293.742 175.446 292.729C175.685 292.889 175.929 293.049 176.167 293.202C176.054 293.235 175.941 293.262 175.821 293.295C171.821 294.322 167.691 295.388 163.601 295.941C162.964 296.028 161.946 296.135 160.744 296.135Z" fill="#D8E1FB"/>
<path d="M187.452 361.788C184.75 357.956 183.333 353.604 183.506 349.458C183.756 343.36 187.911 337.989 192.762 337.475C193.059 337.442 193.357 337.429 193.655 337.429C196.095 337.429 198.434 338.442 200.708 339.421C201.619 339.815 202.542 340.215 203.476 340.554C203.428 340.761 203.381 340.968 203.333 341.174C202.375 340.828 201.428 340.428 200.5 340.021C198.184 339.022 195.982 338.069 193.667 338.069C193.381 338.069 193.101 338.082 192.815 338.115C188.238 338.602 184.315 343.7 184.077 349.485C183.911 353.504 185.297 357.729 187.94 361.441C187.78 361.561 187.613 361.675 187.452 361.788Z" fill="#D8E1FB"/>
<path d="M40.1131 325.219C39.9167 325.152 39.7262 325.072 39.5298 324.999C42.5179 321.154 46.8631 318.248 51.9345 316.775C53.8572 316.222 55.7203 315.948 57.4762 315.948C60.9048 315.948 63.9167 317.001 66.125 319.034C67.7619 320.56 68.8988 322.533 69.7143 324.646C69.5179 324.666 69.3155 324.692 69.1191 324.719C68.3453 322.753 67.2738 320.934 65.756 319.534C63.6548 317.588 60.7738 316.588 57.4762 316.588C55.7738 316.588 53.9524 316.855 52.0774 317.401C47.2084 318.808 43.0238 321.567 40.1131 325.219Z" fill="#D8E1FB"/>
<path d="M36.0298 276.641C36.2738 276.354 36.5238 276.061 36.7738 275.774C42.6607 274.068 48.3869 271.702 53.6786 268.29C55.75 266.957 58.0834 265.258 59.7084 262.792C61.3869 260.233 61.9524 257.207 61.2143 254.694C60.9286 253.708 60.4107 252.842 59.7679 252.155C59.9167 252.022 60.0595 251.882 60.2084 251.749C60.8988 252.502 61.4524 253.428 61.7619 254.494C62.5536 257.2 61.9584 260.446 60.1667 263.172C58.4822 265.738 56.0893 267.477 53.9643 268.843C48.3512 272.469 42.2619 274.908 36.0298 276.641Z" fill="#D8E1FB"/>
<path d="M136.202 261.386L136.196 262.479L136.042 279.48L136.024 281.319C135.994 284.205 134.935 286.818 133.232 288.717C131.542 290.597 129.208 291.783 126.625 291.803C121.417 291.836 117.161 287.151 117.107 281.313L116.929 260.299L136.202 261.386Z" fill="#F9B384"/>
<path d="M136.196 262.479L136.042 279.48C127.601 275.634 124.125 265.404 124.125 265.404L136.196 262.479Z" fill="#102048"/>
<path d="M139.536 232.808C142.56 236.873 151.393 259.899 142.44 267.757C132.363 276.594 117.03 262.065 117.03 262.065L114.976 235.247L128.286 231.315L139.536 232.808Z" fill="#F9B384"/>
<path d="M108.196 231.328C108.196 231.328 78.6785 248.569 102.744 298.254C105.839 304.638 112.684 307.424 118.542 304.305C124.827 300.966 127.202 292.369 123.792 285.584C119.857 277.753 116.053 267.67 117.678 260.166L108.196 231.328Z" fill="#102048"/>
<path d="M118.97 239.486C118.97 244.431 115.393 248.429 110.982 248.429C106.571 248.429 103 244.431 103 239.486C103 234.554 106.571 230.548 110.982 230.548C115.393 230.548 118.97 234.554 118.97 239.486Z" fill="#FBC343"/>
<path d="M120.804 250.229C119.941 244.657 119.417 240.825 124.452 237.953C124.452 237.953 142.196 241.565 145.583 234.074C148.97 226.576 143.81 214.747 133 222.964C105.339 216.913 101.625 245.904 110.018 255.561L118.292 254.141C119.958 253.854 121.095 252.088 120.804 250.229Z" fill="#102048"/>
<path d="M135.726 250.249C135.726 250.975 135.196 251.568 134.542 251.568C133.893 251.568 133.363 250.975 133.363 250.249C133.363 249.516 133.893 248.929 134.542 248.929C135.196 248.929 135.726 249.516 135.726 250.249Z" fill="#102048"/>
<path d="M143.708 245.844C143.708 246.577 143.179 247.17 142.53 247.17C141.875 247.17 141.351 246.577 141.351 245.844C141.351 245.117 141.875 244.524 142.53 244.524C143.179 244.524 143.708 245.117 143.708 245.844Z" fill="#102048"/>
<path d="M141.714 254.314C141.631 254.314 141.548 254.281 141.482 254.207C141.351 254.068 141.345 253.828 141.47 253.681C141.946 253.121 142.464 252.341 142.244 251.775C142.018 251.182 141.06 250.929 140.625 250.929C139.685 250.929 139.232 249.049 139.149 248.676C139.107 248.476 139.214 248.276 139.393 248.223C139.571 248.176 139.756 248.296 139.798 248.503C139.97 249.296 140.363 250.175 140.625 250.175C141.071 250.175 142.452 250.415 142.857 251.475C143.149 252.235 142.845 253.148 141.952 254.194C141.887 254.274 141.804 254.314 141.714 254.314Z" fill="#102048"/>
<path d="M141.774 259.326C141.708 259.326 141.643 259.306 141.583 259.26C139.363 257.58 137.125 258.993 137.101 259.006C136.94 259.106 136.738 259.046 136.643 258.866C136.554 258.686 136.607 258.46 136.768 258.353C136.875 258.287 139.399 256.7 141.958 258.64C142.113 258.76 142.155 258.993 142.048 259.16C141.988 259.266 141.881 259.326 141.774 259.326Z" fill="#102048"/>
<path d="M134.03 244.531C134.696 245.937 133.53 246.223 132.161 247.043C130.792 247.856 129.387 248.156 129.065 247.476C128.744 246.803 129.595 245.597 130.964 244.777C132.339 243.964 133.506 243.431 134.03 244.531Z" fill="#102048"/>
<path d="M139.024 241.972C139.321 243.238 140.161 242.685 141.381 242.325C142.607 241.965 143.595 241.278 143.452 240.679C143.315 240.079 142.208 239.879 140.982 240.239C139.762 240.599 138.798 240.999 139.024 241.972Z" fill="#102048"/>
<path d="M129.101 260.306C127.179 260.306 125.625 258.56 125.625 256.414C125.625 254.261 127.179 252.515 129.101 252.515C131.024 252.515 132.577 254.261 132.577 256.414C132.577 258.56 131.024 260.306 129.101 260.306Z" fill="#F39176"/>
<path d="M118.768 252.248C121.113 254.274 121.72 257.78 120.131 260.086C118.542 262.392 115.351 262.618 113.012 260.599C110.673 258.58 110.065 255.067 111.655 252.762C113.244 250.456 116.429 250.229 118.768 252.248Z" fill="#F9B384"/>
<path d="M117.958 258.38C117.774 258.38 117.625 258.213 117.625 258.006C117.625 256.9 117.149 255.88 116.339 255.274C115.655 254.754 114.833 254.634 114.149 254.947C113.976 255.021 113.78 254.934 113.714 254.741C113.643 254.554 113.726 254.334 113.893 254.254C114.786 253.848 115.839 254.001 116.714 254.654C117.702 255.4 118.298 256.653 118.298 258.006C118.298 258.213 118.149 258.38 117.958 258.38Z" fill="#102048"/>
<path d="M58.6013 300.713L58.0417 300.127L70.0953 285.531L70.6548 286.118L58.6013 300.713Z" fill="#102048"/>
<path d="M155 348.272L154.78 347.452C163.554 344.459 172.066 340.874 179.786 330.071L180.381 330.604C172.53 341.6 163.893 345.233 155 348.272Z" fill="#102048"/>
<path d="M160.333 315.169H85.7025C83.0179 315.169 80.8394 317.808 80.8394 321.054V380.715C80.8394 383.967 83.0179 386.606 85.7025 386.606H160.333C163.018 386.606 165.196 383.967 165.196 380.715V321.054C165.196 317.808 163.018 315.169 160.333 315.169Z" fill="#D3DFFF"/>
<path d="M0 450H450V448.287H0V450Z" fill="#1B50A3"/>
<path d="M118.042 355.93H121.333V352.577H122.167C124.619 352.577 126.625 351.198 126.625 348.212V348.105C126.625 345.22 124.803 343.833 122.137 343.84L118.047 343.853C118.012 346.573 118.024 347.399 121.297 347.072V346.013L124.309 348.205L121.297 350.405V349.345C117.22 348.965 118.196 352.011 118.042 355.93Z" fill="url(#paint0_linear_551_925)"/>
<path d="M126.399 346.553C125.917 345.166 124.738 343.854 122.137 343.854H118.131L121.298 346.02L124.309 348.219L126.399 346.553Z" fill="url(#paint1_linear_551_925)"/>
<defs>
<linearGradient id="paint0_linear_551_925" x1="126.553" y1="348.545" x2="117.984" y2="350.715" gradientUnits="userSpaceOnUse">
<stop stop-color="#333D8D"/>
<stop offset="1" stop-color="#29569F"/>
</linearGradient>
<linearGradient id="paint1_linear_551_925" x1="118.131" y1="346.04" x2="126.399" y2="346.04" gradientUnits="userSpaceOnUse">
<stop stop-color="#333D8D"/>
<stop offset="1" stop-color="#29569F"/>
</linearGradient>
</defs>
</svg>
