<svg width="275" height="245" viewBox="0 0 275 245" fill="none" xmlns="http://www.w3.org/2000/svg">
<g clip-path="url(#clip0_966_141)">
<path d="M0.00336013 121.085C-0.293103 63.852 19.0187 42.3235 61.6304 24.2176C108.447 4.32581 124.772 22.0033 176.897 5.22217C232.248 -12.5978 275.494 19.2814 261.048 44.6575C243.566 75.368 250.677 94.0725 250.677 135.394C250.677 176.574 240.851 194.926 218.163 218.512C180.146 258.034 0.786975 272.552 0.00336013 121.085Z" fill="#CADEF4"/>
<path d="M264.569 117.561C253.813 119.712 249.345 94.0768 255.736 71.1561C262.125 48.2363 276.592 32.3026 274.774 47.9243C274.066 54.0023 270.354 65.7847 272.579 77.509C278.06 106.388 269.13 116.648 264.569 117.561Z" fill="#CADEF4"/>
<path d="M130.755 244.986V13.3315C108.714 14.0913 91.2909 11.6147 61.6304 24.2176C19.0187 42.3235 -0.293103 63.8521 0.00336014 121.086C0.488278 214.796 69.3236 244.958 130.755 244.986Z" fill="#0781B1"/>
<path d="M117.993 244.547V13.5466C112.379 13.5997 106.853 13.6848 101.093 14.1537V242.534C106.707 243.487 112.358 244.154 117.993 244.547Z" fill="#E0EDFA"/>
<path d="M88.6769 239.914V15.8014C85.6914 16.3638 82.5971 17.0738 79.3643 17.9642V237.225C82.4362 238.224 85.5424 239.12 88.6769 239.914Z" fill="#E0EDFA"/>
<path d="M71.4317 234.383V20.4341C69.968 20.9409 68.473 21.4873 66.9482 22.0716V232.516C68.4306 233.165 69.9248 233.788 71.4317 234.383Z" fill="#CADEF4"/>
<path d="M62.8086 230.615V23.7269C62.4161 23.8896 62.0272 24.049 61.6302 24.2176C60.5114 24.6932 59.412 25.1713 58.3252 25.6528V228.334C59.8045 229.124 61.298 229.886 62.8086 230.615Z" fill="#CADEF4"/>
<path d="M49.3578 223.009V29.8808C44.09 32.5395 39.2646 35.3289 34.8721 38.3325V211.627C39.3972 215.872 44.2479 219.654 49.3578 223.009Z" fill="#CADEF4"/>
<path d="M29.0084 205.689V42.6852C23.9015 46.8111 19.4932 51.3553 15.7666 56.5024V187.235C19.6184 194.066 24.0564 200.216 29.0084 205.689Z" fill="#CADEF4"/>
<path d="M9.92367 175.233V66.1937C8.64843 68.7605 7.49908 71.4614 6.47412 74.309V165.683C7.51323 168.984 8.6611 172.171 9.92367 175.233Z" fill="#CADEF4"/>
<path d="M0.381725 131.464V106.867C0.104628 111.35 -0.0227465 116.078 0.00332443 121.086C0.0212016 124.647 0.170178 128.085 0.381725 131.464Z" fill="#E0EDFA"/>
<path d="M126.961 244.95V13.4352C125.802 13.4597 124.652 13.4774 123.511 13.4917V244.853C124.664 244.898 125.812 244.925 126.961 244.95Z" fill="#E0EDFA"/>
<path d="M108.232 27.2895V8.88513C108.232 3.97837 111.61 0 115.776 0H71.8083C67.6414 0 64.2641 3.97837 64.2641 8.88513V37.1899C64.2641 42.0958 60.8868 46.0742 56.7207 46.0742H108.232V36.1738C108.232 36.1738 108.232 32.1963 108.232 27.2895Z" fill="black"/>
<path d="M189.643 179.986H27.0887C23.418 179.986 20.4414 176.482 20.4414 172.157V34.0438C20.4414 29.7197 23.418 26.2144 27.0887 26.2144H189.643C193.315 26.2144 196.291 29.7197 196.291 34.0438V172.157C196.291 176.482 193.315 179.986 189.643 179.986Z" fill="white"/>
<path d="M22.353 28.551C23.5098 27.1057 25.0979 26.2144 26.8498 26.2144H27.089C25.235 26.2144 23.5582 27.1091 22.353 28.551Z" fill="#8DA5D5"/>
<path d="M194.378 28.5485C193.173 27.1082 191.497 26.2144 189.644 26.2144H189.883C191.635 26.2144 193.222 27.1057 194.378 28.5485Z" fill="#849DD1"/>
<path d="M196.291 39.9279H186.631L186.655 26.2144H189.643C191.497 26.2144 193.173 27.1083 194.378 28.5485C195.558 30.0216 196.291 32.0707 196.291 34.3364V39.9279ZM78.7157 39.9279H20.4414V34.3364C20.4414 32.0715 21.1729 30.0233 22.3528 28.551C23.558 27.1091 25.2347 26.2144 27.0887 26.2144H78.7403L78.7157 39.9279Z" fill="#F5F4F4"/>
<path d="M196.141 39.7779H186.781L186.805 26.3644H189.643C191.445 26.3644 193.081 27.2329 194.262 28.6435C195.419 30.0879 196.141 32.1027 196.141 34.3364V39.7779ZM78.59 26.3644L78.566 39.7779H20.5914V34.3364C20.5914 32.1036 21.3125 30.0896 22.4689 28.646C23.6498 27.2338 25.286 26.3644 27.0887 26.3644H78.59Z" stroke="#0781B1" stroke-opacity="0.2" stroke-width="0.3"/>
<path d="M46.1865 33.0716C46.1865 34.4536 47.0707 35.5751 48.1619 35.5751C49.2524 35.5751 50.1373 34.4536 50.1373 33.0716C50.1373 31.6887 49.2524 30.568 48.1619 30.568C47.0707 30.568 46.1865 31.6887 46.1865 33.0716Z" fill="black"/>
<path d="M39.6846 33.0716C39.6846 34.4536 40.5687 35.5751 41.66 35.5751C42.7505 35.5751 43.6354 34.4536 43.6354 33.0716C43.6354 31.6887 42.7505 30.568 41.66 30.568C40.5687 30.568 39.6846 31.6887 39.6846 33.0716Z" fill="black"/>
<path d="M33.1826 33.0716C33.1826 34.4536 34.0668 35.5751 35.158 35.5751C36.2485 35.5751 37.1327 34.4536 37.1327 33.0716C37.1327 31.6887 36.2485 30.568 35.158 30.568C34.0668 30.568 33.1826 31.6887 33.1826 33.0716Z" fill="black"/>
<path d="M29.0889 103.575H54.6413V79.2748H29.0889V103.575Z" fill="#F2F2F2"/>
<path d="M38.7452 84.06C38.7452 85.5627 37.7121 86.7803 36.4361 86.7803C35.1608 86.7803 34.127 85.5627 34.127 84.06C34.127 82.5582 35.1608 81.3398 36.4361 81.3398C37.7121 81.3398 38.7452 82.5582 38.7452 84.06Z" fill="#C9C9C9"/>
<path d="M54.6413 103.575V94.2945L48.0506 84.7263L40.7962 94.6908L34.0639 89.0689L29.0889 92.9883V103.575H54.6413Z" fill="#C9C9C9"/>
<path d="M69.5798 55.4712H54.9563C54.6733 55.4712 54.4438 55.2014 54.4438 54.8674C54.4438 54.5344 54.6733 54.2645 54.9563 54.2645H69.5798C69.8621 54.2645 70.0915 54.5344 70.0915 54.8674C70.0915 55.2014 69.8621 55.4712 69.5798 55.4712Z" fill="#C4C4C4"/>
<path d="M78.9862 60.8544H54.9563C54.6733 60.8544 54.4438 60.5845 54.4438 60.2515C54.4438 59.9184 54.6733 59.6486 54.9563 59.6486H78.9862C79.2692 59.6486 79.4979 59.9184 79.4979 60.2515C79.4979 60.5845 79.2692 60.8544 78.9862 60.8544Z" fill="#C4C4C4"/>
<path d="M63.9903 58.1628H54.9563C54.6733 58.1628 54.4438 57.8929 54.4438 57.5598C54.4438 57.2267 54.6733 56.9569 54.9563 56.9569H63.9903C64.2726 56.9569 64.502 57.2267 64.502 57.5598C64.502 57.8929 64.2726 58.1628 63.9903 58.1628Z" fill="#C4C4C4"/>
<path d="M58.9502 103.724V78.811H78.6464L78.636 84.7583L78.3894 84.4008L70.9518 94.6156L64.0497 88.8522L58.9502 92.8702V103.724Z" fill="#F2F2F2"/>
<path d="M68.8506 83.7178C68.8506 85.2584 67.7899 86.5064 66.4827 86.5064C65.1747 86.5064 64.1147 85.2584 64.1147 83.7178C64.1147 82.1781 65.1747 80.9292 66.4827 80.9292C67.7899 80.9292 68.8506 82.1781 68.8506 83.7178Z" fill="#C9C9C9"/>
<path d="M85.1463 103.724V94.21L78.3894 84.4007L70.9518 94.6156L64.0497 88.8521L58.9502 92.8701V103.724H64.3208H85.1463Z" fill="#C9C9C9"/>
<mask id="path-31-inside-1_966_141" fill="white">
<path d="M39.2125 74.5864C32.4542 74.5864 26.9756 68.134 26.9756 60.1739C26.9756 52.2138 32.4542 45.7605 39.2125 45.7605C45.9708 45.7605 51.4494 52.2138 51.4494 60.1739C51.4494 68.134 45.9708 74.5864 39.2125 74.5864Z"/>
</mask>
<path d="M39.2125 74.5864C32.4542 74.5864 26.9756 68.134 26.9756 60.1739C26.9756 52.2138 32.4542 45.7605 39.2125 45.7605C45.9708 45.7605 51.4494 52.2138 51.4494 60.1739C51.4494 68.134 45.9708 74.5864 39.2125 74.5864Z" fill="white"/>
<path d="M39.2125 74.2864C32.664 74.2864 27.2756 68.0162 27.2756 60.1739H26.6756C26.6756 68.2518 32.2444 74.8864 39.2125 74.8864V74.2864ZM27.2756 60.1739C27.2756 52.3315 32.6641 46.0605 39.2125 46.0605V45.4605C32.2443 45.4605 26.6756 52.096 26.6756 60.1739H27.2756ZM39.2125 46.0605C45.761 46.0605 51.1494 52.3315 51.1494 60.1739H51.7494C51.7494 52.096 46.1807 45.4605 39.2125 45.4605V46.0605ZM51.1494 60.1739C51.1494 68.0162 45.761 74.2864 39.2125 74.2864V74.8864C46.1807 74.8864 51.7494 68.2518 51.7494 60.1739H51.1494Z" fill="#C1C1C1" mask="url(#path-31-inside-1_966_141)"/>
<path d="M44.639 55.7554C44.639 59.2851 42.2092 62.1462 39.2126 62.1462C36.2159 62.1462 33.7861 59.2851 33.7861 55.7554C33.7861 52.2256 36.2159 49.3637 39.2126 49.3637C42.2092 49.3637 44.639 52.2256 44.639 55.7554Z" fill="#C1C1C1"/>
<path d="M44.489 55.7554C44.489 59.2262 42.1043 61.9962 39.2126 61.9962C36.3208 61.9962 33.9361 59.2262 33.9361 55.7554C33.9361 52.2845 36.3209 49.5137 39.2126 49.5137C42.1043 49.5137 44.489 52.2845 44.489 55.7554Z" stroke="#0781B1" stroke-opacity="0.3" stroke-width="0.3"/>
<path d="M42.875 62.1951C42.4296 62.0812 41.9692 62.1731 41.5588 62.4067C40.8489 62.8106 40.0541 63.04 39.2124 63.04C38.3707 63.04 37.5759 62.8106 36.866 62.4067C36.4556 62.1731 35.9953 62.0812 35.5498 62.1951C33.3956 62.7499 31.7822 65.0039 31.7822 67.7081V71.6249C33.8418 73.4826 36.4176 74.5864 39.2124 74.5864C42.0072 74.5864 44.583 73.4818 46.6434 71.6249V67.7081C46.6434 65.0039 45.0292 62.7499 42.875 62.1951Z" fill="#C1C1C1"/>
<path d="M41.633 62.5371L41.633 62.5371C42.0166 62.3188 42.4372 62.238 42.8378 62.3404C44.913 62.875 46.4934 65.0584 46.4934 67.7081V71.558C44.4658 73.3659 41.9438 74.4364 39.2124 74.4364C36.481 74.4364 33.959 73.3667 31.9322 71.558V67.7081C31.9322 65.0584 33.5119 62.8749 35.5871 62.3403C35.9878 62.238 36.4083 62.3188 36.7919 62.5371L36.7919 62.5371C37.5226 62.9529 38.3428 63.19 39.2124 63.19C40.0821 63.19 40.9022 62.9529 41.633 62.5371Z" stroke="#0781B1" stroke-opacity="0.3" stroke-width="0.3"/>
<path d="M87.6537 170.314C87.6537 170.314 84.1044 134.084 76.4142 134.084C66.3404 134.084 66.3576 155.683 61.6246 154.987C56.8923 154.29 59.2618 122.986 51.5687 123.634C43.2863 124.329 42.9869 146.046 37.9626 148.019C34.4133 149.412 29.0889 124.011 29.0889 124.011V170.314H87.6537Z" fill="#C9C9C9"/>
<path d="M61.8461 155.003C61.7732 155.003 61.7002 154.998 61.6242 154.987C58.5553 154.535 58.4733 141.208 56.6953 132.073C59.5556 137.394 60.5173 149.424 64.5821 150.488C64.7542 150.533 64.9173 150.564 65.0737 150.582C64.1359 153.167 63.1832 155.002 61.8461 155.003ZM37.674 148.074C35.8327 148.075 33.5854 141.569 31.8521 135.323C32.3943 133.579 33.0439 132.487 33.8215 132.373C33.9072 132.36 33.9928 132.354 34.0778 132.354C36.8569 132.354 39.0118 139.029 40.6655 144.435C39.8975 146.268 39.0387 147.597 37.9623 148.019C37.8677 148.056 37.7716 148.074 37.674 148.074Z" fill="#E1E3E6"/>
<path d="M78.4851 169.422H29.5776V153.181C29.959 146.377 30.6398 139.221 31.8525 135.323C33.5858 141.569 35.8332 148.075 37.6745 148.074C37.7721 148.074 37.8682 148.056 37.9628 148.019C39.0391 147.597 39.898 146.268 40.6659 144.435C41.7386 147.942 42.6011 150.916 43.2864 151.185C43.3147 151.196 43.3431 151.201 43.3714 151.201C45.1375 151.198 47.5218 130.272 53.3431 129.586C53.4436 129.573 53.542 129.568 53.6388 129.568C54.8939 129.568 55.8735 130.543 56.6958 132.073C58.4738 141.208 58.5558 154.535 61.6247 154.987C61.7007 154.998 61.7737 155.003 61.8467 155.003C63.1837 155.002 64.1364 153.167 65.0742 150.582C65.1867 150.595 65.2955 150.602 65.4005 150.602C69.6716 150.602 67.9018 139.998 74.0478 139.341C74.1193 139.332 74.1908 139.329 74.2623 139.329C75.6881 139.329 77.1383 140.828 78.532 143.164L78.4851 169.422Z" fill="white"/>
<path d="M30.8414 111.174C30.6775 111.174 30.5174 111.077 30.425 110.901L29.015 108.202L27.2794 111.155C26.6462 111.34 26.3677 110.685 26.6105 110.273L28.6373 106.824C28.7312 106.664 28.8891 106.567 29.0522 106.576C29.2168 106.582 29.368 106.684 29.4545 106.85L31.3792 110.533L31.38 110.536C31.3129 110.979 31.0738 111.174 30.8414 111.174Z" fill="black"/>
<path d="M87.6031 169.422H29.5776V107.918C29.5776 107.415 29.0309 107.064 28.6011 107.641V170.571H87.6031V169.422Z" fill="black"/>
<path d="M219.11 69.2234C218.226 69.2234 217.509 68.3793 217.509 67.3371V66.0672C217.509 65.0249 218.226 64.1809 219.11 64.1809C219.994 64.1809 220.712 65.0249 220.712 66.0672V67.3371C220.712 68.3793 219.994 69.2234 219.11 69.2234ZM219.045 62.4396C218.203 62.4396 217.54 61.598 217.604 60.6098C217.678 59.4562 217.798 58.091 217.965 57.5758C218.277 56.6196 218.899 55.5428 219.834 54.3454C220.768 53.1489 221.327 52.3655 221.509 51.9945C221.791 51.4084 221.931 50.7625 221.931 50.0559C221.931 49.0752 221.683 48.2345 221.185 47.5346C220.687 46.8347 220.017 46.4848 219.173 46.4848C218.36 46.4848 217.68 46.8499 217.133 47.5802C216.799 48.0245 216.529 48.6123 216.323 49.3417C216.101 50.125 215.508 50.6647 214.831 50.6647C214.75 50.6647 214.666 50.6563 214.583 50.6403L214.548 50.6335C213.687 50.4649 213.079 49.48 213.278 48.4782C213.546 47.1257 214.054 45.9283 214.801 44.8869C215.877 43.3918 217.289 42.6447 219.036 42.6447C220.875 42.6447 222.338 43.4011 223.424 44.9147C224.511 46.4283 225.054 48.1898 225.054 50.2001C225.054 51.3123 224.855 52.3655 224.456 53.358C224.058 54.3522 223.204 55.703 221.897 57.4148C221.221 58.3002 220.801 59.0119 220.638 59.5507C220.57 59.7733 220.52 60.3079 220.485 60.8568C220.429 61.7473 219.804 62.4396 219.045 62.4396Z" fill="white"/>
<path d="M229.065 122.192C228.872 122.192 228.674 122.165 228.477 122.109C227.143 121.728 226.324 120.145 226.647 118.574L227.043 116.657C227.318 115.318 228.336 114.419 229.456 114.419C229.651 114.419 229.847 114.446 230.045 114.502C231.379 114.884 232.197 116.466 231.874 118.037L231.479 119.955C231.203 121.294 230.186 122.192 229.065 122.192ZM231.015 111.921C230.841 111.921 230.664 111.898 230.486 111.847C229.218 111.484 228.479 109.929 228.882 108.466C229.353 106.758 229.958 104.75 230.37 104.046C231.137 102.736 232.411 101.381 234.194 99.9778C235.975 98.5763 237.061 97.6344 237.451 97.1538C238.057 96.3907 238.471 95.4766 238.69 94.4116C238.994 92.9326 238.881 91.5564 238.348 90.2856C237.815 89.0157 236.912 88.1986 235.639 87.8344C235.286 87.734 234.94 87.6834 234.601 87.6834C233.764 87.6834 232.971 87.992 232.221 88.6076C231.58 89.1346 230.99 89.9045 230.451 90.9164C229.976 91.8094 229.173 92.3448 228.336 92.3448C228.031 92.3448 227.722 92.274 227.423 92.1239L227.374 92.0994C226.127 91.4738 225.516 89.7266 226.126 88.3015C226.951 86.3747 228.089 84.7886 229.541 83.5406C231.01 82.2791 232.616 81.6484 234.358 81.6484C235.09 81.6484 235.846 81.7605 236.627 81.9832C239.4 82.7766 241.372 84.5483 242.541 87.2998C243.71 90.0512 243.981 92.9435 243.356 95.9749C243.011 97.653 242.383 99.1556 241.473 100.481C240.562 101.808 238.855 103.479 236.351 105.497C235.056 106.541 234.202 107.434 233.788 108.177C233.616 108.483 233.375 109.268 233.152 110.081C232.845 111.196 231.97 111.921 231.015 111.921Z" fill="white"/>
<path d="M218.65 178.605C217.809 178.605 217.061 177.899 216.903 176.89L216.685 175.501C216.506 174.363 217.145 173.271 218.112 173.06C218.221 173.036 218.33 173.024 218.437 173.024C219.278 173.024 220.026 173.73 220.184 174.74L220.402 176.128C220.581 177.267 219.942 178.359 218.976 178.569C218.866 178.593 218.757 178.605 218.65 178.605ZM217.446 171.205C216.643 171.205 215.942 170.494 215.854 169.516C215.738 168.239 215.633 166.719 215.729 166.116C215.904 164.997 216.401 163.673 217.217 162.142C218.033 160.614 218.509 159.625 218.644 159.176C218.851 158.468 218.894 157.729 218.774 156.958C218.605 155.886 218.19 155.027 217.526 154.38C217.02 153.887 216.437 153.64 215.78 153.64C215.577 153.64 215.366 153.664 215.148 153.711C214.26 153.904 213.579 154.466 213.107 155.392C212.818 155.958 212.624 156.664 212.523 157.511C212.402 158.529 211.718 159.323 210.845 159.343H210.807C210.795 159.344 210.785 159.344 210.774 159.344C209.818 159.344 209.004 158.42 209.049 157.291C209.11 155.749 209.459 154.321 210.098 153.005C211.017 151.116 212.431 149.964 214.341 149.549C214.82 149.444 215.283 149.392 215.731 149.392C217.158 149.392 218.422 149.923 219.524 150.986C220.97 152.381 221.866 154.176 222.21 156.372C222.401 157.588 222.363 158.785 222.097 159.965C221.831 161.146 221.131 162.825 219.997 165.005C219.41 166.133 219.073 167.011 218.987 167.639C218.951 167.897 218.988 168.494 219.043 169.102C219.134 170.089 218.57 170.992 217.741 171.173C217.642 171.194 217.544 171.205 217.446 171.205Z" fill="white"/>
<path d="M186.301 175.046L186.596 9.23675C186.596 4.1352 183.023 0 178.615 0H73.171C72.7658 0 72.3688 0.0354157 71.98 0.102874C75.8236 0.768183 78.7703 4.60404 78.7703 9.23675L78.7018 47.8981L78.4753 175.046C78.4753 180.147 82.0485 184.282 86.4568 184.282H194.283C189.875 184.282 186.301 180.147 186.301 175.046Z" fill="black"/>
<path d="M184.543 3.05165C183.081 1.17715 180.967 0 178.615 0H178.843C181.144 0 183.212 1.16703 184.647 3.02551C184.611 3.03479 184.578 3.04238 184.543 3.05165Z" fill="#F8FAFD"/>
<path d="M191.668 183.776C189.949 183.087 188.496 181.736 187.537 179.986H187.609C188.551 181.736 189.979 183.087 191.668 183.776ZM186.655 26.2144H186.566L186.596 9.2368C186.596 6.85804 185.818 4.6884 184.542 3.05169C184.578 3.04242 184.611 3.03483 184.647 3.02555C185.913 4.66564 186.685 6.84539 186.685 9.2368L186.655 26.2144Z" fill="#F4F8FD"/>
<path d="M187.61 179.986H187.537C186.754 178.558 186.301 176.864 186.301 175.046L186.542 39.9279H186.632L186.395 175.046C186.395 176.864 186.84 178.558 187.61 179.986Z" fill="#EFF5FC"/>
<path d="M186.631 39.9279H186.542L186.565 26.2144H186.655L186.631 39.9279Z" fill="#EBF2FA"/>
<path d="M73.0895 0.000843231C73.0627 0 73.0358 0 73.0098 0H73.1707C73.1432 0 73.1171 0 73.0895 0.000843231Z" fill="#E6E8F5"/>
<path d="M194.237 184.282H88.4039C84.0731 184.282 80.5617 180.147 80.5617 175.046L80.8522 9.23675C80.8522 4.16725 77.3841 0.0514371 73.0898 0.000843231C73.1174 0 73.1435 0 73.171 0H178.615C180.967 0 183.081 1.17715 184.543 3.05165C185.819 4.68836 186.596 6.858 186.596 9.23675L186.566 26.2144L186.542 39.9278L186.301 175.046C186.301 176.863 186.754 178.558 187.537 179.986C188.496 181.736 189.949 183.087 191.668 183.775C192.473 184.104 193.337 184.282 194.237 184.282ZM88.8031 141.214C87.5182 141.214 86.4761 142.441 86.4761 143.954V154.134C86.4761 155.648 87.5182 156.875 88.8031 156.875H177.82C179.104 156.875 180.146 155.648 180.146 154.134V143.954C180.146 142.441 179.104 141.214 177.82 141.214H88.8031ZM88.8031 94.1206C87.5182 94.1206 86.4761 95.3475 86.4761 96.8611V107.041C86.4761 108.554 87.5182 109.781 88.8031 109.781H177.82C179.104 109.781 180.146 108.554 180.146 107.041V96.8611C180.146 95.3475 179.104 94.1206 177.82 94.1206H88.8031ZM88.8031 47.1122C87.5182 47.1122 86.4761 48.3391 86.4761 49.8518V60.033C86.4761 61.5457 87.5182 62.7726 88.8031 62.7726H177.82C179.104 62.7726 180.146 61.5457 180.146 60.033V49.8518C180.146 48.3391 179.104 47.1122 177.82 47.1122H88.8031Z" fill="white"/>
<path d="M81.0022 9.23675V9.23702L80.7117 175.046C80.7117 180.088 84.178 184.132 88.4039 184.132H192.224C192.016 184.069 191.812 183.996 191.611 183.914M81.0022 9.23675L191.668 183.775M81.0022 9.23675C81.0022 4.88656 78.4746 1.20009 75.023 0.15M81.0022 9.23675L75.023 0.15M191.611 183.914L191.668 183.775M191.611 183.914C191.612 183.914 191.612 183.915 191.612 183.915L191.668 183.775M191.611 183.914C189.857 183.211 188.379 181.834 187.406 180.058C186.61 178.607 186.151 176.888 186.151 175.046V175.046L186.392 39.9276L186.416 26.2141L186.446 9.23675H186.596M191.668 183.775C189.949 183.087 188.496 181.736 187.537 179.986C186.754 178.558 186.301 176.863 186.301 175.046L186.542 39.9278L186.566 26.2144L186.596 9.23675M186.596 9.23675L186.446 9.23648M186.596 9.23675C186.596 6.858 185.819 4.68836 184.543 3.05165C183.081 1.17715 180.967 0 178.615 0L186.446 9.23648M186.446 9.23648C186.446 6.89032 185.679 4.75346 184.424 3.14388C182.987 1.30044 180.915 0.15 178.615 0.15H75.023M186.446 9.23648L75.023 0.15M192.821 184.132C193.28 184.231 193.753 184.282 194.237 184.282H192.805L192.821 184.132ZM88.8031 141.064C87.4133 141.064 86.3261 142.382 86.3261 143.954V154.134C86.3261 155.707 87.4133 157.025 88.8031 157.025H177.82C179.209 157.025 180.296 155.707 180.296 154.134V143.954C180.296 142.382 179.209 141.064 177.82 141.064H88.8031ZM88.8031 93.9706C87.4133 93.9706 86.3261 95.2886 86.3261 96.8611V107.041C86.3261 108.613 87.4133 109.931 88.8031 109.931H177.82C179.209 109.931 180.296 108.613 180.296 107.041V96.8611C180.296 95.2886 179.209 93.9706 177.82 93.9706H88.8031ZM88.8031 46.9622C87.4133 46.9622 86.3261 48.2801 86.3261 49.8518V60.033C86.3261 61.6047 87.4133 62.9226 88.8031 62.9226H177.82C179.209 62.9226 180.296 61.6047 180.296 60.033V49.8518C180.296 48.2801 179.209 46.9622 177.82 46.9622H88.8031Z" stroke="#0781B1" stroke-opacity="0.2" stroke-width="0.3"/>
<path d="M97.39 163.953V174.783C97.39 180.03 93.7788 184.282 89.3252 184.282H195.256C199.71 184.282 203.321 180.03 203.321 174.783V163.953H97.39Z" fill="#A3A3A3"/>
<path d="M177.82 62.7727H88.8031C87.5182 62.7727 86.4761 61.5458 86.4761 60.0331V49.8519C86.4761 48.3391 87.5182 47.1122 88.8031 47.1122H177.82C179.104 47.1122 180.146 48.3391 180.146 49.8519V60.0331C180.146 61.5458 179.104 62.7727 177.82 62.7727Z" fill="#F2F2F2"/>
<path d="M100.682 46.9478H88.8023C87.5182 46.9478 86.4761 48.1739 86.4761 49.6875V59.8677C86.4761 61.3813 87.5182 62.6082 88.8023 62.6082H100.682V46.9478Z" fill="#C9C9C9"/>
<path d="M94.2197 54.8666L93.7117 52.9339C93.6641 52.7526 93.4458 52.7526 93.3989 52.9339L92.8909 54.8666C92.8581 54.9905 92.9371 55.1162 93.0473 55.1162H94.0633C94.1735 55.1162 94.2525 54.9905 94.2197 54.8666ZM90.298 57.9638L92.54 50.1453C92.5758 50.0231 92.6734 49.9396 92.7836 49.9396H94.3747C94.4849 49.9396 94.5825 50.0231 94.6182 50.1453L96.8603 57.9638C96.9169 58.1602 96.7925 58.3635 96.6167 58.3635H95.3162C95.2029 58.3635 95.1031 58.2766 95.0704 58.1493L94.7344 56.8583C94.7016 56.731 94.6018 56.6433 94.4886 56.6433H92.6212C92.5088 56.6433 92.4082 56.731 92.3762 56.8583L92.0402 58.1493C92.0075 58.2766 91.9069 58.3635 91.7944 58.3635H90.5416C90.3658 58.3635 90.2414 58.1602 90.298 57.9638Z" fill="#353535"/>
<path d="M176.598 60.9935H168.923C167.87 60.9935 167.018 59.9884 167.018 58.7488V50.8064C167.018 49.5677 167.87 48.5626 168.923 48.5626H176.598C177.65 48.5626 178.503 49.5677 178.503 50.8064V58.7488C178.503 59.9884 177.65 60.9935 176.598 60.9935Z" fill="#F2F2F2"/>
<path d="M176.598 60.8435H168.923C167.975 60.8435 167.168 59.9295 167.168 58.7488V50.8064C167.168 49.6266 167.975 48.7126 168.923 48.7126H176.598C177.545 48.7126 178.353 49.6266 178.353 50.8064V58.7488C178.353 59.9295 177.545 60.8435 176.598 60.8435Z" stroke="black" stroke-opacity="0.3" stroke-width="0.3"/>
<path d="M172.774 57.425L169.213 53.0073C168.937 52.6658 168.949 52.1261 169.239 51.8023C169.528 51.4776 169.988 51.4911 170.262 51.8335L172.555 54.6769L176.028 48.3273C176.245 47.9319 176.693 47.818 177.029 48.0727C177.365 48.3273 177.462 48.8552 177.246 49.2507L172.774 57.425Z" fill="#FBF4AE"/>
<path d="M172.651 57.2453L169.089 52.8277C168.814 52.4861 168.826 51.9465 169.115 51.6227C169.404 51.2989 169.864 51.3115 170.139 51.6539L172.431 54.4973L175.905 48.1486C176.122 47.7531 176.569 47.6384 176.905 47.8931C177.241 48.1486 177.338 48.6756 177.122 49.0719L172.651 57.2453Z" fill="#0781B1"/>
<path d="M136.699 51.9979H105.473C105.009 51.9979 104.633 51.5544 104.633 51.0088C104.633 50.4623 105.009 50.0188 105.473 50.0188H136.699C137.163 50.0188 137.539 50.4623 137.539 51.0088C137.539 51.5544 137.163 51.9979 136.699 51.9979Z" fill="#C9C9C9"/>
<path d="M164.391 55.9316H105.473C105.009 55.9316 104.633 55.4889 104.633 54.9425C104.633 54.3961 105.009 53.9534 105.473 53.9534H164.391C164.856 53.9534 165.232 54.3961 165.232 54.9425C165.232 55.4889 164.856 55.9316 164.391 55.9316Z" fill="#C9C9C9"/>
<path d="M153.107 59.8653H105.473C105.009 59.8653 104.633 59.4226 104.633 58.8761C104.633 58.3297 105.009 57.887 105.473 57.887H153.107C153.57 57.887 153.947 58.3297 153.947 58.8761C153.947 59.4226 153.57 59.8653 153.107 59.8653Z" fill="#C9C9C9"/>
<path d="M177.82 109.781H88.8031C87.5182 109.781 86.4761 108.554 86.4761 107.041V96.8612C86.4761 95.3475 87.5182 94.1206 88.8031 94.1206H177.82C179.104 94.1206 180.146 95.3475 180.146 96.8612V107.041C180.146 108.554 179.104 109.781 177.82 109.781Z" fill="#F2F2F2"/>
<path d="M100.682 94.1206H88.8023C87.5182 94.1206 86.4761 95.3475 86.4761 96.8612V107.041C86.4761 108.554 87.5182 109.781 88.8023 109.781H100.682V94.1206Z" fill="#C9C9C9"/>
<path d="M176.598 108.165H168.923C167.87 108.165 167.018 107.161 167.018 105.923V97.9793C167.018 96.7406 167.87 95.7354 168.923 95.7354H176.598C177.65 95.7354 178.503 96.7406 178.503 97.9793V105.923C178.503 107.161 177.65 108.165 176.598 108.165Z" fill="#F2F2F2"/>
<path d="M176.598 108.015H168.923C167.975 108.015 167.168 107.102 167.168 105.923V97.9793C167.168 96.7994 167.975 95.8854 168.923 95.8854H176.598C177.545 95.8854 178.353 96.7994 178.353 97.9793V105.923C178.353 107.102 177.545 108.015 176.598 108.015Z" stroke="black" stroke-opacity="0.3" stroke-width="0.3"/>
<path d="M172.774 104.598L169.213 100.18C168.937 99.8386 168.949 99.2989 169.239 98.9743C169.528 98.6505 169.988 98.664 170.262 99.0055L172.555 101.85L176.028 95.5002C176.245 95.1047 176.693 94.9908 177.029 95.2455C177.365 95.5002 177.462 96.028 177.246 96.4235L172.774 104.598Z" fill="#FBF4AE"/>
<path d="M172.651 104.418L169.089 100.001C168.814 99.6591 168.826 99.1194 169.115 98.7956C169.404 98.471 169.864 98.4845 170.139 98.8268L172.431 101.67L175.905 95.3215C176.122 94.9252 176.569 94.8114 176.905 95.066C177.241 95.3215 177.338 95.8485 177.122 96.2449L172.651 104.418Z" fill="#0781B1"/>
<path d="M94.0088 103.525C94.0088 103.268 93.9641 103.066 93.8755 102.921C93.7869 102.776 93.6543 102.666 93.477 102.592C93.369 102.543 93.2208 102.516 93.0323 102.51C92.8439 102.505 92.5913 102.502 92.2748 102.502H92.0647C91.9992 102.502 91.947 102.564 91.947 102.64V104.442C91.947 104.523 92.0021 104.589 92.0707 104.588C92.3187 104.587 92.8655 104.583 93.0018 104.578C93.179 104.57 93.3593 104.519 93.5433 104.427C93.7049 104.344 93.8226 104.224 93.8971 104.066C93.9708 103.907 94.0088 103.728 94.0088 103.525ZM93.5619 100.141C93.5619 100.016 93.5366 99.8883 93.4859 99.7568C93.4278 99.6059 93.3295 99.4844 93.2006 99.4187C93.0837 99.3596 92.9452 99.3267 92.785 99.3217C92.6658 99.3175 92.2547 99.3141 92.0565 99.3133C91.9954 99.3133 91.947 99.3714 91.947 99.4431V100.945C91.947 101.017 91.9962 101.075 92.0565 101.075C92.2673 101.073 92.7165 101.07 92.8096 101.064C92.931 101.057 93.0569 101.017 93.1872 100.947C93.3295 100.868 93.4271 100.76 93.4815 100.622C93.5351 100.485 93.5619 100.323 93.5619 100.141ZM95.8368 103.565C95.8368 103.979 95.7705 104.342 95.6379 104.656C95.5053 104.969 95.3258 105.229 95.1016 105.433C94.8349 105.68 94.5429 105.855 94.2249 105.96C93.906 106.063 93.5016 106.116 93.0107 106.116H90.6748C90.4014 106.116 90.1802 105.855 90.1802 105.534V98.368C90.1802 98.0467 90.4014 97.7862 90.6748 97.7862H92.6785C93.1977 97.7862 93.5917 97.8089 93.8591 97.8553C94.1265 97.9025 94.3776 98.0003 94.6114 98.1488C94.8654 98.3098 95.0546 98.524 95.1798 98.7921C95.3049 99.0611 95.3675 99.3706 95.3675 99.7214C95.3675 100.128 95.2811 100.49 95.1083 100.807C94.9355 101.124 94.6971 101.356 94.3939 101.506V101.55C94.8304 101.659 95.1805 101.88 95.4435 102.213C95.7057 102.548 95.8368 102.998 95.8368 103.565Z" fill="#353535"/>
<path d="M163.583 100.801H105.041C104.577 100.801 104.202 100.358 104.202 99.8116C104.202 99.2652 104.577 98.8225 105.041 98.8225H163.583C164.047 98.8225 164.423 99.2652 164.423 99.8116C164.423 100.358 164.047 100.801 163.583 100.801Z" fill="#C9C9C9"/>
<path d="M145.222 105.079H105.041C104.577 105.079 104.202 104.636 104.202 104.089C104.202 103.544 104.577 103.1 105.041 103.1H145.222C145.686 103.1 146.063 103.544 146.063 104.089C146.063 104.636 145.686 105.079 145.222 105.079Z" fill="#C9C9C9"/>
<path d="M177.82 156.875H88.8031C87.5182 156.875 86.4761 155.648 86.4761 154.134V143.954C86.4761 142.441 87.5182 141.214 88.8031 141.214H177.82C179.104 141.214 180.146 142.441 180.146 143.954V154.134C180.146 155.648 179.104 156.875 177.82 156.875Z" fill="#F2F2F2"/>
<path d="M100.682 141.208H88.8023C87.5182 141.208 86.4761 142.435 86.4761 143.949V154.129C86.4761 155.642 87.5182 156.869 88.8023 156.869H100.682V141.208Z" fill="#C9C9C9"/>
<path d="M176.598 155.254H168.923C167.87 155.254 167.018 154.25 167.018 153.01V145.067C167.018 143.828 167.87 142.823 168.923 142.823H176.598C177.65 142.823 178.503 143.828 178.503 145.067V153.01C178.503 154.25 177.65 155.254 176.598 155.254Z" fill="#F2F2F2"/>
<path d="M176.598 155.104H168.923C167.975 155.104 167.168 154.191 167.168 153.01V145.067C167.168 143.887 167.975 142.973 168.923 142.973H176.598C177.545 142.973 178.353 143.887 178.353 145.067V153.01C178.353 154.191 177.545 155.104 176.598 155.104Z" stroke="black" stroke-opacity="0.3" stroke-width="0.3"/>
<path d="M94.0285 153.243C93.4713 153.243 92.9611 153.16 92.4985 152.995C92.0352 152.83 91.633 152.575 91.2918 152.23C90.9559 151.885 90.6929 151.452 90.5045 150.931C90.316 150.409 90.2222 149.793 90.2222 149.085C90.2222 148.325 90.3242 147.679 90.5283 147.145C90.7332 146.611 91.0095 146.172 91.3589 145.827C91.6948 145.496 92.0911 145.252 92.5462 145.094C93.0013 144.936 93.4758 144.857 93.9689 144.857C94.3413 144.857 94.7145 144.908 95.087 145.009L95.0966 145.011C95.7492 145.19 96.2117 145.876 96.2117 146.666V146.972C96.2117 147.324 95.8683 147.523 95.6315 147.308C95.5093 147.195 95.376 147.09 95.2315 146.996C95.0788 146.897 94.9067 146.813 94.7145 146.744C94.5216 146.676 94.3071 146.641 94.0702 146.641C93.5331 146.641 93.1175 146.862 92.8225 147.304C92.5283 147.745 92.3808 148.339 92.3808 149.085C92.3808 149.884 92.538 150.479 92.8531 150.87C93.1674 151.262 93.5853 151.458 94.1067 151.458C94.3711 151.458 94.6043 151.422 94.8047 151.352C95.005 151.281 95.1771 151.196 95.3216 151.097C95.4616 150.997 95.5823 150.895 95.6821 150.789L95.6858 150.786C95.8907 150.573 96.2117 150.744 96.2117 151.067V152.097C96.2117 152.419 96.0493 152.709 95.7983 152.837L95.7938 152.839C95.6352 152.919 95.4736 152.986 95.3097 153.037C95.1048 153.103 94.9134 153.154 94.7354 153.19C94.5566 153.225 94.3212 153.243 94.0285 153.243Z" fill="#353535"/>
<path d="M164.059 150.2H105.517C105.053 150.2 104.677 150.642 104.677 151.189C104.677 151.735 105.053 152.178 105.517 152.178H164.059C164.523 152.178 164.899 151.735 164.899 151.189C164.899 150.642 164.523 150.2 164.059 150.2Z" fill="#C9C9C9"/>
<path d="M145.699 145.922H105.517C105.053 145.922 104.677 146.365 104.677 146.911C104.677 147.458 105.053 147.9 105.517 147.9H145.699C146.163 147.9 146.538 147.458 146.538 146.911C146.538 146.365 146.163 145.922 145.699 145.922Z" fill="#C9C9C9"/>
<path d="M151.653 79.6862H87.5316C86.9491 79.6862 86.4761 79.1297 86.4761 78.4433V78.294C86.4761 77.6076 86.9491 77.0519 87.5316 77.0519H151.653C152.237 77.0519 152.709 77.6076 152.709 78.294V78.4433C152.709 79.1297 152.237 79.6862 151.653 79.6862Z" fill="#C9C9C9"/>
<path d="M97.6716 74.6749H87.5316C86.9491 74.6749 86.4761 74.1184 86.4761 73.432V73.4295C86.4761 72.7431 86.9491 72.1866 87.5316 72.1866H97.6716C98.2548 72.1866 98.7271 72.7431 98.7271 73.4295V73.432C98.7271 74.1184 98.2548 74.6749 97.6716 74.6749Z" fill="#A3A3A3"/>
<path d="M124.662 74.6749H106.329C105.746 74.6749 105.274 74.1184 105.274 73.432V73.4295C105.274 72.7431 105.746 72.1866 106.329 72.1866H124.662C125.246 72.1866 125.718 72.7431 125.718 73.4295V73.432C125.718 74.1184 125.246 74.6749 124.662 74.6749Z" fill="#C9C9C9"/>
<path d="M115.761 84.6242H87.5316C86.9491 84.6242 86.4761 84.0677 86.4761 83.3813V83.232C86.4761 82.5457 86.9491 81.9892 87.5316 81.9892H115.761C116.344 81.9892 116.816 82.5457 116.816 83.232V83.3813C116.816 84.0677 116.344 84.6242 115.761 84.6242Z" fill="#A3A3A3"/>
<path d="M149.019 84.6242H122.435C121.853 84.6242 121.38 84.0677 121.38 83.3813V83.232C121.38 82.5457 121.853 81.9892 122.435 81.9892H149.019C149.601 81.9892 150.073 82.5457 150.073 83.232V83.3813C150.073 84.0677 149.601 84.6242 149.019 84.6242Z" fill="#A3A3A3"/>
<path d="M97.6716 121.765H87.5316C86.9491 121.765 86.4761 121.209 86.4761 120.522V120.521C86.4761 119.834 86.9491 119.278 87.5316 119.278H97.6716C98.2548 119.278 98.7271 119.834 98.7271 120.521V120.522C98.7271 121.209 98.2548 121.765 97.6716 121.765Z" fill="#C9C9C9"/>
<path d="M142.496 121.765H101.509C100.926 121.765 100.454 121.209 100.454 120.522V120.521C100.454 119.834 100.926 119.278 101.509 119.278H142.496C143.079 119.278 143.551 119.834 143.551 120.521V120.522C143.551 121.209 143.079 121.765 142.496 121.765Z" fill="#C9C9C9"/>
<path d="M101.045 131.715H87.5316C86.9491 131.715 86.4761 131.158 86.4761 130.472V130.323C86.4761 129.637 86.9491 129.08 87.5316 129.08H101.045C101.628 129.08 102.101 129.637 102.101 130.323V130.472C102.101 131.158 101.628 131.715 101.045 131.715Z" fill="#C9C9C9"/>
<path d="M131.892 131.715H105.566C104.983 131.715 104.51 131.158 104.51 130.472V130.323C104.51 129.637 104.983 129.08 105.566 129.08H131.892C132.475 129.08 132.948 129.637 132.948 130.323V130.472C132.948 131.158 132.475 131.715 131.892 131.715Z" fill="#C9C9C9"/>
<path d="M108.366 125.386V125.533C108.366 126.22 108.838 126.776 109.42 126.776H138.641C139.223 126.776 139.695 126.22 139.695 125.533V125.386C139.695 124.7 139.223 124.142 138.641 124.142H109.42C108.838 124.142 108.366 124.7 108.366 125.386Z" fill="#C9C9C9"/>
<path d="M104.42 124.142H87.5301C86.9483 124.142 86.4761 124.7 86.4761 125.386V125.533C86.4761 126.22 86.9483 126.776 87.5301 126.776H104.42C105.002 126.776 105.474 126.22 105.474 125.533V125.386C105.474 124.7 105.002 124.142 104.42 124.142Z" fill="#666666"/>
<path d="M178.771 29.3108H87.8511C87.0921 29.3108 86.4761 28.5856 86.4761 27.6909V18.7476C86.4761 17.8529 87.0921 17.1278 87.8511 17.1278H178.771C179.53 17.1278 180.146 17.8529 180.146 18.7476V27.6909C180.146 28.5856 179.53 29.3108 178.771 29.3108Z" fill="#F2F2F2"/>
<path d="M169.345 37.7827H97.2769C96.5179 37.7827 95.9019 37.0575 95.9019 36.1628V33.2689C95.9019 32.3742 96.5179 31.649 97.2769 31.649H169.345C170.105 31.649 170.721 32.3742 170.721 33.2689V36.1628C170.721 37.0575 170.105 37.7827 169.345 37.7827Z" fill="#F2F2F2"/>
<path d="M117.004 157.656C117.004 157.656 126.859 160.563 133.116 167.931C139.372 175.3 152.201 201.532 152.201 201.532L169.152 225.074L133.116 230.914L117.004 157.656Z" fill="#1B50A3"/>
<path d="M133.116 230.914L136.856 229.944C137.207 219.866 139.123 184.83 128.606 163.699C122.999 159.425 117.004 157.656 117.004 157.656L133.116 230.914Z" fill="#8AB0EC"/>
<path d="M74.4022 241.336C74.4022 241.336 73.0249 227.473 73.0249 221.102C73.0249 202.343 68.3694 172.986 76.3329 166.163C84.2964 159.341 116.335 151.917 126.289 166.163C136.244 180.409 133.549 236.109 133.549 236.109L124.97 240.815L74.4022 241.336Z" fill="#1B50A3"/>
<path d="M89.6277 225.074L133.877 217.742C133.861 214.471 133.804 212.671 133.681 209.03C130.113 208.738 119.45 209.035 112.937 210.272C105.126 211.756 98.4478 214.853 98.4478 214.853C98.4478 214.853 99.4557 205.375 97.7238 189.644C95.992 173.915 93.0586 169.069 85.2768 163.382C84.9603 163.15 84.5215 162.641 84.0262 162.024C80.6958 163.297 77.9911 164.742 76.333 166.163C73.1062 168.927 71.9516 175.392 71.7192 183.352L89.6277 225.074Z" fill="#8AB0EC"/>
<path d="M84.0512 167.71C100.469 173.771 100.884 174.01 107.575 176.658C111.394 178.168 113.946 178.966 113.946 178.966C113.946 178.966 111.482 172.245 110.876 171.998C110.41 171.808 95.9485 164.592 89.6341 160.221C86.9376 160.943 84.4415 161.802 82.2866 162.728C82.2322 164.723 82.5048 167.139 84.0512 167.71Z" fill="#8AB0EC"/>
<path d="M121.541 169.731C122.283 168.09 124.981 167.256 125.644 165.315C124.981 164.498 124.242 163.76 123.432 163.097C123.325 163.234 123.261 163.331 123.261 163.331C123.261 163.331 116.963 169.909 116.312 174.005C115.661 178.1 113.946 178.966 113.946 178.966C113.946 178.966 116.073 181.845 121.541 169.731Z" fill="#0781B1"/>
<path d="M117.539 240.021C117.539 240.021 82.565 235.243 81.4387 233.501C80.3132 231.759 76.1843 194.9 76.1843 194.9L72.1113 200.013C72.5061 207.401 73.4544 214.862 73.0246 221.102C71.6718 240.732 75.6316 242.199 75.6316 242.199C85.2101 237.399 117.539 240.021 117.539 240.021Z" fill="#0781B1"/>
<path d="M113.946 178.966C113.946 178.966 107.678 175.371 100.959 172.617C93.2714 169.465 86.1339 168.432 85.2765 163.382C84.1808 156.929 84.8847 150.723 98.1287 148.178C111.373 145.633 126.389 153.786 126.688 158.187C127.178 165.401 124.212 163.463 120.317 169.731C118.758 172.239 117.621 177.842 113.946 178.966Z" fill="#1B50A3"/>
<path d="M113.945 169.731C113.945 169.731 123.127 161.391 122.329 157.904C121.148 152.738 116.886 152.46 110.784 150.931C104.683 149.401 93.2303 149.731 91.4024 153.569C89.5745 157.408 112.644 167.107 113.945 169.731Z" fill="#ABE7FF"/>
<path d="M121.512 213.346C121.512 213.346 124.493 209.174 136.202 209.49C147.91 209.807 152.201 216.564 152.201 216.564L149.564 225.074C149.564 225.074 141.002 225.074 132.722 226.833C124.002 228.688 121.512 213.346 121.512 213.346Z" fill="#F6AE84"/>
<path d="M150.447 222.223C147.56 221.686 141.214 220.674 136.122 221.058C129.303 221.574 127.797 224.638 127.797 224.638L128.224 226.151C129.496 226.889 130.985 227.204 132.722 226.834C141.002 225.074 149.564 225.074 149.564 225.074L150.447 222.223Z" fill="#F4A279"/>
<path d="M133.116 226.467L128.236 209.932C128.236 209.932 104.338 213.911 95.9539 219.512C95.9539 219.512 96.4545 209.196 95.0787 197.259C93.7014 185.321 92.0046 166.458 82.2801 166.163C72.5557 165.869 69.0525 173.532 69.6775 196.964C70.3032 220.395 80.5289 236.459 83.1911 239.407C85.8541 242.354 121.228 234.159 133.116 226.467Z" fill="#1B50A3"/>
<path d="M117.227 152.719C116.929 155.946 116.715 161.017 118.002 163.096C118.239 163.478 118.65 163.945 119.042 164.467C116.688 167.265 113.946 169.731 113.946 169.731C113.027 168.016 102.023 162.949 95.7163 158.619C96.4969 157.084 97.8765 153.926 98.12 150.387C102.277 149.807 107.409 150.111 110.849 151.012C113.301 151.653 115.454 152.09 117.227 152.719Z" fill="#F6AE84"/>
<path d="M98.1511 148.905C97.985 143.084 97.4531 135.991 97.4531 135.991L117.56 149.858C117.56 149.858 116.953 153.892 117.004 157.657C114.917 158.569 112.695 158.983 110.411 158.805C105.509 158.423 101.199 155.378 98.0893 150.701C98.1414 150.111 98.169 149.512 98.1511 148.905Z" fill="#F4A279"/>
<path d="M119.157 168.876C119.957 169.968 120.172 171.293 119.638 171.836C119.103 172.38 118.022 171.934 117.222 170.842C116.422 169.749 116.206 168.424 116.741 167.881C117.275 167.337 118.357 167.783 119.157 168.876Z" fill="#4A3D77"/>
<path d="M107.546 170.866C106.871 172.244 106.869 173.733 107.543 174.19C108.217 174.649 109.312 173.904 109.987 172.526C110.662 171.148 110.664 169.66 109.989 169.202C109.315 168.743 108.221 169.489 107.546 170.866Z" fill="#4A3D77"/>
<path d="M118.839 105.831C111.387 103.938 103.788 109.538 100.016 118.874C99.0116 117.987 97.8049 117.633 96.6689 118.042C94.5333 118.814 93.4622 121.971 94.2756 125.095C94.8447 127.282 96.187 128.869 97.6738 129.362C96.9646 140.809 102.12 150.967 110.199 153.019C119.231 155.313 128.486 146.609 130.872 133.579C133.258 120.548 127.87 108.124 118.839 105.831Z" fill="#F6AE84"/>
<path d="M125.186 135.175C125.947 135.34 126.678 134.747 126.817 133.85L127.179 131.531C127.319 130.634 126.815 129.774 126.054 129.61C125.292 129.445 124.562 130.038 124.422 130.935L124.06 133.254C123.921 134.151 124.425 135.011 125.186 135.175Z" fill="#1D1D1E"/>
<path d="M111.819 133.258C112.58 133.422 113.311 132.828 113.45 131.932L113.812 129.613C113.952 128.717 113.448 127.856 112.686 127.691C111.925 127.527 111.195 128.12 111.055 129.017L110.694 131.336C110.554 132.233 111.057 133.093 111.819 133.258Z" fill="#1D1D1E"/>
<path d="M129.076 125.742C129.248 125.785 129.435 125.738 129.582 125.594C129.838 125.346 129.873 124.9 129.662 124.599C128.339 122.714 126.61 121.662 124.371 121.38C124.041 121.339 123.745 121.62 123.709 122.009C123.675 122.397 123.913 122.743 124.243 122.787C126.18 123.031 127.607 123.893 128.737 125.501C128.827 125.629 128.948 125.711 129.076 125.742Z" fill="#1D1D1E"/>
<path d="M108.379 121.948C108.204 121.925 108.039 121.812 107.937 121.622C107.76 121.292 107.844 120.854 108.125 120.646C109.881 119.343 111.804 118.98 114.005 119.536C114.33 119.617 114.536 119.994 114.467 120.376C114.397 120.758 114.078 120.999 113.753 120.919C111.849 120.438 110.264 120.732 108.765 121.844C108.646 121.932 108.509 121.965 108.379 121.948Z" fill="#1D1D1E"/>
<path d="M118.696 138.476C118.679 138.442 118.661 138.408 118.641 138.374C118.671 138.424 118.7 138.473 118.729 138.523C118.679 138.441 118.622 138.368 118.557 138.301C118.596 138.341 118.635 138.379 118.674 138.419C118.601 138.347 118.523 138.288 118.438 138.239C118.485 138.266 118.532 138.292 118.578 138.319C118.501 138.277 118.42 138.246 118.336 138.225C118.388 138.237 118.442 138.249 118.495 138.26C118.408 138.242 118.323 138.236 118.237 138.243C118.29 138.237 118.343 138.232 118.397 138.227C118.3 138.237 118.207 138.261 118.116 138.3C118.165 138.279 118.213 138.258 118.262 138.237C118.18 138.275 118.103 138.321 118.03 138.379C118.072 138.345 118.114 138.31 118.156 138.276C118.084 138.336 118.019 138.404 117.961 138.482C117.995 138.436 118.028 138.39 118.061 138.345L118.013 138.417C117.919 138.566 117.797 138.68 117.64 138.722C117.495 138.76 117.304 138.728 117.181 138.623C116.93 138.411 116.805 137.962 117.006 137.644C117.339 137.118 117.873 136.781 118.439 136.829C118.996 136.877 119.485 137.257 119.762 137.824C119.919 138.144 119.791 138.62 119.506 138.777C119.201 138.945 118.863 138.819 118.696 138.476Z" fill="#1D1D1E"/>
<path d="M119.928 144.642C120.062 144.506 120.193 144.365 120.32 144.22L120.397 144.132C120.635 143.86 120.64 143.412 120.41 143.132C120.179 142.852 119.814 142.832 119.56 143.117L119.483 143.205C118.284 144.581 116.701 145.464 115.034 145.687C114.705 145.73 114.468 146.081 114.504 146.469C114.542 146.857 114.839 147.136 115.169 147.092C116.923 146.858 118.594 145.995 119.928 144.642Z" fill="#1D1D1E"/>
<path d="M123.267 141.179C123.182 142.478 124.005 143.613 125.108 143.713C126.21 143.814 127.173 142.844 127.259 141.545C127.345 140.246 126.521 139.112 125.418 139.011C124.316 138.911 123.354 139.88 123.267 141.179Z" fill="#F18D78"/>
<path d="M106.878 138.045C106.792 139.343 107.616 140.477 108.719 140.578C109.821 140.681 110.785 139.709 110.87 138.411C110.957 137.113 110.132 135.978 109.03 135.877C107.927 135.776 106.964 136.747 106.878 138.045Z" fill="#F18D78"/>
<path d="M121.726 133.878C122.164 135.888 123.555 137.52 125.398 137.91C127.917 138.443 130.334 136.464 130.787 133.497C131.239 130.531 129.558 127.683 127.04 127.151C124.521 126.617 122.103 128.597 121.651 131.564C121.621 131.759 121.602 131.954 121.59 132.149C121.466 131.783 121.283 131.443 121.055 131.139C121.681 127.911 124.361 125.79 127.157 126.382C130.035 126.991 131.957 130.245 131.439 133.635C130.922 137.026 128.159 139.288 125.28 138.679C123.171 138.233 121.58 136.363 121.082 134.063C121.137 134.14 121.207 134.201 121.296 134.22C121.489 134.26 121.669 134.108 121.726 133.878Z" fill="#1D1D1E"/>
<path d="M120.917 132.624C121.01 132.937 121.041 133.269 121 133.604C120.952 133.283 120.921 132.956 120.917 132.624Z" fill="#1D1D1E"/>
<path d="M112.608 123.501C115.351 124.081 117.219 127.063 116.942 130.277C116.649 130.462 116.386 130.698 116.166 130.979C116.192 130.859 116.219 130.74 116.238 130.617C116.691 127.649 115.01 124.802 112.491 124.27C109.972 123.737 107.555 125.716 107.102 128.682C106.649 131.649 108.331 134.496 110.849 135.029C112.712 135.423 114.517 134.441 115.515 132.704C115.548 132.882 115.661 133.026 115.815 133.059C116.022 133.103 116.222 132.93 116.261 132.67C116.319 132.284 116.471 131.941 116.687 131.655C115.858 134.532 113.346 136.35 110.731 135.797C107.854 135.189 105.933 131.934 106.45 128.544C106.967 125.154 109.729 122.892 112.608 123.501Z" fill="#1D1D1E"/>
<path d="M116.943 130.277C117.57 129.881 118.338 129.718 119.129 129.885C119.915 130.051 120.584 130.515 121.055 131.139C121.037 131.235 121.013 131.327 120.999 131.425C120.937 131.828 120.913 132.229 120.917 132.624C120.66 131.748 119.93 131.022 118.986 130.823C118.07 130.629 117.196 130.981 116.687 131.656C116.771 131.365 116.843 131.066 116.891 130.754C116.916 130.595 116.929 130.435 116.943 130.277Z" fill="#1D1D1E"/>
<path d="M121.055 131.139C121.283 131.443 121.466 131.783 121.59 132.149C121.555 132.742 121.605 133.324 121.726 133.878C121.669 134.108 121.489 134.26 121.296 134.22C121.208 134.201 121.137 134.14 121.082 134.063C121.05 133.912 121.023 133.758 121 133.604C121.041 133.269 121.01 132.937 120.917 132.623C120.913 132.229 120.937 131.828 120.999 131.425C121.013 131.327 121.037 131.235 121.055 131.139Z" fill="#1D1D1E"/>
<path d="M115.815 133.059C115.661 133.026 115.548 132.882 115.515 132.704C115.811 132.19 116.033 131.61 116.166 130.979C116.386 130.698 116.649 130.462 116.942 130.277C116.929 130.435 116.916 130.595 116.891 130.754C116.843 131.066 116.771 131.365 116.687 131.655C116.471 131.941 116.32 132.284 116.261 132.67C116.222 132.93 116.022 133.103 115.815 133.059Z" fill="#1D1D1E"/>
<path d="M101.694 109.99C106.817 118.394 112.707 117.147 120.562 118.071C130.363 119.225 127.272 120.804 132.814 121.822C138.354 122.842 145.801 107.971 128.158 105.373C123.343 104.664 121.787 101.332 114.436 95.5609C108.139 90.6153 94.833 98.7348 101.694 109.99Z" fill="black"/>
<path d="M104.88 109.702C102.389 106.503 96.7933 102.776 92.1378 110.856C87.4823 118.937 86.4365 135.429 97.9851 142.912C97.9851 142.912 98.0164 134.937 99.0287 129.493C97.0585 129.764 95.0153 127.936 94.2756 125.095C93.4622 121.971 94.5334 118.814 96.6689 118.042C98.803 117.272 101.193 119.179 102.007 122.303C102.153 122.87 102.238 123.437 102.266 123.992C103.293 123.239 104.554 122.099 105.338 120.618C106.84 117.783 107.37 112.901 104.88 109.702Z" fill="black"/>
<path d="M108.133 213.346C107.864 213.346 107.618 213.136 107.543 212.816C107.523 212.734 107.067 210.767 106.895 208.271C106.832 207.344 106.971 205.587 107.164 203.157C107.508 198.806 108.028 192.231 107.812 184.954C107.479 173.666 108.158 170.864 108.187 170.75C108.285 170.369 108.626 170.152 108.95 170.268C109.272 170.382 109.456 170.781 109.362 171.161C109.348 171.217 108.717 174.052 109.037 184.904C109.254 192.273 108.73 198.903 108.383 203.29C108.204 205.56 108.062 207.353 108.117 208.155C108.278 210.515 108.719 212.413 108.723 212.432C108.813 212.816 108.623 213.214 108.296 213.32C108.241 213.338 108.187 213.346 108.133 213.346Z" fill="white"/>
<path d="M124.941 208.738C124.786 208.738 124.631 208.669 124.512 208.532C121.705 205.292 118.98 189.703 118.823 181.998C118.661 174.071 117.615 170.117 117.606 170.078C117.503 169.699 117.681 169.293 118.003 169.172C118.325 169.05 118.669 169.259 118.772 169.638C118.818 169.804 119.881 173.799 120.048 181.963C120.212 189.988 123.043 204.817 125.369 207.501C125.611 207.781 125.615 208.237 125.379 208.521C125.258 208.666 125.1 208.738 124.941 208.738Z" fill="white"/>
<path d="M102.01 108.106C102.172 108.15 102.343 108.056 102.416 107.87C103.213 105.823 106.279 99.2913 112.325 100.931L112.39 100.949C116.763 102.174 121.374 105.294 124.741 107.573C126.008 108.43 127.103 109.171 127.967 109.666C130.981 111.391 134.856 112.725 135.862 111.87C136.022 111.734 136.059 111.469 135.943 111.28C135.828 111.092 135.603 111.049 135.443 111.185C134.927 111.623 131.692 110.859 128.281 108.906C127.439 108.424 126.355 107.69 125.098 106.84C121.693 104.535 117.03 101.38 112.556 100.128L112.484 100.108C105.911 98.325 102.618 105.324 101.764 107.519C101.681 107.73 101.76 107.981 101.94 108.078L102.01 108.106Z" fill="#303030"/>
<path d="M102.879 108.988C103.004 109.042 103.149 108.988 103.222 108.849C104.031 107.321 107.026 102.502 111.684 104.525L111.734 104.547C115.099 106.041 118.49 109.068 120.966 111.278C121.899 112.11 122.704 112.829 123.347 113.324C125.59 115.054 128.551 116.575 129.423 116.017C129.562 115.927 129.614 115.723 129.538 115.559C129.462 115.395 129.288 115.333 129.149 115.422C128.703 115.708 126.201 114.717 123.661 112.759C123.034 112.276 122.237 111.565 121.313 110.74C118.809 108.504 115.38 105.443 111.936 103.915L111.881 103.89C106.817 101.691 103.602 106.853 102.735 108.492C102.651 108.65 102.692 108.859 102.827 108.958L102.879 108.988Z" fill="#303030"/>
<path d="M259.396 243.983H17.4669C14.2475 243.983 11.6367 240.909 11.6367 237.116V235.159C11.6367 231.367 14.2475 228.292 17.4669 228.292H259.396C262.616 228.292 265.226 231.367 265.226 235.159V237.116C265.226 240.909 262.616 243.983 259.396 243.983Z" fill="#B5EAFF"/>
<path d="M258.451 239.452H19.0453C15.1287 239.452 11.9533 236.925 11.9533 233.808V232.266C11.7477 232.795 11.6367 233.356 11.6367 233.938V238.338C11.6367 241.455 14.8121 243.983 18.7287 243.983H258.134C262.052 243.983 265.226 241.455 265.226 238.338V235.479C264.332 237.78 261.637 239.452 258.451 239.452Z" fill="#0781B1"/>
<path d="M121.124 231.16H183.348C184.561 231.16 185.544 230.001 185.544 228.573C185.544 227.145 184.561 225.987 183.348 225.987H121.124C119.912 225.987 118.928 227.145 118.928 228.573C118.928 230.001 119.912 231.16 121.124 231.16Z" fill="#005F85"/>
<path d="M142.527 231H201.502C203.765 231 205.857 228.946 206.175 226.413L210.924 188.587C211.242 186.054 209.666 184 207.403 184H148.426C146.164 184 144.072 186.054 143.754 188.587L139.006 226.413C138.688 228.946 140.264 231 142.527 231Z" fill="#0781B1"/>
<path d="M206.924 218L171.965 184H181.735L207.965 209.821L206.924 218Z" fill="#B5EAFF"/>
<path d="M158.499 184L205.965 227.104C205.62 228.293 204.881 229.32 203.94 230L154.965 184H158.499Z" fill="#B5EAFF"/>
<path d="M19.8663 215.858V215.417C19.8663 214.132 19.193 213.011 18.1933 212.414C17.9818 212.289 18.0593 212.014 18.3177 211.982C18.4474 211.966 18.5799 211.958 18.714 211.958H62.2009C64.0355 211.958 65.5231 213.507 65.5231 215.417V215.858C65.5231 217.77 64.0355 219.318 62.2009 219.318H18.714C18.5799 219.318 18.4474 219.309 18.3177 219.293C18.0593 219.26 17.9818 218.987 18.1933 218.861C19.193 218.265 19.8663 217.144 19.8663 215.858Z" fill="white"/>
<path d="M18.2143 211.699C18.3446 211.683 18.4765 211.675 18.6113 211.675H62.1936C64.0327 211.675 65.5232 213.237 65.5232 215.166V215.611C65.5232 217.489 64.1086 219.02 62.3358 219.099C58.8468 211.448 52.8229 214.128 19.2683 213.332C18.9763 212.838 18.5718 212.425 18.0899 212.136C17.8776 212.009 17.9551 211.732 18.2143 211.699Z" fill="#B3CAEA"/>
<path d="M26.0929 213.373H64.9027C64.9273 213.224 64.9504 213.236 64.9653 213.259C65.0003 213.311 65.0338 213.363 65.0659 213.416C65.1031 213.477 65.0651 213.562 65.001 213.656H26.0929C26.0497 213.562 26.0139 213.52 25.9707 213.47V213.316C26.0139 213.264 26.0497 213.224 26.0929 213.373Z" fill="#1B50A3"/>
<path d="M23.2886 215.072H65.4974C65.4974 215.072 65.5473 215.225 65.5234 215.262V215.413C65.5793 215.463 65.5435 215.505 65.4996 215.355H23.2886C23.2446 215.505 23.2089 215.463 23.0405 215.413V215.259C23.2089 215.208 23.2446 215.167 23.2886 215.072Z" fill="#1B50A3"/>
<path d="M22.3201 217.053H65.1754C65.2357 217.11 65.2737 217.184 65.2447 217.247C65.2201 217.3 65.194 217.352 65.1664 217.404C65.1523 217.431 65.1262 217.447 65.0987 217.336H22.3201C22.2769 217.447 22.2412 217.407 22.3082 217.356V217.202C22.2412 217.151 22.2769 217.11 22.3201 217.053Z" fill="#1B50A3"/>
<path d="M18.6747 219.601H62.12C64.234 219.601 65.9531 217.759 65.9531 215.496C65.9531 213.233 64.234 211.391 62.12 211.391H18.7067C18.525 211.391 18.3403 211.405 18.16 211.432C17.9596 211.462 17.8173 211.675 17.8434 211.907C17.8687 212.14 18.0535 212.304 18.2531 212.274C18.4028 212.252 18.5555 212.24 18.7067 212.24H62.082C63.863 212.24 65.3118 213.764 65.3118 215.638C65.3118 217.511 63.863 219.034 62.082 219.034H18.6747C18.6747 219.034 18.3931 218.862 18.2538 218.841C18.0684 218.814 17.8978 218.965 17.874 219.182C17.8501 219.397 17.9812 219.594 18.1674 219.622C18.335 219.647 18.6747 219.601 18.6747 219.601Z" fill="#00B7FF"/>
<path d="M24.1668 226.318V225.623C24.1668 223.595 23.4897 221.828 22.4849 220.887C22.2726 220.688 22.35 220.257 22.61 220.206C22.7403 220.18 22.8737 220.167 23.0078 220.167H66.7278C68.5729 220.167 70.0678 222.61 70.0678 225.623V226.318C70.0678 229.331 68.5729 231.773 66.7278 231.773H23.0078C22.8737 231.773 22.7403 231.76 22.61 231.735C22.35 231.684 22.2726 231.252 22.4849 231.053C23.4897 230.113 24.1668 228.345 24.1668 226.318Z" fill="white"/>
<path d="M22.5444 220.206C22.6755 220.18 22.8081 220.167 22.9437 220.167H66.7233C68.5706 220.167 70.0678 222.585 70.0678 225.569V226.257C70.0678 229.163 68.6474 231.532 66.8663 231.653C63.3617 219.816 57.3095 223.962 23.6036 222.731C23.3101 221.967 22.9034 221.328 22.4193 220.88C22.2062 220.683 22.2844 220.256 22.5444 220.206Z" fill="#B3CAEA"/>
<path d="M30.35 222.432H69.3356C69.3602 222.432 69.3832 222.454 69.3989 222.491C69.4339 222.577 69.4674 222.665 69.4994 222.755C69.5367 222.857 69.4994 222.998 69.4346 222.998H30.35C30.3068 222.998 30.271 222.929 30.271 222.844V222.586C30.271 222.501 30.3068 222.432 30.35 222.432Z" fill="#1B50A3"/>
<path d="M27.6647 225.546H69.9858C70.0178 225.607 70.0357 225.643 70.0677 225.704V225.958C70.0677 226.043 70.032 226.112 69.9888 226.112H27.6647C27.6207 226.112 27.585 226.043 27.585 225.958V225.699C27.585 225.614 27.6207 225.546 27.6647 225.546Z" fill="#1B50A3"/>
<path d="M26.6881 228.377H69.737C69.7974 228.377 69.8361 228.502 69.8063 228.605C69.7817 228.694 69.7557 228.782 69.7289 228.869C69.714 228.915 69.6879 228.942 69.6603 228.942H26.6881C26.6442 228.942 26.6084 228.874 26.6084 228.789V228.53C26.6084 228.445 26.6442 228.377 26.6881 228.377Z" fill="#1B50A3"/>
<path d="M22.9256 232.34H66.5428C68.63 232.34 70.3276 229.546 70.3276 226.112C70.3276 222.677 68.63 219.884 66.5428 219.884H22.9256C22.7573 219.884 22.5882 219.903 22.4228 219.941C22.2925 219.971 22.2008 220.184 22.2172 220.416C22.2344 220.649 22.355 220.813 22.4839 220.784C22.6291 220.75 22.7774 220.734 22.9256 220.734H66.5458C68.3708 220.734 69.8553 223.146 69.8553 226.112C69.8553 229.077 68.3708 231.491 66.5458 231.491H22.9256C22.7789 231.491 22.6299 231.473 22.4839 231.44C22.3543 231.41 22.2344 231.574 22.2172 231.807C22.2008 232.04 22.2925 232.252 22.4228 232.282C22.5897 232.32 22.7588 232.34 22.9256 232.34Z" fill="#5BD1FF"/>
<path d="M28.7879 228.436L26.7492 226.638L24.6367 228.436V222.432H28.7879V228.436Z" fill="#748DC6"/>
<path d="M29.0313 228.185L26.9926 226.387L24.8809 228.185V222.432H29.0313V228.185Z" fill="#00B7FF"/>
<path d="M26.6084 217.883L28.0475 216.538L29.5388 217.883V213.392H26.6084V217.883Z" fill="#748DC6"/>
<path d="M26.6084 217.696L28.0475 216.351L29.5388 217.696V213.392H26.6084V217.696Z" fill="#00B7FF"/>
<path d="M38.9758 198.929H36.3211C35.8771 198.929 35.5181 198.506 35.5181 197.983V197.603C35.5181 197.08 35.8771 196.656 36.3211 196.656H38.9758C39.4198 196.656 39.7795 197.08 39.7795 197.603V197.983C39.7795 198.506 39.4198 198.929 38.9758 198.929Z" fill="#00A3E3"/>
<path d="M52.6977 198.929H50.0422C49.599 198.929 49.2393 198.506 49.2393 197.983V197.603C49.2393 197.08 49.599 196.656 50.0422 196.656H52.6977C53.141 196.656 53.5007 197.08 53.5007 197.603V197.983C53.5007 198.506 53.141 198.929 52.6977 198.929Z" fill="#00A3E3"/>
<path d="M55.2475 210.836H33.345C31.9089 210.836 30.7446 209.465 30.7446 207.774V201.3C30.7446 199.609 31.9089 198.238 33.345 198.238H55.2475C56.6829 198.238 57.8479 199.609 57.8479 201.3V207.774C57.8479 209.465 56.6829 210.836 55.2475 210.836Z" fill="#00B7FF"/>
<path d="M54.2734 208.91H34.3195C33.1925 208.91 32.2793 207.834 32.2793 206.507V202.567C32.2793 201.24 33.1925 200.165 34.3195 200.165H54.2734C55.4004 200.165 56.3136 201.24 56.3136 202.567V206.507C56.3136 207.834 55.4004 208.91 54.2734 208.91Z" fill="black" stroke="#00A3E3" stroke-width="0.904763" stroke-miterlimit="10"/>
<path d="M38.3416 207.028V202.241H37.6533V201.442H39.0299V207.028H38.3416Z" fill="#FEFEFE"/>
<path d="M40.9659 207.028V202.241H40.2769V201.442H41.6541V207.028H40.9659Z" fill="#FEFEFE"/>
<path d="M44.4593 206.031H43.771V205.233H44.4593V206.031ZM44.4593 203.238H43.771V202.44H44.4593V203.238Z" fill="#FEFEFE"/>
<path d="M46.9031 207.028V202.241H46.2148V201.442H47.5922V207.028H46.9031Z" fill="#FEFEFE"/>
<path d="M49.597 207.028C49.2186 207.028 48.9087 206.654 48.9087 206.231V205.433H49.597V206.231H50.251V204.395H49.597C49.2186 204.395 48.9087 204.107 48.9087 203.773V201.442H50.8699V202.241H49.597V203.773H50.251C50.6294 203.773 50.9385 204.068 50.9385 204.395V206.231C50.9385 206.654 50.6294 207.028 50.251 207.028H49.597Z" fill="#FEFEFE"/>
<path d="M251.495 232.34C251.495 233.69 242.536 234.784 231.487 234.784C220.436 234.784 211.479 233.69 211.479 232.34C211.479 230.99 220.436 229.895 231.487 229.895C242.536 229.895 251.495 230.99 251.495 232.34Z" fill="#036085"/>
<path d="M234.783 229.775L231.641 228.458L248.238 173.539L226.056 132.818L228.863 130.697L251.93 173.04L234.783 229.775Z" fill="#0781B1"/>
<path d="M225.002 226.888H221.6C221.161 226.888 220.802 226.465 220.802 225.947V224.573C220.802 224.056 221.161 223.632 221.6 223.632H225.002C225.442 223.632 225.801 224.056 225.801 224.573V225.946C225.801 226.464 225.441 226.888 225.002 226.888Z" fill="#12ADEA"/>
<path d="M229.131 132.735L226.935 134.552L220.691 124.049L222.889 122.236L229.131 132.735Z" fill="#748DC6"/>
<path d="M231.457 134.035C231.188 136.428 229.182 138.091 226.977 137.748C224.773 137.404 223.204 135.183 223.473 132.79C223.742 130.396 225.747 128.733 227.951 129.076C230.156 129.42 231.726 131.639 231.457 134.035Z" fill="#1B50A3"/>
<path d="M230 133.808C229.828 135.328 228.555 136.384 227.155 136.166C225.755 135.947 224.759 134.538 224.93 133.018C225.101 131.497 226.374 130.442 227.773 130.66C229.174 130.879 230.17 132.287 230 133.808Z" fill="#043581"/>
<path d="M248.409 232.881V232.217C248.409 228.755 246.027 225.947 243.089 225.947H219.885C216.946 225.947 214.563 228.755 214.563 232.217V232.881H248.409Z" fill="#00719D"/>
<path d="M223.479 120.064C222.016 117.838 219.273 117.428 217.385 119.153L214.274 121.989L197.685 126.206C196.84 126.421 196.423 127.579 196.92 128.335L210.039 148.285C210.538 149.041 211.594 148.855 211.983 147.946L219.594 130.08L222.707 127.244C224.594 125.52 224.943 122.29 223.479 120.064Z" fill="#3D3D3D"/>
<path d="M222.291 118.827C220.8 117.769 218.84 117.827 217.385 119.153L214.274 121.989L197.685 126.206C196.84 126.421 196.423 127.579 196.92 128.335L208.847 146.472C209.366 146.667 210.007 146.394 210.292 145.728L217.904 127.863L221.016 125.026C222.643 123.541 223.123 120.941 222.291 118.827Z" fill="#006F9B"/>
<path d="M253.335 174.645C253.066 177.039 251.06 178.701 248.856 178.358C246.651 178.015 245.083 175.793 245.351 173.4C245.621 171.005 247.626 169.343 249.83 169.687C252.035 170.03 253.604 172.25 253.335 174.645Z" fill="#1B50A3"/>
<path d="M251.878 174.418C251.707 175.938 250.434 176.994 249.033 176.776C247.634 176.557 246.638 175.148 246.809 173.627C246.979 172.107 248.253 171.052 249.652 171.27C251.053 171.489 252.049 172.898 251.878 174.418Z" fill="#043581"/>
</g>
<defs>
<clipPath id="clip0_966_141">
<rect width="275" height="245" fill="white"/>
</clipPath>
</defs>
</svg>
