<svg width="1245" height="1070" viewBox="0 0 1245 1070" fill="none" xmlns="http://www.w3.org/2000/svg">
<path fill-rule="evenodd" clip-rule="evenodd" d="M0 211.211V248.974C0.183982 249.293 3.42666 278.117 3.91289 281.24C10.9863 326.68 29.8444 378.35 51.6725 419.393C77.8439 468.61 107.044 511.318 142.527 556.186L159.252 578.044C165.114 585.392 170.084 591.755 175.942 599.176C187.546 613.868 197.889 627.045 209.667 641.875C233.873 672.355 252.219 698.108 274.123 729.791C282.944 742.55 295.911 762.919 303.271 776.324C312.368 792.886 321.192 808.545 328.637 826.122C352.627 882.764 368.985 946.89 362.759 1009.2C359.763 1039.19 357.158 1043.07 350.363 1069.86H724.625C730.975 1064.29 738.397 1055.94 745.26 1051.72L768.169 1035.11C798.533 1014.36 843.207 995.603 879.044 984.936C1003.71 947.843 1105.6 951.314 1226.21 936.37C1231.7 935.688 1239.45 934.134 1245 933.929V478.866C1241.31 477.213 1233.3 469.996 1229.64 466.981L1221.51 461.12C1219.08 459.284 1216.95 457.324 1214.29 455.214L1154 408.737C1149.72 405.299 1143.34 399.321 1138.98 396.7C1134.02 393.712 1128.85 388.99 1124.27 385.128C1119.3 380.944 1114.37 377.061 1109.49 372.886C1099.67 364.479 1088.27 357.584 1079.65 348.594L1065.98 336.196C1060.55 331.66 1056.74 327.99 1051.61 323.608C1048.81 321.221 1048.21 319.644 1045.14 317.086C1042.64 315 1040.53 313.01 1038.24 310.927L1011.96 284.402C1009.62 282.145 1007.49 279.443 1005.34 277.27C1003.31 275.214 1001.45 272.878 999.25 270.405C987.314 257.02 974.557 241.454 963.902 226.847C933.358 184.966 908.501 138.618 896.01 89.3314C886.338 51.1564 888.385 36.8885 888.385 0H121.589C120.018 2.20916 99.7476 18.6712 93.2589 25.5151C77.6698 41.9681 73.6386 44.7604 57.7965 64.4986C31.6448 97.083 12.56 137.016 4.87223 176.4L0 211.211Z" fill="#F8F9FA"/>
</svg>
