<svg width="114" height="72" viewBox="0 0 114 72" fill="none" xmlns="http://www.w3.org/2000/svg">
<path d="M13.5938 51.832C14.4531 50.7383 14.8828 49.625 14.8828 48.4922L14.9414 18.5508C10.8789 18.5117 8.82812 18.4922 8.78906 18.4922C7.85156 18.4922 7.01172 18.8438 6.26953 19.5469C5.52734 20.25 4.96094 21.1289 4.57031 22.1836C4.17969 23.1992 3.84766 24.2148 3.57422 25.2305C3.33984 26.207 3.20312 27.1445 3.16406 28.043H2.05078L2.28516 17.1445C6.66016 17.2617 12.2266 17.3203 18.9844 17.3203C25.3516 17.3203 30.2539 17.2617 33.6914 17.1445L33.8672 28.043H32.6953C32.3438 21.793 30.7227 18.6484 27.832 18.6094L20.9766 18.5508L21.0352 48.4922C21.0352 49.8594 21.4062 50.9727 22.1484 51.832C22.7344 52.5352 24.3359 52.9062 26.9531 52.9453V54.0586H8.96484V52.9453C9.04297 52.9453 9.16016 52.9453 9.31641 52.9453C9.47266 52.9453 9.58984 52.9453 9.66797 52.9453C11.7383 52.9062 13.0469 52.5352 13.5938 51.832ZM68.2148 54H41.0273V53.0625C41.0273 53.1016 41.5742 53.1211 42.668 53.1211C44.582 53.1211 45.6367 52.6523 45.832 51.7148C46.1836 49.6055 46.3594 42.0664 46.3594 29.0977C46.3594 23.3945 46.2812 20.2695 46.125 19.7227C46.0469 19.293 45.3047 18.9219 43.8984 18.6094L41.7891 18.1992V17.1445C45.9297 17.2617 50.5391 17.3203 55.6172 17.3203C60.7344 17.3203 64.8945 17.2617 68.0977 17.1445L68.2734 25.6406H67.1602C66.9648 24.6641 66.6719 23.7266 66.2812 22.8281C65.8906 21.8906 65.2266 20.9727 64.2891 20.0742C63.3516 19.1367 62.2773 18.668 61.0664 18.668H51.8672V34.6055H60.5391C62.3359 34.6055 63.3125 33.0625 63.4688 29.9766H64.875V40.5234H63.7031C63.5078 37.4766 62.3945 35.9531 60.3633 35.9531H51.8672V49.957C51.8672 51.832 52.5508 52.7891 53.918 52.8281H62.7656C63.7812 52.7891 64.7578 51.9297 65.6953 50.25C66.6719 48.5312 67.2578 46.8125 67.4531 45.0938H68.7422L68.2148 54ZM88.9102 51.832C89.7695 50.7383 90.1992 49.625 90.1992 48.4922L90.2578 18.5508C86.1953 18.5117 84.1445 18.4922 84.1055 18.4922C83.168 18.4922 82.3281 18.8438 81.5859 19.5469C80.8438 20.25 80.2773 21.1289 79.8867 22.1836C79.4961 23.1992 79.1641 24.2148 78.8906 25.2305C78.6562 26.207 78.5195 27.1445 78.4805 28.043H77.3672L77.6016 17.1445C81.9766 17.2617 87.543 17.3203 94.3008 17.3203C100.668 17.3203 105.57 17.2617 109.008 17.1445L109.184 28.043H108.012C107.66 21.793 106.039 18.6484 103.148 18.6094L96.293 18.5508L96.3516 48.4922C96.3516 49.8594 96.7227 50.9727 97.4648 51.832C98.0508 52.5352 99.6523 52.9062 102.27 52.9453V54.0586H84.2812V52.9453C84.3594 52.9453 84.4766 52.9453 84.6328 52.9453C84.7891 52.9453 84.9062 52.9453 84.9844 52.9453C87.0547 52.9062 88.3633 52.5352 88.9102 51.832Z" fill="#373435"/>
</svg>
