<svg width="774" height="804" viewBox="0 0 774 804" fill="none" xmlns="http://www.w3.org/2000/svg">
<path d="M4.32499 803.714H774V0H418.135C332.974 13.8869 217.319 16.079 199.21 66.8231C160.066 176.512 271.834 237.272 199.21 302.815C126.585 368.355 -63.1819 457.627 30.5373 566.747C124.256 675.867 54.0253 673.441 30.5373 705.297C11.7442 730.785 -9.23223 767.788 4.32499 803.714Z" fill="#F8F9FA"/>
<path d="M609.89 743.552C602.893 743.552 597.019 738.636 596.577 732.247C596.12 725.615 601.694 719.9 609.032 719.468C609.414 719.442 625.335 718.326 646.366 710.566C674.434 700.209 697.947 683.505 716.244 660.918C720.597 655.546 728.953 654.377 734.901 658.311C740.853 662.24 742.145 669.783 737.792 675.156C686.411 738.577 613.796 743.357 610.73 743.53C610.446 743.545 610.167 743.552 609.89 743.552Z" fill="#7A8591"/>
<path d="M91.9033 526.235C91.9033 519.918 97.3468 514.611 104.421 514.215C111.767 513.799 118.095 518.83 118.574 525.459C118.602 525.805 119.837 540.182 128.429 559.175C139.897 584.524 158.393 605.756 183.405 622.282C189.357 626.212 190.648 633.759 186.295 639.132C181.943 644.504 173.588 645.672 167.639 641.741C97.4105 595.338 92.1188 529.765 91.9278 526.993C91.9112 526.737 91.9033 526.488 91.9033 526.235Z" fill="#7A8591"/>
<path d="M160.065 516.17L236.964 479.742L265.927 548.561L189.732 572.839L160.065 516.17Z" fill="#F7A285"/>
<path d="M184.816 513.163C184.816 513.163 209.014 508.659 219.303 513.163C229.595 517.667 238.39 545.293 238.39 545.293L289.111 548.561L243.221 470.7L195.664 491.045L184.816 513.163Z" fill="#F69481"/>
<path d="M201.612 255.388C162.63 270.849 144.906 311.921 162.024 347.124L292.562 615.573C309.682 650.774 355.162 666.783 394.141 651.322L774 500.68V28.3939L201.612 255.388Z" fill="#D4D3D1"/>
<path d="M713.709 490.78C699.385 490.78 687.771 480.291 687.771 467.355C687.771 465.661 687.971 464.008 688.348 462.415C690.802 472.103 700.4 479.326 711.869 479.326C725.195 479.326 735.998 469.573 735.998 457.541C735.998 456.732 735.949 455.934 735.853 455.148C738.263 458.703 739.651 462.884 739.651 467.355C739.651 480.291 728.035 490.78 713.709 490.78Z" fill="#B4B4B3"/>
<path d="M297.326 623.801C295.57 621.187 293.964 618.45 292.562 615.573L277.503 584.608L293.738 587.991L397.578 506.617L422.326 483.761C422.326 483.761 425.941 486.771 424.276 490.29C422.607 493.806 418.577 515.179 416.421 520.063C414.263 524.951 398.132 533.993 398.132 533.993C398.132 533.993 343.623 603.061 331.662 611.6C325.004 616.356 309.642 620.798 297.326 623.801Z" fill="#B4B4B3"/>
<path d="M326.562 471.266C318.881 471.266 298.566 468.983 298.566 468.983L213.947 453.899L199.21 423.593L201.78 415.908L252.2 425.828L333.329 446.849L347.793 452.366L346.681 460.152L338.033 463.669C338.033 463.669 333.888 470.712 328.324 471.206C327.861 471.25 327.265 471.266 326.562 471.266Z" fill="#B4B4B3"/>
<path d="M470.07 620.895L458.945 538.847L448.192 495.143L418.26 448.848L574.753 387.351C574.753 387.351 575.879 388.992 575.941 390.412C576.005 391.832 577.492 413.563 577.492 413.563L583.144 460.95L613.02 504.63L658.591 546.447L470.07 620.895Z" fill="#B4B4B3"/>
<path d="M575.249 416.3L441.273 468.57C438.578 469.624 437.337 472.447 438.5 474.882L476.684 554.705C477.848 557.138 480.978 558.258 483.672 557.207L617.649 504.941C620.344 503.89 621.587 501.063 620.419 498.628L582.239 418.806C581.072 416.372 577.946 415.252 575.249 416.3Z" fill="#E5E6E5"/>
<path d="M562.919 425.082L456.801 466.48C454.62 467.333 453.616 469.626 454.558 471.596L477.504 519.568C478.446 521.539 480.984 522.448 483.169 521.595L589.285 480.197C591.469 479.346 592.474 477.055 591.531 475.083L568.586 427.112C567.639 425.14 565.105 424.231 562.919 425.082Z" fill="#6C6D6D"/>
<path d="M547.029 501.199L529.064 508.207C526.799 509.091 525.752 511.47 526.732 513.514L533.15 526.938C534.13 528.982 536.761 529.926 539.029 529.04L556.994 522.033C559.265 521.146 560.306 518.773 559.324 516.726L552.906 503.304C551.928 501.257 549.298 500.315 547.029 501.199Z" fill="#CCCDCC"/>
<path d="M570.369 386.555L495.501 415.76L420.635 444.967C418.137 445.943 417.464 448.862 419.328 450.654L437.527 468.166C438.355 468.962 439.648 469.203 440.753 468.77L508.263 442.436L575.769 416.1C576.877 415.668 577.566 414.651 577.493 413.563L575.851 389.592C575.683 387.14 572.869 385.58 570.369 386.555Z" fill="#FEFEFE"/>
<path d="M577.493 413.563L575.856 389.706C574.828 388.847 573.181 388.547 571.613 389.157L496.746 418.366L421.881 447.573C420.317 448.185 419.427 449.471 419.412 450.739L437.526 468.166C438.355 468.962 439.648 469.204 440.753 468.77L508.263 442.436L575.769 416.1C576.877 415.668 577.565 414.651 577.493 413.563Z" fill="#838485"/>
<path d="M570.846 415.083L570.342 395.405C569.455 394.725 567.993 394.533 566.566 395.092L498.346 421.704L430.124 448.319C428.697 448.876 427.849 449.971 427.788 451.017L443.306 464.836C444.018 465.469 445.161 465.626 446.173 465.232L507.688 441.232L569.198 417.238C570.209 416.843 570.87 415.979 570.846 415.083Z" fill="#A7B6C4"/>
<path d="M504.489 559.439L498.413 533.092C498.413 533.092 504.137 516.363 503.705 513.174C503.267 509.987 497.004 490.006 497.004 490.006C497.004 490.006 492.788 489.6 491.89 491.631C490.988 493.664 491.89 503.445 491.89 503.445C491.89 503.445 488.739 500.369 487.838 498.539C487.157 497.155 485.701 483.426 485.033 476.837C484.833 474.854 482.991 473.341 480.786 473.341C478.642 473.341 476.833 474.779 476.558 476.7L475.459 484.439L468.258 485.737L464.884 492.851L457.307 507.483L462.076 523.997L472.76 536.747L475.009 559.439H504.489Z" fill="#EACBBA"/>
<path d="M606.559 520.063L586.472 500.182C586.472 500.182 568.104 494.573 565.498 492.387C562.895 490.203 548.63 473.915 548.63 473.915C548.63 473.915 550.734 470.591 553.085 471.122C555.437 471.654 563.685 478.041 563.685 478.041C563.685 478.041 562.774 473.934 561.66 472.205C560.817 470.896 549.348 461.788 543.825 457.441C542.16 456.131 541.883 453.898 543.172 452.285C544.43 450.715 546.782 450.23 548.668 451.157L556.251 454.886L561.637 450.374L569.997 452.071L587.569 455.097L599.599 468.261L604.783 483.55L623.824 498.488L606.559 520.063Z" fill="#EACBBA"/>
<path d="M421.897 497.2L298.584 536.862L267.107 457.051L390.422 417.388L421.897 497.2Z" fill="#FEFEFE"/>
<path d="M416.421 492.298L387.273 418.398L267.107 457.051L296.25 530.948L416.421 492.298Z" fill="#C6CDD8"/>
<path d="M415.43 491.283L292.116 530.945L260.641 451.13L383.953 411.468L415.43 491.283Z" fill="#FEFEFE"/>
<path d="M282.498 425.828L297.913 431.684C297.913 431.684 315.532 428.338 321.351 430.345C327.17 432.353 344.577 442.371 346.412 443.555C348.248 444.742 351.077 450.264 351.077 451.436C351.077 452.609 347.348 457.631 343.315 457.964C339.281 458.3 320.721 458.8 320.721 458.8C320.721 458.8 325.439 462.486 326.227 463.49C327.011 464.49 327.17 467.339 326.542 467.842C325.911 468.343 311.599 462.82 307.508 461.645C303.418 460.476 297.286 455.62 296.183 454.616C295.083 453.615 291.308 449.764 291.308 449.764L274.32 443.555L282.498 425.828Z" fill="#F8D1B3"/>
<path d="M379.689 538.847L390.419 527.264C390.419 527.264 407.777 522.948 411.932 518.755C416.083 514.562 414.762 507.929 415.792 506.114C416.82 504.301 415.308 492.582 416.197 491.726C419.397 488.646 423.907 485.639 426.554 483.007C431.228 478.359 427.884 476.263 425.526 477.124C421.772 478.496 396.936 493.723 396.936 493.723C396.936 493.723 399.261 488.497 399.451 487.278C399.64 486.061 398.336 483.465 397.523 483.279C396.709 483.095 386.787 493.925 383.746 496.658C380.704 499.395 377.716 506.245 377.247 507.594C376.777 508.944 375.374 513.928 375.374 513.928L363.427 526.473L379.689 538.847Z" fill="#F8D1B3"/>
<path d="M116.922 536.377C116.922 536.377 112.681 496.147 122.798 483.589C132.913 471.033 187.585 384.245 192.21 380.781C196.834 377.323 293.738 425.564 293.738 425.564C293.738 425.564 282.859 448.596 281.728 449.046C280.592 449.494 208.743 425.904 208.743 425.904L196.219 462.161L214.816 455.693L231.496 489.989C231.496 489.989 211.727 501.221 178.141 516.17C144.556 531.116 116.922 536.377 116.922 536.377Z" fill="#84C2D8"/>
<path d="M154.301 602.123C153.854 603.161 202.519 635.492 221.316 629.665C240.107 623.838 313.242 607.447 323.205 601.057C333.164 594.667 388.012 535.859 388.012 535.859L370.601 516.723L312.787 563.981L272.902 575.142L254.05 536.377C254.05 536.377 173.158 558.43 154.301 602.123Z" fill="#84C2D8"/>
<path d="M466.613 550.968L509.755 545.795L526.026 599.022L636.324 555.279L598.065 521.081L624.293 492.234L709.065 555.089C709.065 555.089 733.91 621.29 733.257 628.604C732.608 635.915 703.181 691.53 658.547 710.315C613.911 729.103 553.431 704.799 545.398 703.105C537.363 701.407 489.684 646.744 488.797 644.925C487.913 643.103 466.613 550.968 466.613 550.968Z" fill="#F29779"/>
<path d="M211.753 562.627C211.753 562.627 214.019 570.906 209.938 576.727C205.863 582.55 198.074 583.722 192.884 590.253C187.69 596.783 177.528 609.615 163.234 609.897C148.942 610.177 138.187 596.617 129.843 593.769C121.5 590.923 100.176 596.282 93.504 584.226C86.8292 572.169 102.587 551.909 92.2061 541.528C81.8227 531.145 83.3351 518.691 89.239 512.728C98.8348 503.031 111.487 502.096 126.136 509.63C140.781 517.166 149.128 511.557 155.803 509.546C162.475 507.536 173.785 506.79 178.051 508.506C182.317 510.217 185.205 516.979 185.205 516.979L211.753 562.627Z" fill="#323055"/>
<path d="M214.817 455.693L196.22 462.161L184.816 488.282C184.816 488.282 202.893 486.022 207.068 488.282C209.011 489.336 212.587 493.801 215.852 498.27C225.985 493.119 231.496 489.989 231.496 489.989L214.817 455.693Z" fill="#67AFC3"/>
<path d="M254.051 536.377C254.051 536.377 249.073 537.732 241.302 540.44C244.674 547.452 249.627 559.302 248.507 566.392C246.838 576.941 231.496 584.979 231.496 584.979L272.902 575.142L254.051 536.377Z" fill="#67AFC3"/>
<path d="M578.647 643.705C578.647 643.705 571.263 625.594 578.797 614.951C587.575 602.546 611.591 594.438 626.825 599.731C649.146 607.496 647.583 614.019 647.583 614.019L578.647 643.705Z" fill="#F8D1B3"/>
<path d="M658.437 615.697C658.437 615.697 642.303 599.974 618.313 603.438C594.32 606.897 588.987 611.455 588.987 611.455L595.225 611.297L584.083 618.99C584.083 618.99 570.894 638.471 571.247 652.315C571.596 666.153 578.853 675.011 578.853 675.011C578.853 675.011 581.683 688.561 588.775 694.368C595.864 700.175 612.939 706.344 625.826 705.145C638.714 703.945 649.941 697.776 649.941 697.776C649.941 697.776 660.863 697.114 669.053 688.296C677.242 679.471 676.626 669.963 676.626 669.963C676.626 669.963 684.425 661.248 684.842 656.099C685.258 650.954 680.901 637.949 680.901 637.949C680.901 637.949 675.416 616.477 658.437 615.697Z" fill="#753834"/>
<path d="M526.026 599.022L532.741 623.909L551.095 643.705C551.095 643.705 556.102 615.965 580.019 598.083C603.939 580.206 645.655 584.727 651.776 584.979C657.891 585.23 681.254 609.903 681.254 609.903L668.46 579.128L636.325 555.279L526.026 599.022Z" fill="#E3846B"/>
<path d="M725.846 644.925C725.843 644.929 680.667 697.407 638.98 707.797C602.448 716.902 558.083 706.445 547.665 703.721C561.364 707.828 616.863 727.859 658.547 710.315C690.316 696.944 714.381 664.915 725.846 644.925Z" fill="#E3846B"/>
<path d="M731.748 487.579C733.576 486.532 734.115 484.343 732.957 482.693L724.403 470.524L717.783 474.32L726.334 486.487C727.498 488.139 729.92 488.627 731.748 487.579Z" fill="#EF6F50"/>
<path d="M735.998 457.541C735.998 469.573 725.195 479.326 711.869 479.326C698.545 479.326 687.745 469.573 687.745 457.541C687.745 445.505 698.545 435.752 711.869 435.752C725.195 435.752 735.998 445.505 735.998 457.541Z" fill="#EF6F50"/>
<path d="M689.623 453.937C689.904 451.892 690.596 449.889 691.567 448.006C692.568 446.127 693.888 444.376 695.494 442.855C698.713 439.818 703.015 437.718 707.615 436.925C708.193 436.842 708.777 436.785 709.354 436.714C709.931 436.626 710.518 436.65 711.101 436.613C711.394 436.606 711.688 436.587 711.977 436.592L712.855 436.619C713.438 436.624 714.016 436.698 714.6 436.753C716.916 437.017 719.188 437.605 721.287 438.513C723.384 439.412 725.338 440.589 727.01 442.03C728.665 443.48 730.109 445.123 731.185 446.941C728.597 443.554 725.001 440.874 720.89 439.312C716.793 437.709 712.195 437.33 707.84 438.028C703.484 438.761 699.402 440.687 696.179 443.466C692.988 446.281 690.685 449.929 689.623 453.937Z" fill="#F7FBFE"/>
<path d="M731.366 457.541C731.366 467.262 722.641 475.146 711.869 475.146C701.105 475.146 692.375 467.262 692.375 457.541C692.375 447.814 701.105 439.933 711.869 439.933C722.641 439.933 731.366 447.814 731.366 457.541Z" fill="#976648"/>
<path d="M693.174 462.539C695.561 469.829 703.025 475.146 711.869 475.146C721.744 475.146 729.902 468.516 731.185 459.915C728.799 452.627 721.332 447.308 712.491 447.308C702.615 447.308 694.46 453.937 693.174 462.539Z" fill="#A67655"/>
<path d="M727.319 453.489C726.991 453.14 726.645 452.803 726.286 452.48C725.929 451.642 725.476 450.832 724.939 450.065L725.032 449.679L725.462 449.768C726.279 450.927 726.899 452.181 727.319 453.489Z" fill="#C7AFA0"/>
<path d="M711.869 472.065C711.015 472.065 710.156 472.004 709.316 471.884L709.059 471.565L709.412 471.33C710.222 471.446 711.046 471.507 711.869 471.507C720.396 471.507 727.334 465.241 727.334 457.54C727.334 455.793 726.976 454.082 726.286 452.479C726.645 452.803 726.991 453.14 727.319 453.489C727.739 454.795 727.954 456.16 727.954 457.54C727.954 465.55 720.738 472.065 711.869 472.065Z" fill="#CDB7A7"/>
<path d="M695.926 455.633C696.503 451.71 698.852 448.114 702.452 445.763L702.884 445.824L702.816 446.217C699.729 448.232 697.6 451.197 696.78 454.489C696.48 454.861 696.193 455.243 695.926 455.633Z" fill="#C7AFA0"/>
<path d="M700.149 467.355L699.916 467.262C697.252 464.591 695.785 461.14 695.785 457.541C695.785 456.898 695.831 456.263 695.925 455.633C696.193 455.243 696.48 454.861 696.779 454.49C696.532 455.483 696.402 456.506 696.402 457.541C696.402 461 697.815 464.319 700.379 466.888L700.357 467.283L700.149 467.355Z" fill="#CDB7A7"/>
<path d="M701.68 459.166L701.37 458.927C701.298 458.468 701.26 458.002 701.26 457.541C701.26 452.258 706.019 447.961 711.868 447.961C712.399 447.961 712.927 447.997 713.444 448.067L713.706 448.386L713.354 448.62C712.866 448.556 712.367 448.523 711.868 448.523C706.36 448.523 701.883 452.566 701.883 457.541C701.883 457.978 701.917 458.415 701.985 458.845L701.724 459.164L701.68 459.166Z" fill="#CDB7A7"/>
<path d="M711.869 467.12C708.906 467.12 706.059 465.987 704.052 464.017L704.073 463.619L704.513 463.637C706.399 465.492 709.08 466.559 711.869 466.559C714.628 466.559 717.292 465.514 719.173 463.69L719.612 463.677L719.626 464.069C717.628 466.008 714.801 467.12 711.869 467.12Z" fill="#CDB7A7"/>
<path d="M722.137 458.531H722.115L721.825 458.228L721.854 457.541C721.854 454.129 719.76 451.047 716.39 449.498L716.257 449.121L716.672 449C720.252 450.644 722.476 453.915 722.476 457.541C722.476 457.786 722.468 458.032 722.444 458.27L722.137 458.531Z" fill="#CDB7A7"/>
<path d="M711.869 464.973L711.56 464.694L711.869 464.411C714.561 464.411 716.998 463.17 718.392 461.084L718.815 460.989L718.92 461.374C717.417 463.627 714.781 464.973 711.869 464.973Z" fill="#CDB7A7"/>
<path d="M705.024 454.219L704.869 454.179L704.758 453.798C706.229 451.522 708.953 450.106 711.868 450.106C714.068 450.106 716.134 450.88 717.688 452.285V452.68H717.251C715.813 451.384 713.902 450.667 711.868 450.667C709.173 450.667 706.654 451.973 705.294 454.078L705.024 454.219Z" fill="#CDB7A7"/>
<path d="M224.029 536.377C223.484 535.199 220.247 534.728 217.097 534.549C205.106 514.471 174.748 513.769 174.748 513.769C174.748 513.769 172.323 522.369 185.262 536.627C198.203 550.887 198.119 579.127 198.119 579.127C198.119 579.127 204.929 575.84 211.816 568.995C217.569 563.279 223.236 554.875 220.825 543.794C222.737 540.941 224.618 537.632 224.029 536.377Z" fill="#F8D1B3"/>
<path d="M516.53 554.995L513.495 545.125C512.729 542.628 510.048 541.018 507.2 541.344L469.317 545.711C465.91 546.105 463.631 549.085 464.434 552.101L467.26 562.748C467.961 565.378 470.771 567.09 473.729 566.689L511.82 561.546C515.252 561.085 517.458 558.017 516.53 554.995Z" fill="#F8E0DF"/>
<path d="M585.308 515.756L594.167 522.156C596.41 523.775 599.627 523.663 601.722 521.895L629.61 498.331C632.119 496.212 632.035 492.59 629.429 490.568L620.236 483.429C617.967 481.666 614.58 481.762 612.436 483.652L584.883 507.956C582.4 510.144 582.602 513.798 585.308 515.756Z" fill="#F8E0DF"/>
<path d="M489.437 50.8042C494.631 55.0292 495.356 62.2362 490.947 67.2494C486.369 72.4555 477.997 73.333 472.224 69.2204C471.92 69.0063 459.264 60.2149 437.885 53.2696C409.353 44.0014 379.504 42.2012 349.172 47.9265C341.955 49.2862 334.879 45.1081 333.375 38.5892C331.867 32.0713 336.494 25.6852 343.711 24.3228C428.891 8.25354 486.385 48.5882 488.791 50.3106L489.437 50.8042Z" fill="#7A8591"/>
<path d="M611.393 182.168C597.069 182.168 585.455 171.682 585.455 158.743C585.455 157.739 585.526 156.751 585.659 155.782C587.302 166.373 597.375 174.525 609.555 174.525C622.877 174.525 633.679 164.772 633.679 152.736C633.679 149.736 633.008 146.875 631.793 144.271C635.263 148.254 637.332 153.281 637.332 158.743C637.332 171.682 625.72 182.168 611.393 182.168Z" fill="#B4B4B3"/>
<path d="M243.398 358.142C233.143 358.142 224.277 352.768 220.068 344.967L226.688 341.254C231.109 345.825 237.614 348.713 244.862 348.713C257.089 348.713 267.193 340.501 268.776 329.851C269.141 331.422 269.337 333.05 269.337 334.719C269.337 347.654 257.723 358.142 243.398 358.142ZM217.704 337.956C217.54 336.899 217.456 335.816 217.456 334.719C217.456 330.265 218.833 326.105 221.221 322.559C220.905 323.971 220.736 325.43 220.736 326.925C220.736 329.867 221.383 332.677 222.553 335.237L217.704 337.956Z" fill="#B4B4B3"/>
<path d="M470.37 253.298L372.741 282.649C366.916 284.401 363.766 290.086 365.705 295.351L385.19 348.204C387.13 353.466 393.424 356.312 399.252 354.559L496.881 325.21C502.707 323.457 505.859 317.771 503.918 312.51L484.433 259.653C482.492 254.393 476.197 251.547 470.37 253.298Z" fill="#6B7D8E"/>
<path d="M377.987 283.78C373.655 285.08 371.31 289.323 372.751 293.232L392.236 346.087C393.678 349.995 398.368 352.12 402.701 350.815L495.983 322.772C500.313 321.471 502.661 317.231 501.219 313.32L481.734 260.466C480.293 256.556 475.599 254.434 471.269 255.735L377.987 283.78ZM497.778 327.647L400.149 356.999C392.845 359.194 384.923 355.613 382.492 349.016L363.007 296.16C360.573 289.562 364.539 282.41 371.844 280.215L469.472 250.862C476.778 248.665 484.701 252.245 487.132 258.842L506.616 311.699C509.049 318.296 505.082 325.45 497.778 327.647Z" fill="#F7FBFE"/>
<path d="M381.573 319.934C382.177 321.576 381.194 323.348 379.38 323.895C377.562 324.44 375.601 323.552 374.995 321.913C374.39 320.272 375.374 318.499 377.188 317.953C379.006 317.408 380.97 318.296 381.573 319.934Z" fill="#D4D3D1"/>
<path d="M374.224 326.587L291.781 219.63L489.244 141.319L508.265 184.26L506.038 204.972L361.51 252.585L377.468 278.524L371.844 280.215C364.539 282.41 360.573 289.562 363.007 296.16L374.224 326.587Z" fill="#B4B4B3"/>
<path d="M389.208 337.874L372.751 293.232C371.31 289.323 373.654 285.08 377.987 283.78L380.277 283.092L389.697 298.404L413.678 304.509L425.386 329.628L389.208 337.874Z" fill="#747F88"/>
<path d="M383.864 339.091L374.224 326.587L363.007 296.16C360.573 289.562 364.539 282.41 371.844 280.215L377.468 278.524L380.277 283.092L377.987 283.78C373.655 285.08 371.31 289.323 372.751 293.232L389.208 337.874L383.864 339.091ZM378.285 317.792C377.923 317.792 377.553 317.846 377.188 317.953C375.374 318.499 374.39 320.272 374.995 321.913C375.481 323.226 376.832 324.055 378.285 324.055C378.647 324.055 379.017 324.002 379.38 323.895C381.194 323.348 382.177 321.576 381.573 319.934C381.092 318.622 379.739 317.792 378.285 317.792Z" fill="#C9CCCC"/>
<path d="M378.285 324.055C376.832 324.055 375.481 323.227 374.995 321.913C374.39 320.272 375.374 318.499 377.188 317.953C377.553 317.846 377.923 317.792 378.285 317.792C379.739 317.792 381.092 318.622 381.573 319.934C382.177 321.576 381.194 323.348 379.38 323.895C379.017 324.002 378.647 324.055 378.285 324.055Z" fill="#B4B4B3"/>
<path d="M420.249 316.263L401.172 308.353C400.212 307.955 399.074 308.216 398.438 308.977L398.246 309.206C397.373 310.25 397.81 311.756 399.136 312.286L418.402 319.967C419.482 320.397 420.745 320 421.3 319.06C421.906 318.029 421.425 316.749 420.249 316.263Z" fill="#FFF5E9"/>
<path d="M379.222 204.972C379.222 204.972 373.612 207.099 368.349 207.712C363.088 208.32 356.414 205.702 351.964 206.341C347.516 206.981 336.391 214.014 336.391 214.014L332.125 223.39L329.53 238.795L348.627 245.827C348.627 245.827 353.54 247.814 361.51 243.964C369.487 240.112 383.864 228.915 383.864 228.915L393.494 224.397L379.222 204.972Z" fill="#EACBBA"/>
<path d="M392.583 292.002L405.595 296.094C405.595 296.094 412.422 302.688 413.678 304.509C414.939 306.327 413.678 311.786 413.678 311.786C413.678 311.786 418.213 315.878 417.962 319.742C417.708 323.61 410.902 328.839 402.342 329.067C393.788 329.293 384.72 330.205 382.707 329.067C380.695 327.928 371.122 310.534 371.122 310.534L357.527 293.594L383.968 281.996L392.583 292.002Z" fill="#EACBBA"/>
<path d="M510.844 179.249C505.366 152.839 502.86 93.6017 497.392 85.1915C490.239 74.192 473.727 58.7685 447.635 49.5834C447.635 49.5834 336.17 40.8893 310.631 55.0876C285.092 69.2859 275.79 193.956 275.846 199.631C275.902 205.306 361.708 303.929 361.708 303.929L388.937 284.654L333.866 202.94L456.251 154.408L458.444 168.183L372.996 203.791L389.94 231.16L499.365 196.935C507.535 194.443 512.431 186.905 510.844 179.249Z" fill="#E85266"/>
<path d="M374.797 294.665L364.481 296.644L276.525 201.238L361.708 303.929L374.797 294.665Z" fill="#CA4459"/>
<path d="M510.963 184.26C510.748 184.534 505.592 190.966 497.697 193.669C489.631 196.432 395.055 222.553 395.055 222.553L383.863 221.341L389.94 231.16L499.364 196.935C505.726 194.993 510.086 189.991 510.963 184.26Z" fill="#CA4459"/>
<path d="M333.865 202.94L351.407 85.9223C351.407 85.9223 401.84 81.2346 415.931 85.9223C430.023 90.6108 451.083 99.113 451.083 99.113L456.251 154.408L333.865 202.94Z" fill="#CA4459"/>
<path d="M318.776 63.4845C318.776 63.4845 345.433 92.9665 346.009 121.926C346.587 150.889 356.971 138.833 356.971 138.833L351.408 85.9222C351.408 85.9222 337.686 68.8436 318.776 63.4845Z" fill="#CA4459"/>
<path d="M452.222 111.319C452.222 111.319 446.339 80.2279 463.024 65.1609C463.024 65.1609 441.887 73.5295 435.587 95.2984C429.282 117.066 452.222 111.319 452.222 111.319Z" fill="#CA4459"/>
<path d="M428.742 89.3537C429.621 89.0644 428.065 110.564 428.065 110.564L420.258 121.542C420.258 121.542 402.097 133.258 398.692 134.686C395.288 136.112 375.481 136.381 375.481 136.381C375.481 136.381 369.553 138.944 366.752 137.774C363.952 136.602 360.997 127.688 360.997 127.688C360.997 127.688 350.016 122.334 350.401 101.824C350.785 81.3106 379.671 72.3396 379.671 72.3396L428.742 89.3537Z" fill="#EACBBA"/>
<path d="M358.07 51.2403C358.07 51.2403 351.333 48.7519 347.494 53.3962C343.651 58.0414 350.153 66.6798 350.153 66.6798L358.07 51.2403Z" fill="#EACBBA"/>
<path d="M447.655 90.3578C447.655 90.3578 452.654 91.6255 452.703 95.4294C452.759 99.2342 443.055 108.521 436.316 107.829C429.576 107.141 447.655 90.3578 447.655 90.3578Z" fill="#EACBBA"/>
<path d="M347.209 95.385C347.209 95.385 343.416 58.2704 356.833 40.6345C370.248 22.9994 384.936 19.9306 384.936 19.9306C384.936 19.9306 398.861 11.7186 416.398 17.3015C433.938 22.8817 449.21 37.6064 454.852 53.1254C460.492 68.6409 452.364 91.122 442.867 102.061C433.369 113.003 420.258 121.542 420.258 121.542C420.258 121.542 425.681 107.157 419.344 106.258C419.344 106.258 393.893 123.684 376.901 122.719C359.914 121.755 356.653 118.636 356.653 118.636C356.653 118.636 377.41 114.157 386.066 107.691C386.066 107.691 361.834 114.222 350.782 113.985L358.951 104.685L353.317 107.151C353.317 107.151 347.632 102.586 347.209 95.385Z" fill="#464B55"/>
<path d="M409.853 311.815L388.637 303.02C387.569 302.578 386.302 302.865 385.597 303.713L385.384 303.969C384.415 305.131 384.896 306.806 386.373 307.393L407.802 315.934C409.001 316.41 410.402 315.973 411.02 314.926C411.694 313.778 411.16 312.354 409.853 311.815Z" fill="#FFF5E9"/>
<path d="M556.842 372.246H687.744V287.521H556.842V372.246Z" fill="#FEFEFE"/>
<path d="M556.842 365.965H684.406V287.521H556.842V365.965Z" fill="#C6CDD8"/>
<path d="M552.951 364.711H683.849V279.985H552.951V364.711Z" fill="#FEFEFE"/>
<path d="M710.78 276.518L581.411 294.542L567.108 210.807L696.48 192.784L710.78 276.518Z" fill="#FEFEFE"/>
<path d="M706.423 270.772L693.18 193.242L567.108 210.807L580.352 288.335L706.423 270.772Z" fill="#C6CDD8"/>
<path d="M705.661 269.608L576.291 287.631L561.987 203.896L691.356 185.873L705.661 269.608Z" fill="#FEFEFE"/>
<path d="M213.361 344.561C214.504 346.223 216.92 346.732 218.761 345.702L232.315 338.099L228.179 332.083L214.624 339.685C212.783 340.716 212.217 342.901 213.361 344.561Z" fill="#EF6F50"/>
<path d="M268.991 326.925C268.991 338.957 258.186 348.713 244.863 348.713C231.539 348.713 220.736 338.957 220.736 326.925C220.736 314.892 231.539 305.137 244.863 305.137C258.186 305.137 268.991 314.892 268.991 326.925Z" fill="#EF6F50"/>
<path d="M222.618 323.323C222.897 321.276 223.59 319.276 224.561 317.387C225.562 315.511 226.882 313.758 228.491 312.239C231.711 309.203 236.009 307.103 240.61 306.311C241.187 306.229 241.768 306.169 242.349 306.097C242.926 306.013 243.515 306.035 244.095 306C244.388 305.991 244.68 305.971 244.971 305.976L245.85 306.005C246.433 306.011 247.01 306.081 247.594 306.137C249.907 306.403 252.183 306.991 254.281 307.897C256.378 308.798 258.333 309.973 260.002 311.414C261.66 312.866 263.106 314.508 264.179 316.325C261.589 312.938 257.995 310.258 253.884 308.697C249.785 307.093 245.189 306.716 240.834 307.412C236.478 308.145 232.393 310.074 229.173 312.853C225.982 315.666 223.68 319.316 222.618 323.323Z" fill="#F7FBFE"/>
<path d="M264.363 326.925C264.363 336.649 255.631 344.533 244.863 344.533C234.098 344.533 225.365 336.649 225.365 326.925C225.365 317.2 234.098 309.317 244.863 309.317C255.631 309.317 264.363 317.2 264.363 326.925Z" fill="#976648"/>
<path d="M226.171 331.925C228.554 339.213 236.018 344.533 244.862 344.533C254.737 344.533 262.895 337.901 264.178 329.302C261.792 322.014 254.327 316.692 245.484 316.692C235.608 316.692 227.453 323.323 226.171 331.925Z" fill="#A67655"/>
<path d="M260.317 322.875C259.986 322.528 259.642 322.19 259.282 321.866C258.921 321.028 258.469 320.219 257.93 319.453L258.026 319.065L258.455 319.153C259.272 320.313 259.897 321.569 260.317 322.875Z" fill="#C7AFA0"/>
<path d="M244.863 341.453C244.008 341.453 243.151 341.389 242.31 341.268L242.054 340.948L242.409 340.717C243.214 340.833 244.04 340.89 244.863 340.89C253.391 340.89 260.331 334.626 260.331 326.925C260.331 325.181 259.972 323.467 259.283 321.866C259.643 322.19 259.987 322.528 260.318 322.875C260.733 324.182 260.95 325.543 260.95 326.925C260.95 334.934 253.733 341.453 244.863 341.453Z" fill="#CDB7A7"/>
<path d="M228.916 325.02C229.496 321.097 231.845 317.498 235.442 315.147L235.877 315.211L235.806 315.6C232.724 317.617 230.593 320.583 229.773 323.879C229.473 324.247 229.187 324.63 228.916 325.02Z" fill="#C7AFA0"/>
<path d="M233.141 336.741L232.91 336.646C230.247 333.976 228.776 330.523 228.776 326.925C228.776 326.285 228.825 325.649 228.916 325.02C229.188 324.63 229.474 324.247 229.774 323.878C229.526 324.869 229.397 325.892 229.397 326.925C229.397 330.387 230.81 333.703 233.373 336.272L233.352 336.667L233.141 336.741Z" fill="#CDB7A7"/>
<path d="M234.675 328.55L234.366 328.31C234.292 327.855 234.255 327.388 234.255 326.925C234.255 321.642 239.013 317.345 244.863 317.345C245.394 317.345 245.922 317.382 246.438 317.45L246.7 317.768L246.348 318.006C245.86 317.941 245.361 317.906 244.863 317.906C239.357 317.906 234.877 321.953 234.877 326.925C234.877 327.362 234.911 327.801 234.982 328.231L234.716 328.548L234.675 328.55Z" fill="#CDB7A7"/>
<path d="M244.863 336.505C241.902 336.505 239.054 335.373 237.047 333.402L237.067 333.006L237.504 333.023C239.393 334.879 242.074 335.943 244.863 335.943C247.622 335.943 250.284 334.897 252.167 333.073L252.606 333.061L252.62 333.456C250.625 335.393 247.795 336.505 244.863 336.505Z" fill="#CDB7A7"/>
<path d="M255.131 327.918L255.109 327.915L254.82 327.615L254.851 326.925C254.851 323.513 252.757 320.43 249.384 318.88L249.251 318.504L249.664 318.383C253.248 320.027 255.47 323.302 255.47 326.925C255.47 327.173 255.462 327.414 255.438 327.657L255.131 327.918Z" fill="#CDB7A7"/>
<path d="M244.863 334.356L244.551 334.077L244.863 333.796C247.556 333.796 249.992 332.552 251.384 330.471L251.809 330.376L251.915 330.76C250.409 333.013 247.776 334.356 244.863 334.356Z" fill="#CDB7A7"/>
<path d="M238.018 323.602L237.861 323.565L237.749 323.18C239.223 320.905 241.947 319.492 244.863 319.492C247.063 319.492 249.128 320.267 250.682 321.669V322.063H250.245C248.807 320.767 246.896 320.053 244.863 320.053C242.167 320.053 239.649 321.36 238.288 323.465L238.018 323.602Z" fill="#CDB7A7"/>
<path d="M636.445 128.289C634.91 126.906 632.43 126.906 630.896 128.289L619.614 138.48L625.158 143.489L636.445 133.298C637.973 131.915 637.973 129.673 636.445 128.289Z" fill="#EF6F50"/>
<path d="M633.679 152.736C633.679 164.772 622.877 174.525 609.555 174.525C596.228 174.525 585.426 164.772 585.426 152.736C585.426 140.704 596.228 130.948 609.555 130.948C622.877 130.948 633.679 140.704 633.679 152.736Z" fill="#EF6F50"/>
<path d="M587.306 149.138C587.587 147.091 588.278 145.088 589.252 143.202C590.253 141.324 591.572 139.574 593.18 138.051C596.4 135.015 600.7 132.916 605.297 132.124C605.875 132.041 606.455 131.98 607.037 131.91C607.614 131.825 608.204 131.849 608.785 131.811C609.08 131.804 609.367 131.783 609.662 131.788L610.538 131.817C611.121 131.823 611.701 131.894 612.279 131.951C614.595 132.215 616.872 132.802 618.966 133.712C621.067 134.61 623.021 135.785 624.693 137.226C626.349 138.679 627.794 140.32 628.868 142.137C626.277 138.749 622.683 136.07 618.572 134.507C614.474 132.905 609.878 132.528 605.526 133.223C601.167 133.957 597.085 135.883 593.862 138.665C590.67 141.478 588.368 145.128 587.306 149.138Z" fill="#F7FBFE"/>
<path d="M629.049 152.736C629.049 162.46 620.319 170.344 609.555 170.344C598.784 170.344 590.055 162.46 590.055 152.736C590.055 143.012 598.784 135.129 609.555 135.129C620.319 135.129 629.049 143.012 629.049 152.736Z" fill="#976648"/>
<path d="M590.86 157.737C593.244 165.025 600.71 170.344 609.555 170.344C619.43 170.344 627.584 163.713 628.869 155.113C626.485 147.825 619.02 142.507 610.174 142.507C600.298 142.507 592.144 149.138 590.86 157.737Z" fill="#A67655"/>
<path d="M625.002 148.684C624.672 148.337 624.328 147.999 623.972 147.675C623.611 146.838 623.159 146.031 622.619 145.264L622.717 144.877L623.144 144.964C623.961 146.126 624.582 147.378 625.002 148.684Z" fill="#C7AFA0"/>
<path d="M609.555 167.264C608.697 167.264 607.838 167.203 607.002 167.082L606.741 166.76L607.098 166.529C607.903 166.645 608.732 166.703 609.555 166.703C618.083 166.703 625.02 160.438 625.02 152.736C625.02 150.992 624.661 149.279 623.972 147.675C624.328 147.999 624.672 148.337 625.002 148.684C625.423 149.994 625.638 151.356 625.638 152.736C625.638 160.746 618.424 167.264 609.555 167.264Z" fill="#CDB7A7"/>
<path d="M593.608 150.829C594.188 146.906 596.537 143.31 600.134 140.959L600.568 141.023L600.496 141.412C597.412 143.431 595.282 146.397 594.463 149.691C594.163 150.06 593.876 150.439 593.608 150.829Z" fill="#C7AFA0"/>
<path d="M597.831 162.551L597.603 162.46C594.935 159.79 593.469 156.335 593.469 152.736C593.469 152.096 593.518 151.458 593.609 150.829C593.876 150.439 594.163 150.06 594.463 149.691C594.215 150.681 594.087 151.704 594.087 152.736C594.087 156.199 595.498 159.518 598.061 162.085L598.039 162.482L597.831 162.551Z" fill="#CDB7A7"/>
<path d="M599.364 154.364L599.055 154.125C598.984 153.666 598.947 153.201 598.947 152.736C598.947 147.453 603.705 143.159 609.555 143.159C610.083 143.159 610.611 143.193 611.13 143.266L611.39 143.581L611.037 143.818C610.552 143.752 610.051 143.718 609.555 143.718C604.047 143.718 599.566 147.765 599.566 152.736C599.566 153.174 599.604 153.614 599.671 154.043L599.408 154.362L599.364 154.364Z" fill="#CDB7A7"/>
<path d="M609.555 162.316C606.591 162.316 603.743 161.186 601.739 159.212L601.757 158.817L602.194 158.836C604.082 160.69 606.765 161.755 609.555 161.755C612.312 161.755 614.976 160.709 616.857 158.885L617.295 158.872L617.312 159.268C615.31 161.204 612.484 162.316 609.555 162.316Z" fill="#CDB7A7"/>
<path d="M619.818 153.726H619.798L619.511 153.426L619.541 152.736C619.541 149.325 617.446 146.241 614.077 144.696L613.939 144.317L614.354 144.195C617.936 145.838 620.16 149.111 620.16 152.736C620.16 152.984 620.151 153.226 620.13 153.469L619.818 153.726Z" fill="#CDB7A7"/>
<path d="M609.555 160.172L609.242 159.89L609.555 159.61C612.245 159.61 614.684 158.364 616.072 156.282L616.501 156.187L616.607 156.572C615.097 158.825 612.463 160.172 609.555 160.172Z" fill="#CDB7A7"/>
<path d="M602.708 149.416L602.552 149.378L602.439 148.992C603.913 146.719 606.637 145.304 609.555 145.304C611.751 145.304 613.82 146.079 615.372 147.48V147.878H614.935C613.497 146.579 611.586 145.866 609.555 145.866C606.857 145.866 604.338 147.171 602.975 149.277L602.708 149.416Z" fill="#CDB7A7"/>
</svg>
